<svg class="main-svg" xmlns="http://www.w3.org/2000/svg" xmlns:xlink="http://www.w3.org/1999/xlink" width="600" height="205" style="" viewBox="0 0 600 205"><rect x="0" y="0" width="600" height="205" style="fill: rgb(255, 255, 255); fill-opacity: 1;"/><defs id="defs-3ec283"><g class="clips"><clipPath id="clip3ec283xyplot" class="plotclip"><rect width="568" height="173"/></clipPath><clipPath class="axesclip" id="clip3ec283x"><rect x="17" y="0" width="568" height="205"/></clipPath><clipPath class="axesclip" id="clip3ec283y"><rect x="0" y="15" width="600" height="173"/></clipPath><clipPath class="axesclip" id="clip3ec283xy"><rect x="17" y="15" width="568" height="173"/></clipPath></g><g class="gradients"/><g class="patterns"/></defs><g class="bglayer"/><g class="layer-below"><g class="imagelayer"/><g class="shapelayer"/></g><g class="cartesianlayer"><g class="subplot xy"><g class="layer-subplot"><g class="shapelayer"/><g class="imagelayer"/></g><g class="minor-gridlayer"><g class="x"/><g class="y"/></g><g class="gridlayer"><g class="x"/><g class="y"/></g><g class="zerolinelayer"/><path class="xlines-below"/><path class="ylines-below"/><g class="overlines-below"/><g class="xaxislayer-below"/><g class="yaxislayer-below"/><g class="overaxes-below"/><g class="plot" transform="translate(17,15)" clip-path="url(#clip3ec283xyplot)"><g class="scatterlayer mlayer"><g class="trace scatter tracea55783" style="stroke-miterlimit: 2; opacity: 1;"><g class="fills"/><g class="errorbars"/><g class="lines"><path class="js-line" d="M0,24L17.67,21.17L17.72,21.16L56.58,15.06L56.64,15.06L75.89,12.42L75.95,12.42L108.67,9.3L108.73,9.3L132.24,8.66L132.3,8.66L151.84,9.41L151.9,9.42L171.89,11.34L171.95,11.35L229.04,18.52L229.1,18.54L235.91,20.91L235.97,20.93L243.92,25L243.98,25.04L252.22,30.75L252.27,30.79L302.83,71.74L302.89,71.78L331.97,96.63L332.03,96.69L354.87,117.83L354.92,117.89L366.28,128.33L366.34,128.39L387.13,145.79L387.19,145.83L398.15,153.28L398.21,153.31L409.34,159L409.4,159.03L418.94,162.16L419,162.17L429.22,163.82L429.28,163.82L439.68,164.29L439.73,164.29L453.48,164.35L453.54,164.35L505.17,163.6L505.23,163.59L516.25,162.2L516.31,162.19L531.19,158.81L531.25,158.79L548.63,152.91L548.69,152.88L561.69,147.5L561.75,147.47L568,144.68" style="vector-effect: non-scaling-stroke; fill: none; stroke: rgb(148, 103, 189); stroke-opacity: 1; stroke-width: 3px; opacity: 1;"/></g><g class="points"/><g class="text"/></g></g></g><g class="overplot"/><path class="xlines-above crisp" d="M14,189.5H585" style="fill: none; stroke-width: 3px; stroke: rgb(36, 36, 36); stroke-opacity: 1;"/><path class="ylines-above crisp" d="M15.5,15V188" style="fill: none; stroke-width: 3px; stroke: rgb(36, 36, 36); stroke-opacity: 1;"/><g class="overlines-above"/><g class="xaxislayer-above"/><g class="yaxislayer-above"/><g class="overaxes-above"/></g></g><g class="polarlayer"/><g class="smithlayer"/><g class="ternarylayer"/><g class="geolayer"/><g class="funnelarealayer"/><g class="pielayer"/><g class="iciclelayer"/><g class="treemaplayer"/><g class="sunburstlayer"/><g class="glimages"/><defs id="topdefs-3ec283"><g class="clips"/></defs><g class="layer-above"><g class="imagelayer"/><g class="shapelayer"><path data-index="0" fill-rule="evenodd" d="M146.78,188L146.78,15" clip-path="url(#clip3ec283x)" style="opacity: 1; stroke: rgb(228, 26, 28); stroke-opacity: 1; fill: rgb(0, 0, 0); fill-opacity: 1; stroke-width: 3px;"/></g></g><g class="infolayer"><g class="g-gtitle"/><g class="g-xtitle"/><g class="g-ytitle"/></g></svg>