<svg class="main-svg" xmlns="http://www.w3.org/2000/svg" xmlns:xlink="http://www.w3.org/1999/xlink" width="800" height="600" style="" viewBox="0 0 800 600"><rect x="0" y="0" width="800" height="600" style="fill: rgb(255, 255, 255); fill-opacity: 1;"/><defs id="defs-e20b88"><g class="clips"><clipPath id="clipe20b88xyplot" class="plotclip"><rect width="612" height="395"/></clipPath><clipPath class="axesclip" id="clipe20b88x"><rect x="108" y="0" width="612" height="600"/></clipPath><clipPath class="axesclip" id="clipe20b88y"><rect x="0" y="100" width="800" height="395"/></clipPath><clipPath class="axesclip" id="clipe20b88xy"><rect x="108" y="100" width="612" height="395"/></clipPath></g><g class="gradients"/><g class="patterns"/></defs><g class="bglayer"/><g class="layer-below"><g class="imagelayer"/><g class="shapelayer"/></g><g class="cartesianlayer"><g class="subplot xy"><g class="layer-subplot"><g class="shapelayer"/><g class="imagelayer"/></g><g class="minor-gridlayer"><g class="x"/><g class="y"/></g><g class="gridlayer"><g class="x"/><g class="y"/></g><g class="zerolinelayer"/><path class="xlines-below"/><path class="ylines-below"/><g class="overlines-below"/><g class="xaxislayer-below"/><g class="yaxislayer-below"/><g class="overaxes-below"/><g class="plot" transform="translate(108,100)" clip-path="url(#clipe20b88xyplot)"><g class="scatterlayer mlayer"><g class="trace scatter trace8ddc28" style="stroke-miterlimit: 2; opacity: 1;"><g class="fills"/><g class="errorbars"/><g class="lines"><path class="js-line" d="M0,3.91L5.04,4.66L5.04,4.67L9.74,6.69L9.74,6.7L14.31,9.82L14.31,9.82L14.32,9.83L21.67,16.91L21.67,16.91L21.68,16.92L34.52,33.37L34.52,33.38L40.66,41.91L40.66,41.92L50.27,54.49L50.28,54.49L56.5,61.36L56.51,61.36L63.46,67.26L63.47,67.26L68.44,70.14L68.45,70.14L74.75,72.04L74.76,72.04L80.53,72.06L80.53,72.06L80.54,72.05L86.19,70.55L86.19,70.55L86.2,70.54L91.16,68.1L91.16,68.09L97.69,63.51L97.69,63.5L104.43,57.52L104.43,57.51L114.08,47.66L114.08,47.65L135.97,26.36L135.98,26.36L142.91,21.55L142.92,21.55L149.74,18.22L149.75,18.22L155.4,16.61L155.41,16.61L161.77,16.1L161.77,16.1L161.78,16.1L167.79,16.85L167.79,16.85L167.8,16.86L174.17,18.89L174.18,18.9L182.57,23.29L182.57,23.3L191.44,29.62L191.44,29.63L201.22,37.89L201.22,37.9L217.27,52.24L217.27,52.25L234.77,65.94L234.77,65.94L234.78,65.94L242.99,71.17L243,71.17L255.29,77.86L255.29,77.86L255.3,77.86L278.55,91.46L278.55,91.47L284.97,96.82L284.97,96.82L284.98,96.83L292.77,104.97L292.77,104.98L301.27,116.33L301.27,116.34L308.11,127.51L308.11,127.53L313.71,138.05L313.71,138.07L318.33,147.65L318.33,147.67L324.58,161.84L324.58,161.85L342.83,209.19L342.83,209.2L376.98,299.87L376.99,299.88L384.31,316.18L384.32,316.19L390.21,328.04L390.22,328.05L397.78,341.52L397.79,341.53L404.68,352.09L404.68,352.09L404.69,352.1L412.74,362.42L412.74,362.42L412.75,362.43L420.13,370.13L420.14,370.13L427.01,375.94L427.02,375.94L433.46,380.34L433.47,380.34L439.78,383.8L439.78,383.8L439.79,383.8L449.1,387.63L449.1,387.63L449.11,387.63L461.14,390.86L461.15,390.86L469.34,392.27L469.34,392.27L469.35,392.27L487.89,394L487.89,394L487.9,394L510.03,394.73L510.03,394.73L510.04,394.73L612,395" style="vector-effect: non-scaling-stroke; fill: none; stroke: rgb(31, 119, 180); stroke-opacity: 1; stroke-width: 3px; opacity: 1;"/></g><g class="points"/><g class="text"/></g><g class="trace scatter trace5daff5" style="stroke-miterlimit: 2; opacity: 1;"><g class="fills"/><g class="errorbars"/><g class="lines"><path class="js-line" d="M0,3.91L32.73,4.66L32.74,4.67L58.81,5.42L58.81,5.42L58.82,5.43L68.69,6.83L68.69,6.84L76.23,9.1L76.23,9.1L76.24,9.11L83.91,12.97L83.91,12.97L83.92,12.98L90.64,17.99L90.64,17.99L90.65,18L96.76,24.06L96.76,24.07L101.68,30.05L101.68,30.06L106.87,37.45L106.87,37.46L113.23,47.95L113.23,47.97L119.1,58.92L119.1,58.94L124.43,69.77L124.43,69.78L133.59,89.75L133.59,89.77L163.7,154.1L163.71,154.11L170.1,165.22L170.11,165.23L179.66,179.34L179.67,179.35L188.04,189.28L188.05,189.28L195.83,196.67L195.84,196.67L202.72,201.97L202.73,201.97L210.53,206.89L210.54,206.89L219.96,211.81L219.97,211.81L258.35,231.15L258.35,231.16L268.54,237.84L268.54,237.84L268.55,237.85L283.22,248.91L283.22,248.91L283.23,248.92L294.49,258.29L294.49,258.3L337.57,294.05L337.58,294.05L346.07,299.64L346.08,299.64L357.55,305.83L357.55,305.83L357.56,305.83L367.03,309.73L367.03,309.73L367.04,309.73L382.16,314.01L382.17,314.01L393.85,316.35L393.86,316.35L415.75,321.44L415.75,321.45L423.97,324.41L423.97,324.42L436.62,330.63L436.62,330.64L443.91,335.12L443.91,335.12L443.92,335.13L453.88,342.13L453.88,342.14L495.7,373.23L495.71,373.23L508.88,380.47L508.88,380.47L508.89,380.47L519.37,384.88L519.37,384.88L519.38,384.88L527.32,387.47L527.32,387.47L527.33,387.47L536.63,389.78L536.63,389.78L536.64,389.78L545.62,391.4L545.62,391.4L545.63,391.4L555.8,392.67L555.81,392.67L569.26,393.71L569.26,393.71L569.27,393.71L592.96,394.54L592.97,394.54L612,394.79" style="vector-effect: non-scaling-stroke; fill: none; stroke: rgb(255, 127, 14); stroke-opacity: 1; stroke-width: 3px; opacity: 1;"/></g><g class="points"/><g class="text"/></g><g class="trace scatter traceefc28b" style="stroke-miterlimit: 2; opacity: 1;"><g class="fills"/><g class="errorbars"/><g class="lines"><path class="js-line" d="M0,280.09L5.65,280.84L5.65,280.84L5.66,280.85L10.17,282.51L10.17,282.51L10.18,282.52L15.45,285.59L15.45,285.59L15.46,285.6L20.64,289.66L20.64,289.67L27.44,296.3L27.44,296.31L35.03,304.96L35.03,304.97L43.57,315.39L43.57,315.4L56.33,329.57L56.34,329.57L61.58,333.75L61.59,333.75L66.22,336.05L66.23,336.05L70.43,336.66L70.44,336.66L74.49,335.65L74.49,335.64L78.02,333.32L78.02,333.31L81.8,329.19L81.81,329.18L86.38,321.85L86.38,321.84L90.44,313.24L90.44,313.22L96.32,297.63L96.32,297.61L101.43,281.86L101.43,281.84L118.57,230.66L118.58,230.65L122.85,222.57L122.86,222.56L127.08,217.75L127.08,217.75L127.09,217.75L130.04,216.42L130.05,216.42L132.95,216.78L132.95,216.79L136.01,218.9L136.01,218.91L139.16,222.81L139.16,222.82L143.07,229.77L143.07,229.78L148.44,242.17L148.44,242.19L154.49,258.2L154.49,258.21L167.15,288.55L167.16,288.56L172.36,296.73L172.37,296.73L176.14,300.52L176.14,300.52L176.15,300.53L179.92,302.43L179.92,302.43L179.93,302.43L183.32,302.56L183.33,302.56L187.04,301.06L187.04,301.06L187.05,301.05L190.96,297.77L190.97,297.76L195.22,292.45L195.22,292.44L199.61,285.35L199.61,285.33L204.26,276.35L204.26,276.34L211.45,260.31L211.45,260.29L215.48,250.57L215.48,250.55L241.89,186.33L241.9,186.32L246.43,177.01L246.44,177L251.89,167.09L251.9,167.08L259.68,155.83L259.69,155.82L265.64,149.83L265.65,149.83L270.45,146.8L270.45,146.8L270.46,146.8L274.69,145.52L274.69,145.52L274.7,145.52L279.36,145.64L279.36,145.64L279.37,145.65L283.92,147.31L283.92,147.32L288.32,150.35L288.32,150.36L293.48,155.62L293.48,155.63L299.66,164.2L299.66,164.21L304.61,172.67L304.61,172.68L310.84,185.08L310.84,185.09L317.48,200.02L317.48,200.04L321.54,209.82L321.54,209.84L360.76,307.56L360.77,307.57L365.9,318.38L365.91,318.39L370.87,328.07L370.88,328.08L377.76,340.18L377.77,340.19L387.65,354.84L387.66,354.85L393.72,362.3L393.73,362.3L400.77,369.59L400.78,369.59L407.7,375.45L407.71,375.45L417.28,381.71L417.28,381.71L417.29,381.71L424.34,385.17L424.35,385.17L431.28,387.8L431.29,387.8L442.64,390.8L442.65,390.8L450.84,392.21L450.85,392.21L459.32,393.14L459.32,393.14L459.33,393.14L471.09,393.19L471.09,393.19L471.1,393.18L476.4,392.08L476.4,392.08L476.41,392.07L480.3,390.26L480.3,390.26L480.31,390.25L484.26,386.95L484.26,386.94L487.46,382.68L487.46,382.67L490.3,377.26L490.3,377.25L494.42,365.78L494.42,365.76L499.38,344.46L499.38,344.43L501.26,333.83L501.26,333.79L503.64,318.1L503.64,318.06L505.82,301.42L505.82,301.37L509.54,267.88L509.54,267.82L513.68,223.84L513.68,223.77L517.74,175.71L517.74,175.64L518.96,160.82L518.96,160.75L520.16,146.13L520.16,146.06L523.84,102.12L523.85,102.05L525.45,84.07L525.46,84.01L527.03,67.5L527.04,67.44L528.65,51.95L528.66,51.89L533.44,17.34L533.45,17.31L536.16,6.9L536.17,6.89L538.12,4.01L538.12,4.01L538.13,4.01L539.4,4.28L539.4,4.28L539.41,4.29L540.84,6.61L540.84,6.62L542.97,13.92L542.97,13.94L545.38,27.44L545.38,27.48L547.29,41.72L547.29,41.77L550.43,70.93L550.43,70.99L554.66,118.25L554.66,118.33L562.13,208.68L562.13,208.76L572.03,307.34L572.04,307.39L575.06,328.94L575.07,328.98L577.85,345.19L577.86,345.23L582.13,363.99L582.14,364.01L585.49,374.34L585.5,374.35L589.95,383.49L589.96,383.5L593.83,388.37L593.84,388.38L598.05,391.53L598.05,391.53L598.06,391.53L602.35,393.29L602.35,393.29L602.36,393.29L610.01,394.57L610.02,394.57L612,394.71" style="vector-effect: non-scaling-stroke; fill: none; stroke: rgb(44, 160, 44); stroke-opacity: 1; stroke-width: 3px; opacity: 1;"/></g><g class="points"/><g class="text"/></g></g></g><g class="overplot"/><path class="xlines-above crisp" d="M105,496.5H720" style="fill: none; stroke-width: 3px; stroke: rgb(36, 36, 36); stroke-opacity: 1;"/><path class="ylines-above crisp" d="M106.5,100V495" style="fill: none; stroke-width: 3px; stroke: rgb(36, 36, 36); stroke-opacity: 1;"/><g class="overlines-above"/><g class="xaxislayer-above"><path class="xtick ticks crisp" d="M0,498v5" transform="translate(108,0)" style="stroke: rgb(68, 68, 68); stroke-opacity: 1; stroke-width: 1px;"/><path class="xtick ticks crisp" d="M0,498v5" transform="translate(230.4,0)" style="stroke: rgb(68, 68, 68); stroke-opacity: 1; stroke-width: 1px;"/><path class="xtick ticks crisp" d="M0,498v5" transform="translate(352.8,0)" style="stroke: rgb(68, 68, 68); stroke-opacity: 1; stroke-width: 1px;"/><path class="xtick ticks crisp" d="M0,498v5" transform="translate(475.2,0)" style="stroke: rgb(68, 68, 68); stroke-opacity: 1; stroke-width: 1px;"/><path class="xtick ticks crisp" d="M0,498v5" transform="translate(597.6,0)" style="stroke: rgb(68, 68, 68); stroke-opacity: 1; stroke-width: 1px;"/><path class="xtick ticks crisp" d="M0,498v5" transform="translate(720,0)" style="stroke: rgb(68, 68, 68); stroke-opacity: 1; stroke-width: 1px;"/><g class="xtick"><text text-anchor="middle" x="0" y="539" transform="translate(108,0)" style="font-family: 'Open Sans', verdana, arial, sans-serif; font-size: 30px; fill: rgb(36, 36, 36); fill-opacity: 1; white-space: pre; opacity: 1;">0</text></g><g class="xtick"><text text-anchor="middle" x="0" y="539" style="font-family: 'Open Sans', verdana, arial, sans-serif; font-size: 30px; fill: rgb(36, 36, 36); fill-opacity: 1; white-space: pre; opacity: 1;" transform="translate(230.4,0)">0.2</text></g><g class="xtick"><text text-anchor="middle" x="0" y="539" style="font-family: 'Open Sans', verdana, arial, sans-serif; font-size: 30px; fill: rgb(36, 36, 36); fill-opacity: 1; white-space: pre; opacity: 1;" transform="translate(352.8,0)">0.4</text></g><g class="xtick"><text text-anchor="middle" x="0" y="539" style="font-family: 'Open Sans', verdana, arial, sans-serif; font-size: 30px; fill: rgb(36, 36, 36); fill-opacity: 1; white-space: pre; opacity: 1;" transform="translate(475.2,0)">0.6</text></g><g class="xtick"><text text-anchor="middle" x="0" y="539" style="font-family: 'Open Sans', verdana, arial, sans-serif; font-size: 30px; fill: rgb(36, 36, 36); fill-opacity: 1; white-space: pre; opacity: 1;" transform="translate(597.6,0)">0.8</text></g><g class="xtick"><text text-anchor="middle" x="0" y="539" style="font-family: 'Open Sans', verdana, arial, sans-serif; font-size: 30px; fill: rgb(36, 36, 36); fill-opacity: 1; white-space: pre; opacity: 1;" transform="translate(720,0)">1</text></g></g><g class="yaxislayer-above"><path class="ytick ticks crisp" d="M105,0h-5" transform="translate(0,495)" style="stroke: rgb(68, 68, 68); stroke-opacity: 1; stroke-width: 1px;"/><path class="ytick ticks crisp" d="M105,0h-5" transform="translate(0,416.78)" style="stroke: rgb(68, 68, 68); stroke-opacity: 1; stroke-width: 1px;"/><path class="ytick ticks crisp" d="M105,0h-5" transform="translate(0,338.56)" style="stroke: rgb(68, 68, 68); stroke-opacity: 1; stroke-width: 1px;"/><path class="ytick ticks crisp" d="M105,0h-5" transform="translate(0,260.35)" style="stroke: rgb(68, 68, 68); stroke-opacity: 1; stroke-width: 1px;"/><path class="ytick ticks crisp" d="M105,0h-5" transform="translate(0,182.13)" style="stroke: rgb(68, 68, 68); stroke-opacity: 1; stroke-width: 1px;"/><path class="ytick ticks crisp" d="M105,0h-5" transform="translate(0,103.91)" style="stroke: rgb(68, 68, 68); stroke-opacity: 1; stroke-width: 1px;"/><g class="ytick"><text text-anchor="end" x="94" y="10.5" transform="translate(0,495)" style="font-family: 'Open Sans', verdana, arial, sans-serif; font-size: 30px; fill: rgb(36, 36, 36); fill-opacity: 1; white-space: pre; opacity: 1;">0</text></g><g class="ytick"><text text-anchor="end" x="94" y="10.5" style="font-family: 'Open Sans', verdana, arial, sans-serif; font-size: 30px; fill: rgb(36, 36, 36); fill-opacity: 1; white-space: pre; opacity: 1;" transform="translate(0,416.78)">0.2</text></g><g class="ytick"><text text-anchor="end" x="94" y="10.5" style="font-family: 'Open Sans', verdana, arial, sans-serif; font-size: 30px; fill: rgb(36, 36, 36); fill-opacity: 1; white-space: pre; opacity: 1;" transform="translate(0,338.56)">0.4</text></g><g class="ytick"><text text-anchor="end" x="94" y="10.5" style="font-family: 'Open Sans', verdana, arial, sans-serif; font-size: 30px; fill: rgb(36, 36, 36); fill-opacity: 1; white-space: pre; opacity: 1;" transform="translate(0,260.35)">0.6</text></g><g class="ytick"><text text-anchor="end" x="94" y="10.5" style="font-family: 'Open Sans', verdana, arial, sans-serif; font-size: 30px; fill: rgb(36, 36, 36); fill-opacity: 1; white-space: pre; opacity: 1;" transform="translate(0,182.13)">0.8</text></g><g class="ytick"><text text-anchor="end" x="94" y="10.5" style="font-family: 'Open Sans', verdana, arial, sans-serif; font-size: 30px; fill: rgb(36, 36, 36); fill-opacity: 1; white-space: pre; opacity: 1;" transform="translate(0,103.91)">1</text></g></g><g class="overaxes-above"/></g></g><g class="polarlayer"/><g class="smithlayer"/><g class="ternarylayer"/><g class="geolayer"/><g class="funnelarealayer"/><g class="pielayer"/><g class="iciclelayer"/><g class="treemaplayer"/><g class="sunburstlayer"/><g class="glimages"/><defs id="topdefs-e20b88"><g class="clips"/></defs><g class="layer-above"><g class="imagelayer"/><g class="shapelayer"/></g><g class="infolayer"><g class="g-gtitle"/><g class="g-xtitle"><text class="xtitle" x="414" y="586.7" text-anchor="middle" style="font-family: 'Open Sans', verdana, arial, sans-serif; font-size: 36px; fill: rgb(36, 36, 36); opacity: 1; font-weight: normal; white-space: pre;">Normalised radius</text></g><g class="g-ytitle" transform="translate(24.9970703125,0)"><text class="ytitle" transform="rotate(-90,13.003124999999997,297.5)" x="13.003124999999997" y="297.5" text-anchor="middle" style="font-family: 'Open Sans', verdana, arial, sans-serif; font-size: 36px; fill: rgb(36, 36, 36); opacity: 1; font-weight: normal; white-space: pre;">Normalised QECE</text></g></g></svg>