<svg class="main-svg" xmlns="http://www.w3.org/2000/svg" xmlns:xlink="http://www.w3.org/1999/xlink" width="710" height="495" style="" viewBox="0 0 710 495"><rect x="0" y="0" width="710" height="495" style="fill: rgb(255, 255, 255); fill-opacity: 1;"/><defs id="defs-b422e1"><g class="clips"><clipPath id="clipb422e1xyplot" class="plotclip"><rect width="581" height="361"/></clipPath><clipPath class="axesclip" id="clipb422e1x"><rect x="108" y="0" width="581" height="495"/></clipPath><clipPath class="axesclip" id="clipb422e1y"><rect x="0" y="29" width="710" height="361"/></clipPath><clipPath class="axesclip" id="clipb422e1xy"><rect x="108" y="29" width="581" height="361"/></clipPath></g><g class="gradients"/><g class="patterns"/></defs><g class="bglayer"/><g class="layer-below"><g class="imagelayer"/><g class="shapelayer"/></g><g class="cartesianlayer"><g class="subplot xy"><g class="layer-subplot"><g class="shapelayer"/><g class="imagelayer"/></g><g class="minor-gridlayer"><g class="x"/><g class="y"/></g><g class="gridlayer"><g class="x"/><g class="y"/></g><g class="zerolinelayer"/><path class="xlines-below"/><path class="ylines-below"/><g class="overlines-below"/><g class="xaxislayer-below"/><g class="yaxislayer-below"/><g class="overaxes-below"/><g class="plot" transform="translate(108,29)" clip-path="url(#clipb422e1xyplot)"><g class="scatterlayer mlayer"><g class="trace scatter trace9d760e" style="stroke-miterlimit: 2; opacity: 1;"><g class="fills"/><g class="errorbars"/><g class="lines"><path class="js-line" d="M0,3.57L6.03,4.66L6.03,4.67L10.86,7.06L10.86,7.07L16.47,11.39L16.47,11.4L21.85,16.85L21.85,16.86L27.35,23.42L27.35,23.43L37,36.17L37,36.18L54.8,57.16L54.81,57.16L60.05,61.34L60.05,61.34L60.06,61.34L65.91,64.49L65.92,64.49L70.96,65.84L70.96,65.84L70.97,65.84L76.59,65.84L76.59,65.83L82.19,64.34L82.19,64.33L87.12,61.9L87.12,61.9L87.13,61.89L95.15,56.1L95.15,56.09L104.85,47.05L104.85,47.04L127.45,25.36L127.46,25.36L134.79,20.21L134.79,20.21L134.8,20.21L141.77,16.79L141.77,16.79L141.78,16.79L148.01,15.1L148.01,15.1L148.02,15.1L153.74,14.72L153.75,14.72L159.62,15.47L159.63,15.48L165.91,17.49L165.91,17.5L173.19,21.21L173.19,21.21L173.2,21.22L183.44,28.38L183.44,28.39L194.4,37.54L194.4,37.54L194.41,37.55L220.62,58.75L220.63,58.75L228.8,63.95L228.81,63.95L240.15,70.06L240.15,70.06L240.16,70.06L261.35,81.45L261.35,81.46L268.47,86.71L268.47,86.72L276.59,94.44L276.59,94.45L282.25,101.17L282.25,101.18L287.92,109.15L287.92,109.16L294.31,119.69L294.31,119.7L299.79,130.02L299.79,130.03L309.65,151.39L309.65,151.41L316.08,166.94L316.08,166.96L324.03,187.39L324.03,187.41L329.92,203.05L329.92,203.07L335.51,218L335.51,218.02L341.67,234.28L341.67,234.3L360.75,280.38L360.76,280.39L367.53,294.3L367.54,294.31L375.76,309.09L375.77,309.1L382.68,319.7L382.69,319.71L390.57,329.8L390.58,329.8L395.41,335L395.42,335L401.65,340.69L401.66,340.69L410.09,346.75L410.09,346.75L410.1,346.75L416.55,350.31L416.55,350.31L416.56,350.31L425.68,354.04L425.69,354.04L437.24,357.11L437.24,357.11L437.25,357.11L451.53,359.21L451.53,359.21L451.54,359.21L464.18,360.14L464.18,360.14L464.19,360.14L484.71,360.76L484.72,360.76L581,361" style="vector-effect: non-scaling-stroke; fill: none; stroke: rgb(31, 119, 180); stroke-opacity: 1; stroke-width: 3px; opacity: 1;"/></g><g class="points"/><g class="text"/></g><g class="trace scatter trace9eeabb" style="stroke-miterlimit: 2; opacity: 1;"><g class="fills"/><g class="errorbars"/><g class="lines"><path class="js-line" d="M0,3.57L33.61,4.31L33.61,4.31L33.62,4.32L57.21,5.07L57.21,5.08L65.93,6.4L65.93,6.4L65.94,6.41L73.08,8.59L73.08,8.6L78.56,11.21L78.56,11.22L83.89,14.72L83.89,14.72L83.9,14.73L89.31,19.38L89.31,19.39L97.18,28.3L97.18,28.31L102.73,36.13L102.73,36.14L109.22,46.82L109.22,46.83L115.25,58.05L115.25,58.06L124.25,76.51L124.25,76.52L134.29,98.25L134.29,98.27L152.44,135.47L152.45,135.48L165.62,157.23L165.63,157.23L170.81,164.22L170.82,164.23L177.66,172.11L177.67,172.11L184.94,178.94L184.95,178.94L191.52,183.95L191.52,183.95L191.53,183.95L198.86,188.52L198.86,188.52L198.87,188.52L207.54,192.98L207.54,192.98L207.55,192.98L223.81,200.28L223.82,200.28L248.29,213.08L248.29,213.09L258.23,219.62L258.23,219.63L266.04,225.31L266.04,225.32L283.59,239.4L283.59,239.41L293.99,248.14L293.99,248.15L308.18,259.72L308.18,259.73L324.66,271.48L324.67,271.48L333,276.34L333,276.34L333.01,276.34L341.98,280.61L341.99,280.61L352.97,284.51L352.97,284.51L352.98,284.51L362.7,286.96L362.7,286.96L362.71,286.96L396.22,294.25L396.22,294.25L396.23,294.26L404.03,297.11L404.03,297.11L404.04,297.12L416.23,303.14L416.23,303.15L423.56,307.65L423.56,307.65L423.57,307.66L434.09,315.01L434.09,315.01L434.1,315.02L467.57,339.25L467.58,339.25L475.99,344.17L475.99,344.17L476,344.17L483.45,347.88L483.45,347.88L483.46,347.88L492.41,351.52L492.41,351.52L492.42,351.52L501.6,354.39L501.61,354.39L515.51,357.33L515.51,357.33L515.52,357.33L526.44,358.75L526.44,358.75L526.45,358.75L539.9,359.79L539.91,359.79L562.97,360.58L562.97,360.58L562.98,360.58L581,360.81" style="vector-effect: non-scaling-stroke; fill: none; stroke: rgb(255, 127, 14); stroke-opacity: 1; stroke-width: 3px; opacity: 1;"/></g><g class="points"/><g class="text"/></g><g class="trace scatter trace0f2f1a" style="stroke-miterlimit: 2; opacity: 1;"><g class="fills"/><g class="errorbars"/><g class="lines"><path class="js-line" d="M0,255.98L5.58,256.72L5.58,256.73L11.36,259.03L11.36,259.04L17.12,262.75L17.12,262.75L17.13,262.76L24.38,269.12L24.38,269.13L31.3,276.48L31.3,276.49L55.65,303.03L55.65,303.03L55.66,303.03L60.71,306.27L60.72,306.27L65.05,307.6L65.06,307.6L68.97,307.37L68.97,307.36L72.25,305.94L72.25,305.94L72.26,305.93L76.08,302.71L76.08,302.7L79.67,298.05L79.67,298.04L85.3,287.52L85.3,287.51L89.28,277.89L89.28,277.87L94.98,261.63L94.98,261.61L99.76,246.74L99.76,246.72L111.82,212.44L111.83,212.43L116.28,203.93L116.29,203.93L119.75,199.72L119.76,199.72L122.52,198.02L122.52,198.02L122.53,198.02L125.37,197.86L125.38,197.87L128.05,199.16L128.05,199.17L130.99,202.11L130.99,202.12L134.49,207.48L134.49,207.49L139.17,217.17L139.17,217.19L143,226.51L143,226.53L151.68,248.67L151.68,248.69L159.56,265.25L159.57,265.26L164.18,271.83L164.19,271.84L168.54,275.5L168.54,275.5L168.55,275.5L171.98,276.6L171.98,276.6L171.99,276.6L175.6,276.1L175.6,276.09L179,274.17L179,274.17L179.01,274.16L183.07,270.19L183.07,270.18L187.12,264.66L187.12,264.65L191.95,256.37L191.95,256.36L197.4,245.32L197.4,245.31L203.68,231.09L203.68,231.07L210.43,214.84L210.43,214.83L232.28,164.97L232.29,164.96L239.7,151.8L239.71,151.79L245.88,143.18L245.88,143.18L245.89,143.17L251.79,137.25L251.8,137.24L256.55,134.25L256.55,134.25L256.56,134.25L261.56,132.91L261.56,132.91L261.57,132.91L265.44,133.15L265.44,133.15L265.45,133.16L269.84,134.79L269.84,134.79L269.85,134.8L274.19,137.8L274.19,137.81L279.28,143.01L279.28,143.02L283.8,149.05L283.8,149.06L290.08,159.43L290.08,159.44L296.78,172.65L296.78,172.67L303.87,188.5L303.87,188.52L310.52,204.53L310.52,204.55L321.96,233.12L321.96,233.14L345.57,287.42L345.58,287.43L356.04,306.7L356.05,306.71L366.58,322.44L366.59,322.44L372.57,329.77L372.58,329.77L377.17,334.65L377.18,334.65L385.71,342.13L385.71,342.13L385.72,342.13L392.33,346.67L392.34,346.67L398.65,350.13L398.65,350.13L398.66,350.13L407.86,353.9L407.87,353.9L415.33,356.08L415.33,356.08L415.34,356.08L426.11,358.18L426.12,358.18L435.19,359.23L435.2,359.23L443.34,359.56L443.34,359.56L443.35,359.56L450.53,358.81L450.54,358.8L455.19,357.11L455.19,357.1L458.99,354.37L458.99,354.37L459,354.36L462.52,350.13L462.52,350.12L466.69,341.97L466.69,341.95L469.85,332.69L469.85,332.67L472.97,320.2L472.97,320.18L475.63,306.47L475.63,306.44L479.79,278.63L479.79,278.59L481.92,261.27L481.92,261.22L485.87,223.63L485.87,223.57L489.4,185.09L489.4,185.02L493.85,133.08L493.85,133.01L503.97,30.76L503.98,30.72L506.84,13.85L506.85,13.83L509.03,6.24L509.04,6.23L510.87,3.66L510.87,3.66L510.88,3.66L512.18,4L512.19,4.01L513.64,6.52L513.65,6.54L515.45,12.64L515.45,12.67L517.41,22.92L517.41,22.96L520.55,46.26L520.55,46.32L523.35,72.92L523.35,72.98L526.77,110.47L526.77,110.54L531.14,161.7L531.14,161.77L543.41,283.57L543.42,283.61L546.34,303.15L546.35,303.18L550.95,326.26L550.96,326.28L553.68,336.07L553.69,336.09L556.49,343.7L556.5,343.71L559.92,350.26L559.93,350.26L563.59,354.8L563.6,354.8L567.61,357.75L567.61,357.75L567.62,357.75L571.74,359.41L571.74,359.41L571.75,359.41L579.12,360.61L579.12,360.61L579.13,360.61L581,360.73" style="vector-effect: non-scaling-stroke; fill: none; stroke: rgb(44, 160, 44); stroke-opacity: 1; stroke-width: 3px; opacity: 1;"/></g><g class="points"/><g class="text"/></g></g></g><g class="overplot"/><path class="xlines-above crisp" d="M105,391.5H689" style="fill: none; stroke-width: 3px; stroke: rgb(36, 36, 36); stroke-opacity: 1;"/><path class="ylines-above crisp" d="M106.5,29V390" style="fill: none; stroke-width: 3px; stroke: rgb(36, 36, 36); stroke-opacity: 1;"/><g class="overlines-above"/><g class="xaxislayer-above"><path class="xtick ticks crisp" d="M0,393v5" transform="translate(108,0)" style="stroke: rgb(68, 68, 68); stroke-opacity: 1; stroke-width: 1px;"/><path class="xtick ticks crisp" d="M0,393v5" transform="translate(224.2,0)" style="stroke: rgb(68, 68, 68); stroke-opacity: 1; stroke-width: 1px;"/><path class="xtick ticks crisp" d="M0,393v5" transform="translate(340.4,0)" style="stroke: rgb(68, 68, 68); stroke-opacity: 1; stroke-width: 1px;"/><path class="xtick ticks crisp" d="M0,393v5" transform="translate(456.6,0)" style="stroke: rgb(68, 68, 68); stroke-opacity: 1; stroke-width: 1px;"/><path class="xtick ticks crisp" d="M0,393v5" transform="translate(572.8,0)" style="stroke: rgb(68, 68, 68); stroke-opacity: 1; stroke-width: 1px;"/><path class="xtick ticks crisp" d="M0,393v5" transform="translate(689,0)" style="stroke: rgb(68, 68, 68); stroke-opacity: 1; stroke-width: 1px;"/><g class="xtick"><text text-anchor="middle" x="0" y="434" transform="translate(108,0)" style="font-family: 'Open Sans', verdana, arial, sans-serif; font-size: 30px; fill: rgb(36, 36, 36); fill-opacity: 1; white-space: pre; opacity: 1;">0</text></g><g class="xtick"><text text-anchor="middle" x="0" y="434" style="font-family: 'Open Sans', verdana, arial, sans-serif; font-size: 30px; fill: rgb(36, 36, 36); fill-opacity: 1; white-space: pre; opacity: 1;" transform="translate(224.2,0)">0.2</text></g><g class="xtick"><text text-anchor="middle" x="0" y="434" style="font-family: 'Open Sans', verdana, arial, sans-serif; font-size: 30px; fill: rgb(36, 36, 36); fill-opacity: 1; white-space: pre; opacity: 1;" transform="translate(340.4,0)">0.4</text></g><g class="xtick"><text text-anchor="middle" x="0" y="434" style="font-family: 'Open Sans', verdana, arial, sans-serif; font-size: 30px; fill: rgb(36, 36, 36); fill-opacity: 1; white-space: pre; opacity: 1;" transform="translate(456.6,0)">0.6</text></g><g class="xtick"><text text-anchor="middle" x="0" y="434" style="font-family: 'Open Sans', verdana, arial, sans-serif; font-size: 30px; fill: rgb(36, 36, 36); fill-opacity: 1; white-space: pre; opacity: 1;" transform="translate(572.8,0)">0.8</text></g><g class="xtick"><text text-anchor="middle" x="0" y="434" style="font-family: 'Open Sans', verdana, arial, sans-serif; font-size: 30px; fill: rgb(36, 36, 36); fill-opacity: 1; white-space: pre; opacity: 1;" transform="translate(689,0)">1</text></g></g><g class="yaxislayer-above"><path class="ytick ticks crisp" d="M105,0h-5" transform="translate(0,390)" style="stroke: rgb(68, 68, 68); stroke-opacity: 1; stroke-width: 1px;"/><path class="ytick ticks crisp" d="M105,0h-5" transform="translate(0,318.51)" style="stroke: rgb(68, 68, 68); stroke-opacity: 1; stroke-width: 1px;"/><path class="ytick ticks crisp" d="M105,0h-5" transform="translate(0,247.03)" style="stroke: rgb(68, 68, 68); stroke-opacity: 1; stroke-width: 1px;"/><path class="ytick ticks crisp" d="M105,0h-5" transform="translate(0,175.54)" style="stroke: rgb(68, 68, 68); stroke-opacity: 1; stroke-width: 1px;"/><path class="ytick ticks crisp" d="M105,0h-5" transform="translate(0,104.06)" style="stroke: rgb(68, 68, 68); stroke-opacity: 1; stroke-width: 1px;"/><path class="ytick ticks crisp" d="M105,0h-5" transform="translate(0,32.57)" style="stroke: rgb(68, 68, 68); stroke-opacity: 1; stroke-width: 1px;"/><g class="ytick"><text text-anchor="end" x="94" y="10.5" transform="translate(0,390)" style="font-family: 'Open Sans', verdana, arial, sans-serif; font-size: 30px; fill: rgb(36, 36, 36); fill-opacity: 1; white-space: pre; opacity: 1;">0</text></g><g class="ytick"><text text-anchor="end" x="94" y="10.5" style="font-family: 'Open Sans', verdana, arial, sans-serif; font-size: 30px; fill: rgb(36, 36, 36); fill-opacity: 1; white-space: pre; opacity: 1;" transform="translate(0,318.51)">0.2</text></g><g class="ytick"><text text-anchor="end" x="94" y="10.5" style="font-family: 'Open Sans', verdana, arial, sans-serif; font-size: 30px; fill: rgb(36, 36, 36); fill-opacity: 1; white-space: pre; opacity: 1;" transform="translate(0,247.03)">0.4</text></g><g class="ytick"><text text-anchor="end" x="94" y="10.5" style="font-family: 'Open Sans', verdana, arial, sans-serif; font-size: 30px; fill: rgb(36, 36, 36); fill-opacity: 1; white-space: pre; opacity: 1;" transform="translate(0,175.54)">0.6</text></g><g class="ytick"><text text-anchor="end" x="94" y="10.5" style="font-family: 'Open Sans', verdana, arial, sans-serif; font-size: 30px; fill: rgb(36, 36, 36); fill-opacity: 1; white-space: pre; opacity: 1;" transform="translate(0,104.06)">0.8</text></g><g class="ytick"><text text-anchor="end" x="94" y="10.5" style="font-family: 'Open Sans', verdana, arial, sans-serif; font-size: 30px; fill: rgb(36, 36, 36); fill-opacity: 1; white-space: pre; opacity: 1;" transform="translate(0,32.57)">1</text></g></g><g class="overaxes-above"/></g></g><g class="polarlayer"/><g class="smithlayer"/><g class="ternarylayer"/><g class="geolayer"/><g class="funnelarealayer"/><g class="pielayer"/><g class="iciclelayer"/><g class="treemaplayer"/><g class="sunburstlayer"/><g class="glimages"/><defs id="topdefs-b422e1"><g class="clips"/></defs><g class="layer-above"><g class="imagelayer"/><g class="shapelayer"/></g><g class="infolayer"><g class="g-gtitle"/><g class="g-xtitle"><text class="xtitle" x="398.5" y="481.7" text-anchor="middle" style="font-family: 'Open Sans', verdana, arial, sans-serif; font-size: 36px; fill: rgb(36, 36, 36); opacity: 1; font-weight: normal; white-space: pre;">Normalised radius</text></g><g class="g-ytitle" transform="translate(24.9970703125,0)"><text class="ytitle" transform="rotate(-90,13.003124999999997,209.5)" x="13.003124999999997" y="209.5" text-anchor="middle" style="font-family: 'Open Sans', verdana, arial, sans-serif; font-size: 36px; fill: rgb(36, 36, 36); opacity: 1; font-weight: normal; white-space: pre;">Normalised QECE</text></g></g></svg>