<svg class="main-svg" xmlns="http://www.w3.org/2000/svg" xmlns:xlink="http://www.w3.org/1999/xlink" width="350" height="250" style="" viewBox="0 0 350 250"><rect x="0" y="0" width="350" height="250" style="fill: rgb(255, 255, 255); fill-opacity: 1;"/><defs id="defs-faa857"><g class="clips"><clipPath id="clipfaa857xyplot" class="plotclip"><rect width="318" height="218"/></clipPath><clipPath class="axesclip" id="clipfaa857x"><rect x="17" y="0" width="318" height="250"/></clipPath><clipPath class="axesclip" id="clipfaa857y"><rect x="0" y="15" width="350" height="218"/></clipPath><clipPath class="axesclip" id="clipfaa857xy"><rect x="17" y="15" width="318" height="218"/></clipPath></g><g class="gradients"/><g class="patterns"/></defs><g class="bglayer"/><g class="layer-below"><g class="imagelayer"/><g class="shapelayer"/></g><g class="cartesianlayer"><g class="subplot xy"><g class="layer-subplot"><g class="shapelayer"/><g class="imagelayer"/></g><g class="minor-gridlayer"><g class="x"/><g class="y"/></g><g class="gridlayer"><g class="x"/><g class="y"/></g><g class="zerolinelayer"/><path class="xlines-below"/><path class="ylines-below"/><g class="overlines-below"/><g class="xaxislayer-below"/><g class="yaxislayer-below"/><g class="overaxes-below"/><g class="plot" transform="translate(17,15)" clip-path="url(#clipfaa857xyplot)"><g class="scatterlayer mlayer"><g class="trace scatter trace2d5206" style="stroke-miterlimit: 2;"><g class="fills"><g><path class="js-fill" d="M0,10.9L17.59,11.65L17.62,11.66L32.79,13.35L32.82,13.36L44.02,15.51L44.05,15.52L53.05,17.97L53.08,17.98L65.45,22.63L65.48,22.65L76.52,28.29L76.55,28.31L90.26,37.58L90.29,37.61L97.29,43.36L97.32,43.39L113.89,59.52L113.92,59.55L127.05,72.6L127.09,72.62L131.41,75.26L131.44,75.27L135.1,75.85L135.13,75.85L138.85,74.88L138.88,74.86L143.69,72.26L143.72,72.24L160.64,62.55L160.67,62.54L167.92,60.18L167.95,60.18L174.57,59.29L174.6,59.29L183.25,60.02L183.28,60.03L189.96,62.04L189.99,62.06L197.02,65.49L197.05,65.51L206.72,72.31L206.75,72.34L214.04,78.89L214.07,78.92L232.58,99.77L232.61,99.81L250.07,120.16L250.1,120.19L255.44,124.11L255.47,124.13L259.55,125.34L259.58,125.34L263.52,124.85L263.55,124.84L268.04,122.66L268.07,122.64L273.76,118.26L273.79,118.23L282.19,110.15L282.22,110.11L318,74.15L318,207.1L311.7,203.34L311.67,203.32L304.55,198.36L304.52,198.34L292.46,188.22L292.43,188.19L274.87,170.38L274.84,170.35L268.13,163.69L268.1,163.66L262.63,159.42L262.6,159.4L258.72,157.66L258.69,157.65L254.08,157.22L254.04,157.23L243.87,160.34L243.83,160.36L232.48,164.69L232.45,164.7L222.08,166.69L222.05,166.69L214.35,166.48L214.32,166.48L207.87,165.12L207.83,165.11L200.36,162.21L200.33,162.2L191.07,156.69L191.04,156.67L183.41,150.64L183.38,150.62L173.61,141.2L173.58,141.17L153.77,117.95L153.74,117.91L144,106.33L143.97,106.29L139.23,101.71L139.2,101.68L135.55,99.42L135.51,99.4L132.36,98.86L132.33,98.86L128.33,100.16L128.29,100.18L124.29,103.12L124.26,103.14L107.97,120.87L107.94,120.91L95.06,135.88L95.03,135.92L79.06,152.94L79.03,152.97L65.51,165.38L65.48,165.41L56.8,172.33L56.77,172.36L44.43,180.83L44.4,180.85L30.05,188.85L30.02,188.87L19.91,193.46L19.88,193.48L0,200.43Z" style="fill: rgb(55, 126, 255); fill-opacity: 0.1; stroke-width: 0;"/></g></g><g class="errorbars"/><g class="lines"><path class="js-line" d="M0,200.43L19.88,193.48L19.91,193.46L30.02,188.87L30.05,188.85L44.4,180.85L44.43,180.83L56.77,172.36L56.8,172.33L65.48,165.41L65.51,165.38L79.03,152.97L79.06,152.94L95.03,135.92L95.06,135.88L107.94,120.91L107.97,120.87L124.26,103.14L124.29,103.12L128.29,100.18L128.33,100.16L132.33,98.86L132.36,98.86L135.51,99.4L135.55,99.42L139.2,101.68L139.23,101.71L143.97,106.29L144,106.33L153.74,117.91L153.77,117.95L173.58,141.17L173.61,141.2L183.38,150.62L183.41,150.64L191.04,156.67L191.07,156.69L200.33,162.2L200.36,162.21L207.83,165.11L207.87,165.12L214.32,166.48L214.35,166.48L222.05,166.69L222.08,166.69L232.45,164.7L232.48,164.69L243.83,160.36L243.87,160.34L254.04,157.23L254.08,157.22L258.69,157.65L258.72,157.66L262.6,159.4L262.63,159.42L268.1,163.66L268.13,163.69L274.84,170.35L274.87,170.38L292.43,188.19L292.46,188.22L304.52,198.34L304.55,198.36L311.67,203.32L311.7,203.34L318,207.1" style="vector-effect: non-scaling-stroke; fill: none; stroke: rgb(55, 126, 255); stroke-opacity: 0.1; stroke-width: 0px; opacity: 1;"/></g><g class="points"/><g class="text"/></g><g class="trace scatter trace117fe8" style="stroke-miterlimit: 2;"><g class="fills"/><g class="errorbars"/><g class="lines"><path class="js-line" d="M0,10.9L17.59,11.65L17.62,11.66L32.79,13.35L32.82,13.36L44.02,15.51L44.05,15.52L53.05,17.97L53.08,17.98L65.45,22.63L65.48,22.65L76.52,28.29L76.55,28.31L90.26,37.58L90.29,37.61L97.29,43.36L97.32,43.39L113.89,59.52L113.92,59.55L127.05,72.6L127.09,72.62L131.41,75.26L131.44,75.27L135.1,75.85L135.13,75.85L138.85,74.88L138.88,74.86L143.69,72.26L143.72,72.24L160.64,62.55L160.67,62.54L167.92,60.18L167.95,60.18L174.57,59.29L174.6,59.29L183.25,60.02L183.28,60.03L189.96,62.04L189.99,62.06L197.02,65.49L197.05,65.51L206.72,72.31L206.75,72.34L214.04,78.89L214.07,78.92L232.58,99.77L232.61,99.81L250.07,120.16L250.1,120.19L255.44,124.11L255.47,124.13L259.55,125.34L259.58,125.34L263.52,124.85L263.55,124.84L268.04,122.66L268.07,122.64L273.76,118.26L273.79,118.23L282.19,110.15L282.22,110.11L318,74.15" style="vector-effect: non-scaling-stroke; fill: none; stroke: rgb(55, 126, 255); stroke-opacity: 0.1; stroke-width: 0px; opacity: 1;"/></g><g class="points"/><g class="text"/></g><g class="trace scatter trace11c679" style="stroke-miterlimit: 2; opacity: 1;"><g class="fills"/><g class="errorbars"/><g class="lines"><path class="js-line" d="M0,107.41L27.29,92.91L27.32,92.9L40.45,87.16L40.49,87.15L52.98,82.96L53.02,82.95L61.32,80.97L61.35,80.97L69.39,79.73L69.43,79.73L79.92,79.17L79.95,79.17L91.21,79.92L91.24,79.93L102.88,82.13L102.92,82.14L117.61,86.8L117.64,86.82L131.51,92.81L131.54,92.83L143.34,98.81L143.37,98.83L160.16,108.06L160.19,108.08L186.37,121.95L186.4,121.96L199.44,127.65L199.47,127.66L214.64,132.57L214.67,132.58L227.23,134.96L227.27,134.96L238.11,135.65L238.14,135.65L250.23,134.9L250.26,134.89L261.9,132.69L261.93,132.68L274.78,128.7L274.81,128.69L290.43,122.05L290.46,122.03L302.29,116.04L302.32,116.02L318,107.41" style="vector-effect: non-scaling-stroke; fill: none; stroke: rgb(169, 169, 169); stroke-opacity: 1; stroke-dasharray: 9px, 9px; stroke-width: 3px; opacity: 1;"/></g><g class="points"/><g class="text"/></g><g class="trace scatter traceb9918f" style="stroke-miterlimit: 2; opacity: 1;"><g class="fills"/><g class="errorbars"/><g class="lines"><path class="js-line" d="M0,105.66L25.06,101.78L25.09,101.77L38.67,99.32L38.7,99.31L103.07,87.63L103.11,87.63L116.05,86.66L116.08,86.66L133.48,87.34L133.51,87.35L145.85,89.64L145.88,89.65L157.97,93.44L158,93.46L172.15,99.56L172.18,99.58L183.03,105.14L183.06,105.16L232.2,132.04L232.23,132.05L243.26,136.73L243.29,136.74L256.59,140.94L256.62,140.94L268.86,143.24L268.9,143.24L280.89,144.09L280.92,144.09L298.12,143.36L298.15,143.35L310.4,141.84L310.43,141.83L318,140.62" style="vector-effect: non-scaling-stroke; fill: none; stroke: rgb(31, 119, 180); stroke-opacity: 1; stroke-width: 3px; opacity: 1;"/></g><g class="points"/><g class="text"/></g><g class="trace scatter trace075d81" style="stroke-miterlimit: 2; opacity: 1;"><g class="fills"/><g class="errorbars"/><g class="lines"/><g class="points"><path class="point" transform="translate(258.44,142.56)" d="M7.5,0A7.5,7.5 0 1,1 0,-7.5A7.5,7.5 0 0,1 7.5,0Z" style="opacity: 1; stroke-width: 0px; fill: rgb(228, 26, 28); fill-opacity: 1;"/><path class="point" transform="translate(132.19,91.83)" d="M7.5,0A7.5,7.5 0 1,1 0,-7.5A7.5,7.5 0 0,1 7.5,0Z" style="opacity: 1; stroke-width: 0px; fill: rgb(228, 26, 28); fill-opacity: 1;"/><path class="point" transform="translate(134.64,81.69)" d="M7.5,0A7.5,7.5 0 1,1 0,-7.5A7.5,7.5 0 0,1 7.5,0Z" style="opacity: 1; stroke-width: 0px; fill: rgb(228, 26, 28); fill-opacity: 1;"/></g><g class="text"/></g></g></g><g class="overplot"/><path class="xlines-above crisp" d="M14,234.5H335" style="fill: none; stroke-width: 3px; stroke: rgb(36, 36, 36); stroke-opacity: 1;"/><path class="ylines-above crisp" d="M15.5,15V233" style="fill: none; stroke-width: 3px; stroke: rgb(36, 36, 36); stroke-opacity: 1;"/><g class="overlines-above"/><g class="xaxislayer-above"/><g class="yaxislayer-above"/><g class="overaxes-above"/></g></g><g class="polarlayer"/><g class="smithlayer"/><g class="ternarylayer"/><g class="geolayer"/><g class="funnelarealayer"/><g class="pielayer"/><g class="iciclelayer"/><g class="treemaplayer"/><g class="sunburstlayer"/><g class="glimages"/><defs id="topdefs-faa857"><g class="clips"/></defs><g class="layer-above"><g class="imagelayer"/><g class="shapelayer"><path data-index="0" fill-rule="evenodd" d="M89.66,233L89.66,15" clip-path="url(#clipfaa857x)" style="opacity: 1; stroke: rgb(228, 26, 28); stroke-opacity: 1; fill: rgb(0, 0, 0); fill-opacity: 1; stroke-width: 3px;"/></g></g><g class="infolayer"><g class="g-gtitle"/><g class="g-xtitle"/><g class="g-ytitle"/></g></svg>