<svg class="main-svg" xmlns="http://www.w3.org/2000/svg" xmlns:xlink="http://www.w3.org/1999/xlink" width="600" height="420" style="" viewBox="0 0 600 420"><rect x="0" y="0" width="600" height="420" style="fill: rgb(255, 255, 255); fill-opacity: 1;"/><defs id="defs-60f8d3"><g class="clips"><clipPath id="clip60f8d3xyplot" class="plotclip"><rect width="528" height="283"/></clipPath><clipPath class="axesclip" id="clip60f8d3x"><rect x="57" y="0" width="528" height="420"/></clipPath><clipPath class="axesclip" id="clip60f8d3y"><rect x="0" y="80" width="600" height="283"/></clipPath><clipPath class="axesclip" id="clip60f8d3xy"><rect x="57" y="80" width="528" height="283"/></clipPath></g><g class="gradients"/><g class="patterns"/></defs><g class="bglayer"/><g class="layer-below"><g class="imagelayer"/><g class="shapelayer"/></g><g class="cartesianlayer"><g class="subplot xy"><g class="layer-subplot"><g class="shapelayer"><path data-index="0" fill-rule="evenodd" d="M285.07,169.36H1113V-203H285.07Z" clip-path="url(#clip60f8d3xy)" style="opacity: 0.3; stroke: rgb(220, 57, 18); stroke-opacity: 1; fill: rgb(220, 57, 18); fill-opacity: 0.7; stroke-width: 5px;"/><path data-index="1" fill-rule="evenodd" d="M443.49,280.32H1113V-203H443.49Z" clip-path="url(#clip60f8d3xy)" style="opacity: 0.3; stroke: rgb(51, 102, 204); stroke-opacity: 1; fill: rgb(51, 102, 204); fill-opacity: 0.7; stroke-width: 5px;"/></g><g class="imagelayer"/></g><g class="minor-gridlayer"><g class="x"/><g class="y"/></g><g class="gridlayer"><g class="x"/><g class="y"/></g><g class="zerolinelayer"/><path class="xlines-below"/><path class="ylines-below"/><g class="overlines-below"/><g class="xaxislayer-below"/><g class="yaxislayer-below"/><g class="overaxes-below"/><g class="plot" transform="translate(57,80)" clip-path="url(#clip60f8d3xyplot)"><g class="scatterlayer mlayer"><g class="trace scatter tracec739c7" style="stroke-miterlimit: 2; opacity: 1;"><g class="fills"/><g class="errorbars"/><g class="lines"/><g class="points"><path class="point" transform="translate(197.76,109.85)" d="M7.5,0A7.5,7.5 0 1,1 0,-7.5A7.5,7.5 0 0,1 7.5,0Z" style="opacity: 1; stroke-width: 0px; fill: rgb(51, 102, 204); fill-opacity: 1;"/><path class="point" transform="translate(501.98,243.52)" d="M7.5,0A7.5,7.5 0 1,1 0,-7.5A7.5,7.5 0 0,1 7.5,0Z" style="opacity: 1; stroke-width: 0px; fill: rgb(51, 102, 204); fill-opacity: 1;"/><path class="point" transform="translate(386.49,200.32)" d="M7.5,0A7.5,7.5 0 1,1 0,-7.5A7.5,7.5 0 0,1 7.5,0Z" style="opacity: 1; stroke-width: 0px; fill: rgb(51, 102, 204); fill-opacity: 1;"/><path class="point" transform="translate(316.09,179.32)" d="M7.5,0A7.5,7.5 0 1,1 0,-7.5A7.5,7.5 0 0,1 7.5,0Z" style="opacity: 1; stroke-width: 0px; fill: rgb(51, 102, 204); fill-opacity: 1;"/><path class="point" transform="translate(82.38,153.93)" d="M7.5,0A7.5,7.5 0 1,1 0,-7.5A7.5,7.5 0 0,1 7.5,0Z" style="opacity: 1; stroke-width: 0px; fill: rgb(51, 102, 204); fill-opacity: 1;"/><path class="point" transform="translate(82.37,60.8)" d="M7.5,0A7.5,7.5 0 1,1 0,-7.5A7.5,7.5 0 0,1 7.5,0Z" style="opacity: 1; stroke-width: 0px; fill: rgb(51, 102, 204); fill-opacity: 1;"/><path class="point" transform="translate(30.67,226.49)" d="M7.5,0A7.5,7.5 0 1,1 0,-7.5A7.5,7.5 0 0,1 7.5,0Z" style="opacity: 1; stroke-width: 0px; fill: rgb(51, 102, 204); fill-opacity: 1;"/><path class="point" transform="translate(373.86,269.85)" d="M7.5,0A7.5,7.5 0 1,1 0,-7.5A7.5,7.5 0 0,1 7.5,0Z" style="opacity: 1; stroke-width: 0px; fill: rgb(51, 102, 204); fill-opacity: 1;"/><path class="point" transform="translate(10.87,111.06)" d="M7.5,0A7.5,7.5 0 1,1 0,-7.5A7.5,7.5 0 0,1 7.5,0Z" style="opacity: 1; stroke-width: 0px; fill: rgb(51, 102, 204); fill-opacity: 1;"/><path class="point" transform="translate(439.53,264.59)" d="M7.5,0A7.5,7.5 0 1,1 0,-7.5A7.5,7.5 0 0,1 7.5,0Z" style="opacity: 1; stroke-width: 0px; fill: rgb(51, 102, 204); fill-opacity: 1;"/><path class="point" transform="translate(96.84,54.22)" d="M7.5,0A7.5,7.5 0 1,1 0,-7.5A7.5,7.5 0 0,1 7.5,0Z" style="opacity: 1; stroke-width: 0px; fill: rgb(51, 102, 204); fill-opacity: 1;"/><path class="point" transform="translate(160.64,196.79)" d="M7.5,0A7.5,7.5 0 1,1 0,-7.5A7.5,7.5 0 0,1 7.5,0Z" style="opacity: 1; stroke-width: 0px; fill: rgb(51, 102, 204); fill-opacity: 1;"/><path class="point" transform="translate(277.07,255.36)" d="M7.5,0A7.5,7.5 0 1,1 0,-7.5A7.5,7.5 0 0,1 7.5,0Z" style="opacity: 1; stroke-width: 0px; fill: rgb(51, 102, 204); fill-opacity: 1;"/><path class="point" transform="translate(153.77,158.44)" d="M7.5,0A7.5,7.5 0 1,1 0,-7.5A7.5,7.5 0 0,1 7.5,0Z" style="opacity: 1; stroke-width: 0px; fill: rgb(51, 102, 204); fill-opacity: 1;"/></g><g class="text"/></g><g class="trace scatter traceb7904b" style="stroke-miterlimit: 2; opacity: 1;"><g class="fills"/><g class="errorbars"/><g class="lines"/><g class="points"><path class="point" transform="translate(457.34,137.47)" d="M7.5,0A7.5,7.5 0 1,1 0,-7.5A7.5,7.5 0 0,1 7.5,0Z" style="opacity: 1; stroke-width: 0px; fill: rgb(220, 57, 18); fill-opacity: 1;"/><path class="point" transform="translate(317.39,115.35)" d="M7.5,0A7.5,7.5 0 1,1 0,-7.5A7.5,7.5 0 0,1 7.5,0Z" style="opacity: 1; stroke-width: 0px; fill: rgb(220, 57, 18); fill-opacity: 1;"/><path class="point" transform="translate(512.11,234.74)" d="M7.5,0A7.5,7.5 0 1,1 0,-7.5A7.5,7.5 0 0,1 7.5,0Z" style="opacity: 1; stroke-width: 0px; fill: rgb(220, 57, 18); fill-opacity: 1;"/><path class="point" transform="translate(112.12,14.47)" d="M7.5,0A7.5,7.5 0 1,1 0,-7.5A7.5,7.5 0 0,1 7.5,0Z" style="opacity: 1; stroke-width: 0px; fill: rgb(220, 57, 18); fill-opacity: 1;"/><path class="point" transform="translate(96,9.73)" d="M7.5,0A7.5,7.5 0 1,1 0,-7.5A7.5,7.5 0 0,1 7.5,0Z" style="opacity: 1; stroke-width: 0px; fill: rgb(220, 57, 18); fill-opacity: 1;"/><path class="point" transform="translate(228.07,89.36)" d="M7.5,0A7.5,7.5 0 1,1 0,-7.5A7.5,7.5 0 0,1 7.5,0Z" style="opacity: 1; stroke-width: 0px; fill: rgb(220, 57, 18); fill-opacity: 1;"/></g><g class="text"/></g></g></g><g class="overplot"/><path class="xlines-above crisp" d="M54,364.5H585" style="fill: none; stroke-width: 3px; stroke: rgb(36, 36, 36); stroke-opacity: 1;"/><path class="ylines-above crisp" d="M55.5,80V363" style="fill: none; stroke-width: 3px; stroke: rgb(36, 36, 36); stroke-opacity: 1;"/><g class="overlines-above"/><g class="xaxislayer-above"/><g class="yaxislayer-above"/><g class="overaxes-above"/></g></g><g class="polarlayer"/><g class="smithlayer"/><g class="ternarylayer"/><g class="geolayer"/><g class="funnelarealayer"/><g class="pielayer"/><g class="iciclelayer"/><g class="treemaplayer"/><g class="sunburstlayer"/><g class="glimages"/><defs id="topdefs-60f8d3"><g class="clips"/></defs><g class="layer-above"><g class="imagelayer"/><g class="shapelayer"/></g><g class="infolayer"><g class="g-gtitle"/><g class="g-xtitle"><text class="xtitle" x="321" y="38.69999999999999" text-anchor="middle" style="font-family: 'Open Sans', verdana, arial, sans-serif; font-size: 36px; fill: rgb(36, 36, 36); opacity: 1; font-weight: normal; white-space: pre;">Objective 1</text></g><g class="g-ytitle" transform="translate(76.7001953125,0)"><text class="ytitle" transform="rotate(-90,-38.7,221.5)" x="-38.7" y="221.5" text-anchor="middle" style="font-family: 'Open Sans', verdana, arial, sans-serif; font-size: 36px; fill: rgb(36, 36, 36); opacity: 1; font-weight: normal; white-space: pre;">Objective 2</text></g></g></svg>