<svg class="main-svg" xmlns="http://www.w3.org/2000/svg" xmlns:xlink="http://www.w3.org/1999/xlink" width="800" height="400" style="" viewBox="0 0 800 400"><rect x="0" y="0" width="800" height="400" style="fill: rgb(255, 255, 255); fill-opacity: 1;"/><defs id="defs-e09fd2"><g class="clips"><clipPath id="clipe09fd2xyplot" class="plotclip"><rect width="726" height="307"/></clipPath><clipPath class="axesclip" id="clipe09fd2x"><rect x="69" y="0" width="726" height="400"/></clipPath><clipPath class="axesclip" id="clipe09fd2y"><rect x="0" y="34" width="800" height="307"/></clipPath><clipPath class="axesclip" id="clipe09fd2xy"><rect x="69" y="34" width="726" height="307"/></clipPath></g><g class="gradients"/><g class="patterns"/></defs><g class="bglayer"/><g class="layer-below"><g class="imagelayer"/><g class="shapelayer"/></g><g class="cartesianlayer"><g class="subplot xy"><g class="layer-subplot"><g class="shapelayer"/><g class="imagelayer"/></g><g class="minor-gridlayer"><g class="x"/><g class="y"/></g><g class="gridlayer"><g class="x"/><g class="y"/></g><g class="zerolinelayer"/><path class="xlines-below"/><path class="ylines-below"/><g class="overlines-below"/><g class="xaxislayer-below"/><g class="yaxislayer-below"/><g class="overaxes-below"/><g class="plot" transform="translate(69,34)" clip-path="url(#clipe09fd2xyplot)"><g class="scatterlayer mlayer"><g class="trace scatter traceace3e1" style="stroke-miterlimit: 2; opacity: 1;"><g class="fills"/><g class="errorbars"/><g class="lines"><path class="js-line" d="M0,223.36L18.89,227.99L19.62,228.19L36.34,233.72L37.06,234L50.14,239.82L50.87,240.18L62.5,246.74L63.23,247.18L80.67,258.89L81.39,259.41L93.75,269.13L94.47,269.71L120.64,290.99L121.36,291.5L139.53,301.85L140.26,302.23L146.8,304.94L147.53,305.23L153.34,306.6L154.07,306.76L158.43,307L159.15,307L228.19,306.27L228.92,306.17L236.91,305.7L237.64,305.78L243.45,306.95L244.18,300.18L247.81,273.41L248.54,270.25L250.72,265.27L251.45,265.06L252.9,266.6L253.63,268.25L255.81,276.44L256.53,280.05L261.62,304.79L262.35,306.46L263.8,306.96L264.53,306.95L289.96,307L290.69,307L298.68,306.35L299.41,306.17L302.32,304.77L303.05,304.18L307.41,299.52L308.13,298.49L314.67,290.17L315.4,289.65L317.58,288.94L318.31,289.04L320.49,290.42L321.21,291.27L324.12,296.62L324.85,298.37L328.48,305.81L329.21,306.51L330.66,306.64L331.39,305.66L332.84,301.27L333.57,297.8L338.65,264.57L339.38,259.72L346.65,216.52L347.38,212.88L352.46,190.85L353.19,188.23L358.28,173.34L359,171.71L362.64,165.51L363.36,164.61L366.27,162.05L367,161.7L369.9,160.9L370.63,160.93L373.54,161.8L374.26,162.26L377.9,165.78L378.62,166.66L384.44,175.28L385.17,176.54L390.98,187.34L391.71,188.95L404.79,221.16L405.51,222.91L423.68,266.09L424.41,267.49L433.13,283.16L433.86,284.25L439.67,291.45L440.4,292.16L449.84,300.09L450.57,300.6L457.11,304.54L457.84,304.9L467.29,307L468.01,307L578.47,306.25L579.2,306.07L590.1,302.68L590.83,302.4L600.28,297.89L601,297.54L622.8,283.8L623.53,283.3L644.61,267.38L645.33,266.83L667.14,251.51L667.86,251.05L682.4,242.75L683.12,242.38L698.38,235.25L699.11,234.95L716.55,228.79L717.28,228.57L726,226.14" style="vector-effect: non-scaling-stroke; fill: none; stroke: rgb(255, 127, 14); stroke-opacity: 1; stroke-width: 2px; opacity: 1;"/></g><g class="points"/><g class="text"/></g><g class="trace scatter trace505a05" style="stroke-miterlimit: 2; opacity: 1;"><g class="fills"/><g class="errorbars"/><g class="lines"><path class="js-line" d="M726,6447L726,-6140" style="vector-effect: non-scaling-stroke; fill: none; stroke: rgb(228, 26, 28); stroke-opacity: 1; stroke-width: 1px; opacity: 1;"/></g><g class="points"/><g class="text"/></g><g class="trace scatter traceafa16a" style="stroke-miterlimit: 2; opacity: 1;"><g class="fills"/><g class="errorbars"/><g class="lines"><path class="js-line" d="M0,6447L0,-6140" style="vector-effect: non-scaling-stroke; fill: none; stroke: rgb(228, 26, 28); stroke-opacity: 1; stroke-width: 1px; opacity: 1;"/></g><g class="points"/><g class="text"/></g><g class="trace scatter trace51ab92" style="stroke-miterlimit: 2; opacity: 1;"><g class="fills"/><g class="errorbars"/><g class="lines"><path class="js-line" d="M371.06,6447L371.06,-6140" style="vector-effect: non-scaling-stroke; fill: none; stroke: rgb(228, 26, 28); stroke-opacity: 1; stroke-width: 1px; opacity: 1;"/></g><g class="points"/><g class="text"/></g><g class="trace scatter traced14b50" style="stroke-miterlimit: 2; opacity: 1;"><g class="fills"/><g class="errorbars"/><g class="lines"><path class="js-line" d="M0,307" style="vector-effect: non-scaling-stroke; fill: none; stroke: rgb(228, 26, 28); stroke-opacity: 1; stroke-width: 2px; opacity: 1;"/></g><g class="points"/><g class="text"/></g></g></g><g class="overplot"/><path class="xlines-above crisp" d="M68,341.5H795" style="fill: none; stroke-width: 1px; stroke: rgb(36, 36, 36); stroke-opacity: 1;"/><path class="ylines-above crisp" d="M68.5,34V341" style="fill: none; stroke-width: 1px; stroke: rgb(36, 36, 36); stroke-opacity: 1;"/><g class="overlines-above"/><g class="xaxislayer-above"><path class="xtick ticks crisp" d="M0,342v5" transform="translate(69,0)" style="stroke: rgb(68, 68, 68); stroke-opacity: 1; stroke-width: 1px;"/><path class="xtick ticks crisp" d="M0,342v5" transform="translate(214.2,0)" style="stroke: rgb(68, 68, 68); stroke-opacity: 1; stroke-width: 1px;"/><path class="xtick ticks crisp" d="M0,342v5" transform="translate(359.4,0)" style="stroke: rgb(68, 68, 68); stroke-opacity: 1; stroke-width: 1px;"/><path class="xtick ticks crisp" d="M0,342v5" transform="translate(504.6,0)" style="stroke: rgb(68, 68, 68); stroke-opacity: 1; stroke-width: 1px;"/><path class="xtick ticks crisp" d="M0,342v5" transform="translate(649.8,0)" style="stroke: rgb(68, 68, 68); stroke-opacity: 1; stroke-width: 1px;"/><path class="xtick ticks crisp" d="M0,342v5" transform="translate(795,0)" style="stroke: rgb(68, 68, 68); stroke-opacity: 1; stroke-width: 1px;"/><g class="xtick"><text text-anchor="middle" x="0" y="366.2" transform="translate(69,0)" style="font-family: 'Open Sans', verdana, arial, sans-serif; font-size: 16px; fill: rgb(36, 36, 36); fill-opacity: 1; white-space: pre; opacity: 1;">0</text></g><g class="xtick"><text text-anchor="middle" x="0" y="366.2" style="font-family: 'Open Sans', verdana, arial, sans-serif; font-size: 16px; fill: rgb(36, 36, 36); fill-opacity: 1; white-space: pre; opacity: 1;" transform="translate(214.2,0)">1</text></g><g class="xtick"><text text-anchor="middle" x="0" y="366.2" style="font-family: 'Open Sans', verdana, arial, sans-serif; font-size: 16px; fill: rgb(36, 36, 36); fill-opacity: 1; white-space: pre; opacity: 1;" transform="translate(359.4,0)">2</text></g><g class="xtick"><text text-anchor="middle" x="0" y="366.2" style="font-family: 'Open Sans', verdana, arial, sans-serif; font-size: 16px; fill: rgb(36, 36, 36); fill-opacity: 1; white-space: pre; opacity: 1;" transform="translate(504.6,0)">3</text></g><g class="xtick"><text text-anchor="middle" x="0" y="366.2" style="font-family: 'Open Sans', verdana, arial, sans-serif; font-size: 16px; fill: rgb(36, 36, 36); fill-opacity: 1; white-space: pre; opacity: 1;" transform="translate(649.8,0)">4</text></g><g class="xtick"><text text-anchor="middle" x="0" y="366.2" style="font-family: 'Open Sans', verdana, arial, sans-serif; font-size: 16px; fill: rgb(36, 36, 36); fill-opacity: 1; white-space: pre; opacity: 1;" transform="translate(795,0)">5</text></g></g><g class="yaxislayer-above"><path class="ytick ticks crisp" d="M68,0h-5" transform="translate(0,341)" style="stroke: rgb(68, 68, 68); stroke-opacity: 1; stroke-width: 1px;"/><path class="ytick ticks crisp" d="M68,0h-5" transform="translate(0,302.63)" style="stroke: rgb(68, 68, 68); stroke-opacity: 1; stroke-width: 1px;"/><path class="ytick ticks crisp" d="M68,0h-5" transform="translate(0,264.25)" style="stroke: rgb(68, 68, 68); stroke-opacity: 1; stroke-width: 1px;"/><path class="ytick ticks crisp" d="M68,0h-5" transform="translate(0,225.88)" style="stroke: rgb(68, 68, 68); stroke-opacity: 1; stroke-width: 1px;"/><path class="ytick ticks crisp" d="M68,0h-5" transform="translate(0,187.5)" style="stroke: rgb(68, 68, 68); stroke-opacity: 1; stroke-width: 1px;"/><path class="ytick ticks crisp" d="M68,0h-5" transform="translate(0,149.13)" style="stroke: rgb(68, 68, 68); stroke-opacity: 1; stroke-width: 1px;"/><path class="ytick ticks crisp" d="M68,0h-5" transform="translate(0,110.75)" style="stroke: rgb(68, 68, 68); stroke-opacity: 1; stroke-width: 1px;"/><path class="ytick ticks crisp" d="M68,0h-5" transform="translate(0,72.38)" style="stroke: rgb(68, 68, 68); stroke-opacity: 1; stroke-width: 1px;"/><path class="ytick ticks crisp" d="M68,0h-5" transform="translate(0,34)" style="stroke: rgb(68, 68, 68); stroke-opacity: 1; stroke-width: 1px;"/><g class="ytick"><text text-anchor="end" x="59.8" y="5.6" transform="translate(0,341)" style="font-family: 'Open Sans', verdana, arial, sans-serif; font-size: 16px; fill: rgb(36, 36, 36); fill-opacity: 1; white-space: pre; opacity: 1;">0</text></g><g class="ytick"><text text-anchor="end" x="59.8" y="5.6" style="font-family: 'Open Sans', verdana, arial, sans-serif; font-size: 16px; fill: rgb(36, 36, 36); fill-opacity: 1; white-space: pre; opacity: 1;" transform="translate(0,302.63)">0.05</text></g><g class="ytick"><text text-anchor="end" x="59.8" y="5.6" style="font-family: 'Open Sans', verdana, arial, sans-serif; font-size: 16px; fill: rgb(36, 36, 36); fill-opacity: 1; white-space: pre; opacity: 1;" transform="translate(0,264.25)">0.1</text></g><g class="ytick"><text text-anchor="end" x="59.8" y="5.6" style="font-family: 'Open Sans', verdana, arial, sans-serif; font-size: 16px; fill: rgb(36, 36, 36); fill-opacity: 1; white-space: pre; opacity: 1;" transform="translate(0,225.88)">0.15</text></g><g class="ytick"><text text-anchor="end" x="59.8" y="5.6" style="font-family: 'Open Sans', verdana, arial, sans-serif; font-size: 16px; fill: rgb(36, 36, 36); fill-opacity: 1; white-space: pre; opacity: 1;" transform="translate(0,187.5)">0.2</text></g><g class="ytick"><text text-anchor="end" x="59.8" y="5.6" style="font-family: 'Open Sans', verdana, arial, sans-serif; font-size: 16px; fill: rgb(36, 36, 36); fill-opacity: 1; white-space: pre; opacity: 1;" transform="translate(0,149.13)">0.25</text></g><g class="ytick"><text text-anchor="end" x="59.8" y="5.6" style="font-family: 'Open Sans', verdana, arial, sans-serif; font-size: 16px; fill: rgb(36, 36, 36); fill-opacity: 1; white-space: pre; opacity: 1;" transform="translate(0,110.75)">0.3</text></g><g class="ytick"><text text-anchor="end" x="59.8" y="5.6" style="font-family: 'Open Sans', verdana, arial, sans-serif; font-size: 16px; fill: rgb(36, 36, 36); fill-opacity: 1; white-space: pre; opacity: 1;" transform="translate(0,72.38)">0.35</text></g><g class="ytick"><text text-anchor="end" x="59.8" y="5.6" style="font-family: 'Open Sans', verdana, arial, sans-serif; font-size: 16px; fill: rgb(36, 36, 36); fill-opacity: 1; white-space: pre; opacity: 1;" transform="translate(0,34)">0.4</text></g></g><g class="overaxes-above"/></g></g><g class="polarlayer"/><g class="smithlayer"/><g class="ternarylayer"/><g class="geolayer"/><g class="funnelarealayer"/><g class="pielayer"/><g class="iciclelayer"/><g class="treemaplayer"/><g class="sunburstlayer"/><g class="glimages"/><defs id="topdefs-e09fd2"><g class="clips"/><clipPath id="legende09fd2"><rect width="359" height="34" x="0" y="0"/></clipPath></defs><g class="layer-above"><g class="imagelayer"/><g class="shapelayer"/></g><g class="infolayer"><g class="legend" pointer-events="all" transform="translate(436,0)"><rect class="bg" shape-rendering="crispEdges" width="359" height="34" x="0" y="0" style="stroke: rgb(68, 68, 68); stroke-opacity: 1; fill: rgb(255, 255, 255); fill-opacity: 1; stroke-width: 0px;"/><g class="scrollbox" transform="" clip-path="url(#legende09fd2)"><g class="groups"><g class="traces" transform="translate(0,16.9)" style="opacity: 1;"><text class="legendtext" text-anchor="start" x="40" y="6.24" style="font-family: 'Open Sans', verdana, arial, sans-serif; font-size: 16px; fill: rgb(36, 36, 36); fill-opacity: 1; white-space: pre;">Acquisition function</text><g class="layers" style="opacity: 1;"><g class="legendfill"/><g class="legendlines"><path class="js-line" d="M5,0h30" style="fill: none; stroke: rgb(255, 127, 14); stroke-opacity: 1; stroke-width: 2px;"/></g><g class="legendsymbols"><g class="legendpoints"/></g></g><rect class="legendtoggle" x="0" y="-11.9" width="190.796875" height="23.8" style="fill: rgb(0, 0, 0); fill-opacity: 0;"/></g><g class="traces" transform="translate(193.296875,16.9)" style="opacity: 1;"><text class="legendtext" text-anchor="start" x="40" y="6.24" style="font-family: 'Open Sans', verdana, arial, sans-serif; font-size: 16px; fill: rgb(36, 36, 36); fill-opacity: 1; white-space: pre;">Next candidates</text><g class="layers" style="opacity: 1;"><g class="legendfill"/><g class="legendlines"><path class="js-line" d="M5,0h30" style="fill: none; stroke: rgb(228, 26, 28); stroke-opacity: 1; stroke-width: 2px;"/></g><g class="legendsymbols"><g class="legendpoints"/></g></g><rect class="legendtoggle" x="0" y="-11.9" width="162.875" height="23.8" style="fill: rgb(0, 0, 0); fill-opacity: 0;"/></g></g></g><rect class="scrollbar" rx="20" ry="3" width="0" height="0" x="0" y="0" style="fill: rgb(128, 139, 164); fill-opacity: 1;"/></g><g class="g-gtitle"/><g class="g-xtitle" transform="translate(0,-5.003125000000011)"><text class="xtitle" x="432" y="399.003125" text-anchor="middle" style="font-family: 'Open Sans', verdana, arial, sans-serif; font-size: 19px; fill: rgb(36, 36, 36); opacity: 1; font-weight: normal; white-space: pre;">Input (x)</text></g><g class="g-ytitle" transform="translate(19.7060546875,0)"><text class="ytitle" transform="rotate(-90,0.29375000000000284,187.5)" x="0.29375000000000284" y="187.5" text-anchor="middle" style="font-family: 'Open Sans', verdana, arial, sans-serif; font-size: 19px; fill: rgb(36, 36, 36); opacity: 1; font-weight: normal; white-space: pre;">Expected improvement</text></g></g></svg>