<svg class="main-svg" xmlns="http://www.w3.org/2000/svg" xmlns:xlink="http://www.w3.org/1999/xlink" width="800" height="400" style="" viewBox="0 0 800 400"><rect x="0" y="0" width="800" height="400" style="fill: rgb(255, 255, 255); fill-opacity: 1;"/><defs id="defs-1f96bd"><g class="clips"><clipPath id="clip1f96bdxyplot" class="plotclip"><rect width="800" height="366"/></clipPath><clipPath class="axesclip" id="clip1f96bdx"><rect x="0" y="0" width="800" height="400"/></clipPath><clipPath class="axesclip" id="clip1f96bdy"><rect x="0" y="34" width="800" height="366"/></clipPath><clipPath class="axesclip" id="clip1f96bdxy"><rect x="0" y="34" width="800" height="366"/></clipPath></g><g class="gradients"/><g class="patterns"/></defs><g class="bglayer"/><g class="layer-below"><g class="imagelayer"/><g class="shapelayer"/></g><g class="cartesianlayer"><g class="subplot xy"><g class="layer-subplot"><g class="shapelayer"/><g class="imagelayer"/></g><g class="minor-gridlayer"><g class="x"/><g class="y"/></g><g class="gridlayer"><g class="x"/><g class="y"/></g><g class="zerolinelayer"/><path class="xlines-below"/><path class="ylines-below"/><g class="overlines-below"/><g class="xaxislayer-below"/><g class="yaxislayer-below"/><g class="overaxes-below"/><g class="plot" transform="translate(0,34)" clip-path="url(#clip1f96bdxyplot)"><g class="scatterlayer mlayer"><g class="trace scatter trace41d487" style="stroke-miterlimit: 2;"><g class="fills"><g><path class="js-fill" d="M0,68.58L24.02,80.48L24.82,80.89L55.26,97.49L56.06,97.95L100.9,124.03L101.7,124.49L128.93,139.66L129.73,140.08L149.75,149.81L150.55,150.16L166.57,156.43L167.37,156.7L182.58,160.9L183.38,161.07L196.2,162.91L197,162.96L206.61,163L207.41,162.83L209.81,161L210.61,160.24L227.43,145.08L228.23,144.43L240.24,135.71L241.04,135.2L252.25,129.02L253.05,128.65L263.46,124.76L264.26,124.53L274.67,122.45L275.48,122.36L285.89,121.99L286.69,122L289.09,121.61L289.89,121.1L329.93,91.57L330.73,91.07L344.34,83.54L345.15,83.16L357.96,77.89L358.76,77.63L369.17,74.81L369.97,74.64L381.98,73.12L382.78,73.08L393.99,73.37L394.79,73.45L406.01,75.41L406.81,75.6L418.82,79.52L419.62,79.84L431.63,85.56L432.43,86L444.44,93.42L445.25,93.97L459.66,104.94L460.46,105.6L475.68,119.28L476.48,120.05L494.09,138.03L494.89,138.88L514.11,159.23L514.91,158.91L526.93,152.22L527.73,151.74L548.55,138.66L549.35,138.13L586.99,112.77L587.79,112.23L623.82,88.81L624.62,88.31L656.66,69.77L657.46,69.33L687.09,54.59L687.89,54.23L710.31,44.67L711.11,44.36L734.33,35.86L735.14,35.59L765.57,26.42L766.37,26.21L796.8,18.97L797.6,18.8L800,18.3L800,347.7L782.38,344.72L781.58,344.57L759.16,339.73L758.36,339.54L735.94,333.3L735.14,333.05L712.71,325.15L711.91,324.83L691.89,316.14L691.09,315.76L670.27,304.87L669.47,304.41L648.65,291.44L647.85,290.9L629.43,277.56L628.63,276.94L609.41,261.11L608.61,260.41L588.59,241.87L587.79,241.09L566.17,218.93L565.37,218.08L523.72,171.27L522.92,170.35L514.11,160.44L513.31,160.1L510.91,161.12L510.11,161.52L495.7,168.06L494.89,168.39L482.08,172.83L481.28,173.07L467.67,176.19L466.87,176.32L454.05,177.66L453.25,177.7L439.64,177.42L438.84,177.36L425.23,175.4L424.42,175.24L408.41,170.98L407.61,170.72L389.99,163.99L389.19,163.64L350.75,144.75L349.95,144.34L329.13,134.17L328.33,133.81L312.31,127.45L311.51,127.18L298.7,123.72L297.9,123.56L289.89,122.51L289.09,122.57L278.68,130.16L277.88,130.78L261.86,142.47L261.06,143.01L247.45,151.26L246.65,151.68L235.44,156.9L234.63,157.21L224.22,160.59L223.42,160.79L209.81,163.07L209.01,163.18L206.61,164.47L205.81,165.23L179.38,193.87L178.58,194.77L142.54,235.04L141.74,235.9L117.72,260.66L116.92,261.44L98.5,278.51L97.7,279.22L80.08,293.78L79.28,294.4L60.86,307.73L60.06,308.27L40.84,320.14L40.04,320.59L21.62,330.13L20.82,330.51L0,339.32Z" style="fill: rgb(55, 126, 255); fill-opacity: 0.1; stroke-width: 0;"/></g></g><g class="errorbars"/><g class="lines"><path class="js-line" d="M0,339.32L20.82,330.51L21.62,330.13L40.04,320.59L40.84,320.14L60.06,308.27L60.86,307.73L79.28,294.4L80.08,293.78L97.7,279.22L98.5,278.51L116.92,261.44L117.72,260.66L141.74,235.9L142.54,235.04L178.58,194.77L179.38,193.87L205.81,165.23L206.61,164.47L209.01,163.18L209.81,163.07L223.42,160.79L224.22,160.59L234.63,157.21L235.44,156.9L246.65,151.68L247.45,151.26L261.06,143.01L261.86,142.47L277.88,130.78L278.68,130.16L289.09,122.57L289.89,122.51L297.9,123.56L298.7,123.72L311.51,127.18L312.31,127.45L328.33,133.81L329.13,134.17L349.95,144.34L350.75,144.75L389.19,163.64L389.99,163.99L407.61,170.72L408.41,170.98L424.42,175.24L425.23,175.4L438.84,177.36L439.64,177.42L453.25,177.7L454.05,177.66L466.87,176.32L467.67,176.19L481.28,173.07L482.08,172.83L494.89,168.39L495.7,168.06L510.11,161.52L510.91,161.12L513.31,160.1L514.11,160.44L522.92,170.35L523.72,171.27L565.37,218.08L566.17,218.93L587.79,241.09L588.59,241.87L608.61,260.41L609.41,261.11L628.63,276.94L629.43,277.56L647.85,290.9L648.65,291.44L669.47,304.41L670.27,304.87L691.09,315.76L691.89,316.14L711.91,324.83L712.71,325.15L735.14,333.05L735.94,333.3L758.36,339.54L759.16,339.73L781.58,344.57L782.38,344.72L800,347.7" style="vector-effect: non-scaling-stroke; fill: none; stroke: rgb(55, 126, 255); stroke-opacity: 0.1; stroke-width: 2px; opacity: 1;"/></g><g class="points"/><g class="text"/></g><g class="trace scatter trace8b6b61" style="stroke-miterlimit: 2;"><g class="fills"/><g class="errorbars"/><g class="lines"><path class="js-line" d="M0,68.58L24.02,80.48L24.82,80.89L55.26,97.49L56.06,97.95L100.9,124.03L101.7,124.49L128.93,139.66L129.73,140.08L149.75,149.81L150.55,150.16L166.57,156.43L167.37,156.7L182.58,160.9L183.38,161.07L196.2,162.91L197,162.96L206.61,163L207.41,162.83L209.81,161L210.61,160.24L227.43,145.08L228.23,144.43L240.24,135.71L241.04,135.2L252.25,129.02L253.05,128.65L263.46,124.76L264.26,124.53L274.67,122.45L275.48,122.36L285.89,121.99L286.69,122L289.09,121.61L289.89,121.1L329.93,91.57L330.73,91.07L344.34,83.54L345.15,83.16L357.96,77.89L358.76,77.63L369.17,74.81L369.97,74.64L381.98,73.12L382.78,73.08L393.99,73.37L394.79,73.45L406.01,75.41L406.81,75.6L418.82,79.52L419.62,79.84L431.63,85.56L432.43,86L444.44,93.42L445.25,93.97L459.66,104.94L460.46,105.6L475.68,119.28L476.48,120.05L494.09,138.03L494.89,138.88L514.11,159.23L514.91,158.91L526.93,152.22L527.73,151.74L548.55,138.66L549.35,138.13L586.99,112.77L587.79,112.23L623.82,88.81L624.62,88.31L656.66,69.77L657.46,69.33L687.09,54.59L687.89,54.23L710.31,44.67L711.11,44.36L734.33,35.86L735.14,35.59L765.57,26.42L766.37,26.21L796.8,18.97L797.6,18.8L800,18.3" style="vector-effect: non-scaling-stroke; fill: none; stroke: rgb(55, 126, 255); stroke-opacity: 0.1; stroke-width: 2px; opacity: 1;"/></g><g class="points"/><g class="text"/></g><g class="trace scatter trace49f0d1" style="stroke-miterlimit: 2; opacity: 1;"><g class="fills"/><g class="errorbars"/><g class="lines"><path class="js-line" d="M0,203.95L40.84,204.79L41.64,204.78L64.06,204.04L64.86,203.99L90.49,201.67L91.29,201.57L112.11,198.26L112.91,198.1L134.53,193.07L135.34,192.85L155.36,186.58L156.16,186.3L178.58,177.38L179.38,177.02L199.4,167.47L200.2,167.06L229.83,151.05L230.63,150.61L261.86,133.86L262.66,133.46L282.68,124.5L283.48,124.18L299.5,118.72L300.3,118.49L314.71,115.1L315.52,114.95L330.73,112.98L331.53,112.92L348.35,112.6L349.15,112.62L367.57,114.27L368.37,114.38L387.59,117.98L388.39,118.16L410.81,124.22L411.61,124.47L435.64,132.43L436.44,132.71L518.12,161.04L518.92,161.28L543.74,167.99L544.54,168.18L574.17,174.41L574.97,174.55L604.6,178.95L605.41,179.05L632.63,181.73L633.43,181.79L668.67,183.71L669.47,183.74L707.11,184.42L707.91,184.43L771.97,183.7L772.77,183.68L800,183" style="vector-effect: non-scaling-stroke; fill: none; stroke: rgb(31, 119, 180); stroke-opacity: 1; stroke-width: 2px; opacity: 1;"/></g><g class="points"/><g class="text"/></g><g class="trace scatter trace9e432d" style="stroke-miterlimit: 2; opacity: 1;"><g class="fills"/><g class="errorbars"/><g class="lines"/><g class="points"><path class="point" transform="translate(513.61,159.68)" d="M3,0A3,3 0 1,1 0,-3A3,3 0 0,1 3,0Z" style="opacity: 1; stroke-width: 0px; fill: rgb(228, 26, 28); fill-opacity: 1;"/><path class="point" transform="translate(207.81,163.1)" d="M3,0A3,3 0 1,1 0,-3A3,3 0 0,1 3,0Z" style="opacity: 1; stroke-width: 0px; fill: rgb(228, 26, 28); fill-opacity: 1;"/><path class="point" transform="translate(288.66,122.24)" d="M3,0A3,3 0 1,1 0,-3A3,3 0 0,1 3,0Z" style="opacity: 1; stroke-width: 0px; fill: rgb(228, 26, 28); fill-opacity: 1;"/></g><g class="text"/></g></g></g><g class="overplot"/><path class="xlines-above crisp" d="M0,0" style="fill: none;"/><path class="ylines-above crisp" d="M0,0" style="fill: none;"/><g class="overlines-above"/><g class="xaxislayer-above"/><g class="yaxislayer-above"/><g class="overaxes-above"/></g></g><g class="polarlayer"/><g class="smithlayer"/><g class="ternarylayer"/><g class="geolayer"/><g class="funnelarealayer"/><g class="pielayer"/><g class="iciclelayer"/><g class="treemaplayer"/><g class="sunburstlayer"/><g class="glimages"/><defs id="topdefs-1f96bd"><g class="clips"/><clipPath id="legend1f96bd"><rect width="527" height="34" x="0" y="0"/></clipPath></defs><g class="layer-above"><g class="imagelayer"/><g class="shapelayer"/></g><g class="infolayer"><g class="legend" pointer-events="all" transform="translate(273,0)"><rect class="bg" shape-rendering="crispEdges" style="stroke: rgb(68, 68, 68); stroke-opacity: 1; fill: rgb(255, 255, 255); fill-opacity: 1; stroke-width: 0px;" width="527" height="34" x="0" y="0"/><g class="scrollbox" transform="" clip-path="url(#legend1f96bd)"><g class="groups" transform=""><g class="traces" transform="translate(0,16.9)" style="opacity: 1;"><text class="legendtext" text-anchor="start" x="40" y="6.24" style="font-family: 'Open Sans', verdana, arial, sans-serif; font-size: 16px; fill: rgb(36, 36, 36); fill-opacity: 1; white-space: pre;">95% confidence interval</text><g class="layers"><g class="legendfill"><path class="js-fill" d="M5,-2h30v6h-30z" style="stroke-width: 0; fill: rgb(55, 126, 255); fill-opacity: 0.1;"/></g><g class="legendlines"><path class="js-line" d="M5,-2h30" style="fill: none; stroke: rgb(55, 126, 255); stroke-opacity: 0.1; stroke-width: 2px;"/></g><g class="legendsymbols"><g class="legendpoints"/></g></g><rect class="legendtoggle" x="0" y="-11.9" width="220.03125" height="23.8" style="fill: rgb(0, 0, 0); fill-opacity: 0;"/></g></g><g class="groups" transform="translate(222.53125,0)"><g class="traces" transform="translate(0,16.9)" style="opacity: 1;"><text class="legendtext" text-anchor="start" x="40" y="6.24" style="font-family: 'Open Sans', verdana, arial, sans-serif; font-size: 16px; fill: rgb(36, 36, 36); fill-opacity: 1; white-space: pre;">Posterior mean</text><g class="layers" style="opacity: 1;"><g class="legendfill"/><g class="legendlines"><path class="js-line" d="M5,0h30" style="fill: none; stroke: rgb(31, 119, 180); stroke-opacity: 1; stroke-width: 2px;"/></g><g class="legendsymbols"><g class="legendpoints"/></g></g><rect class="legendtoggle" x="0" y="-11.9" width="157.5625" height="23.8" style="fill: rgb(0, 0, 0); fill-opacity: 0;"/></g></g><g class="groups" transform="translate(382.59375,0)"><g class="traces" transform="translate(0,16.9)" style="opacity: 1;"><text class="legendtext" text-anchor="start" x="40" y="6.24" style="font-family: 'Open Sans', verdana, arial, sans-serif; font-size: 16px; fill: rgb(36, 36, 36); fill-opacity: 1; white-space: pre;">Observations</text><g class="layers" style="opacity: 1;"><g class="legendfill"/><g class="legendlines"/><g class="legendsymbols"><g class="legendpoints"><path class="scatterpts" transform="translate(20,0)" d="M3,0A3,3 0 1,1 0,-3A3,3 0 0,1 3,0Z" style="opacity: 1; stroke-width: 0px; fill: rgb(228, 26, 28); fill-opacity: 1;"/></g></g></g><rect class="legendtoggle" x="0" y="-11.9" width="141.640625" height="23.8" style="fill: rgb(0, 0, 0); fill-opacity: 0;"/></g></g></g><rect class="scrollbar" rx="20" ry="3" width="0" height="0" style="fill: rgb(128, 139, 164); fill-opacity: 1;" x="0" y="0"/></g><g class="g-gtitle"/><g class="annotation" data-index="0" style="opacity: 1;"><g class="annotation-text-g" transform="rotate(0,160,117.94)"><g class="cursor-pointer" transform="translate(79,94)"><rect class="bg" x="0.5" y="0.5" width="162" height="46" style="stroke-width: 1px; stroke: rgb(0, 0, 0); stroke-opacity: 0; fill: rgb(0, 0, 0); fill-opacity: 0;"/><text class="annotation-text" text-anchor="middle" x="81.28125" y="19" style="font-family: 'Open Sans', verdana, arial, sans-serif; font-size: 16px; fill: rgb(36, 36, 36); fill-opacity: 1; white-space: pre;"><tspan class="line" dy="0em" x="81.28125" y="19">Low uncertainty</tspan><tspan class="line" dy="1.3em" x="81.28125" y="19">near observed points</tspan></text></g></g><g class="annotation-arrow-g" style="opacity: 1;"><path d="M173.8912329459323,140.94L207.81,197.1" style="stroke-width: 1px; stroke: rgb(68, 68, 68); stroke-opacity: 1; stroke-dasharray: 0px, 0px, 63.0081px, 65.6081px;"/><path d="M-3.7,-2.5V2.5L1.3,0Z" transform="translate(206.4658203125,194.8744354248047)rotate(58.87131652128116)scale(2)" style="fill: rgb(68, 68, 68); stroke-width: 0;"/></g></g><g class="annotation" data-index="1" style="opacity: 1;"><g class="annotation-text-g" transform="rotate(0,560,369.28)"><g class="cursor-pointer" transform="translate(475,346)"><rect class="bg" x="0.5" y="0.5" width="170" height="46" style="stroke-width: 1px; stroke: rgb(0, 0, 0); stroke-opacity: 0; fill: rgb(0, 0, 0); fill-opacity: 0;"/><text class="annotation-text" text-anchor="middle" x="84.984375" y="19" style="font-family: 'Open Sans', verdana, arial, sans-serif; font-size: 16px; fill: rgb(36, 36, 36); fill-opacity: 1; white-space: pre;"><tspan class="line" dy="0em" x="84.984375" y="19">High uncertainty away</tspan><tspan class="line" dy="1.3em" x="84.984375" y="19">from observed points</tspan></text></g></g><g class="annotation-arrow-g" style="opacity: 1;"><path d="M645,365.5197336983574L720.72,362.17" style="stroke-width: 1px; stroke: rgb(68, 68, 68); stroke-opacity: 1; stroke-dasharray: 0px, 0px, 73.194px, 75.794px;"/><path d="M-3.7,-2.5V2.5L1.3,0Z" transform="translate(718.1224975585938,362.284912109375)rotate(-2.535877385380515)scale(2)" style="fill: rgb(68, 68, 68); stroke-width: 0;"/></g></g></g></svg>
