<svg class="main-svg" xmlns="http://www.w3.org/2000/svg" xmlns:xlink="http://www.w3.org/1999/xlink" width="800" height="400" style="" viewBox="0 0 800 400"><rect x="0" y="0" width="800" height="400" style="fill: rgb(255, 255, 255); fill-opacity: 1;"/><defs id="defs-2b2910"><g class="clips"><clipPath id="clip2b2910xyplot" class="plotclip"><rect width="739" height="307"/></clipPath><clipPath class="axesclip" id="clip2b2910x"><rect x="56" y="0" width="739" height="400"/></clipPath><clipPath class="axesclip" id="clip2b2910y"><rect x="0" y="34" width="800" height="307"/></clipPath><clipPath class="axesclip" id="clip2b2910xy"><rect x="56" y="34" width="739" height="307"/></clipPath></g><g class="gradients"/><g class="patterns"/></defs><g class="bglayer"/><g class="layer-below"><g class="imagelayer"/><g class="shapelayer"/></g><g class="cartesianlayer"><g class="subplot xy"><g class="layer-subplot"><g class="shapelayer"/><g class="imagelayer"/></g><g class="minor-gridlayer"><g class="x"/><g class="y"/></g><g class="gridlayer"><g class="x"/><g class="y"/></g><g class="zerolinelayer"/><path class="xlines-below"/><path class="ylines-below"/><g class="overlines-below"/><g class="xaxislayer-below"/><g class="yaxislayer-below"/><g class="overaxes-below"/><g class="plot" transform="translate(56,34)" clip-path="url(#clip2b2910xyplot)"><g class="scatterlayer mlayer"><g class="trace scatter tracec2de6a" style="stroke-miterlimit: 2; opacity: 1;"><g class="fills"/><g class="errorbars"/><g class="lines"><path class="js-line" d="M0,154.07L5.18,168L5.92,169.61L10.36,177.31L11.1,178.27L14.79,181.79L15.53,182.26L19.23,183.49L19.97,183.54L23.67,182.94L24.41,182.67L29.59,179.74L30.33,179.2L40.69,170.6L41.43,170L48.82,164.85L49.56,164.45L55.48,162.3L56.22,162.17L61.4,162.15L62.14,162.28L67.32,164.08L68.06,164.47L73.97,168.58L74.71,169.22L82.11,176.78L82.85,177.64L94.69,192.67L95.43,193.64L108,208.9L108.74,209.67L116.14,216.26L116.88,216.78L122.8,220.03L123.54,220.31L128.71,221.4L129.45,221.43L134.63,220.77L135.37,220.55L140.55,218.1L141.29,217.63L147.21,212.75L147.95,212.01L154.61,204.11L155.35,203.11L163.48,190.62L164.22,189.36L175.32,168.89L176.06,167.44L204.91,111.92L205.65,110.67L215.26,95.98L216,94.98L224.14,85.25L224.88,84.48L232.28,78L233.02,77.47L240.42,73.24L241.16,72.92L248.55,70.77L249.29,70.65L256.69,70.28L257.43,70.32L266.31,71.64L267.05,71.81L278.88,75.23L279.62,75.47L296.64,80.24L297.38,80.39L306.99,81.41L307.73,81.41L315.87,80.72L316.61,80.59L324.75,78.27L325.49,77.98L334.36,73.63L335.1,73.19L345.46,66.09L346.2,65.52L365.43,49.5L366.17,48.89L378.75,39.45L379.49,38.98L387.62,34.7L388.36,34.4L395.02,32.54L395.76,32.44L401.68,32.33L402.42,32.42L408.34,33.97L409.08,34.27L414.99,37.6L415.73,38.13L422.39,44.07L423.13,44.86L430.53,54.14L431.27,55.2L439.41,68.42L440.15,69.75L450.5,90.37L451.24,91.97L465.3,124.28L466.04,126.05L488.23,177.03L488.97,178.55L498.58,196.56L499.32,197.79L506.72,208.6L507.46,209.52L514.12,216.5L514.86,217.12L520.78,220.93L521.52,221.26L526.69,222.67L527.43,222.74L532.61,222.38L533.35,222.21L539.27,219.76L540.01,219.33L546.67,214.32L547.41,213.65L555.54,204.99L556.28,204.11L569.6,186.75L570.34,185.75L584.39,168.13L585.13,167.33L593.27,159.72L594.01,159.16L600.67,155.21L601.41,154.9L607.33,153.38L608.07,153.31L613.98,153.73L614.72,153.9L620.64,156.13L621.38,156.51L628.04,160.81L628.78,161.37L639.87,170.96L640.61,171.63L653.19,182.02L653.93,182.51L660.59,185.99L661.33,186.26L667.25,187.45L667.98,187.48L673.16,186.88L673.9,186.69L679.82,184.25L680.56,183.84L688.7,178.43L689.44,177.89L699.79,170.97L700.53,170.6L705.71,168.81L706.45,168.69L710.89,168.72L711.63,168.85L716.81,170.69L717.55,171.05L726.42,174.86L727.16,174.88L730.12,173.83L730.86,173.2L733.08,170.13L733.82,168.64L736.78,159.64L737.52,156.49L739,148.87" style="vector-effect: non-scaling-stroke; fill: none; stroke: rgb(0, 0, 0); stroke-opacity: 1; stroke-dasharray: 9px, 9px; stroke-width: 2px; opacity: 1;"/></g><g class="points"/><g class="text"/></g><g class="trace scatter tracec8bf51" style="stroke-miterlimit: 2; opacity: 1;"><g class="fills"/><g class="errorbars"/><g class="lines"/><g class="points"><path class="point" transform="translate(197.85,124.51)" d="M3,0A3,3 0 1,1 0,-3A3,3 0 0,1 3,0Z" style="opacity: 1; stroke-width: 0px; fill: rgb(228, 26, 28); fill-opacity: 1;"/><path class="point" transform="translate(267.34,71.88)" d="M3,0A3,3 0 1,1 0,-3A3,3 0 0,1 3,0Z" style="opacity: 1; stroke-width: 0px; fill: rgb(228, 26, 28); fill-opacity: 1;"/><path class="point" transform="translate(526.42,222.64)" d="M3,0A3,3 0 1,1 0,-3A3,3 0 0,1 3,0Z" style="opacity: 1; stroke-width: 0px; fill: rgb(228, 26, 28); fill-opacity: 1;"/></g><g class="text"/></g></g></g><g class="overplot"/><path class="xlines-above crisp" d="M55,341.5H795" style="fill: none; stroke-width: 1px; stroke: rgb(36, 36, 36); stroke-opacity: 1;"/><path class="ylines-above crisp" d="M55.5,34V341" style="fill: none; stroke-width: 1px; stroke: rgb(36, 36, 36); stroke-opacity: 1;"/><g class="overlines-above"/><g class="xaxislayer-above"><path class="xtick ticks crisp" d="M0,342v5" transform="translate(56,0)" style="stroke: rgb(68, 68, 68); stroke-opacity: 1; stroke-width: 1px;"/><path class="xtick ticks crisp" d="M0,342v5" transform="translate(203.8,0)" style="stroke: rgb(68, 68, 68); stroke-opacity: 1; stroke-width: 1px;"/><path class="xtick ticks crisp" d="M0,342v5" transform="translate(351.6,0)" style="stroke: rgb(68, 68, 68); stroke-opacity: 1; stroke-width: 1px;"/><path class="xtick ticks crisp" d="M0,342v5" transform="translate(499.4,0)" style="stroke: rgb(68, 68, 68); stroke-opacity: 1; stroke-width: 1px;"/><path class="xtick ticks crisp" d="M0,342v5" transform="translate(647.2,0)" style="stroke: rgb(68, 68, 68); stroke-opacity: 1; stroke-width: 1px;"/><path class="xtick ticks crisp" d="M0,342v5" transform="translate(795,0)" style="stroke: rgb(68, 68, 68); stroke-opacity: 1; stroke-width: 1px;"/><g class="xtick"><text text-anchor="middle" x="0" y="366.2" transform="translate(56,0)" style="font-family: 'Open Sans', verdana, arial, sans-serif; font-size: 16px; fill: rgb(36, 36, 36); fill-opacity: 1; white-space: pre; opacity: 1;">0</text></g><g class="xtick"><text text-anchor="middle" x="0" y="366.2" style="font-family: 'Open Sans', verdana, arial, sans-serif; font-size: 16px; fill: rgb(36, 36, 36); fill-opacity: 1; white-space: pre; opacity: 1;" transform="translate(203.8,0)">1</text></g><g class="xtick"><text text-anchor="middle" x="0" y="366.2" style="font-family: 'Open Sans', verdana, arial, sans-serif; font-size: 16px; fill: rgb(36, 36, 36); fill-opacity: 1; white-space: pre; opacity: 1;" transform="translate(351.6,0)">2</text></g><g class="xtick"><text text-anchor="middle" x="0" y="366.2" style="font-family: 'Open Sans', verdana, arial, sans-serif; font-size: 16px; fill: rgb(36, 36, 36); fill-opacity: 1; white-space: pre; opacity: 1;" transform="translate(499.4,0)">3</text></g><g class="xtick"><text text-anchor="middle" x="0" y="366.2" style="font-family: 'Open Sans', verdana, arial, sans-serif; font-size: 16px; fill: rgb(36, 36, 36); fill-opacity: 1; white-space: pre; opacity: 1;" transform="translate(647.2,0)">4</text></g><g class="xtick"><text text-anchor="middle" x="0" y="366.2" style="font-family: 'Open Sans', verdana, arial, sans-serif; font-size: 16px; fill: rgb(36, 36, 36); fill-opacity: 1; white-space: pre; opacity: 1;" transform="translate(795,0)">5</text></g></g><g class="yaxislayer-above"><path class="ytick ticks crisp" d="M55,0h-5" transform="translate(0,341)" style="stroke: rgb(68, 68, 68); stroke-opacity: 1; stroke-width: 1px;"/><path class="ytick ticks crisp" d="M55,0h-5" transform="translate(0,297.14)" style="stroke: rgb(68, 68, 68); stroke-opacity: 1; stroke-width: 1px;"/><path class="ytick ticks crisp" d="M55,0h-5" transform="translate(0,253.29)" style="stroke: rgb(68, 68, 68); stroke-opacity: 1; stroke-width: 1px;"/><path class="ytick ticks crisp" d="M55,0h-5" transform="translate(0,209.43)" style="stroke: rgb(68, 68, 68); stroke-opacity: 1; stroke-width: 1px;"/><path class="ytick ticks crisp" d="M55,0h-5" transform="translate(0,165.57)" style="stroke: rgb(68, 68, 68); stroke-opacity: 1; stroke-width: 1px;"/><path class="ytick ticks crisp" d="M55,0h-5" transform="translate(0,121.71)" style="stroke: rgb(68, 68, 68); stroke-opacity: 1; stroke-width: 1px;"/><path class="ytick ticks crisp" d="M55,0h-5" transform="translate(0,77.86)" style="stroke: rgb(68, 68, 68); stroke-opacity: 1; stroke-width: 1px;"/><path class="ytick ticks crisp" d="M55,0h-5" transform="translate(0,34)" style="stroke: rgb(68, 68, 68); stroke-opacity: 1; stroke-width: 1px;"/><g class="ytick"><text text-anchor="end" x="46.8" y="5.6" transform="translate(0,341)" style="font-family: 'Open Sans', verdana, arial, sans-serif; font-size: 16px; fill: rgb(36, 36, 36); fill-opacity: 1; white-space: pre; opacity: 1;">0</text></g><g class="ytick"><text text-anchor="end" x="46.8" y="5.6" style="font-family: 'Open Sans', verdana, arial, sans-serif; font-size: 16px; fill: rgb(36, 36, 36); fill-opacity: 1; white-space: pre; opacity: 1;" transform="translate(0,297.14)">2</text></g><g class="ytick"><text text-anchor="end" x="46.8" y="5.6" style="font-family: 'Open Sans', verdana, arial, sans-serif; font-size: 16px; fill: rgb(36, 36, 36); fill-opacity: 1; white-space: pre; opacity: 1;" transform="translate(0,253.29)">4</text></g><g class="ytick"><text text-anchor="end" x="46.8" y="5.6" style="font-family: 'Open Sans', verdana, arial, sans-serif; font-size: 16px; fill: rgb(36, 36, 36); fill-opacity: 1; white-space: pre; opacity: 1;" transform="translate(0,209.43)">6</text></g><g class="ytick"><text text-anchor="end" x="46.8" y="5.6" style="font-family: 'Open Sans', verdana, arial, sans-serif; font-size: 16px; fill: rgb(36, 36, 36); fill-opacity: 1; white-space: pre; opacity: 1;" transform="translate(0,165.57)">8</text></g><g class="ytick"><text text-anchor="end" x="46.8" y="5.6" style="font-family: 'Open Sans', verdana, arial, sans-serif; font-size: 16px; fill: rgb(36, 36, 36); fill-opacity: 1; white-space: pre; opacity: 1;" transform="translate(0,121.71)">10</text></g><g class="ytick"><text text-anchor="end" x="46.8" y="5.6" style="font-family: 'Open Sans', verdana, arial, sans-serif; font-size: 16px; fill: rgb(36, 36, 36); fill-opacity: 1; white-space: pre; opacity: 1;" transform="translate(0,77.86)">12</text></g><g class="ytick"><text text-anchor="end" x="46.8" y="5.6" style="font-family: 'Open Sans', verdana, arial, sans-serif; font-size: 16px; fill: rgb(36, 36, 36); fill-opacity: 1; white-space: pre; opacity: 1;" transform="translate(0,34)">14</text></g></g><g class="overaxes-above"/></g></g><g class="polarlayer"/><g class="smithlayer"/><g class="ternarylayer"/><g class="geolayer"/><g class="funnelarealayer"/><g class="pielayer"/><g class="iciclelayer"/><g class="treemaplayer"/><g class="sunburstlayer"/><g class="glimages"/><defs id="topdefs-2b2910"><g class="clips"/><clipPath id="legend2b2910"><rect width="290" height="34" x="0" y="0"/></clipPath></defs><g class="layer-above"><g class="imagelayer"/><g class="shapelayer"/></g><g class="infolayer"><g class="legend" pointer-events="all" transform="translate(505,0)"><rect class="bg" shape-rendering="crispEdges" style="stroke: rgb(68, 68, 68); stroke-opacity: 1; fill: rgb(255, 255, 255); fill-opacity: 1; stroke-width: 0px;" width="290" height="34" x="0" y="0"/><g class="scrollbox" transform="" clip-path="url(#legend2b2910)"><g class="groups"><g class="traces" transform="translate(0,16.9)" style="opacity: 1;"><text class="legendtext" text-anchor="start" x="40" y="6.24" style="font-family: 'Open Sans', verdana, arial, sans-serif; font-size: 16px; fill: rgb(36, 36, 36); fill-opacity: 1; white-space: pre;">True function</text><g class="layers" style="opacity: 1;"><g class="legendfill"/><g class="legendlines"><path class="js-line" d="M5,0h30" style="fill: none; stroke: rgb(0, 0, 0); stroke-opacity: 1; stroke-dasharray: 9px, 9px; stroke-width: 2px;"/></g><g class="legendsymbols"><g class="legendpoints"/></g></g><rect class="legendtoggle" x="0" y="-11.9" width="142.703125" height="23.8" style="fill: rgb(0, 0, 0); fill-opacity: 0;"/></g><g class="traces" transform="translate(145.203125,16.9)" style="opacity: 1;"><text class="legendtext" text-anchor="start" x="40" y="6.24" style="font-family: 'Open Sans', verdana, arial, sans-serif; font-size: 16px; fill: rgb(36, 36, 36); fill-opacity: 1; white-space: pre;">Observations</text><g class="layers" style="opacity: 1;"><g class="legendfill"/><g class="legendlines"/><g class="legendsymbols"><g class="legendpoints"><path class="scatterpts" transform="translate(20,0)" d="M3,0A3,3 0 1,1 0,-3A3,3 0 0,1 3,0Z" style="opacity: 1; stroke-width: 0px; fill: rgb(228, 26, 28); fill-opacity: 1;"/></g></g></g><rect class="legendtoggle" x="0" y="-11.9" width="141.640625" height="23.8" style="fill: rgb(0, 0, 0); fill-opacity: 0;"/></g></g></g><rect class="scrollbar" rx="20" ry="3" width="0" height="0" style="fill: rgb(128, 139, 164); fill-opacity: 1;" x="0" y="0"/></g><g class="g-gtitle"/><g class="g-xtitle" transform="translate(0,-5.003125000000011)"><text class="xtitle" x="425.5" y="399.003125" text-anchor="middle" style="font-family: 'Open Sans', verdana, arial, sans-serif; font-size: 19px; fill: rgb(36, 36, 36); opacity: 1; font-weight: normal; white-space: pre;">Input value (x)</text></g><g class="g-ytitle" transform="translate(19.2998046875,0)"><text class="ytitle" transform="rotate(-90,0.7000000000000028,187.5)" x="0.7000000000000028" y="187.5" text-anchor="middle" style="font-family: 'Open Sans', verdana, arial, sans-serif; font-size: 19px; fill: rgb(36, 36, 36); opacity: 1; font-weight: normal; white-space: pre;">Objective value (ϕ)</text></g></g></svg>