<svg class="main-svg" xmlns="http://www.w3.org/2000/svg" xmlns:xlink="http://www.w3.org/1999/xlink" width="800" height="400" style="" viewBox="0 0 800 400"><rect x="0" y="0" width="800" height="400" style="fill: rgb(255, 255, 255); fill-opacity: 1;"/><defs id="defs-79cc41"><g class="clips"><clipPath id="clip79cc41xyplot" class="plotclip"><rect width="739" height="307"/></clipPath><clipPath class="axesclip" id="clip79cc41x"><rect x="56" y="0" width="739" height="400"/></clipPath><clipPath class="axesclip" id="clip79cc41y"><rect x="0" y="34" width="800" height="307"/></clipPath><clipPath class="axesclip" id="clip79cc41xy"><rect x="56" y="34" width="739" height="307"/></clipPath></g><g class="gradients"/><g class="patterns"/></defs><g class="bglayer"/><g class="layer-below"><g class="imagelayer"/><g class="shapelayer"/></g><g class="cartesianlayer"><g class="subplot xy"><g class="layer-subplot"><g class="shapelayer"/><g class="imagelayer"/></g><g class="minor-gridlayer"><g class="x"/><g class="y"/></g><g class="gridlayer"><g class="x"/><g class="y"/></g><g class="zerolinelayer"/><path class="xlines-below"/><path class="ylines-below"/><g class="overlines-below"/><g class="xaxislayer-below"/><g class="yaxislayer-below"/><g class="overaxes-below"/><g class="plot" transform="translate(56,34)" clip-path="url(#clip79cc41xyplot)"><g class="scatterlayer mlayer"><g class="trace scatter trace418da5" style="stroke-miterlimit: 2; opacity: 1;"><g class="fills"/><g class="errorbars"/><g class="lines"><path class="js-line" d="M0,154.07L5.18,168L5.92,169.61L10.36,177.31L11.1,178.27L14.79,181.79L15.53,182.26L19.23,183.49L19.97,183.54L23.67,182.94L24.41,182.67L29.59,179.74L30.33,179.2L40.69,170.6L41.43,170L48.82,164.85L49.56,164.45L55.48,162.3L56.22,162.17L61.4,162.15L62.14,162.28L67.32,164.08L68.06,164.47L73.97,168.58L74.71,169.22L82.11,176.78L82.85,177.64L94.69,192.67L95.43,193.64L108,208.9L108.74,209.67L116.14,216.26L116.88,216.78L122.8,220.03L123.54,220.31L128.71,221.4L129.45,221.43L134.63,220.77L135.37,220.55L140.55,218.1L141.29,217.63L147.21,212.75L147.95,212.01L154.61,204.11L155.35,203.11L163.48,190.62L164.22,189.36L175.32,168.89L176.06,167.44L204.91,111.92L205.65,110.67L215.26,95.98L216,94.98L224.14,85.25L224.88,84.48L232.28,78L233.02,77.47L240.42,73.24L241.16,72.92L248.55,70.77L249.29,70.65L256.69,70.28L257.43,70.32L266.31,71.64L267.05,71.81L278.88,75.23L279.62,75.47L296.64,80.24L297.38,80.39L306.99,81.41L307.73,81.41L315.87,80.72L316.61,80.59L324.75,78.27L325.49,77.98L334.36,73.63L335.1,73.19L345.46,66.09L346.2,65.52L365.43,49.5L366.17,48.89L378.75,39.45L379.49,38.98L387.62,34.7L388.36,34.4L395.02,32.54L395.76,32.44L401.68,32.33L402.42,32.42L408.34,33.97L409.08,34.27L414.99,37.6L415.73,38.13L422.39,44.07L423.13,44.86L430.53,54.14L431.27,55.2L439.41,68.42L440.15,69.75L450.5,90.37L451.24,91.97L465.3,124.28L466.04,126.05L488.23,177.03L488.97,178.55L498.58,196.56L499.32,197.79L506.72,208.6L507.46,209.52L514.12,216.5L514.86,217.12L520.78,220.93L521.52,221.26L526.69,222.67L527.43,222.74L532.61,222.38L533.35,222.21L539.27,219.76L540.01,219.33L546.67,214.32L547.41,213.65L555.54,204.99L556.28,204.11L569.6,186.75L570.34,185.75L584.39,168.13L585.13,167.33L593.27,159.72L594.01,159.16L600.67,155.21L601.41,154.9L607.33,153.38L608.07,153.31L613.98,153.73L614.72,153.9L620.64,156.13L621.38,156.51L628.04,160.81L628.78,161.37L639.87,170.96L640.61,171.63L653.19,182.02L653.93,182.51L660.59,185.99L661.33,186.26L667.25,187.45L667.98,187.48L673.16,186.88L673.9,186.69L679.82,184.25L680.56,183.84L688.7,178.43L689.44,177.89L699.79,170.97L700.53,170.6L705.71,168.81L706.45,168.69L710.89,168.72L711.63,168.85L716.81,170.69L717.55,171.05L726.42,174.86L727.16,174.88L730.12,173.83L730.86,173.2L733.08,170.13L733.82,168.64L736.78,159.64L737.52,156.49L739,148.87" style="vector-effect: non-scaling-stroke; fill: none; stroke: rgb(0, 0, 0); stroke-opacity: 1; stroke-dasharray: 9px, 9px; stroke-width: 2px; opacity: 1;"/></g><g class="points"/><g class="text"/></g><g class="trace scatter trace799ce1" style="stroke-miterlimit: 2; opacity: 1;"><g class="fills"/><g class="errorbars"/><g class="lines"/><g class="points"><path class="point" transform="translate(197.85,124.51)" d="M3,0A3,3 0 1,1 0,-3A3,3 0 0,1 3,0Z" style="opacity: 1; stroke-width: 0px; fill: rgb(228, 26, 28); fill-opacity: 1;"/><path class="point" transform="translate(267.34,71.88)" d="M3,0A3,3 0 1,1 0,-3A3,3 0 0,1 3,0Z" style="opacity: 1; stroke-width: 0px; fill: rgb(228, 26, 28); fill-opacity: 1;"/><path class="point" transform="translate(526.42,222.64)" d="M3,0A3,3 0 1,1 0,-3A3,3 0 0,1 3,0Z" style="opacity: 1; stroke-width: 0px; fill: rgb(228, 26, 28); fill-opacity: 1;"/><path class="point" transform="translate(292.62,79.34)" d="M3,0A3,3 0 1,1 0,-3A3,3 0 0,1 3,0Z" style="opacity: 1; stroke-width: 0px; fill: rgb(228, 26, 28); fill-opacity: 1;"/><path class="point" transform="translate(336.01,72.64)" d="M3,0A3,3 0 1,1 0,-3A3,3 0 0,1 3,0Z" style="opacity: 1; stroke-width: 0px; fill: rgb(228, 26, 28); fill-opacity: 1;"/><path class="point" transform="translate(247.81,70.91)" d="M3,0A3,3 0 1,1 0,-3A3,3 0 0,1 3,0Z" style="opacity: 1; stroke-width: 0px; fill: rgb(228, 26, 28); fill-opacity: 1;"/></g><g class="text"/></g><g class="trace scatter tracebdfe5e" style="stroke-miterlimit: 2;"><g class="fills"><g><path class="js-fill" d="M0,33.47L30.33,36.24L31.07,36.33L51.78,39.58L52.52,39.73L68.8,43.54L69.54,43.74L85.81,49.12L86.55,49.41L100.6,55.71L101.34,56.08L115.4,64.25L116.14,64.73L129.45,74.36L130.19,74.94L144.99,87.63L145.73,88.31L177.54,116.74L178.28,117.26L185.67,121.69L186.41,122.03L192.33,123.95L193.07,124.07L196.77,123.9L197.51,123.45L199.73,119.73L200.47,118.15L211.57,95.53L212.31,94.22L219.7,82.98L220.44,82.05L226.36,75.93L227.1,75.33L232.28,72.11L233.02,71.78L238.94,70.22L239.68,70.14L250.03,68.8L250.77,68.52L255.95,67.34L256.69,67.33L261.13,68.14L261.87,68.39L270.74,71.14L271.48,71.23L280.36,72.92L281.1,73.17L289.24,76.81L289.98,77.15L293.68,77.9L294.42,77.74L298.85,75.72L299.59,75.29L314.39,66.88L315.13,66.62L320.31,65.52L321.05,65.48L326.23,66.21L326.96,66.46L332.14,69.16L332.88,69.66L335.84,71.28L336.58,71.1L339.54,68.41L340.28,67.59L361.73,44.55L362.47,43.9L370.61,37.73L371.35,37.26L378.75,33.5L379.49,33.21L386.88,31.28L387.62,31.18L394.28,30.98L395.02,31.04L402.42,32.45L403.16,32.67L411.3,36.06L412.04,36.46L420.17,41.63L420.91,42.18L429.79,49.71L430.53,50.42L440.15,60.67L440.88,61.54L451.24,74.91L451.98,75.95L463.08,92.86L463.82,94.07L476.39,116.33L477.13,117.73L491.19,146.03L491.93,147.59L525.95,220.92L526.69,221.18L528.91,218.02L529.65,216.72L541.49,194.33L542.23,192.88L567.38,144.87L568.12,143.56L581.44,121.52L582.18,120.38L593.27,104.61L594.01,103.64L605.11,90.26L605.85,89.45L616.94,78.33L617.68,77.66L628.78,68.55L629.52,68L642.09,59.74L642.83,59.31L656.15,52.53L656.89,52.2L672.42,46.28L673.16,46.04L688.7,41.74L689.44,41.57L709.41,37.75L710.15,37.63L735.3,34.63L736.04,34.57L739,34.31L739,264.21L710.89,266.9L710.15,266.99L682.78,271.05L682.04,271.18L649.49,277.92L648.75,278.09L622.86,283.74L622.12,283.88L608.81,285.84L608.07,285.92L596.23,286.31L595.49,286.27L585.87,285.08L585.13,284.92L577,282.43L576.26,282.13L568.12,277.91L567.38,277.44L559.98,271.79L559.24,271.13L551.11,262.66L550.37,261.77L541.49,249.6L540.75,248.46L530.39,230.54L529.65,229.15L526.69,224.14L525.95,224.2L523,228.57L522.26,229.75L513.38,242.68L512.64,243.63L505.24,251.98L504.5,252.7L497.11,258.67L496.37,259.15L489.71,262.53L488.97,262.8L482.31,264.38L481.57,264.46L474.91,264.37L474.17,264.28L466.78,262.41L466.04,262.14L457.16,257.72L456.42,257.26L447.54,250.71L446.8,250.08L436.45,240.03L435.71,239.22L424.61,225.81L423.87,224.83L411.3,206.55L410.56,205.38L396.5,181.42L395.76,180.07L375.79,141.24L375.05,139.75L358.03,106.01L357.29,104.62L347.68,87.95L346.94,86.8L340.28,77.63L339.54,76.78L336.58,74.16L335.84,74.06L327.7,80.85L326.96,81.44L321.05,85.25L320.31,85.61L315.13,87.23L314.39,87.34L309.21,87.29L308.47,87.16L294.42,81.24L293.68,80.96L289.24,80.79L288.5,80.86L283.32,80.67L282.58,80.53L269.27,74.06L268.53,73.71L253.73,72.02L252.99,71.97L248.55,72.1L247.81,72.33L244.11,74.94L243.37,75.68L223.4,103.58L222.66,104.63L215.26,114L214.52,114.81L208.61,120.19L207.87,120.73L198.99,124.95L198.25,125.45L178.28,170.75L177.54,172.41L167.18,194.03L166.44,195.46L157.56,211.22L156.82,212.42L147.95,225.44L147.21,226.41L138.33,236.8L137.59,237.56L128.71,245.59L127.97,246.17L118.36,252.61L117.62,253.03L108,257.55L107.26,257.84L96.91,261.05L96.17,261.23L83.59,263.46L82.85,263.55L63.62,264.76L62.88,264.77L0,262.94Z" style="fill: rgb(55, 126, 255); fill-opacity: 0.1; stroke-width: 0;"/></g></g><g class="errorbars"/><g class="lines"><path class="js-line" d="M0,262.94L62.88,264.77L63.62,264.76L82.85,263.55L83.59,263.46L96.17,261.23L96.91,261.05L107.26,257.84L108,257.55L117.62,253.03L118.36,252.61L127.97,246.17L128.71,245.59L137.59,237.56L138.33,236.8L147.21,226.41L147.95,225.44L156.82,212.42L157.56,211.22L166.44,195.46L167.18,194.03L177.54,172.41L178.28,170.75L198.25,125.45L198.99,124.95L207.87,120.73L208.61,120.19L214.52,114.81L215.26,114L222.66,104.63L223.4,103.58L243.37,75.68L244.11,74.94L247.81,72.33L248.55,72.1L252.99,71.97L253.73,72.02L268.53,73.71L269.27,74.06L282.58,80.53L283.32,80.67L288.5,80.86L289.24,80.79L293.68,80.96L294.42,81.24L308.47,87.16L309.21,87.29L314.39,87.34L315.13,87.23L320.31,85.61L321.05,85.25L326.96,81.44L327.7,80.85L335.84,74.06L336.58,74.16L339.54,76.78L340.28,77.63L346.94,86.8L347.68,87.95L357.29,104.62L358.03,106.01L375.05,139.75L375.79,141.24L395.76,180.07L396.5,181.42L410.56,205.38L411.3,206.55L423.87,224.83L424.61,225.81L435.71,239.22L436.45,240.03L446.8,250.08L447.54,250.71L456.42,257.26L457.16,257.72L466.04,262.14L466.78,262.41L474.17,264.28L474.91,264.37L481.57,264.46L482.31,264.38L488.97,262.8L489.71,262.53L496.37,259.15L497.11,258.67L504.5,252.7L505.24,251.98L512.64,243.63L513.38,242.68L522.26,229.75L523,228.57L525.95,224.2L526.69,224.14L529.65,229.15L530.39,230.54L540.75,248.46L541.49,249.6L550.37,261.77L551.11,262.66L559.24,271.13L559.98,271.79L567.38,277.44L568.12,277.91L576.26,282.13L577,282.43L585.13,284.92L585.87,285.08L595.49,286.27L596.23,286.31L608.07,285.92L608.81,285.84L622.12,283.88L622.86,283.74L648.75,278.09L649.49,277.92L682.04,271.18L682.78,271.05L710.15,266.99L710.89,266.9L739,264.21" style="vector-effect: non-scaling-stroke; fill: none; stroke: rgb(55, 126, 255); stroke-opacity: 0.1; stroke-width: 2px; opacity: 1;"/></g><g class="points"/><g class="text"/></g><g class="trace scatter tracefb4652" style="stroke-miterlimit: 2;"><g class="fills"/><g class="errorbars"/><g class="lines"><path class="js-line" d="M0,33.47L30.33,36.24L31.07,36.33L51.78,39.58L52.52,39.73L68.8,43.54L69.54,43.74L85.81,49.12L86.55,49.41L100.6,55.71L101.34,56.08L115.4,64.25L116.14,64.73L129.45,74.36L130.19,74.94L144.99,87.63L145.73,88.31L177.54,116.74L178.28,117.26L185.67,121.69L186.41,122.03L192.33,123.95L193.07,124.07L196.77,123.9L197.51,123.45L199.73,119.73L200.47,118.15L211.57,95.53L212.31,94.22L219.7,82.98L220.44,82.05L226.36,75.93L227.1,75.33L232.28,72.11L233.02,71.78L238.94,70.22L239.68,70.14L250.03,68.8L250.77,68.52L255.95,67.34L256.69,67.33L261.13,68.14L261.87,68.39L270.74,71.14L271.48,71.23L280.36,72.92L281.1,73.17L289.24,76.81L289.98,77.15L293.68,77.9L294.42,77.74L298.85,75.72L299.59,75.29L314.39,66.88L315.13,66.62L320.31,65.52L321.05,65.48L326.23,66.21L326.96,66.46L332.14,69.16L332.88,69.66L335.84,71.28L336.58,71.1L339.54,68.41L340.28,67.59L361.73,44.55L362.47,43.9L370.61,37.73L371.35,37.26L378.75,33.5L379.49,33.21L386.88,31.28L387.62,31.18L394.28,30.98L395.02,31.04L402.42,32.45L403.16,32.67L411.3,36.06L412.04,36.46L420.17,41.63L420.91,42.18L429.79,49.71L430.53,50.42L440.15,60.67L440.88,61.54L451.24,74.91L451.98,75.95L463.08,92.86L463.82,94.07L476.39,116.33L477.13,117.73L491.19,146.03L491.93,147.59L525.95,220.92L526.69,221.18L528.91,218.02L529.65,216.72L541.49,194.33L542.23,192.88L567.38,144.87L568.12,143.56L581.44,121.52L582.18,120.38L593.27,104.61L594.01,103.64L605.11,90.26L605.85,89.45L616.94,78.33L617.68,77.66L628.78,68.55L629.52,68L642.09,59.74L642.83,59.31L656.15,52.53L656.89,52.2L672.42,46.28L673.16,46.04L688.7,41.74L689.44,41.57L709.41,37.75L710.15,37.63L735.3,34.63L736.04,34.57L739,34.31" style="vector-effect: non-scaling-stroke; fill: none; stroke: rgb(55, 126, 255); stroke-opacity: 0.1; stroke-width: 2px; opacity: 1;"/></g><g class="points"/><g class="text"/></g><g class="trace scatter traceed8cfd" style="stroke-miterlimit: 2; opacity: 1;"><g class="fills"/><g class="errorbars"/><g class="lines"><path class="js-line" d="M0,148.21L30.33,150.19L31.07,150.25L68.06,153.99L68.8,154.07L119.1,159.45L119.84,159.49L136.11,159.42L136.85,159.37L148.69,157.74L149.43,157.58L159.04,154.77L159.78,154.5L169.4,149.94L170.14,149.51L179.02,143.43L179.76,142.84L188.63,134.78L189.37,134.02L199.73,122.18L200.47,121.26L217.48,98.71L218.22,97.74L229.32,84.29L230.06,83.51L238.2,76.12L238.94,75.57L245.59,71.77L246.33,71.47L252.25,69.96L252.99,69.88L259.65,70.06L260.39,70.17L268.53,72.25L269.27,72.5L289.98,78.93L290.72,79.06L298.85,79.6L299.59,79.58L308.47,78.47L309.21,78.32L326.23,74.11L326.96,73.95L337.32,72.6L338.06,72.59L345.46,73.12L346.2,73.25L354.34,75.49L355.08,75.77L363.95,80.04L364.69,80.47L375.05,87.46L375.79,88.02L388.36,98.63L389.1,99.31L406.12,115.94L406.86,116.7L434.23,145.85L434.97,146.66L476.39,190.42L477.13,191.14L491.93,204.59L492.67,205.2L504.5,213.87L505.24,214.34L514.86,219.37L515.6,219.68L523.74,222.16L524.48,222.31L532.61,223L533.35,222.98L541.49,221.96L542.23,221.8L551.11,219.05L551.85,218.76L563.68,213.19L564.42,212.79L581.44,202.74L582.18,202.28L613.24,183.57L613.98,183.16L631.74,174.17L632.48,173.83L649.49,166.82L650.23,166.54L670.94,160.02L671.68,159.83L690.18,155.6L690.92,155.45L714.59,151.73L715.33,151.63L739,149.26" style="vector-effect: non-scaling-stroke; fill: none; stroke: rgb(31, 119, 180); stroke-opacity: 1; stroke-width: 2px; opacity: 1;"/></g><g class="points"/><g class="text"/></g></g></g><g class="overplot"/><path class="xlines-above crisp" d="M55,341.5H795" style="fill: none; stroke-width: 1px; stroke: rgb(36, 36, 36); stroke-opacity: 1;"/><path class="ylines-above crisp" d="M55.5,34V341" style="fill: none; stroke-width: 1px; stroke: rgb(36, 36, 36); stroke-opacity: 1;"/><g class="overlines-above"/><g class="xaxislayer-above"><path class="xtick ticks crisp" d="M0,342v5" transform="translate(56,0)" style="stroke: rgb(68, 68, 68); stroke-opacity: 1; stroke-width: 1px;"/><path class="xtick ticks crisp" d="M0,342v5" transform="translate(203.8,0)" style="stroke: rgb(68, 68, 68); stroke-opacity: 1; stroke-width: 1px;"/><path class="xtick ticks crisp" d="M0,342v5" transform="translate(351.6,0)" style="stroke: rgb(68, 68, 68); stroke-opacity: 1; stroke-width: 1px;"/><path class="xtick ticks crisp" d="M0,342v5" transform="translate(499.4,0)" style="stroke: rgb(68, 68, 68); stroke-opacity: 1; stroke-width: 1px;"/><path class="xtick ticks crisp" d="M0,342v5" transform="translate(647.2,0)" style="stroke: rgb(68, 68, 68); stroke-opacity: 1; stroke-width: 1px;"/><path class="xtick ticks crisp" d="M0,342v5" transform="translate(795,0)" style="stroke: rgb(68, 68, 68); stroke-opacity: 1; stroke-width: 1px;"/><g class="xtick"><text text-anchor="middle" x="0" y="366.2" transform="translate(56,0)" style="font-family: 'Open Sans', verdana, arial, sans-serif; font-size: 16px; fill: rgb(36, 36, 36); fill-opacity: 1; white-space: pre; opacity: 1;">0</text></g><g class="xtick"><text text-anchor="middle" x="0" y="366.2" style="font-family: 'Open Sans', verdana, arial, sans-serif; font-size: 16px; fill: rgb(36, 36, 36); fill-opacity: 1; white-space: pre; opacity: 1;" transform="translate(203.8,0)">1</text></g><g class="xtick"><text text-anchor="middle" x="0" y="366.2" style="font-family: 'Open Sans', verdana, arial, sans-serif; font-size: 16px; fill: rgb(36, 36, 36); fill-opacity: 1; white-space: pre; opacity: 1;" transform="translate(351.6,0)">2</text></g><g class="xtick"><text text-anchor="middle" x="0" y="366.2" style="font-family: 'Open Sans', verdana, arial, sans-serif; font-size: 16px; fill: rgb(36, 36, 36); fill-opacity: 1; white-space: pre; opacity: 1;" transform="translate(499.4,0)">3</text></g><g class="xtick"><text text-anchor="middle" x="0" y="366.2" style="font-family: 'Open Sans', verdana, arial, sans-serif; font-size: 16px; fill: rgb(36, 36, 36); fill-opacity: 1; white-space: pre; opacity: 1;" transform="translate(647.2,0)">4</text></g><g class="xtick"><text text-anchor="middle" x="0" y="366.2" style="font-family: 'Open Sans', verdana, arial, sans-serif; font-size: 16px; fill: rgb(36, 36, 36); fill-opacity: 1; white-space: pre; opacity: 1;" transform="translate(795,0)">5</text></g></g><g class="yaxislayer-above"><path class="ytick ticks crisp" d="M55,0h-5" transform="translate(0,341)" style="stroke: rgb(68, 68, 68); stroke-opacity: 1; stroke-width: 1px;"/><path class="ytick ticks crisp" d="M55,0h-5" transform="translate(0,297.14)" style="stroke: rgb(68, 68, 68); stroke-opacity: 1; stroke-width: 1px;"/><path class="ytick ticks crisp" d="M55,0h-5" transform="translate(0,253.29)" style="stroke: rgb(68, 68, 68); stroke-opacity: 1; stroke-width: 1px;"/><path class="ytick ticks crisp" d="M55,0h-5" transform="translate(0,209.43)" style="stroke: rgb(68, 68, 68); stroke-opacity: 1; stroke-width: 1px;"/><path class="ytick ticks crisp" d="M55,0h-5" transform="translate(0,165.57)" style="stroke: rgb(68, 68, 68); stroke-opacity: 1; stroke-width: 1px;"/><path class="ytick ticks crisp" d="M55,0h-5" transform="translate(0,121.71)" style="stroke: rgb(68, 68, 68); stroke-opacity: 1; stroke-width: 1px;"/><path class="ytick ticks crisp" d="M55,0h-5" transform="translate(0,77.86)" style="stroke: rgb(68, 68, 68); stroke-opacity: 1; stroke-width: 1px;"/><path class="ytick ticks crisp" d="M55,0h-5" transform="translate(0,34)" style="stroke: rgb(68, 68, 68); stroke-opacity: 1; stroke-width: 1px;"/><g class="ytick"><text text-anchor="end" x="46.8" y="5.6" transform="translate(0,341)" style="font-family: 'Open Sans', verdana, arial, sans-serif; font-size: 16px; fill: rgb(36, 36, 36); fill-opacity: 1; white-space: pre; opacity: 1;">0</text></g><g class="ytick"><text text-anchor="end" x="46.8" y="5.6" style="font-family: 'Open Sans', verdana, arial, sans-serif; font-size: 16px; fill: rgb(36, 36, 36); fill-opacity: 1; white-space: pre; opacity: 1;" transform="translate(0,297.14)">2</text></g><g class="ytick"><text text-anchor="end" x="46.8" y="5.6" style="font-family: 'Open Sans', verdana, arial, sans-serif; font-size: 16px; fill: rgb(36, 36, 36); fill-opacity: 1; white-space: pre; opacity: 1;" transform="translate(0,253.29)">4</text></g><g class="ytick"><text text-anchor="end" x="46.8" y="5.6" style="font-family: 'Open Sans', verdana, arial, sans-serif; font-size: 16px; fill: rgb(36, 36, 36); fill-opacity: 1; white-space: pre; opacity: 1;" transform="translate(0,209.43)">6</text></g><g class="ytick"><text text-anchor="end" x="46.8" y="5.6" style="font-family: 'Open Sans', verdana, arial, sans-serif; font-size: 16px; fill: rgb(36, 36, 36); fill-opacity: 1; white-space: pre; opacity: 1;" transform="translate(0,165.57)">8</text></g><g class="ytick"><text text-anchor="end" x="46.8" y="5.6" style="font-family: 'Open Sans', verdana, arial, sans-serif; font-size: 16px; fill: rgb(36, 36, 36); fill-opacity: 1; white-space: pre; opacity: 1;" transform="translate(0,121.71)">10</text></g><g class="ytick"><text text-anchor="end" x="46.8" y="5.6" style="font-family: 'Open Sans', verdana, arial, sans-serif; font-size: 16px; fill: rgb(36, 36, 36); fill-opacity: 1; white-space: pre; opacity: 1;" transform="translate(0,77.86)">12</text></g><g class="ytick"><text text-anchor="end" x="46.8" y="5.6" style="font-family: 'Open Sans', verdana, arial, sans-serif; font-size: 16px; fill: rgb(36, 36, 36); fill-opacity: 1; white-space: pre; opacity: 1;" transform="translate(0,34)">14</text></g></g><g class="overaxes-above"/></g></g><g class="polarlayer"/><g class="smithlayer"/><g class="ternarylayer"/><g class="geolayer"/><g class="funnelarealayer"/><g class="pielayer"/><g class="iciclelayer"/><g class="treemaplayer"/><g class="sunburstlayer"/><g class="glimages"/><defs id="topdefs-79cc41"><g class="clips"/><clipPath id="legend79cc41"><rect width="672" height="34" x="0" y="0"/></clipPath></defs><g class="layer-above"><g class="imagelayer"/><g class="shapelayer"/></g><g class="infolayer"><g class="legend" pointer-events="all" transform="translate(123,0)"><rect class="bg" shape-rendering="crispEdges" width="672" height="34" x="0" y="0" style="stroke: rgb(68, 68, 68); stroke-opacity: 1; fill: rgb(255, 255, 255); fill-opacity: 1; stroke-width: 0px;"/><g class="scrollbox" transform="" clip-path="url(#legend79cc41)"><g class="groups" transform=""><g class="traces" transform="translate(0,16.9)" style="opacity: 1;"><text class="legendtext" text-anchor="start" x="40" y="6.24" style="font-family: 'Open Sans', verdana, arial, sans-serif; font-size: 16px; fill: rgb(36, 36, 36); fill-opacity: 1; white-space: pre;">True function</text><g class="layers" style="opacity: 1;"><g class="legendfill"/><g class="legendlines"><path class="js-line" d="M5,0h30" style="fill: none; stroke: rgb(0, 0, 0); stroke-opacity: 1; stroke-dasharray: 9px, 9px; stroke-width: 2px;"/></g><g class="legendsymbols"><g class="legendpoints"/></g></g><rect class="legendtoggle" x="0" y="-11.9" width="142.703125" height="23.8" style="fill: rgb(0, 0, 0); fill-opacity: 0;"/></g></g><g class="groups" transform="translate(145.203125,0)"><g class="traces" transform="translate(0,16.9)" style="opacity: 1;"><text class="legendtext" text-anchor="start" x="40" y="6.24" style="font-family: 'Open Sans', verdana, arial, sans-serif; font-size: 16px; fill: rgb(36, 36, 36); fill-opacity: 1; white-space: pre;">Observations</text><g class="layers" style="opacity: 1;"><g class="legendfill"/><g class="legendlines"/><g class="legendsymbols"><g class="legendpoints"><path class="scatterpts" transform="translate(20,0)" d="M3,0A3,3 0 1,1 0,-3A3,3 0 0,1 3,0Z" style="opacity: 1; stroke-width: 0px; fill: rgb(228, 26, 28); fill-opacity: 1;"/></g></g></g><rect class="legendtoggle" x="0" y="-11.9" width="141.640625" height="23.8" style="fill: rgb(0, 0, 0); fill-opacity: 0;"/></g></g><g class="groups" transform="translate(289.34375,0)"><g class="traces" transform="translate(0,16.9)" style="opacity: 1;"><text class="legendtext" text-anchor="start" x="40" y="6.24" style="font-family: 'Open Sans', verdana, arial, sans-serif; font-size: 16px; fill: rgb(36, 36, 36); fill-opacity: 1; white-space: pre;">95% confidence interval</text><g class="layers"><g class="legendfill"><path class="js-fill" d="M5,-2h30v6h-30z" style="stroke-width: 0; fill: rgb(55, 126, 255); fill-opacity: 0.1;"/></g><g class="legendlines"><path class="js-line" d="M5,-2h30" style="fill: none; stroke: rgb(55, 126, 255); stroke-opacity: 0.1; stroke-width: 2px;"/></g><g class="legendsymbols"><g class="legendpoints"/></g></g><rect class="legendtoggle" x="0" y="-11.9" width="220.03125" height="23.8" style="fill: rgb(0, 0, 0); fill-opacity: 0;"/></g></g><g class="groups" transform="translate(511.875,0)"><g class="traces" transform="translate(0,16.9)" style="opacity: 1;"><text class="legendtext" text-anchor="start" x="40" y="6.24" style="font-family: 'Open Sans', verdana, arial, sans-serif; font-size: 16px; fill: rgb(36, 36, 36); fill-opacity: 1; white-space: pre;">Posterior mean</text><g class="layers" style="opacity: 1;"><g class="legendfill"/><g class="legendlines"><path class="js-line" d="M5,0h30" style="fill: none; stroke: rgb(31, 119, 180); stroke-opacity: 1; stroke-width: 2px;"/></g><g class="legendsymbols"><g class="legendpoints"/></g></g><rect class="legendtoggle" x="0" y="-11.9" width="157.5625" height="23.8" style="fill: rgb(0, 0, 0); fill-opacity: 0;"/></g></g></g><rect class="scrollbar" rx="20" ry="3" width="0" height="0" x="0" y="0" style="fill: rgb(128, 139, 164); fill-opacity: 1;"/></g><g class="g-gtitle"/><g class="g-xtitle" transform="translate(0,-5.003125000000011)"><text class="xtitle" x="425.5" y="399.003125" text-anchor="middle" style="font-family: 'Open Sans', verdana, arial, sans-serif; font-size: 19px; fill: rgb(36, 36, 36); opacity: 1; font-weight: normal; white-space: pre;">Input value (x)</text></g><g class="g-ytitle" transform="translate(19.2998046875,0)"><text class="ytitle" transform="rotate(-90,0.7000000000000028,187.5)" x="0.7000000000000028" y="187.5" text-anchor="middle" style="font-family: 'Open Sans', verdana, arial, sans-serif; font-size: 19px; fill: rgb(36, 36, 36); opacity: 1; font-weight: normal; white-space: pre;">Objective value (ϕ)</text></g></g></svg>
