<svg class="main-svg" xmlns="http://www.w3.org/2000/svg" xmlns:xlink="http://www.w3.org/1999/xlink" width="800" height="400" style="" viewBox="0 0 800 400"><rect x="0" y="0" width="800" height="400" style="fill: rgb(255, 255, 255); fill-opacity: 1;"/><defs id="defs-31f016"><g class="clips"><clipPath id="clip31f016xyplot" class="plotclip"><rect width="739" height="307"/></clipPath><clipPath class="axesclip" id="clip31f016x"><rect x="56" y="0" width="739" height="400"/></clipPath><clipPath class="axesclip" id="clip31f016y"><rect x="0" y="34" width="800" height="307"/></clipPath><clipPath class="axesclip" id="clip31f016xy"><rect x="56" y="34" width="739" height="307"/></clipPath></g><g class="gradients"/><g class="patterns"/></defs><g class="bglayer"/><g class="layer-below"><g class="imagelayer"/><g class="shapelayer"/></g><g class="cartesianlayer"><g class="subplot xy"><g class="layer-subplot"><g class="shapelayer"/><g class="imagelayer"/></g><g class="minor-gridlayer"><g class="x"/><g class="y"/></g><g class="gridlayer"><g class="x"/><g class="y"/></g><g class="zerolinelayer"/><path class="xlines-below"/><path class="ylines-below"/><g class="overlines-below"/><g class="xaxislayer-below"/><g class="yaxislayer-below"/><g class="overaxes-below"/><g class="plot" transform="translate(56,34)" clip-path="url(#clip31f016xyplot)"><g class="scatterlayer mlayer"><g class="trace scatter trace41a7d9" style="stroke-miterlimit: 2; opacity: 1;"><g class="fills"/><g class="errorbars"/><g class="lines"><path class="js-line" d="M0,154.07L5.18,168L5.92,169.61L10.36,177.31L11.1,178.27L14.79,181.79L15.53,182.26L19.23,183.49L19.97,183.54L23.67,182.94L24.41,182.67L29.59,179.74L30.33,179.2L40.69,170.6L41.43,170L48.82,164.85L49.56,164.45L55.48,162.3L56.22,162.17L61.4,162.15L62.14,162.28L67.32,164.08L68.06,164.47L73.97,168.58L74.71,169.22L82.11,176.78L82.85,177.64L94.69,192.67L95.43,193.64L108,208.9L108.74,209.67L116.14,216.26L116.88,216.78L122.8,220.03L123.54,220.31L128.71,221.4L129.45,221.43L134.63,220.77L135.37,220.55L140.55,218.1L141.29,217.63L147.21,212.75L147.95,212.01L154.61,204.11L155.35,203.11L163.48,190.62L164.22,189.36L175.32,168.89L176.06,167.44L204.91,111.92L205.65,110.67L215.26,95.98L216,94.98L224.14,85.25L224.88,84.48L232.28,78L233.02,77.47L240.42,73.24L241.16,72.92L248.55,70.77L249.29,70.65L256.69,70.28L257.43,70.32L266.31,71.64L267.05,71.81L278.88,75.23L279.62,75.47L296.64,80.24L297.38,80.39L306.99,81.41L307.73,81.41L315.87,80.72L316.61,80.59L324.75,78.27L325.49,77.98L334.36,73.63L335.1,73.19L345.46,66.09L346.2,65.52L365.43,49.5L366.17,48.89L378.75,39.45L379.49,38.98L387.62,34.7L388.36,34.4L395.02,32.54L395.76,32.44L401.68,32.33L402.42,32.42L408.34,33.97L409.08,34.27L414.99,37.6L415.73,38.13L422.39,44.07L423.13,44.86L430.53,54.14L431.27,55.2L439.41,68.42L440.15,69.75L450.5,90.37L451.24,91.97L465.3,124.28L466.04,126.05L488.23,177.03L488.97,178.55L498.58,196.56L499.32,197.79L506.72,208.6L507.46,209.52L514.12,216.5L514.86,217.12L520.78,220.93L521.52,221.26L526.69,222.67L527.43,222.74L532.61,222.38L533.35,222.21L539.27,219.76L540.01,219.33L546.67,214.32L547.41,213.65L555.54,204.99L556.28,204.11L569.6,186.75L570.34,185.75L584.39,168.13L585.13,167.33L593.27,159.72L594.01,159.16L600.67,155.21L601.41,154.9L607.33,153.38L608.07,153.31L613.98,153.73L614.72,153.9L620.64,156.13L621.38,156.51L628.04,160.81L628.78,161.37L639.87,170.96L640.61,171.63L653.19,182.02L653.93,182.51L660.59,185.99L661.33,186.26L667.25,187.45L667.98,187.48L673.16,186.88L673.9,186.69L679.82,184.25L680.56,183.84L688.7,178.43L689.44,177.89L699.79,170.97L700.53,170.6L705.71,168.81L706.45,168.69L710.89,168.72L711.63,168.85L716.81,170.69L717.55,171.05L726.42,174.86L727.16,174.88L730.12,173.83L730.86,173.2L733.08,170.13L733.82,168.64L736.78,159.64L737.52,156.49L739,148.87" style="vector-effect: non-scaling-stroke; fill: none; stroke: rgb(0, 0, 0); stroke-opacity: 1; stroke-dasharray: 9px, 9px; stroke-width: 2px; opacity: 1;"/></g><g class="points"/><g class="text"/></g><g class="trace scatter trace196a04" style="stroke-miterlimit: 2; opacity: 1;"><g class="fills"/><g class="errorbars"/><g class="lines"/><g class="points"><path class="point" transform="translate(197.85,124.51)" d="M3,0A3,3 0 1,1 0,-3A3,3 0 0,1 3,0Z" style="opacity: 1; stroke-width: 0px; fill: rgb(228, 26, 28); fill-opacity: 1;"/><path class="point" transform="translate(267.34,71.88)" d="M3,0A3,3 0 1,1 0,-3A3,3 0 0,1 3,0Z" style="opacity: 1; stroke-width: 0px; fill: rgb(228, 26, 28); fill-opacity: 1;"/><path class="point" transform="translate(526.42,222.64)" d="M3,0A3,3 0 1,1 0,-3A3,3 0 0,1 3,0Z" style="opacity: 1; stroke-width: 0px; fill: rgb(228, 26, 28); fill-opacity: 1;"/></g><g class="text"/></g><g class="trace scatter trace57828c" style="stroke-miterlimit: 2;"><g class="fills"><g><path class="js-fill" d="M0,29.64L92.47,30.34L93.21,30.38L111.7,32.13L112.44,32.25L123.54,34.58L124.28,34.78L134.63,38.52L135.37,38.86L144.25,43.85L144.99,44.36L152.39,50.21L153.13,50.89L160.52,58.66L161.26,59.54L169.4,70.58L170.14,71.71L179.02,86.76L179.76,88.14L192.33,113.27L193.07,114.78L197.51,123.09L198.25,122.49L204.17,103.78L204.91,101.45L214.52,73.61L215.26,71.72L221.92,56.6L222.66,55.15L228.58,45.37L229.32,44.39L234.5,39.03L235.24,38.49L238.94,36.66L239.68,36.47L243.37,36.42L244.11,36.59L247.81,38.37L248.55,38.9L252.99,43.41L253.73,44.37L258.91,52.73L259.65,54.15L267.05,70.32L267.79,70.05L274.44,53.76L275.18,52.03L282.58,36.58L283.32,35.23L289.98,24.77L290.72,23.79L297.38,16.5L298.12,15.85L304.03,11.71L304.77,11.32L310.69,8.99L311.43,8.8L318.83,7.85L319.57,7.85L327.7,8.54L328.44,8.67L339.54,11.33L340.28,11.55L363.95,19.34L364.69,19.59L418.69,38.06L419.43,38.39L431.27,44.27L432.01,44.69L442.36,51.46L443.1,52.02L451.98,59.55L452.72,60.25L461.6,69.9L462.34,70.81L470.47,81.97L471.21,83.1L479.35,96.9L480.09,98.29L488.23,115.05L488.97,116.71L498.58,140.42L499.32,142.4L511.16,176.46L511.9,178.7L525.95,220.69L526.69,221.03L529.65,213.07L530.39,210.88L555.54,137.23L556.28,135.32L565.9,112.51L566.64,110.92L575.52,93.64L576.26,92.35L585.13,78.51L585.87,77.49L594.75,66.64L595.49,65.85L604.37,57.48L605.11,56.88L614.72,50.04L615.46,49.58L625.82,44.19L626.56,43.86L638.4,39.52L639.14,39.3L652.45,36.02L653.19,35.88L668.72,33.46L669.46,33.38L690.92,31.52L691.66,31.48L729.38,30.18L730.12,30.17L739,30.04L739,268.28L728.64,268.44L727.9,268.45L686.48,269.96L685.74,270.01L663.55,271.99L662.81,272.08L641.35,275.41L640.61,275.56L608.81,283.43L608.07,283.63L593.27,287.36L592.53,287.52L582.91,288.86L582.18,288.91L574.78,288.66L574.04,288.56L567.38,286.82L566.64,286.53L560.72,283.32L559.98,282.8L554.07,277.58L553.33,276.79L546.67,268.05L545.93,266.9L539.27,254.75L538.53,253.2L527.43,225.82L526.69,224.22L524.48,228.28L523.74,230.27L516.34,248.71L515.6,250.36L508.94,263.44L508.2,264.69L502.28,273.36L501.54,274.28L495.63,280.4L494.89,281.02L488.97,284.95L488.23,285.33L482.31,287.48L481.57,287.66L474.17,288.48L473.43,288.48L463.82,287.47L463.08,287.33L446.06,282.75L445.32,282.52L393.54,265.81L392.8,265.56L376.53,259.32L375.79,259L363.21,252.64L362.47,252.2L352.12,245.24L351.38,244.67L341.76,236.18L341.02,235.44L332.14,225.32L331.4,224.37L322.53,211.5L321.79,210.3L312.91,194.21L312.17,192.72L302.55,171.31L301.81,169.5L272.22,85.36L271.48,83.27L267.79,73.7L267.05,73.48L255.95,102.81L255.21,104.74L247.07,124.33L246.33,125.92L240.42,137.19L239.68,138.41L234.5,145.56L233.76,146.38L229.32,150.22L228.58,150.67L224.88,152.12L224.14,152.25L220.44,152.06L219.7,151.86L215.26,149.53L214.52,148.96L209.35,143.6L208.61,142.64L198.99,127.02L198.25,125.98L193.07,140.42L192.33,142.84L181.98,174.82L181.24,176.93L173.1,198.14L172.36,199.88L164.96,215.62L164.22,217.03L156.09,230.61L155.35,231.68L147.95,241.04L147.21,241.85L139.81,248.86L139.07,249.46L131.67,254.59L130.93,255.03L122.06,259.32L121.32,259.61L110.96,262.82L110.22,263L96.91,265.33L96.17,265.43L73.23,267.11L72.49,267.14L0,267.88Z" style="fill: rgb(55, 126, 255); fill-opacity: 0.1; stroke-width: 0;"/></g></g><g class="errorbars"/><g class="lines"><path class="js-line" d="M0,267.88L72.49,267.14L73.23,267.11L96.17,265.43L96.91,265.33L110.22,263L110.96,262.82L121.32,259.61L122.06,259.32L130.93,255.03L131.67,254.59L139.07,249.46L139.81,248.86L147.21,241.85L147.95,241.04L155.35,231.68L156.09,230.61L164.22,217.03L164.96,215.62L172.36,199.88L173.1,198.14L181.24,176.93L181.98,174.82L192.33,142.84L193.07,140.42L198.25,125.98L198.99,127.02L208.61,142.64L209.35,143.6L214.52,148.96L215.26,149.53L219.7,151.86L220.44,152.06L224.14,152.25L224.88,152.12L228.58,150.67L229.32,150.22L233.76,146.38L234.5,145.56L239.68,138.41L240.42,137.19L246.33,125.92L247.07,124.33L255.21,104.74L255.95,102.81L267.05,73.48L267.79,73.7L271.48,83.27L272.22,85.36L301.81,169.5L302.55,171.31L312.17,192.72L312.91,194.21L321.79,210.3L322.53,211.5L331.4,224.37L332.14,225.32L341.02,235.44L341.76,236.18L351.38,244.67L352.12,245.24L362.47,252.2L363.21,252.64L375.79,259L376.53,259.32L392.8,265.56L393.54,265.81L445.32,282.52L446.06,282.75L463.08,287.33L463.82,287.47L473.43,288.48L474.17,288.48L481.57,287.66L482.31,287.48L488.23,285.33L488.97,284.95L494.89,281.02L495.63,280.4L501.54,274.28L502.28,273.36L508.2,264.69L508.94,263.44L515.6,250.36L516.34,248.71L523.74,230.27L524.48,228.28L526.69,224.22L527.43,225.82L538.53,253.2L539.27,254.75L545.93,266.9L546.67,268.05L553.33,276.79L554.07,277.58L559.98,282.8L560.72,283.32L566.64,286.53L567.38,286.82L574.04,288.56L574.78,288.66L582.18,288.91L582.91,288.86L592.53,287.52L593.27,287.36L608.07,283.63L608.81,283.43L640.61,275.56L641.35,275.41L662.81,272.08L663.55,271.99L685.74,270.01L686.48,269.96L727.9,268.45L728.64,268.44L739,268.28" style="vector-effect: non-scaling-stroke; fill: none; stroke: rgb(55, 126, 255); stroke-opacity: 0.1; stroke-width: 2px; opacity: 1;"/></g><g class="points"/><g class="text"/></g><g class="trace scatter traceaf6364" style="stroke-miterlimit: 2;"><g class="fills"/><g class="errorbars"/><g class="lines"><path class="js-line" d="M0,29.64L92.47,30.34L93.21,30.38L111.7,32.13L112.44,32.25L123.54,34.58L124.28,34.78L134.63,38.52L135.37,38.86L144.25,43.85L144.99,44.36L152.39,50.21L153.13,50.89L160.52,58.66L161.26,59.54L169.4,70.58L170.14,71.71L179.02,86.76L179.76,88.14L192.33,113.27L193.07,114.78L197.51,123.09L198.25,122.49L204.17,103.78L204.91,101.45L214.52,73.61L215.26,71.72L221.92,56.6L222.66,55.15L228.58,45.37L229.32,44.39L234.5,39.03L235.24,38.49L238.94,36.66L239.68,36.47L243.37,36.42L244.11,36.59L247.81,38.37L248.55,38.9L252.99,43.41L253.73,44.37L258.91,52.73L259.65,54.15L267.05,70.32L267.79,70.05L274.44,53.76L275.18,52.03L282.58,36.58L283.32,35.23L289.98,24.77L290.72,23.79L297.38,16.5L298.12,15.85L304.03,11.71L304.77,11.32L310.69,8.99L311.43,8.8L318.83,7.85L319.57,7.85L327.7,8.54L328.44,8.67L339.54,11.33L340.28,11.55L363.95,19.34L364.69,19.59L418.69,38.06L419.43,38.39L431.27,44.27L432.01,44.69L442.36,51.46L443.1,52.02L451.98,59.55L452.72,60.25L461.6,69.9L462.34,70.81L470.47,81.97L471.21,83.1L479.35,96.9L480.09,98.29L488.23,115.05L488.97,116.71L498.58,140.42L499.32,142.4L511.16,176.46L511.9,178.7L525.95,220.69L526.69,221.03L529.65,213.07L530.39,210.88L555.54,137.23L556.28,135.32L565.9,112.51L566.64,110.92L575.52,93.64L576.26,92.35L585.13,78.51L585.87,77.49L594.75,66.64L595.49,65.85L604.37,57.48L605.11,56.88L614.72,50.04L615.46,49.58L625.82,44.19L626.56,43.86L638.4,39.52L639.14,39.3L652.45,36.02L653.19,35.88L668.72,33.46L669.46,33.38L690.92,31.52L691.66,31.48L729.38,30.18L730.12,30.17L739,30.04" style="vector-effect: non-scaling-stroke; fill: none; stroke: rgb(55, 126, 255); stroke-opacity: 0.1; stroke-width: 2px; opacity: 1;"/></g><g class="points"/><g class="text"/></g><g class="trace scatter tracefe65d6" style="stroke-miterlimit: 2; opacity: 1;"><g class="fills"/><g class="errorbars"/><g class="lines"><path class="js-line" d="M0,148.76L95.43,148.01L96.17,147.99L125.76,146.47L126.5,146.41L145.73,144.14L146.47,144.02L162,140.76L162.74,140.56L175.32,136.44L176.06,136.15L187.89,130.6L188.63,130.19L199.73,123.2L200.47,122.67L211.57,113.88L212.31,113.24L227.1,99.46L227.84,98.74L246.33,81.7L247.07,81.11L255.21,75.61L255.95,75.21L262.61,72.59L263.35,72.41L269.27,71.9L270.01,71.95L275.92,73.22L276.66,73.48L283.32,76.73L284.06,77.18L292.94,83.62L293.68,84.22L309.21,97.99L309.95,98.67L329.18,115.1L329.92,115.68L344.72,125.96L345.46,126.42L359.51,134.12L360.25,134.47L375.05,140.84L375.79,141.12L400.2,149.56L400.94,149.81L423.87,157.98L424.61,158.28L440.15,165.35L440.88,165.74L453.46,172.98L454.2,173.45L468.26,183.42L468.99,184L486.01,198.25L486.75,198.89L504.5,213.59L505.24,214.13L514.12,219.51L514.86,219.85L521.52,222.1L522.26,222.24L528.17,222.57L528.91,222.5L534.83,221.17L535.57,220.91L542.23,217.73L542.97,217.29L551.85,211.11L552.59,210.53L572.56,193.67L573.3,193.05L589.57,180.36L590.31,179.84L604.37,171.06L605.11,170.66L617.68,164.64L618.42,164.33L632.48,159.39L633.22,159.17L649.49,155.3L650.23,155.16L667.98,152.53L668.72,152.44L693.88,150.45L694.62,150.41L728.64,149.32L729.38,149.3L739,149.16" style="vector-effect: non-scaling-stroke; fill: none; stroke: rgb(31, 119, 180); stroke-opacity: 1; stroke-width: 2px; opacity: 1;"/></g><g class="points"/><g class="text"/></g></g></g><g class="overplot"/><path class="xlines-above crisp" d="M55,341.5H795" style="fill: none; stroke-width: 1px; stroke: rgb(36, 36, 36); stroke-opacity: 1;"/><path class="ylines-above crisp" d="M55.5,34V341" style="fill: none; stroke-width: 1px; stroke: rgb(36, 36, 36); stroke-opacity: 1;"/><g class="overlines-above"/><g class="xaxislayer-above"><path class="xtick ticks crisp" d="M0,342v5" transform="translate(56,0)" style="stroke: rgb(68, 68, 68); stroke-opacity: 1; stroke-width: 1px;"/><path class="xtick ticks crisp" d="M0,342v5" transform="translate(203.8,0)" style="stroke: rgb(68, 68, 68); stroke-opacity: 1; stroke-width: 1px;"/><path class="xtick ticks crisp" d="M0,342v5" transform="translate(351.6,0)" style="stroke: rgb(68, 68, 68); stroke-opacity: 1; stroke-width: 1px;"/><path class="xtick ticks crisp" d="M0,342v5" transform="translate(499.4,0)" style="stroke: rgb(68, 68, 68); stroke-opacity: 1; stroke-width: 1px;"/><path class="xtick ticks crisp" d="M0,342v5" transform="translate(647.2,0)" style="stroke: rgb(68, 68, 68); stroke-opacity: 1; stroke-width: 1px;"/><path class="xtick ticks crisp" d="M0,342v5" transform="translate(795,0)" style="stroke: rgb(68, 68, 68); stroke-opacity: 1; stroke-width: 1px;"/><g class="xtick"><text text-anchor="middle" x="0" y="366.2" transform="translate(56,0)" style="font-family: 'Open Sans', verdana, arial, sans-serif; font-size: 16px; fill: rgb(36, 36, 36); fill-opacity: 1; white-space: pre; opacity: 1;">0</text></g><g class="xtick"><text text-anchor="middle" x="0" y="366.2" style="font-family: 'Open Sans', verdana, arial, sans-serif; font-size: 16px; fill: rgb(36, 36, 36); fill-opacity: 1; white-space: pre; opacity: 1;" transform="translate(203.8,0)">1</text></g><g class="xtick"><text text-anchor="middle" x="0" y="366.2" style="font-family: 'Open Sans', verdana, arial, sans-serif; font-size: 16px; fill: rgb(36, 36, 36); fill-opacity: 1; white-space: pre; opacity: 1;" transform="translate(351.6,0)">2</text></g><g class="xtick"><text text-anchor="middle" x="0" y="366.2" style="font-family: 'Open Sans', verdana, arial, sans-serif; font-size: 16px; fill: rgb(36, 36, 36); fill-opacity: 1; white-space: pre; opacity: 1;" transform="translate(499.4,0)">3</text></g><g class="xtick"><text text-anchor="middle" x="0" y="366.2" style="font-family: 'Open Sans', verdana, arial, sans-serif; font-size: 16px; fill: rgb(36, 36, 36); fill-opacity: 1; white-space: pre; opacity: 1;" transform="translate(647.2,0)">4</text></g><g class="xtick"><text text-anchor="middle" x="0" y="366.2" style="font-family: 'Open Sans', verdana, arial, sans-serif; font-size: 16px; fill: rgb(36, 36, 36); fill-opacity: 1; white-space: pre; opacity: 1;" transform="translate(795,0)">5</text></g></g><g class="yaxislayer-above"><path class="ytick ticks crisp" d="M55,0h-5" transform="translate(0,341)" style="stroke: rgb(68, 68, 68); stroke-opacity: 1; stroke-width: 1px;"/><path class="ytick ticks crisp" d="M55,0h-5" transform="translate(0,297.14)" style="stroke: rgb(68, 68, 68); stroke-opacity: 1; stroke-width: 1px;"/><path class="ytick ticks crisp" d="M55,0h-5" transform="translate(0,253.29)" style="stroke: rgb(68, 68, 68); stroke-opacity: 1; stroke-width: 1px;"/><path class="ytick ticks crisp" d="M55,0h-5" transform="translate(0,209.43)" style="stroke: rgb(68, 68, 68); stroke-opacity: 1; stroke-width: 1px;"/><path class="ytick ticks crisp" d="M55,0h-5" transform="translate(0,165.57)" style="stroke: rgb(68, 68, 68); stroke-opacity: 1; stroke-width: 1px;"/><path class="ytick ticks crisp" d="M55,0h-5" transform="translate(0,121.71)" style="stroke: rgb(68, 68, 68); stroke-opacity: 1; stroke-width: 1px;"/><path class="ytick ticks crisp" d="M55,0h-5" transform="translate(0,77.86)" style="stroke: rgb(68, 68, 68); stroke-opacity: 1; stroke-width: 1px;"/><path class="ytick ticks crisp" d="M55,0h-5" transform="translate(0,34)" style="stroke: rgb(68, 68, 68); stroke-opacity: 1; stroke-width: 1px;"/><g class="ytick"><text text-anchor="end" x="46.8" y="5.6" transform="translate(0,341)" style="font-family: 'Open Sans', verdana, arial, sans-serif; font-size: 16px; fill: rgb(36, 36, 36); fill-opacity: 1; white-space: pre; opacity: 1;">0</text></g><g class="ytick"><text text-anchor="end" x="46.8" y="5.6" style="font-family: 'Open Sans', verdana, arial, sans-serif; font-size: 16px; fill: rgb(36, 36, 36); fill-opacity: 1; white-space: pre; opacity: 1;" transform="translate(0,297.14)">2</text></g><g class="ytick"><text text-anchor="end" x="46.8" y="5.6" style="font-family: 'Open Sans', verdana, arial, sans-serif; font-size: 16px; fill: rgb(36, 36, 36); fill-opacity: 1; white-space: pre; opacity: 1;" transform="translate(0,253.29)">4</text></g><g class="ytick"><text text-anchor="end" x="46.8" y="5.6" style="font-family: 'Open Sans', verdana, arial, sans-serif; font-size: 16px; fill: rgb(36, 36, 36); fill-opacity: 1; white-space: pre; opacity: 1;" transform="translate(0,209.43)">6</text></g><g class="ytick"><text text-anchor="end" x="46.8" y="5.6" style="font-family: 'Open Sans', verdana, arial, sans-serif; font-size: 16px; fill: rgb(36, 36, 36); fill-opacity: 1; white-space: pre; opacity: 1;" transform="translate(0,165.57)">8</text></g><g class="ytick"><text text-anchor="end" x="46.8" y="5.6" style="font-family: 'Open Sans', verdana, arial, sans-serif; font-size: 16px; fill: rgb(36, 36, 36); fill-opacity: 1; white-space: pre; opacity: 1;" transform="translate(0,121.71)">10</text></g><g class="ytick"><text text-anchor="end" x="46.8" y="5.6" style="font-family: 'Open Sans', verdana, arial, sans-serif; font-size: 16px; fill: rgb(36, 36, 36); fill-opacity: 1; white-space: pre; opacity: 1;" transform="translate(0,77.86)">12</text></g><g class="ytick"><text text-anchor="end" x="46.8" y="5.6" style="font-family: 'Open Sans', verdana, arial, sans-serif; font-size: 16px; fill: rgb(36, 36, 36); fill-opacity: 1; white-space: pre; opacity: 1;" transform="translate(0,34)">14</text></g></g><g class="overaxes-above"/></g></g><g class="polarlayer"/><g class="smithlayer"/><g class="ternarylayer"/><g class="geolayer"/><g class="funnelarealayer"/><g class="pielayer"/><g class="iciclelayer"/><g class="treemaplayer"/><g class="sunburstlayer"/><g class="glimages"/><defs id="topdefs-31f016"><g class="clips"/><clipPath id="legend31f016"><rect width="672" height="34" x="0" y="0"/></clipPath></defs><g class="layer-above"><g class="imagelayer"/><g class="shapelayer"/></g><g class="infolayer"><g class="legend" pointer-events="all" transform="translate(123,0)"><rect class="bg" shape-rendering="crispEdges" style="stroke: rgb(68, 68, 68); stroke-opacity: 1; fill: rgb(255, 255, 255); fill-opacity: 1; stroke-width: 0px;" width="672" height="34" x="0" y="0"/><g class="scrollbox" transform="" clip-path="url(#legend31f016)"><g class="groups" transform=""><g class="traces" transform="translate(0,16.9)" style="opacity: 1;"><text class="legendtext" text-anchor="start" x="40" y="6.24" style="font-family: 'Open Sans', verdana, arial, sans-serif; font-size: 16px; fill: rgb(36, 36, 36); fill-opacity: 1; white-space: pre;">True function</text><g class="layers" style="opacity: 1;"><g class="legendfill"/><g class="legendlines"><path class="js-line" d="M5,0h30" style="fill: none; stroke: rgb(0, 0, 0); stroke-opacity: 1; stroke-dasharray: 9px, 9px; stroke-width: 2px;"/></g><g class="legendsymbols"><g class="legendpoints"/></g></g><rect class="legendtoggle" x="0" y="-11.9" width="142.703125" height="23.8" style="fill: rgb(0, 0, 0); fill-opacity: 0;"/></g></g><g class="groups" transform="translate(145.203125,0)"><g class="traces" transform="translate(0,16.9)" style="opacity: 1;"><text class="legendtext" text-anchor="start" x="40" y="6.24" style="font-family: 'Open Sans', verdana, arial, sans-serif; font-size: 16px; fill: rgb(36, 36, 36); fill-opacity: 1; white-space: pre;">Observations</text><g class="layers" style="opacity: 1;"><g class="legendfill"/><g class="legendlines"/><g class="legendsymbols"><g class="legendpoints"><path class="scatterpts" transform="translate(20,0)" d="M3,0A3,3 0 1,1 0,-3A3,3 0 0,1 3,0Z" style="opacity: 1; stroke-width: 0px; fill: rgb(228, 26, 28); fill-opacity: 1;"/></g></g></g><rect class="legendtoggle" x="0" y="-11.9" width="141.640625" height="23.8" style="fill: rgb(0, 0, 0); fill-opacity: 0;"/></g></g><g class="groups" transform="translate(289.34375,0)"><g class="traces" transform="translate(0,16.9)" style="opacity: 1;"><text class="legendtext" text-anchor="start" x="40" y="6.24" style="font-family: 'Open Sans', verdana, arial, sans-serif; font-size: 16px; fill: rgb(36, 36, 36); fill-opacity: 1; white-space: pre;">95% confidence interval</text><g class="layers"><g class="legendfill"><path class="js-fill" d="M5,-2h30v6h-30z" style="stroke-width: 0; fill: rgb(55, 126, 255); fill-opacity: 0.1;"/></g><g class="legendlines"><path class="js-line" d="M5,-2h30" style="fill: none; stroke: rgb(55, 126, 255); stroke-opacity: 0.1; stroke-width: 2px;"/></g><g class="legendsymbols"><g class="legendpoints"/></g></g><rect class="legendtoggle" x="0" y="-11.9" width="220.03125" height="23.8" style="fill: rgb(0, 0, 0); fill-opacity: 0;"/></g></g><g class="groups" transform="translate(511.875,0)"><g class="traces" transform="translate(0,16.9)" style="opacity: 1;"><text class="legendtext" text-anchor="start" x="40" y="6.24" style="font-family: 'Open Sans', verdana, arial, sans-serif; font-size: 16px; fill: rgb(36, 36, 36); fill-opacity: 1; white-space: pre;">Posterior mean</text><g class="layers" style="opacity: 1;"><g class="legendfill"/><g class="legendlines"><path class="js-line" d="M5,0h30" style="fill: none; stroke: rgb(31, 119, 180); stroke-opacity: 1; stroke-width: 2px;"/></g><g class="legendsymbols"><g class="legendpoints"/></g></g><rect class="legendtoggle" x="0" y="-11.9" width="157.5625" height="23.8" style="fill: rgb(0, 0, 0); fill-opacity: 0;"/></g></g></g><rect class="scrollbar" rx="20" ry="3" width="0" height="0" style="fill: rgb(128, 139, 164); fill-opacity: 1;" x="0" y="0"/></g><g class="g-gtitle"/><g class="g-xtitle" transform="translate(0,-5.003125000000011)"><text class="xtitle" x="425.5" y="399.003125" text-anchor="middle" style="font-family: 'Open Sans', verdana, arial, sans-serif; font-size: 19px; fill: rgb(36, 36, 36); opacity: 1; font-weight: normal; white-space: pre;">Input value (x)</text></g><g class="g-ytitle" transform="translate(19.2998046875,0)"><text class="ytitle" transform="rotate(-90,0.7000000000000028,187.5)" x="0.7000000000000028" y="187.5" text-anchor="middle" style="font-family: 'Open Sans', verdana, arial, sans-serif; font-size: 19px; fill: rgb(36, 36, 36); opacity: 1; font-weight: normal; white-space: pre;">Objective value (ϕ)</text></g></g></svg>
