<svg class="main-svg" xmlns="http://www.w3.org/2000/svg" xmlns:xlink="http://www.w3.org/1999/xlink" width="800" height="400" style="" viewBox="0 0 800 400"><rect x="0" y="0" width="800" height="400" style="fill: rgb(255, 255, 255); fill-opacity: 1;"/><defs id="defs-716037"><g class="clips"><clipPath id="clip716037xyplot" class="plotclip"><rect width="739" height="307"/></clipPath><clipPath class="axesclip" id="clip716037x"><rect x="56" y="0" width="739" height="400"/></clipPath><clipPath class="axesclip" id="clip716037y"><rect x="0" y="34" width="800" height="307"/></clipPath><clipPath class="axesclip" id="clip716037xy"><rect x="56" y="34" width="739" height="307"/></clipPath></g><g class="gradients"/><g class="patterns"/></defs><g class="bglayer"/><g class="layer-below"><g class="imagelayer"/><g class="shapelayer"/></g><g class="cartesianlayer"><g class="subplot xy"><g class="layer-subplot"><g class="shapelayer"/><g class="imagelayer"/></g><g class="minor-gridlayer"><g class="x"/><g class="y"/></g><g class="gridlayer"><g class="x"/><g class="y"/></g><g class="zerolinelayer"/><path class="xlines-below"/><path class="ylines-below"/><g class="overlines-below"/><g class="xaxislayer-below"/><g class="yaxislayer-below"/><g class="overaxes-below"/><g class="plot" transform="translate(56,34)" clip-path="url(#clip716037xyplot)"><g class="scatterlayer mlayer"><g class="trace scatter trace6943ed" style="stroke-miterlimit: 2; opacity: 1;"><g class="fills"/><g class="errorbars"/><g class="lines"><path class="js-line" d="M0,154.07L5.18,168L5.92,169.61L10.36,177.31L11.1,178.27L14.79,181.79L15.53,182.26L19.23,183.49L19.97,183.54L23.67,182.94L24.41,182.67L29.59,179.74L30.33,179.2L40.69,170.6L41.43,170L48.82,164.85L49.56,164.45L55.48,162.3L56.22,162.17L61.4,162.15L62.14,162.28L67.32,164.08L68.06,164.47L73.97,168.58L74.71,169.22L82.11,176.78L82.85,177.64L94.69,192.67L95.43,193.64L108,208.9L108.74,209.67L116.14,216.26L116.88,216.78L122.8,220.03L123.54,220.31L128.71,221.4L129.45,221.43L134.63,220.77L135.37,220.55L140.55,218.1L141.29,217.63L147.21,212.75L147.95,212.01L154.61,204.11L155.35,203.11L163.48,190.62L164.22,189.36L175.32,168.89L176.06,167.44L204.91,111.92L205.65,110.67L215.26,95.98L216,94.98L224.14,85.25L224.88,84.48L232.28,78L233.02,77.47L240.42,73.24L241.16,72.92L248.55,70.77L249.29,70.65L256.69,70.28L257.43,70.32L266.31,71.64L267.05,71.81L278.88,75.23L279.62,75.47L296.64,80.24L297.38,80.39L306.99,81.41L307.73,81.41L315.87,80.72L316.61,80.59L324.75,78.27L325.49,77.98L334.36,73.63L335.1,73.19L345.46,66.09L346.2,65.52L365.43,49.5L366.17,48.89L378.75,39.45L379.49,38.98L387.62,34.7L388.36,34.4L395.02,32.54L395.76,32.44L401.68,32.33L402.42,32.42L408.34,33.97L409.08,34.27L414.99,37.6L415.73,38.13L422.39,44.07L423.13,44.86L430.53,54.14L431.27,55.2L439.41,68.42L440.15,69.75L450.5,90.37L451.24,91.97L465.3,124.28L466.04,126.05L488.23,177.03L488.97,178.55L498.58,196.56L499.32,197.79L506.72,208.6L507.46,209.52L514.12,216.5L514.86,217.12L520.78,220.93L521.52,221.26L526.69,222.67L527.43,222.74L532.61,222.38L533.35,222.21L539.27,219.76L540.01,219.33L546.67,214.32L547.41,213.65L555.54,204.99L556.28,204.11L569.6,186.75L570.34,185.75L584.39,168.13L585.13,167.33L593.27,159.72L594.01,159.16L600.67,155.21L601.41,154.9L607.33,153.38L608.07,153.31L613.98,153.73L614.72,153.9L620.64,156.13L621.38,156.51L628.04,160.81L628.78,161.37L639.87,170.96L640.61,171.63L653.19,182.02L653.93,182.51L660.59,185.99L661.33,186.26L667.25,187.45L667.98,187.48L673.16,186.88L673.9,186.69L679.82,184.25L680.56,183.84L688.7,178.43L689.44,177.89L699.79,170.97L700.53,170.6L705.71,168.81L706.45,168.69L710.89,168.72L711.63,168.85L716.81,170.69L717.55,171.05L726.42,174.86L727.16,174.88L730.12,173.83L730.86,173.2L733.08,170.13L733.82,168.64L736.78,159.64L737.52,156.49L739,148.87" style="vector-effect: non-scaling-stroke; fill: none; stroke: rgb(0, 0, 0); stroke-opacity: 1; stroke-dasharray: 9px, 9px; stroke-width: 2px; opacity: 1;"/></g><g class="points"/><g class="text"/></g><g class="trace scatter trace568272" style="stroke-miterlimit: 2; opacity: 1;"><g class="fills"/><g class="errorbars"/><g class="lines"/><g class="points"><path class="point" transform="translate(197.85,124.51)" d="M3,0A3,3 0 1,1 0,-3A3,3 0 0,1 3,0Z" style="opacity: 1; stroke-width: 0px; fill: rgb(228, 26, 28); fill-opacity: 1;"/><path class="point" transform="translate(267.34,71.88)" d="M3,0A3,3 0 1,1 0,-3A3,3 0 0,1 3,0Z" style="opacity: 1; stroke-width: 0px; fill: rgb(228, 26, 28); fill-opacity: 1;"/><path class="point" transform="translate(526.42,222.64)" d="M3,0A3,3 0 1,1 0,-3A3,3 0 0,1 3,0Z" style="opacity: 1; stroke-width: 0px; fill: rgb(228, 26, 28); fill-opacity: 1;"/><path class="point" transform="translate(292.62,79.34)" d="M3,0A3,3 0 1,1 0,-3A3,3 0 0,1 3,0Z" style="opacity: 1; stroke-width: 0px; fill: rgb(228, 26, 28); fill-opacity: 1;"/><path class="point" transform="translate(336.01,72.64)" d="M3,0A3,3 0 1,1 0,-3A3,3 0 0,1 3,0Z" style="opacity: 1; stroke-width: 0px; fill: rgb(228, 26, 28); fill-opacity: 1;"/><path class="point" transform="translate(247.81,70.91)" d="M3,0A3,3 0 1,1 0,-3A3,3 0 0,1 3,0Z" style="opacity: 1; stroke-width: 0px; fill: rgb(228, 26, 28); fill-opacity: 1;"/><path class="point" transform="translate(739,148.87)" d="M3,0A3,3 0 1,1 0,-3A3,3 0 0,1 3,0Z" style="opacity: 1; stroke-width: 0px; fill: rgb(228, 26, 28); fill-opacity: 1;"/><path class="point" transform="translate(0,154.07)" d="M3,0A3,3 0 1,1 0,-3A3,3 0 0,1 3,0Z" style="opacity: 1; stroke-width: 0px; fill: rgb(228, 26, 28); fill-opacity: 1;"/><path class="point" transform="translate(377.7,40.13)" d="M3,0A3,3 0 1,1 0,-3A3,3 0 0,1 3,0Z" style="opacity: 1; stroke-width: 0px; fill: rgb(228, 26, 28); fill-opacity: 1;"/></g><g class="text"/></g><g class="trace scatter trace5abb82" style="stroke-miterlimit: 2;"><g class="fills"><g><path class="js-fill" d="M0,152.68L1.48,150.9L2.22,149.57L24.41,109.61L25.15,108.42L35.51,93.3L36.25,92.32L45.86,80.97L46.6,80.2L56.22,71.48L56.96,70.9L65.84,65.06L66.58,64.66L75.45,60.79L76.19,60.55L85.07,58.52L85.81,58.42L94.69,58.08L95.43,58.12L104.3,59.39L105.04,59.56L114.66,62.66L115.4,62.96L125.76,68.22L126.5,68.66L136.85,75.78L137.59,76.36L148.69,85.79L149.43,86.47L183.46,118.25L184.2,118.77L190.85,122.54L191.59,122.84L196.03,123.87L196.77,123.79L198.25,122.55L198.99,121.18L213.78,90.41L214.52,89.16L221.18,79.61L221.92,78.75L227.1,73.83L227.84,73.29L233.02,70.56L233.76,70.32L238.94,69.46L239.68,69.45L249.29,69.07L250.03,68.76L255.21,67.22L255.95,67.17L260.39,67.79L261.13,68.03L270.01,70.83L270.74,70.86L278.88,71.57L279.62,71.75L285.54,74.15L286.28,74.56L292.94,78.03L293.68,78.06L297.38,77.14L298.12,76.86L312.91,71.55L313.65,71.4L321.05,70.76L321.79,70.77L335.84,71.35L336.58,70.74L340.28,65.51L341.02,64.33L353.6,45.54L354.34,44.65L360.25,38.85L360.99,38.32L365.43,36.15L366.17,35.97L369.87,35.84L370.61,35.97L375.05,37.78L375.79,38.2L378.01,38.64L378.75,38.03L386.14,28.56L386.88,27.65L394.28,19.64L395.02,18.96L401.68,14.06L402.42,13.65L408.34,11.37L409.08,11.21L414.25,10.88L414.99,10.95L420.17,12.15L420.91,12.43L426.83,15.58L427.57,16.09L434.23,21.72L434.97,22.46L442.36,31.07L443.1,32.05L451.98,45.29L452.72,46.51L463.08,65.46L463.82,66.94L474.91,90.84L475.65,92.54L488.97,125.13L489.71,127.03L525.95,220.78L526.69,221.24L528.91,218.41L529.65,217.22L538.53,201.3L539.27,199.88L576.26,129.3L577,128.06L588.83,109.74L589.57,108.69L600.67,94.47L601.41,93.62L611.76,82.95L612.5,82.28L622.12,74.6L622.86,74.09L632.48,68.48L633.22,68.13L641.35,64.99L642.09,64.77L650.23,63.12L650.97,63.04L659.11,62.93L659.85,62.99L667.98,64.49L668.72,64.71L676.12,67.56L676.86,67.92L685,72.8L685.74,73.33L694.62,80.86L695.36,81.59L704.23,91.5L704.97,92.43L714.59,105.83L715.33,106.96L726.42,125.45L727.16,126.77L739,147.48L739,150.25L736.04,155.06L735.3,156.53L721.25,183.71L720.51,185.05L709.41,203.7L708.67,204.84L698.31,219.49L697.57,220.44L687.22,232.54L686.48,233.32L674.64,244.51L673.9,245.13L661.33,254.65L660.59,255.15L645.05,264.6L644.31,265L627.3,273.39L626.56,273.72L611.03,279.78L610.29,280.02L599.19,283.02L598.45,283.17L588.83,284.36L588.09,284.39L580.7,284.02L579.96,283.92L572.56,282.08L571.82,281.81L565.16,278.57L564.42,278.12L557.02,272.42L556.28,271.72L548.89,263.47L548.15,262.51L540.01,250.19L539.27,248.92L530.39,231.63L529.65,230.05L526.69,224.21L525.95,224.1L520.04,231.76L519.3,232.68L513.38,239.01L512.64,239.67L507.46,243.43L506.72,243.85L501.54,245.9L500.8,246.07L495.63,246.43L494.89,246.36L489.71,245.1L488.97,244.81L483.05,241.51L482.31,240.98L475.65,235.09L474.91,234.32L466.78,224.32L466.04,223.29L456.42,208.02L455.68,206.71L444.58,185.14L443.84,183.58L404.64,89.15L403.9,87.39L394.28,65.9L393.54,64.39L386.88,52.18L386.14,50.99L380.97,43.88L380.23,43.08L378.01,41.53L377.27,41.74L373.57,46.26L372.83,47.28L363.95,58.87L363.21,59.73L356.55,66.35L355.81,66.95L349.9,70.72L349.16,71.06L337.32,73.42L336.58,73.67L329.92,81.43L329.18,82.32L324.01,87.55L323.27,88.14L318.83,90.74L318.09,91.02L313.65,91.76L312.91,91.73L307.73,90.44L306.99,90.11L299.59,85.4L298.85,84.84L293.68,81.16L292.94,80.84L289.24,80.62L288.5,80.67L282.58,80.34L281.84,80.17L269.27,74L268.53,73.66L264.09,72.81L263.35,72.81L251.51,72.11L250.77,72.05L247.81,72.33L247.07,72.67L242.63,76.73L241.89,77.61L230.8,93.8L230.06,94.96L220.44,109.29L219.7,110.27L213.78,117.12L213.05,117.84L207.87,121.9L207.13,122.34L198.99,125.08L198.25,125.48L179.76,168.47L179.02,170.15L168.66,192L167.92,193.42L159.04,208.96L158.3,210.13L150.17,221.66L149.43,222.59L141.29,231.65L140.55,232.36L133.15,238.64L132.41,239.18L124.28,244.2L123.54,244.58L115.4,247.88L114.66,248.11L105.04,250.13L104.3,250.21L94.69,250.43L93.95,250.38L84.33,248.93L83.59,248.76L73.97,245.64L73.23,245.33L63.62,240.41L62.88,239.96L53.26,233.03L52.52,232.41L42.9,223.19L42.17,222.39L32.55,210.65L31.81,209.64L21.45,194.05L20.71,192.83L2.22,158.73L1.48,157.35L0,155.46Z" style="fill: rgb(55, 126, 255); fill-opacity: 0.1; stroke-width: 0;"/></g></g><g class="errorbars"/><g class="lines"><path class="js-line" d="M0,155.46L1.48,157.35L2.22,158.73L20.71,192.83L21.45,194.05L31.81,209.64L32.55,210.65L42.17,222.39L42.9,223.19L52.52,232.41L53.26,233.03L62.88,239.96L63.62,240.41L73.23,245.33L73.97,245.64L83.59,248.76L84.33,248.93L93.95,250.38L94.69,250.43L104.3,250.21L105.04,250.13L114.66,248.11L115.4,247.88L123.54,244.58L124.28,244.2L132.41,239.18L133.15,238.64L140.55,232.36L141.29,231.65L149.43,222.59L150.17,221.66L158.3,210.13L159.04,208.96L167.92,193.42L168.66,192L179.02,170.15L179.76,168.47L198.25,125.48L198.99,125.08L207.13,122.34L207.87,121.9L213.05,117.84L213.78,117.12L219.7,110.27L220.44,109.29L230.06,94.96L230.8,93.8L241.89,77.61L242.63,76.73L247.07,72.67L247.81,72.33L250.77,72.05L251.51,72.11L263.35,72.81L264.09,72.81L268.53,73.66L269.27,74L281.84,80.17L282.58,80.34L288.5,80.67L289.24,80.62L292.94,80.84L293.68,81.16L298.85,84.84L299.59,85.4L306.99,90.11L307.73,90.44L312.91,91.73L313.65,91.76L318.09,91.02L318.83,90.74L323.27,88.14L324.01,87.55L329.18,82.32L329.92,81.43L336.58,73.67L337.32,73.42L349.16,71.06L349.9,70.72L355.81,66.95L356.55,66.35L363.21,59.73L363.95,58.87L372.83,47.28L373.57,46.26L377.27,41.74L378.01,41.53L380.23,43.08L380.97,43.88L386.14,50.99L386.88,52.18L393.54,64.39L394.28,65.9L403.9,87.39L404.64,89.15L443.84,183.58L444.58,185.14L455.68,206.71L456.42,208.02L466.04,223.29L466.78,224.32L474.91,234.32L475.65,235.09L482.31,240.98L483.05,241.51L488.97,244.81L489.71,245.1L494.89,246.36L495.63,246.43L500.8,246.07L501.54,245.9L506.72,243.85L507.46,243.43L512.64,239.67L513.38,239.01L519.3,232.68L520.04,231.76L525.95,224.1L526.69,224.21L529.65,230.05L530.39,231.63L539.27,248.92L540.01,250.19L548.15,262.51L548.89,263.47L556.28,271.72L557.02,272.42L564.42,278.12L565.16,278.57L571.82,281.81L572.56,282.08L579.96,283.92L580.7,284.02L588.09,284.39L588.83,284.36L598.45,283.17L599.19,283.02L610.29,280.02L611.03,279.78L626.56,273.72L627.3,273.39L644.31,265L645.05,264.6L660.59,255.15L661.33,254.65L673.9,245.13L674.64,244.51L686.48,233.32L687.22,232.54L697.57,220.44L698.31,219.49L708.67,204.84L709.41,203.7L720.51,185.05L721.25,183.71L735.3,156.53L736.04,155.06L739,150.25" style="vector-effect: non-scaling-stroke; fill: none; stroke: rgb(55, 126, 255); stroke-opacity: 0.1; stroke-width: 2px; opacity: 1;"/></g><g class="points"/><g class="text"/></g><g class="trace scatter traceb7b8ff" style="stroke-miterlimit: 2;"><g class="fills"/><g class="errorbars"/><g class="lines"><path class="js-line" d="M0,152.68L1.48,150.9L2.22,149.57L24.41,109.61L25.15,108.42L35.51,93.3L36.25,92.32L45.86,80.97L46.6,80.2L56.22,71.48L56.96,70.9L65.84,65.06L66.58,64.66L75.45,60.79L76.19,60.55L85.07,58.52L85.81,58.42L94.69,58.08L95.43,58.12L104.3,59.39L105.04,59.56L114.66,62.66L115.4,62.96L125.76,68.22L126.5,68.66L136.85,75.78L137.59,76.36L148.69,85.79L149.43,86.47L183.46,118.25L184.2,118.77L190.85,122.54L191.59,122.84L196.03,123.87L196.77,123.79L198.25,122.55L198.99,121.18L213.78,90.41L214.52,89.16L221.18,79.61L221.92,78.75L227.1,73.83L227.84,73.29L233.02,70.56L233.76,70.32L238.94,69.46L239.68,69.45L249.29,69.07L250.03,68.76L255.21,67.22L255.95,67.17L260.39,67.79L261.13,68.03L270.01,70.83L270.74,70.86L278.88,71.57L279.62,71.75L285.54,74.15L286.28,74.56L292.94,78.03L293.68,78.06L297.38,77.14L298.12,76.86L312.91,71.55L313.65,71.4L321.05,70.76L321.79,70.77L335.84,71.35L336.58,70.74L340.28,65.51L341.02,64.33L353.6,45.54L354.34,44.65L360.25,38.85L360.99,38.32L365.43,36.15L366.17,35.97L369.87,35.84L370.61,35.97L375.05,37.78L375.79,38.2L378.01,38.64L378.75,38.03L386.14,28.56L386.88,27.65L394.28,19.64L395.02,18.96L401.68,14.06L402.42,13.65L408.34,11.37L409.08,11.21L414.25,10.88L414.99,10.95L420.17,12.15L420.91,12.43L426.83,15.58L427.57,16.09L434.23,21.72L434.97,22.46L442.36,31.07L443.1,32.05L451.98,45.29L452.72,46.51L463.08,65.46L463.82,66.94L474.91,90.84L475.65,92.54L488.97,125.13L489.71,127.03L525.95,220.78L526.69,221.24L528.91,218.41L529.65,217.22L538.53,201.3L539.27,199.88L576.26,129.3L577,128.06L588.83,109.74L589.57,108.69L600.67,94.47L601.41,93.62L611.76,82.95L612.5,82.28L622.12,74.6L622.86,74.09L632.48,68.48L633.22,68.13L641.35,64.99L642.09,64.77L650.23,63.12L650.97,63.04L659.11,62.93L659.85,62.99L667.98,64.49L668.72,64.71L676.12,67.56L676.86,67.92L685,72.8L685.74,73.33L694.62,80.86L695.36,81.59L704.23,91.5L704.97,92.43L714.59,105.83L715.33,106.96L726.42,125.45L727.16,126.77L739,147.48" style="vector-effect: non-scaling-stroke; fill: none; stroke: rgb(55, 126, 255); stroke-opacity: 0.1; stroke-width: 2px; opacity: 1;"/></g><g class="points"/><g class="text"/></g><g class="trace scatter traced80393" style="stroke-miterlimit: 2; opacity: 1;"><g class="fills"/><g class="errorbars"/><g class="lines"><path class="js-line" d="M0,154.07L22.19,154.24L22.93,154.23L84.33,153.78L85.07,153.81L138.33,155.68L139.07,155.63L150.91,154.28L151.65,154.14L161.26,151.64L162,151.39L171.62,147.12L172.36,146.71L181.24,140.82L181.98,140.24L190.85,132.21L191.59,131.45L201.21,120.4L201.95,119.47L217.48,98.79L218.22,97.81L229.32,84.23L230.06,83.43L237.46,76.58L238.2,76.01L244.85,72.05L245.59,71.74L251.51,70.13L252.25,70.04L258.91,70.1L259.65,70.2L267.79,71.97L268.53,72.18L301.07,81.07L301.81,81.18L310.69,81.74L311.43,81.72L318.83,80.77L319.57,80.59L326.96,77.99L327.7,77.64L335.1,73.27L335.84,72.74L344.72,65.45L345.46,64.78L367.65,45.02L368.39,44.52L375.05,41.01L375.79,40.74L381.71,39.53L382.45,39.5L387.62,40.08L388.36,40.27L394.28,42.77L395.02,43.19L401.68,48.11L402.42,48.77L409.82,56.45L410.56,57.31L420.17,69.98L420.91,71.04L433.49,90.68L434.23,91.91L454.2,126.53L454.94,127.84L481.57,173.51L482.31,174.69L495.63,194.47L496.37,195.47L505.98,207.25L506.72,208.05L514.86,215.73L515.6,216.32L523,221.1L523.74,221.47L530.39,223.81L531.13,223.97L537.79,224.49L538.53,224.45L545.19,223.36L545.93,223.16L554.07,220.07L554.8,219.72L565.9,213.36L566.64,212.88L582.18,201.94L582.91,201.39L611.76,181.24L612.5,180.78L628.04,171.95L628.78,171.57L644.31,164.59L645.05,164.3L661.33,158.9L662.07,158.7L679.08,154.83L679.82,154.7L699.79,151.91L700.53,151.83L727.16,149.69L727.9,149.64L739,148.86" style="vector-effect: non-scaling-stroke; fill: none; stroke: rgb(31, 119, 180); stroke-opacity: 1; stroke-width: 2px; opacity: 1;"/></g><g class="points"/><g class="text"/></g></g></g><g class="overplot"/><path class="xlines-above crisp" d="M55,341.5H795" style="fill: none; stroke-width: 1px; stroke: rgb(36, 36, 36); stroke-opacity: 1;"/><path class="ylines-above crisp" d="M55.5,34V341" style="fill: none; stroke-width: 1px; stroke: rgb(36, 36, 36); stroke-opacity: 1;"/><g class="overlines-above"/><g class="xaxislayer-above"><path class="xtick ticks crisp" d="M0,342v5" transform="translate(56,0)" style="stroke: rgb(68, 68, 68); stroke-opacity: 1; stroke-width: 1px;"/><path class="xtick ticks crisp" d="M0,342v5" transform="translate(203.8,0)" style="stroke: rgb(68, 68, 68); stroke-opacity: 1; stroke-width: 1px;"/><path class="xtick ticks crisp" d="M0,342v5" transform="translate(351.6,0)" style="stroke: rgb(68, 68, 68); stroke-opacity: 1; stroke-width: 1px;"/><path class="xtick ticks crisp" d="M0,342v5" transform="translate(499.4,0)" style="stroke: rgb(68, 68, 68); stroke-opacity: 1; stroke-width: 1px;"/><path class="xtick ticks crisp" d="M0,342v5" transform="translate(647.2,0)" style="stroke: rgb(68, 68, 68); stroke-opacity: 1; stroke-width: 1px;"/><path class="xtick ticks crisp" d="M0,342v5" transform="translate(795,0)" style="stroke: rgb(68, 68, 68); stroke-opacity: 1; stroke-width: 1px;"/><g class="xtick"><text text-anchor="middle" x="0" y="366.2" transform="translate(56,0)" style="font-family: 'Open Sans', verdana, arial, sans-serif; font-size: 16px; fill: rgb(36, 36, 36); fill-opacity: 1; white-space: pre; opacity: 1;">0</text></g><g class="xtick"><text text-anchor="middle" x="0" y="366.2" style="font-family: 'Open Sans', verdana, arial, sans-serif; font-size: 16px; fill: rgb(36, 36, 36); fill-opacity: 1; white-space: pre; opacity: 1;" transform="translate(203.8,0)">1</text></g><g class="xtick"><text text-anchor="middle" x="0" y="366.2" style="font-family: 'Open Sans', verdana, arial, sans-serif; font-size: 16px; fill: rgb(36, 36, 36); fill-opacity: 1; white-space: pre; opacity: 1;" transform="translate(351.6,0)">2</text></g><g class="xtick"><text text-anchor="middle" x="0" y="366.2" style="font-family: 'Open Sans', verdana, arial, sans-serif; font-size: 16px; fill: rgb(36, 36, 36); fill-opacity: 1; white-space: pre; opacity: 1;" transform="translate(499.4,0)">3</text></g><g class="xtick"><text text-anchor="middle" x="0" y="366.2" style="font-family: 'Open Sans', verdana, arial, sans-serif; font-size: 16px; fill: rgb(36, 36, 36); fill-opacity: 1; white-space: pre; opacity: 1;" transform="translate(647.2,0)">4</text></g><g class="xtick"><text text-anchor="middle" x="0" y="366.2" style="font-family: 'Open Sans', verdana, arial, sans-serif; font-size: 16px; fill: rgb(36, 36, 36); fill-opacity: 1; white-space: pre; opacity: 1;" transform="translate(795,0)">5</text></g></g><g class="yaxislayer-above"><path class="ytick ticks crisp" d="M55,0h-5" transform="translate(0,341)" style="stroke: rgb(68, 68, 68); stroke-opacity: 1; stroke-width: 1px;"/><path class="ytick ticks crisp" d="M55,0h-5" transform="translate(0,297.14)" style="stroke: rgb(68, 68, 68); stroke-opacity: 1; stroke-width: 1px;"/><path class="ytick ticks crisp" d="M55,0h-5" transform="translate(0,253.29)" style="stroke: rgb(68, 68, 68); stroke-opacity: 1; stroke-width: 1px;"/><path class="ytick ticks crisp" d="M55,0h-5" transform="translate(0,209.43)" style="stroke: rgb(68, 68, 68); stroke-opacity: 1; stroke-width: 1px;"/><path class="ytick ticks crisp" d="M55,0h-5" transform="translate(0,165.57)" style="stroke: rgb(68, 68, 68); stroke-opacity: 1; stroke-width: 1px;"/><path class="ytick ticks crisp" d="M55,0h-5" transform="translate(0,121.71)" style="stroke: rgb(68, 68, 68); stroke-opacity: 1; stroke-width: 1px;"/><path class="ytick ticks crisp" d="M55,0h-5" transform="translate(0,77.86)" style="stroke: rgb(68, 68, 68); stroke-opacity: 1; stroke-width: 1px;"/><path class="ytick ticks crisp" d="M55,0h-5" transform="translate(0,34)" style="stroke: rgb(68, 68, 68); stroke-opacity: 1; stroke-width: 1px;"/><g class="ytick"><text text-anchor="end" x="46.8" y="5.6" transform="translate(0,341)" style="font-family: 'Open Sans', verdana, arial, sans-serif; font-size: 16px; fill: rgb(36, 36, 36); fill-opacity: 1; white-space: pre; opacity: 1;">0</text></g><g class="ytick"><text text-anchor="end" x="46.8" y="5.6" style="font-family: 'Open Sans', verdana, arial, sans-serif; font-size: 16px; fill: rgb(36, 36, 36); fill-opacity: 1; white-space: pre; opacity: 1;" transform="translate(0,297.14)">2</text></g><g class="ytick"><text text-anchor="end" x="46.8" y="5.6" style="font-family: 'Open Sans', verdana, arial, sans-serif; font-size: 16px; fill: rgb(36, 36, 36); fill-opacity: 1; white-space: pre; opacity: 1;" transform="translate(0,253.29)">4</text></g><g class="ytick"><text text-anchor="end" x="46.8" y="5.6" style="font-family: 'Open Sans', verdana, arial, sans-serif; font-size: 16px; fill: rgb(36, 36, 36); fill-opacity: 1; white-space: pre; opacity: 1;" transform="translate(0,209.43)">6</text></g><g class="ytick"><text text-anchor="end" x="46.8" y="5.6" style="font-family: 'Open Sans', verdana, arial, sans-serif; font-size: 16px; fill: rgb(36, 36, 36); fill-opacity: 1; white-space: pre; opacity: 1;" transform="translate(0,165.57)">8</text></g><g class="ytick"><text text-anchor="end" x="46.8" y="5.6" style="font-family: 'Open Sans', verdana, arial, sans-serif; font-size: 16px; fill: rgb(36, 36, 36); fill-opacity: 1; white-space: pre; opacity: 1;" transform="translate(0,121.71)">10</text></g><g class="ytick"><text text-anchor="end" x="46.8" y="5.6" style="font-family: 'Open Sans', verdana, arial, sans-serif; font-size: 16px; fill: rgb(36, 36, 36); fill-opacity: 1; white-space: pre; opacity: 1;" transform="translate(0,77.86)">12</text></g><g class="ytick"><text text-anchor="end" x="46.8" y="5.6" style="font-family: 'Open Sans', verdana, arial, sans-serif; font-size: 16px; fill: rgb(36, 36, 36); fill-opacity: 1; white-space: pre; opacity: 1;" transform="translate(0,34)">14</text></g></g><g class="overaxes-above"/></g></g><g class="polarlayer"/><g class="smithlayer"/><g class="ternarylayer"/><g class="geolayer"/><g class="funnelarealayer"/><g class="pielayer"/><g class="iciclelayer"/><g class="treemaplayer"/><g class="sunburstlayer"/><g class="glimages"/><defs id="topdefs-716037"><g class="clips"/><clipPath id="legend716037"><rect width="672" height="34" x="0" y="0"/></clipPath></defs><g class="layer-above"><g class="imagelayer"/><g class="shapelayer"/></g><g class="infolayer"><g class="legend" pointer-events="all" transform="translate(123,0)"><rect class="bg" shape-rendering="crispEdges" width="672" height="34" x="0" y="0" style="stroke: rgb(68, 68, 68); stroke-opacity: 1; fill: rgb(255, 255, 255); fill-opacity: 1; stroke-width: 0px;"/><g class="scrollbox" transform="" clip-path="url(#legend716037)"><g class="groups" transform=""><g class="traces" transform="translate(0,16.9)" style="opacity: 1;"><text class="legendtext" text-anchor="start" x="40" y="6.24" style="font-family: 'Open Sans', verdana, arial, sans-serif; font-size: 16px; fill: rgb(36, 36, 36); fill-opacity: 1; white-space: pre;">True function</text><g class="layers" style="opacity: 1;"><g class="legendfill"/><g class="legendlines"><path class="js-line" d="M5,0h30" style="fill: none; stroke: rgb(0, 0, 0); stroke-opacity: 1; stroke-dasharray: 9px, 9px; stroke-width: 2px;"/></g><g class="legendsymbols"><g class="legendpoints"/></g></g><rect class="legendtoggle" x="0" y="-11.9" width="142.703125" height="23.8" style="fill: rgb(0, 0, 0); fill-opacity: 0;"/></g></g><g class="groups" transform="translate(145.203125,0)"><g class="traces" transform="translate(0,16.9)" style="opacity: 1;"><text class="legendtext" text-anchor="start" x="40" y="6.24" style="font-family: 'Open Sans', verdana, arial, sans-serif; font-size: 16px; fill: rgb(36, 36, 36); fill-opacity: 1; white-space: pre;">Observations</text><g class="layers" style="opacity: 1;"><g class="legendfill"/><g class="legendlines"/><g class="legendsymbols"><g class="legendpoints"><path class="scatterpts" transform="translate(20,0)" d="M3,0A3,3 0 1,1 0,-3A3,3 0 0,1 3,0Z" style="opacity: 1; stroke-width: 0px; fill: rgb(228, 26, 28); fill-opacity: 1;"/></g></g></g><rect class="legendtoggle" x="0" y="-11.9" width="141.640625" height="23.8" style="fill: rgb(0, 0, 0); fill-opacity: 0;"/></g></g><g class="groups" transform="translate(289.34375,0)"><g class="traces" transform="translate(0,16.9)" style="opacity: 1;"><text class="legendtext" text-anchor="start" x="40" y="6.24" style="font-family: 'Open Sans', verdana, arial, sans-serif; font-size: 16px; fill: rgb(36, 36, 36); fill-opacity: 1; white-space: pre;">95% confidence interval</text><g class="layers"><g class="legendfill"><path class="js-fill" d="M5,-2h30v6h-30z" style="stroke-width: 0; fill: rgb(55, 126, 255); fill-opacity: 0.1;"/></g><g class="legendlines"><path class="js-line" d="M5,-2h30" style="fill: none; stroke: rgb(55, 126, 255); stroke-opacity: 0.1; stroke-width: 2px;"/></g><g class="legendsymbols"><g class="legendpoints"/></g></g><rect class="legendtoggle" x="0" y="-11.9" width="220.03125" height="23.8" style="fill: rgb(0, 0, 0); fill-opacity: 0;"/></g></g><g class="groups" transform="translate(511.875,0)"><g class="traces" transform="translate(0,16.9)" style="opacity: 1;"><text class="legendtext" text-anchor="start" x="40" y="6.24" style="font-family: 'Open Sans', verdana, arial, sans-serif; font-size: 16px; fill: rgb(36, 36, 36); fill-opacity: 1; white-space: pre;">Posterior mean</text><g class="layers" style="opacity: 1;"><g class="legendfill"/><g class="legendlines"><path class="js-line" d="M5,0h30" style="fill: none; stroke: rgb(31, 119, 180); stroke-opacity: 1; stroke-width: 2px;"/></g><g class="legendsymbols"><g class="legendpoints"/></g></g><rect class="legendtoggle" x="0" y="-11.9" width="157.5625" height="23.8" style="fill: rgb(0, 0, 0); fill-opacity: 0;"/></g></g></g><rect class="scrollbar" rx="20" ry="3" width="0" height="0" x="0" y="0" style="fill: rgb(128, 139, 164); fill-opacity: 1;"/></g><g class="g-gtitle"/><g class="g-xtitle" transform="translate(0,-5.003125000000011)"><text class="xtitle" x="425.5" y="399.003125" text-anchor="middle" style="font-family: 'Open Sans', verdana, arial, sans-serif; font-size: 19px; fill: rgb(36, 36, 36); opacity: 1; font-weight: normal; white-space: pre;">Input value (x)</text></g><g class="g-ytitle" transform="translate(19.2998046875,0)"><text class="ytitle" transform="rotate(-90,0.7000000000000028,187.5)" x="0.7000000000000028" y="187.5" text-anchor="middle" style="font-family: 'Open Sans', verdana, arial, sans-serif; font-size: 19px; fill: rgb(36, 36, 36); opacity: 1; font-weight: normal; white-space: pre;">Objective value (ϕ)</text></g></g></svg>
