<svg class="main-svg" xmlns="http://www.w3.org/2000/svg" xmlns:xlink="http://www.w3.org/1999/xlink" width="350" height="125" style="" viewBox="0 0 350 125"><rect x="0" y="0" width="350" height="125" style="fill: rgb(255, 255, 255); fill-opacity: 1;"/><defs id="defs-d64768"><g class="clips"><clipPath id="clipd64768xyplot" class="plotclip"><rect width="318" height="93"/></clipPath><clipPath class="axesclip" id="clipd64768x"><rect x="17" y="0" width="318" height="125"/></clipPath><clipPath class="axesclip" id="clipd64768y"><rect x="0" y="15" width="350" height="93"/></clipPath><clipPath class="axesclip" id="clipd64768xy"><rect x="17" y="15" width="318" height="93"/></clipPath></g><g class="gradients"/><g class="patterns"/></defs><g class="bglayer"/><g class="layer-below"><g class="imagelayer"/><g class="shapelayer"/></g><g class="cartesianlayer"><g class="subplot xy"><g class="layer-subplot"><g class="shapelayer"/><g class="imagelayer"/></g><g class="minor-gridlayer"><g class="x"/><g class="y"/></g><g class="gridlayer"><g class="x"/><g class="y"/></g><g class="zerolinelayer"/><path class="xlines-below"/><path class="ylines-below"/><g class="overlines-below"/><g class="xaxislayer-below"/><g class="yaxislayer-below"/><g class="overaxes-below"/><g class="plot" transform="translate(17,15)" clip-path="url(#clipd64768xyplot)"><g class="scatterlayer mlayer"><g class="trace scatter trace94fa53" style="stroke-miterlimit: 2; opacity: 1;"><g class="fills"/><g class="errorbars"/><g class="lines"><path class="js-line" d="M0,12.9L26.81,8.8L26.84,8.79L62.68,4.9L62.72,4.9L76.96,4.7L77,4.7L90,5.45L90.03,5.46L104.86,7.13L104.89,7.14L130.52,10.65L130.55,10.67L136.15,13.2L136.18,13.22L143.05,17.94L143.08,17.97L184.52,50.79L184.55,50.82L219.66,80.39L219.7,80.41L229.17,85.48L229.21,85.49L236.36,87.55L236.39,87.55L244.31,88.28L244.34,88.28L257.48,88.35L257.51,88.35L286.23,87.6L286.26,87.59L296.79,85.53L296.82,85.52L307.38,82.12L307.41,82.1L318,77.78" style="vector-effect: non-scaling-stroke; fill: none; stroke: rgb(31, 119, 180); stroke-opacity: 1; stroke-width: 3px; opacity: 1;"/></g><g class="points"/><g class="text"/></g></g></g><g class="overplot"/><path class="xlines-above crisp" d="M16,108.5H335" style="fill: none; stroke-width: 1px; stroke: rgb(36, 36, 36); stroke-opacity: 1;"/><path class="ylines-above crisp" d="M16.5,15V108" style="fill: none; stroke-width: 1px; stroke: rgb(36, 36, 36); stroke-opacity: 1;"/><g class="overlines-above"/><g class="xaxislayer-above"/><g class="yaxislayer-above"/><g class="overaxes-above"/></g></g><g class="polarlayer"/><g class="smithlayer"/><g class="ternarylayer"/><g class="geolayer"/><g class="funnelarealayer"/><g class="pielayer"/><g class="iciclelayer"/><g class="treemaplayer"/><g class="sunburstlayer"/><g class="glimages"/><defs id="topdefs-d64768"><g class="clips"/></defs><g class="layer-above"><g class="imagelayer"/><g class="shapelayer"/></g><g class="infolayer"><g class="g-gtitle"/><g class="g-xtitle"/><g class="g-ytitle"/></g></svg>