<svg class="main-svg" xmlns="http://www.w3.org/2000/svg" xmlns:xlink="http://www.w3.org/1999/xlink" width="400" height="425" style="" viewBox="0 0 400 425"><rect x="0" y="0" width="400" height="425" style="fill: rgb(255, 255, 255); fill-opacity: 1;"/><defs id="defs-d59818"><g class="clips"><clipPath id="clipd59818xyplot" class="plotclip"><rect width="368" height="393"/></clipPath><clipPath class="axesclip" id="clipd59818x"><rect x="17" y="0" width="368" height="425"/></clipPath><clipPath class="axesclip" id="clipd59818y"><rect x="0" y="15" width="400" height="393"/></clipPath><clipPath class="axesclip" id="clipd59818xy"><rect x="17" y="15" width="368" height="393"/></clipPath></g><g class="gradients"/><g class="patterns"/></defs><g class="bglayer"/><g class="layer-below"><g class="imagelayer"/><g class="shapelayer"/></g><g class="cartesianlayer"><g class="subplot xy"><g class="layer-subplot"><g class="shapelayer"/><g class="imagelayer"/></g><g class="minor-gridlayer"><g class="x"/><g class="y"/></g><g class="gridlayer"><g class="x"/><g class="y"/></g><g class="zerolinelayer"/><path class="xlines-below"/><path class="ylines-below"/><g class="overlines-below"/><g class="xaxislayer-below"/><g class="yaxislayer-below"/><g class="overaxes-below"/><g class="plot" transform="translate(17,15)" clip-path="url(#clipd59818xyplot)"><g class="scatterlayer mlayer"><g class="trace scatter trace83027d" style="stroke-miterlimit: 2; opacity: 1;"><g class="fills"/><g class="errorbars"/><g class="lines"><path class="js-line" d="M0,54.53L50.42,27.68L50.46,27.67L60.32,23.89L60.36,23.88L71.84,20.84L71.88,20.84L80.08,19.78L80.12,19.78L89.54,19.9L89.58,19.9L101.36,22.18L101.39,22.19L110.45,25.38L110.48,25.4L139.85,36.89L139.89,36.9L146.22,40.21L146.26,40.24L150.31,44.13L150.34,44.17L154.76,50.54L154.8,50.6L159.8,60.73L159.84,60.81L167.09,80.34L167.13,80.45L186.52,136.27L186.56,136.37L213.65,214.98L213.68,215.1L220.64,237.38L220.67,237.5L229.62,266.72L229.65,266.84L252.99,336.74L253.03,336.83L259.39,351.14L259.43,351.21L264.25,359.77L264.29,359.83L269.59,366.65L269.62,366.68L273.78,370.12L273.82,370.15L279.01,372.41L279.05,372.42L284.68,373.21L284.71,373.21L298,373.35L298.04,373.35L323.21,372.6L323.25,372.59L329.91,370.73L329.94,370.71L336.09,367.45L336.13,367.43L342.72,362.14L342.75,362.11L352.06,351.79L352.1,351.74L362.15,337.75L362.19,337.69L368,328.67" style="vector-effect: non-scaling-stroke; fill: none; stroke: rgb(148, 103, 189); stroke-opacity: 1; stroke-width: 3px; opacity: 1;"/></g><g class="points"/><g class="text"/></g></g></g><g class="overplot"/><path class="xlines-above crisp" d="M14,409.5H385" style="fill: none; stroke-width: 3px; stroke: rgb(36, 36, 36); stroke-opacity: 1;"/><path class="ylines-above crisp" d="M15.5,15V408" style="fill: none; stroke-width: 3px; stroke: rgb(36, 36, 36); stroke-opacity: 1;"/><g class="overlines-above"/><g class="xaxislayer-above"/><g class="yaxislayer-above"/><g class="overaxes-above"/></g></g><g class="polarlayer"/><g class="smithlayer"/><g class="ternarylayer"/><g class="geolayer"/><g class="funnelarealayer"/><g class="pielayer"/><g class="iciclelayer"/><g class="treemaplayer"/><g class="sunburstlayer"/><g class="glimages"/><defs id="topdefs-d59818"><g class="clips"/></defs><g class="layer-above"><g class="imagelayer"/><g class="shapelayer"><path data-index="0" fill-rule="evenodd" d="M101.09,408L101.09,15" clip-path="url(#clipd59818x)" style="opacity: 1; stroke: rgb(228, 26, 28); stroke-opacity: 1; fill: rgb(0, 0, 0); fill-opacity: 1; stroke-width: 3px;"/></g></g><g class="infolayer"><g class="g-gtitle"/><g class="g-xtitle"/><g class="g-ytitle"/></g></svg>