<svg class="main-svg" xmlns="http://www.w3.org/2000/svg" xmlns:xlink="http://www.w3.org/1999/xlink" width="710" height="495" style="" viewBox="0 0 710 495"><rect x="0" y="0" width="710" height="495" style="fill: rgb(255, 255, 255); fill-opacity: 1;"/><defs id="defs-67dfdd"><g class="clips"><clipPath id="clip67dfddxyplot" class="plotclip"><rect width="586" height="370"/></clipPath><clipPath class="axesclip" id="clip67dfddx"><rect x="104" y="0" width="586" height="495"/></clipPath><clipPath class="axesclip" id="clip67dfddy"><rect x="0" y="25" width="710" height="370"/></clipPath><clipPath class="axesclip" id="clip67dfddxy"><rect x="104" y="25" width="586" height="370"/></clipPath></g><g class="gradients"/><g class="patterns"/></defs><g class="bglayer"/><g class="layer-below"><g class="imagelayer"/><g class="shapelayer"/></g><g class="cartesianlayer"><g class="subplot xy"><g class="layer-subplot"><g class="shapelayer"/><g class="imagelayer"/></g><g class="minor-gridlayer"><g class="x"/><g class="y"/></g><g class="gridlayer"><g class="x"/><g class="y"/></g><g class="zerolinelayer"/><path class="xlines-below"/><path class="ylines-below"/><g class="overlines-below"/><g class="xaxislayer-below"/><g class="yaxislayer-below"/><g class="overaxes-below"/><g class="plot" transform="translate(104,25)" clip-path="url(#clip67dfddxyplot)"><g class="scatterlayer mlayer"><g class="trace scatter trace21471e" style="stroke-miterlimit: 2; opacity: 1;"><g class="fills"/><g class="errorbars"/><g class="lines"><path class="js-line" d="M0,366.98L23.17,367.78L23.18,367.77L97.73,220.32L97.74,220.32L106.85,209.41L106.86,209.41L115.97,198.5L115.98,198.5L170.31,134.45L170.31,134.45L170.32,134.45L189.45,127.06L189.46,127.06L208.64,119.65L208.64,119.65L208.65,119.65L227.76,112.27L227.76,112.27L227.77,112.27L246.95,104.86L246.95,104.86L246.96,104.86L266.12,97.46L266.12,97.46L266.13,97.46L285.29,90.06L285.29,90.06L285.3,90.06L304.48,82.65L304.48,82.65L304.49,82.65L312.69,79.95L312.69,79.95L312.7,79.95L326.92,77.87L326.92,77.87L326.93,77.87L385.6,69.3L385.6,69.29L444.39,60.71L444.39,60.71L444.4,60.7L457.64,58.19L457.64,58.18L471.11,54.73L471.11,54.72L484.57,51.27L484.57,51.27L484.58,51.26L498.05,47.81L498.05,47.8L511.51,44.35L511.51,44.35L511.52,44.34L524.99,40.89L524.99,40.88L538.45,37.43L538.45,37.43L538.46,37.42L551.92,33.97L551.92,33.97L551.93,33.96L565.39,30.51L565.4,30.5L578.86,27.05L578.86,27.05L578.87,27.04L586,25.21" style="vector-effect: non-scaling-stroke; fill: none; stroke: rgb(31, 119, 180); stroke-opacity: 1; stroke-width: 3px; opacity: 1;"/></g><g class="points"/><g class="text"/></g><g class="trace scatter traceead102" style="stroke-miterlimit: 2; opacity: 1;"><g class="fills"/><g class="errorbars"/><g class="lines"><path class="js-line" d="M0,199.14L15.41,278.64L15.42,278.64L30.93,294.46L30.94,294.46L45.85,309.63L45.85,309.63L45.86,309.63L78.33,317.52L78.33,317.52L78.34,317.52L94.26,315.1L94.26,315.1L94.27,315.1L110.24,312.67L110.25,312.67L126.17,310.25L126.17,310.25L126.18,310.25L142.15,307.82L142.15,307.82L142.16,307.82L158.08,305.4L158.08,305.4L158.09,305.4L174.06,302.97L174.06,302.97L174.07,302.97L189.99,300.55L189.99,300.55L190,300.55L197.77,299.76L197.77,299.76L197.78,299.76L214.45,299.4L214.45,299.4L214.46,299.4L231.13,299.04L231.13,299.04L231.14,299.04L247.81,298.68L247.82,298.68L282.79,297.93L282.79,297.93L282.8,297.92L312.55,297.17L312.55,297.16L430.1,179.92L430.43,180.34L430.44,180.35L448.8,203.54L448.8,203.55L467.22,226.81L467.22,226.82L485.63,250.07L485.63,250.08L504.02,273.3L504.02,273.31L522.39,296.51L522.39,296.52L540.78,319.74L540.78,319.75L553.87,335.04L553.88,335.04L586,344.3" style="vector-effect: non-scaling-stroke; fill: none; stroke: rgb(255, 127, 14); stroke-opacity: 1; stroke-width: 3px; opacity: 1;"/></g><g class="points"/><g class="text"/></g><g class="trace scatter trace7d9235" style="stroke-miterlimit: 2; opacity: 1;"><g class="fills"/><g class="errorbars"/><g class="lines"><path class="js-line" d="M0,67.96L5.06,126.05L5.06,126.11L12.87,215.69L13.58,215.36L13.59,215.36L33.22,206.38L33.23,206.38L52.81,197.42L52.82,197.42L72.44,188.44L72.44,188.44L72.45,188.44L85.42,181.51L85.42,181.5L94.42,175.09L94.42,175.08L103.42,168.67L103.42,168.66L112.45,162.23L112.45,162.22L158.17,130.68L158.17,130.68L158.18,130.68L182.54,116.56L182.55,116.56L193.28,109.43L193.28,109.42L201.76,98.08L201.76,98.07L210.24,86.73L210.24,86.72L218.71,75.39L218.71,75.38L227.19,64.04L227.19,64.03L236.46,52.88L236.47,52.88L275.86,19.98L276.04,20.77L276.04,20.8L280.61,40.83L280.61,40.86L285.19,60.91L285.19,60.94L289.74,80.9L289.74,80.92L297.7,115.82L297.7,115.84L305.64,150.66L305.64,150.69L310.21,170.72L310.21,170.75L314.78,190.78L314.78,190.8L322.71,225.57L322.71,225.6L327.28,245.63L327.28,245.66L331.86,265.72L331.86,265.74L339.81,300.61L339.81,300.64L343.26,312.24L343.26,312.24L343.27,312.25L362.78,329.48L362.78,329.49L382.23,346.66L382.23,346.67L401.68,363.84L401.68,363.85L409.81,370L409.81,370L409.82,370L586,370" style="vector-effect: non-scaling-stroke; fill: none; stroke: rgb(44, 160, 44); stroke-opacity: 1; stroke-width: 3px; opacity: 1;"/></g><g class="points"/><g class="text"/></g></g></g><g class="overplot"/><path class="xlines-above crisp" d="M101,396.5H690" style="fill: none; stroke-width: 3px; stroke: rgb(36, 36, 36); stroke-opacity: 1;"/><path class="ylines-above crisp" d="M102.5,25V395" style="fill: none; stroke-width: 3px; stroke: rgb(36, 36, 36); stroke-opacity: 1;"/><g class="overlines-above"/><g class="xaxislayer-above"><path class="xtick ticks crisp" d="M0,398v5" transform="translate(104,0)" style="stroke: rgb(68, 68, 68); stroke-opacity: 1; stroke-width: 1px;"/><path class="xtick ticks crisp" d="M0,398v5" transform="translate(221.2,0)" style="stroke: rgb(68, 68, 68); stroke-opacity: 1; stroke-width: 1px;"/><path class="xtick ticks crisp" d="M0,398v5" transform="translate(338.4,0)" style="stroke: rgb(68, 68, 68); stroke-opacity: 1; stroke-width: 1px;"/><path class="xtick ticks crisp" d="M0,398v5" transform="translate(455.6,0)" style="stroke: rgb(68, 68, 68); stroke-opacity: 1; stroke-width: 1px;"/><path class="xtick ticks crisp" d="M0,398v5" transform="translate(572.8,0)" style="stroke: rgb(68, 68, 68); stroke-opacity: 1; stroke-width: 1px;"/><path class="xtick ticks crisp" d="M0,398v5" transform="translate(690,0)" style="stroke: rgb(68, 68, 68); stroke-opacity: 1; stroke-width: 1px;"/><g class="xtick"><text text-anchor="middle" x="0" y="436.6" transform="translate(104,0)" style="font-family: 'Open Sans', verdana, arial, sans-serif; font-size: 28px; fill: rgb(36, 36, 36); fill-opacity: 1; white-space: pre; opacity: 1;">0</text></g><g class="xtick"><text text-anchor="middle" x="0" y="436.6" style="font-family: 'Open Sans', verdana, arial, sans-serif; font-size: 28px; fill: rgb(36, 36, 36); fill-opacity: 1; white-space: pre; opacity: 1;" transform="translate(221.2,0)">0.2</text></g><g class="xtick"><text text-anchor="middle" x="0" y="436.6" style="font-family: 'Open Sans', verdana, arial, sans-serif; font-size: 28px; fill: rgb(36, 36, 36); fill-opacity: 1; white-space: pre; opacity: 1;" transform="translate(338.4,0)">0.4</text></g><g class="xtick"><text text-anchor="middle" x="0" y="436.6" style="font-family: 'Open Sans', verdana, arial, sans-serif; font-size: 28px; fill: rgb(36, 36, 36); fill-opacity: 1; white-space: pre; opacity: 1;" transform="translate(455.6,0)">0.6</text></g><g class="xtick"><text text-anchor="middle" x="0" y="436.6" style="font-family: 'Open Sans', verdana, arial, sans-serif; font-size: 28px; fill: rgb(36, 36, 36); fill-opacity: 1; white-space: pre; opacity: 1;" transform="translate(572.8,0)">0.8</text></g><g class="xtick"><text text-anchor="middle" x="0" y="436.6" style="font-family: 'Open Sans', verdana, arial, sans-serif; font-size: 28px; fill: rgb(36, 36, 36); fill-opacity: 1; white-space: pre; opacity: 1;" transform="translate(690,0)">1</text></g></g><g class="yaxislayer-above"><path class="ytick ticks crisp" d="M101,0h-5" transform="translate(0,395)" style="stroke: rgb(68, 68, 68); stroke-opacity: 1; stroke-width: 1px;"/><path class="ytick ticks crisp" d="M101,0h-5" transform="translate(0,322.45)" style="stroke: rgb(68, 68, 68); stroke-opacity: 1; stroke-width: 1px;"/><path class="ytick ticks crisp" d="M101,0h-5" transform="translate(0,249.9)" style="stroke: rgb(68, 68, 68); stroke-opacity: 1; stroke-width: 1px;"/><path class="ytick ticks crisp" d="M101,0h-5" transform="translate(0,177.35)" style="stroke: rgb(68, 68, 68); stroke-opacity: 1; stroke-width: 1px;"/><path class="ytick ticks crisp" d="M101,0h-5" transform="translate(0,104.8)" style="stroke: rgb(68, 68, 68); stroke-opacity: 1; stroke-width: 1px;"/><path class="ytick ticks crisp" d="M101,0h-5" transform="translate(0,32.25)" style="stroke: rgb(68, 68, 68); stroke-opacity: 1; stroke-width: 1px;"/><g class="ytick"><text text-anchor="end" x="90.4" y="9.799999999999999" transform="translate(0,395)" style="font-family: 'Open Sans', verdana, arial, sans-serif; font-size: 28px; fill: rgb(36, 36, 36); fill-opacity: 1; white-space: pre; opacity: 1;">0</text></g><g class="ytick"><text text-anchor="end" x="90.4" y="9.799999999999999" style="font-family: 'Open Sans', verdana, arial, sans-serif; font-size: 28px; fill: rgb(36, 36, 36); fill-opacity: 1; white-space: pre; opacity: 1;" transform="translate(0,322.45)">0.2</text></g><g class="ytick"><text text-anchor="end" x="90.4" y="9.799999999999999" style="font-family: 'Open Sans', verdana, arial, sans-serif; font-size: 28px; fill: rgb(36, 36, 36); fill-opacity: 1; white-space: pre; opacity: 1;" transform="translate(0,249.9)">0.4</text></g><g class="ytick"><text text-anchor="end" x="90.4" y="9.799999999999999" style="font-family: 'Open Sans', verdana, arial, sans-serif; font-size: 28px; fill: rgb(36, 36, 36); fill-opacity: 1; white-space: pre; opacity: 1;" transform="translate(0,177.35)">0.6</text></g><g class="ytick"><text text-anchor="end" x="90.4" y="9.799999999999999" style="font-family: 'Open Sans', verdana, arial, sans-serif; font-size: 28px; fill: rgb(36, 36, 36); fill-opacity: 1; white-space: pre; opacity: 1;" transform="translate(0,104.8)">0.8</text></g><g class="ytick"><text text-anchor="end" x="90.4" y="9.799999999999999" style="font-family: 'Open Sans', verdana, arial, sans-serif; font-size: 28px; fill: rgb(36, 36, 36); fill-opacity: 1; white-space: pre; opacity: 1;" transform="translate(0,32.25)">1</text></g></g><g class="overaxes-above"/></g></g><g class="polarlayer"/><g class="smithlayer"/><g class="ternarylayer"/><g class="geolayer"/><g class="funnelarealayer"/><g class="pielayer"/><g class="iciclelayer"/><g class="treemaplayer"/><g class="sunburstlayer"/><g class="glimages"/><defs id="topdefs-67dfdd"><g class="clips"/></defs><g class="layer-above"><g class="imagelayer"/><g class="shapelayer"/></g><g class="infolayer"><g class="g-gtitle"/><g class="g-xtitle"><text class="xtitle" x="397" y="481.909375" text-anchor="middle" style="font-family: 'Open Sans', verdana, arial, sans-serif; font-size: 34px; fill: rgb(36, 36, 36); opacity: 1; font-weight: normal; white-space: pre;">Normalised radius</text></g><g class="g-ytitle" transform="translate(22.3779296875,0)"><text class="ytitle" transform="rotate(-90,13.621875000000003,210)" x="13.621875000000003" y="210" text-anchor="middle" style="font-family: 'Open Sans', verdana, arial, sans-serif; font-size: 34px; fill: rgb(36, 36, 36); opacity: 1; font-weight: normal; white-space: pre;">Normalised QECE</text></g></g></svg>