<svg class="main-svg" xmlns="http://www.w3.org/2000/svg" xmlns:xlink="http://www.w3.org/1999/xlink" width="710" height="495" style="" viewBox="0 0 710 495"><rect x="0" y="0" width="710" height="495" style="fill: rgb(255, 255, 255); fill-opacity: 1;"/><defs id="defs-8e9e2e"><g class="clips"><clipPath id="clip8e9e2exyplot" class="plotclip"><rect width="586" height="370"/></clipPath><clipPath class="axesclip" id="clip8e9e2ex"><rect x="104" y="0" width="586" height="495"/></clipPath><clipPath class="axesclip" id="clip8e9e2ey"><rect x="0" y="25" width="710" height="370"/></clipPath><clipPath class="axesclip" id="clip8e9e2exy"><rect x="104" y="25" width="586" height="370"/></clipPath></g><g class="gradients"/><g class="patterns"/></defs><g class="bglayer"/><g class="layer-below"><g class="imagelayer"/><g class="shapelayer"/></g><g class="cartesianlayer"><g class="subplot xy"><g class="layer-subplot"><g class="shapelayer"/><g class="imagelayer"/></g><g class="minor-gridlayer"><g class="x"/><g class="y"/></g><g class="gridlayer"><g class="x"/><g class="y"/></g><g class="zerolinelayer"/><path class="xlines-below"/><path class="ylines-below"/><g class="overlines-below"/><g class="xaxislayer-below"/><g class="yaxislayer-below"/><g class="overaxes-below"/><g class="plot" transform="translate(104,25)" clip-path="url(#clip8e9e2exyplot)"><g class="scatterlayer mlayer"><g class="trace scatter traceca79da" style="stroke-miterlimit: 2; opacity: 1;"><g class="fills"/><g class="errorbars"/><g class="lines"><path class="js-line" d="M0,7.25L6.11,8.37L6.11,8.37L6.12,8.38L10.88,10.75L10.88,10.75L10.89,10.76L16.48,15.07L16.48,15.08L21.86,20.53L21.86,20.54L27.31,27.05L27.31,27.06L36.58,39.34L36.58,39.35L55.42,61.77L55.42,61.77L55.43,61.78L62.06,66.85L62.06,66.85L62.07,66.85L67.99,69.62L67.99,69.62L68,69.62L73.32,70.61L73.32,70.61L73.33,70.61L78.58,70.22L78.58,70.21L84.34,68.31L84.34,68.3L90.15,65L90.15,65L90.16,64.99L96.06,60.48L96.06,60.48L96.07,60.47L105.39,51.74L105.39,51.73L128.84,29.13L128.85,29.13L136.1,24.05L136.11,24.05L143.06,20.64L143.06,20.64L143.07,20.64L149.3,18.95L149.3,18.95L149.31,18.95L155.08,18.56L155.09,18.56L162.88,19.81L162.89,19.82L169.51,22.35L169.51,22.36L175.92,25.92L175.92,25.92L175.93,25.93L184.77,32.24L184.77,32.24L184.78,32.25L195.43,41.16L195.43,41.17L222.91,63.52L222.92,63.52L231.14,68.75L231.14,68.75L231.15,68.75L242.59,74.92L242.59,74.92L242.6,74.92L263.25,86.06L263.25,86.07L270.49,91.39L270.49,91.4L276.82,97.21L276.82,97.21L276.83,97.22L284.08,105.53L284.08,105.54L290.03,113.84L290.03,113.85L296.55,124.57L296.55,124.58L304.64,140.22L304.64,140.24L312.25,157.12L312.25,157.14L318.46,172.2L318.46,172.22L334.02,213.09L334.02,213.11L339.37,227.48L339.37,227.5L345.37,243.39L345.37,243.41L355.25,268.36L355.25,268.37L369.74,300.43L369.75,300.44L379.14,317.57L379.15,317.58L389.13,332.4L389.13,332.4L389.14,332.41L394.95,339.5L394.96,339.5L401.6,346.31L401.61,346.31L408.15,351.79L408.15,351.79L408.16,351.79L414.4,356.02L414.41,356.02L423.23,360.58L423.23,360.58L423.24,360.58L433.89,364.34L433.9,364.34L442,366.25L442.01,366.25L455.49,368.19L455.5,368.19L468.22,369.13L468.22,369.13L468.23,369.13L488.91,369.76L488.92,369.76L586,370" style="vector-effect: non-scaling-stroke; fill: none; stroke: rgb(31, 119, 180); stroke-opacity: 1; stroke-width: 3px; opacity: 1;"/></g><g class="points"/><g class="text"/></g><g class="trace scatter trace812901" style="stroke-miterlimit: 2; opacity: 1;"><g class="fills"/><g class="errorbars"/><g class="lines"><path class="js-line" d="M0,7.25L33.81,8L33.81,8L33.82,8.01L57.56,8.76L57.56,8.77L66.4,10.1L66.41,10.11L73.59,12.3L73.6,12.31L81,16.06L81,16.07L87.56,20.97L87.56,20.98L93.56,26.94L93.56,26.95L100.2,35.29L100.2,35.3L106.69,45.2L106.69,45.21L111.26,53.12L111.26,53.13L116.57,63.18L116.57,63.2L124.95,80.49L124.96,80.51L137.23,107.24L137.24,107.25L142.95,119.52L142.96,119.53L149.59,133.11L149.6,133.12L159.78,151.82L159.79,151.83L167.56,163.93L167.56,163.93L167.57,163.94L175.93,174.71L175.94,174.72L183.22,182.29L183.23,182.29L190.06,188.06L190.07,188.06L200.2,194.74L200.2,194.74L200.21,194.74L209.31,199.47L209.32,199.47L226.66,207.31L226.66,207.31L226.67,207.31L249.97,219.6L249.97,219.6L249.98,219.61L264.35,229.32L264.35,229.32L264.36,229.33L275.83,238.17L275.83,238.18L287.83,248.11L287.83,248.11L287.84,248.12L320.15,274.22L320.15,274.22L320.16,274.22L329.23,280.26L329.24,280.26L341.23,286.77L341.23,286.77L341.24,286.77L350.56,290.6L350.57,290.6L357.81,292.89L357.82,292.89L366.58,295.02L366.58,295.02L366.59,295.02L377.11,297.05L377.11,297.05L377.12,297.05L399.39,302.18L399.39,302.18L399.4,302.19L407.24,305.05L407.24,305.05L407.25,305.06L417.31,309.88L417.31,309.88L417.32,309.89L425.97,315.05L425.97,315.05L425.98,315.06L436.98,322.7L436.98,322.71L451.07,333.36L451.07,333.37L478.74,352.18L478.74,352.18L478.75,352.18L487.16,356.48L487.16,356.48L487.17,356.48L496.62,360.37L496.62,360.37L496.63,360.37L504.29,362.84L504.29,362.84L504.3,362.84L520.09,366.3L520.09,366.3L520.1,366.3L531.07,367.73L531.07,367.73L531.08,367.73L544.55,368.77L544.55,368.77L544.56,368.77L567.73,369.57L567.73,369.57L567.74,369.57L586,369.8" style="vector-effect: non-scaling-stroke; fill: none; stroke: rgb(255, 127, 14); stroke-opacity: 1; stroke-width: 3px; opacity: 1;"/></g><g class="points"/><g class="text"/></g><g class="trace scatter traceb8a5d0" style="stroke-miterlimit: 2; opacity: 1;"><g class="fills"/><g class="errorbars"/><g class="lines"><path class="js-line" d="M0,263.41L5.6,264.16L5.6,264.17L11.4,266.48L11.4,266.49L17.13,270.18L17.13,270.19L22.78,275L22.78,275.01L28.22,280.51L28.22,280.52L35.96,289.32L35.96,289.33L56.25,311.26L56.26,311.26L61.27,314.47L61.27,314.47L61.28,314.47L65.62,315.81L65.62,315.81L65.63,315.81L69.53,315.58L69.54,315.57L73.4,313.78L73.4,313.77L76.73,310.85L76.73,310.84L80.28,306.23L80.28,306.22L85.9,295.73L85.9,295.71L89.89,286.07L89.89,286.05L93.98,274.62L93.98,274.6L99.13,258.75L99.13,258.73L112.9,218.97L112.91,218.96L116.66,211.59L116.67,211.58L120.77,206.33L120.78,206.33L123.57,204.6L123.57,204.6L123.58,204.6L126.44,204.43L126.44,204.44L129.13,205.74L129.13,205.74L129.14,205.75L132.41,209.13L132.41,209.14L135.64,214.18L135.64,214.2L139.25,221.49L139.25,221.5L143.52,231.71L143.52,231.72L159.37,270L159.38,270.01L163.9,277.39L163.91,277.4L168.43,282.2L168.44,282.2L171.75,283.99L171.75,283.99L171.76,283.99L175.11,284.32L175.12,284.32L178.71,283.09L178.71,283.09L178.72,283.08L182.74,279.93L182.75,279.92L187.4,274.21L187.4,274.2L191.85,267.03L191.85,267.02L198.52,253.85L198.52,253.84L204.9,239.41L204.9,239.4L234.62,170.39L234.63,170.38L241.95,157.39L241.96,157.38L248.12,148.79L248.13,148.78L254.02,142.87L254.02,142.87L254.03,142.86L258.78,139.87L258.79,139.87L263,138.6L263.01,138.6L267.6,138.74L267.61,138.74L272.12,140.4L272.12,140.41L276.47,143.41L276.47,143.42L281.58,148.64L281.58,148.65L286.09,154.67L286.09,154.68L290.68,162.04L290.68,162.05L298.87,177.87L298.87,177.88L305.98,193.75L305.98,193.77L312.53,209.56L312.53,209.58L323.16,236.27L323.16,236.28L349.02,296.28L349.03,296.29L359.42,315.42L359.43,315.43L366.77,326.78L366.78,326.79L371.83,333.58L371.84,333.58L378.75,341.55L378.75,341.55L378.76,341.56L386.23,348.6L386.24,348.6L395.37,355.25L395.37,355.25L395.38,355.25L405.1,360.37L405.11,360.37L416.02,364.24L416.02,364.24L416.03,364.24L424.25,366.19L424.26,366.19L437.5,368.08L437.51,368.08L446.63,368.54L446.64,368.54L454.35,367.79L454.35,367.78L459.04,366.09L459.04,366.08L462.89,363.32L462.89,363.32L462.9,363.31L467.02,358.15L467.02,358.14L469.81,352.8L469.81,352.79L473.04,344.11L473.04,344.09L476.28,332.01L476.28,331.98L478.91,319.22L478.91,319.19L482.97,293.52L482.97,293.48L485.04,277.48L485.04,277.43L488.65,244.77L488.65,244.71L491.91,210.67L491.91,210.6L495.54,169.02L495.54,168.95L499.7,119.88L499.7,119.81L508.99,30.11L509,30.07L511.68,15.59L511.69,15.57L513.7,9.31L513.71,9.3L515.48,7.28L515.49,7.27L516.8,7.92L516.8,7.92L516.81,7.93L518.49,11.39L518.49,11.41L520.99,21.84L520.99,21.87L523.97,41.76L523.97,41.81L531.81,121.6L531.81,121.67L535.94,170.43L535.94,170.5L548.18,292.07L548.19,292.11L551.11,311.68L551.12,311.71L553.1,322.79L553.11,322.82L557.85,342.78L557.86,342.8L562.42,354.94L562.43,354.95L566.67,361.77L566.67,361.77L566.68,361.78L570.98,365.78L570.99,365.78L575.56,368.04L575.56,368.04L575.57,368.04L581.99,369.4L581.99,369.4L582,369.4L586,369.73" style="vector-effect: non-scaling-stroke; fill: none; stroke: rgb(44, 160, 44); stroke-opacity: 1; stroke-width: 3px; opacity: 1;"/></g><g class="points"/><g class="text"/></g><g class="trace scatter trace78af71" style="stroke-miterlimit: 2; opacity: 1;"><g class="fills"/><g class="errorbars"/><g class="lines"/><g class="points"><path class="point" transform="translate(0,7.25)" d="M5,0A5,5 0 1,1 0,-5A5,5 0 0,1 5,0Z" style="opacity: 1; stroke-width: 0px; fill: rgb(31, 119, 180); fill-opacity: 1;"/><path class="point" transform="translate(25.34,24.6)" d="M5,0A5,5 0 1,1 0,-5A5,5 0 0,1 5,0Z" style="opacity: 1; stroke-width: 0px; fill: rgb(31, 119, 180); fill-opacity: 1;"/><path class="point" transform="translate(70.39,70.25)" d="M5,0A5,5 0 1,1 0,-5A5,5 0 0,1 5,0Z" style="opacity: 1; stroke-width: 0px; fill: rgb(31, 119, 180); fill-opacity: 1;"/><path class="point" transform="translate(150.52,18.77)" d="M5,0A5,5 0 1,1 0,-5A5,5 0 0,1 5,0Z" style="opacity: 1; stroke-width: 0px; fill: rgb(31, 119, 180); fill-opacity: 1;"/><path class="point" transform="translate(293,118.51)" d="M5,0A5,5 0 1,1 0,-5A5,5 0 0,1 5,0Z" style="opacity: 1; stroke-width: 0px; fill: rgb(31, 119, 180); fill-opacity: 1;"/></g><g class="text"/></g><g class="trace scatter trace9b94c6" style="stroke-miterlimit: 2; opacity: 1;"><g class="fills"/><g class="errorbars"/><g class="lines"/><g class="points"><path class="point" transform="translate(0,7.25)" d="M5,0A5,5 0 1,1 0,-5A5,5 0 0,1 5,0Z" style="opacity: 1; stroke-width: 0px; fill: rgb(255, 127, 14); fill-opacity: 1;"/><path class="point" transform="translate(35.47,8.04)" d="M5,0A5,5 0 1,1 0,-5A5,5 0 0,1 5,0Z" style="opacity: 1; stroke-width: 0px; fill: rgb(255, 127, 14); fill-opacity: 1;"/><path class="point" transform="translate(98.55,33.06)" d="M5,0A5,5 0 1,1 0,-5A5,5 0 0,1 5,0Z" style="opacity: 1; stroke-width: 0px; fill: rgb(255, 127, 14); fill-opacity: 1;"/><path class="point" transform="translate(210.72,200.14)" d="M5,0A5,5 0 1,1 0,-5A5,5 0 0,1 5,0Z" style="opacity: 1; stroke-width: 0px; fill: rgb(255, 127, 14); fill-opacity: 1;"/><path class="point" transform="translate(410.2,306.33)" d="M5,0A5,5 0 1,1 0,-5A5,5 0 0,1 5,0Z" style="opacity: 1; stroke-width: 0px; fill: rgb(255, 127, 14); fill-opacity: 1;"/></g><g class="text"/></g><g class="trace scatter trace8ba1a9" style="stroke-miterlimit: 2; opacity: 1;"><g class="fills"/><g class="errorbars"/><g class="lines"/><g class="points"><path class="point" transform="translate(0,263.41)" d="M5,0A5,5 0 1,1 0,-5A5,5 0 0,1 5,0Z" style="opacity: 1; stroke-width: 0px; fill: rgb(44, 160, 44); fill-opacity: 1;"/><path class="point" transform="translate(44.59,299.53)" d="M5,0A5,5 0 1,1 0,-5A5,5 0 0,1 5,0Z" style="opacity: 1; stroke-width: 0px; fill: rgb(44, 160, 44); fill-opacity: 1;"/><path class="point" transform="translate(123.89,204.5)" d="M5,0A5,5 0 1,1 0,-5A5,5 0 0,1 5,0Z" style="opacity: 1; stroke-width: 0px; fill: rgb(44, 160, 44); fill-opacity: 1;"/><path class="point" transform="translate(264.91,138.47)" d="M5,0A5,5 0 1,1 0,-5A5,5 0 0,1 5,0Z" style="opacity: 1; stroke-width: 0px; fill: rgb(44, 160, 44); fill-opacity: 1;"/><path class="point" transform="translate(515.68,7.25)" d="M5,0A5,5 0 1,1 0,-5A5,5 0 0,1 5,0Z" style="opacity: 1; stroke-width: 0px; fill: rgb(44, 160, 44); fill-opacity: 1;"/></g><g class="text"/></g></g></g><g class="overplot"/><path class="xlines-above crisp" d="M101,396.5H690" style="fill: none; stroke-width: 3px; stroke: rgb(36, 36, 36); stroke-opacity: 1;"/><path class="ylines-above crisp" d="M102.5,25V395" style="fill: none; stroke-width: 3px; stroke: rgb(36, 36, 36); stroke-opacity: 1;"/><g class="overlines-above"/><g class="xaxislayer-above"><path class="xtick ticks crisp" d="M0,398v5" transform="translate(104,0)" style="stroke: rgb(68, 68, 68); stroke-opacity: 1; stroke-width: 1px;"/><path class="xtick ticks crisp" d="M0,398v5" transform="translate(221.2,0)" style="stroke: rgb(68, 68, 68); stroke-opacity: 1; stroke-width: 1px;"/><path class="xtick ticks crisp" d="M0,398v5" transform="translate(338.4,0)" style="stroke: rgb(68, 68, 68); stroke-opacity: 1; stroke-width: 1px;"/><path class="xtick ticks crisp" d="M0,398v5" transform="translate(455.6,0)" style="stroke: rgb(68, 68, 68); stroke-opacity: 1; stroke-width: 1px;"/><path class="xtick ticks crisp" d="M0,398v5" transform="translate(572.8,0)" style="stroke: rgb(68, 68, 68); stroke-opacity: 1; stroke-width: 1px;"/><path class="xtick ticks crisp" d="M0,398v5" transform="translate(690,0)" style="stroke: rgb(68, 68, 68); stroke-opacity: 1; stroke-width: 1px;"/><g class="xtick"><text text-anchor="middle" x="0" y="436.6" transform="translate(104,0)" style="font-family: 'Open Sans', verdana, arial, sans-serif; font-size: 28px; fill: rgb(36, 36, 36); fill-opacity: 1; white-space: pre; opacity: 1;">0</text></g><g class="xtick"><text text-anchor="middle" x="0" y="436.6" style="font-family: 'Open Sans', verdana, arial, sans-serif; font-size: 28px; fill: rgb(36, 36, 36); fill-opacity: 1; white-space: pre; opacity: 1;" transform="translate(221.2,0)">0.2</text></g><g class="xtick"><text text-anchor="middle" x="0" y="436.6" style="font-family: 'Open Sans', verdana, arial, sans-serif; font-size: 28px; fill: rgb(36, 36, 36); fill-opacity: 1; white-space: pre; opacity: 1;" transform="translate(338.4,0)">0.4</text></g><g class="xtick"><text text-anchor="middle" x="0" y="436.6" style="font-family: 'Open Sans', verdana, arial, sans-serif; font-size: 28px; fill: rgb(36, 36, 36); fill-opacity: 1; white-space: pre; opacity: 1;" transform="translate(455.6,0)">0.6</text></g><g class="xtick"><text text-anchor="middle" x="0" y="436.6" style="font-family: 'Open Sans', verdana, arial, sans-serif; font-size: 28px; fill: rgb(36, 36, 36); fill-opacity: 1; white-space: pre; opacity: 1;" transform="translate(572.8,0)">0.8</text></g><g class="xtick"><text text-anchor="middle" x="0" y="436.6" style="font-family: 'Open Sans', verdana, arial, sans-serif; font-size: 28px; fill: rgb(36, 36, 36); fill-opacity: 1; white-space: pre; opacity: 1;" transform="translate(690,0)">1</text></g></g><g class="yaxislayer-above"><path class="ytick ticks crisp" d="M101,0h-5" transform="translate(0,395)" style="stroke: rgb(68, 68, 68); stroke-opacity: 1; stroke-width: 1px;"/><path class="ytick ticks crisp" d="M101,0h-5" transform="translate(0,322.45)" style="stroke: rgb(68, 68, 68); stroke-opacity: 1; stroke-width: 1px;"/><path class="ytick ticks crisp" d="M101,0h-5" transform="translate(0,249.9)" style="stroke: rgb(68, 68, 68); stroke-opacity: 1; stroke-width: 1px;"/><path class="ytick ticks crisp" d="M101,0h-5" transform="translate(0,177.35)" style="stroke: rgb(68, 68, 68); stroke-opacity: 1; stroke-width: 1px;"/><path class="ytick ticks crisp" d="M101,0h-5" transform="translate(0,104.8)" style="stroke: rgb(68, 68, 68); stroke-opacity: 1; stroke-width: 1px;"/><path class="ytick ticks crisp" d="M101,0h-5" transform="translate(0,32.25)" style="stroke: rgb(68, 68, 68); stroke-opacity: 1; stroke-width: 1px;"/><g class="ytick"><text text-anchor="end" x="90.4" y="9.799999999999999" transform="translate(0,395)" style="font-family: 'Open Sans', verdana, arial, sans-serif; font-size: 28px; fill: rgb(36, 36, 36); fill-opacity: 1; white-space: pre; opacity: 1;">0</text></g><g class="ytick"><text text-anchor="end" x="90.4" y="9.799999999999999" style="font-family: 'Open Sans', verdana, arial, sans-serif; font-size: 28px; fill: rgb(36, 36, 36); fill-opacity: 1; white-space: pre; opacity: 1;" transform="translate(0,322.45)">0.2</text></g><g class="ytick"><text text-anchor="end" x="90.4" y="9.799999999999999" style="font-family: 'Open Sans', verdana, arial, sans-serif; font-size: 28px; fill: rgb(36, 36, 36); fill-opacity: 1; white-space: pre; opacity: 1;" transform="translate(0,249.9)">0.4</text></g><g class="ytick"><text text-anchor="end" x="90.4" y="9.799999999999999" style="font-family: 'Open Sans', verdana, arial, sans-serif; font-size: 28px; fill: rgb(36, 36, 36); fill-opacity: 1; white-space: pre; opacity: 1;" transform="translate(0,177.35)">0.6</text></g><g class="ytick"><text text-anchor="end" x="90.4" y="9.799999999999999" style="font-family: 'Open Sans', verdana, arial, sans-serif; font-size: 28px; fill: rgb(36, 36, 36); fill-opacity: 1; white-space: pre; opacity: 1;" transform="translate(0,104.8)">0.8</text></g><g class="ytick"><text text-anchor="end" x="90.4" y="9.799999999999999" style="font-family: 'Open Sans', verdana, arial, sans-serif; font-size: 28px; fill: rgb(36, 36, 36); fill-opacity: 1; white-space: pre; opacity: 1;" transform="translate(0,32.25)">1</text></g></g><g class="overaxes-above"/></g></g><g class="polarlayer"/><g class="smithlayer"/><g class="ternarylayer"/><g class="geolayer"/><g class="funnelarealayer"/><g class="pielayer"/><g class="iciclelayer"/><g class="treemaplayer"/><g class="sunburstlayer"/><g class="glimages"/><defs id="topdefs-8e9e2e"><g class="clips"/></defs><g class="layer-above"><g class="imagelayer"/><g class="shapelayer"/></g><g class="infolayer"><g class="g-gtitle"/><g class="g-xtitle"><text class="xtitle" x="397" y="481.909375" text-anchor="middle" style="font-family: 'Open Sans', verdana, arial, sans-serif; font-size: 34px; fill: rgb(36, 36, 36); opacity: 1; font-weight: normal; white-space: pre;">Normalised radius</text></g><g class="g-ytitle" transform="translate(22.3779296875,0)"><text class="ytitle" transform="rotate(-90,13.621875000000003,210)" x="13.621875000000003" y="210" text-anchor="middle" style="font-family: 'Open Sans', verdana, arial, sans-serif; font-size: 34px; fill: rgb(36, 36, 36); opacity: 1; font-weight: normal; white-space: pre;">Normalised QECE</text></g></g></svg>