<svg class="main-svg" xmlns="http://www.w3.org/2000/svg" xmlns:xlink="http://www.w3.org/1999/xlink" width="600" height="205" style="" viewBox="0 0 600 205"><rect x="0" y="0" width="600" height="205" style="fill: rgb(255, 255, 255); fill-opacity: 1;"/><defs id="defs-340a2e"><g class="clips"><clipPath id="clip340a2exyplot" class="plotclip"><rect width="568" height="173"/></clipPath><clipPath class="axesclip" id="clip340a2ex"><rect x="17" y="0" width="568" height="205"/></clipPath><clipPath class="axesclip" id="clip340a2ey"><rect x="0" y="15" width="600" height="173"/></clipPath><clipPath class="axesclip" id="clip340a2exy"><rect x="17" y="15" width="568" height="173"/></clipPath></g><g class="gradients"/><g class="patterns"/></defs><g class="bglayer"/><g class="layer-below"><g class="imagelayer"/><g class="shapelayer"/></g><g class="cartesianlayer"><g class="subplot xy"><g class="layer-subplot"><g class="shapelayer"/><g class="imagelayer"/></g><g class="minor-gridlayer"><g class="x"/><g class="y"/></g><g class="gridlayer"><g class="x"/><g class="y"/></g><g class="zerolinelayer"/><path class="xlines-below"/><path class="ylines-below"/><g class="overlines-below"/><g class="xaxislayer-below"/><g class="yaxislayer-below"/><g class="overaxes-below"/><g class="plot" transform="translate(17,15)" clip-path="url(#clip340a2exyplot)"><g class="scatterlayer mlayer"><g class="trace scatter trace3cd2ff" style="stroke-miterlimit: 2;"><g class="fills"><g><path class="js-fill" d="M0,8.65L35.84,9.4L35.9,9.41L51.75,10.16L51.81,10.17L82.25,12.7L82.31,12.71L93.9,14.14L93.96,14.15L111.96,17.02L112.02,17.03L132.41,21.38L132.47,21.4L151.22,26.57L151.27,26.59L168.66,32.48L168.71,32.5L185.87,39.34L185.92,39.37L200.01,45.65L200.07,45.68L227.9,57.95L227.96,57.96L235.57,59.86L235.63,59.87L243.47,60.07L243.53,60.06L253.75,58.12L253.81,58.1L271.64,53.14L271.7,53.12L294.54,48.4L294.59,48.4L304.82,47.35L304.88,47.35L320.5,47.17L320.55,47.17L337.2,48.88L337.26,48.89L354.64,52.7L354.69,52.72L370.83,57.97L370.88,57.99L396.28,69.12L396.33,69.15L412.47,77.57L412.52,77.6L448.14,95.95L448.2,95.97L456.32,98.51L456.38,98.52L463.65,99.47L463.7,99.47L472.79,98.74L472.85,98.73L481.94,96.37L482,96.35L492.11,92.6L492.16,92.57L514.6,82.53L514.66,82.5L558.23,62.82L558.29,62.8L568,58.84L568,164.35L543.91,157.4L543.86,157.38L525.85,150.77L525.79,150.75L499.15,139.04L499.09,139.01L481.2,130.84L481.14,130.81L470.18,126.82L470.12,126.8L461.72,125.07L461.66,125.06L453.82,124.77L453.76,124.77L430.64,128.16L430.59,128.17L408.6,131.48L408.55,131.49L397.7,132.24L397.64,132.24L380.71,131.98L380.65,131.98L370.2,130.89L370.15,130.89L350.89,127.08L350.83,127.07L329.3,120.2L329.25,120.18L314.42,114.03L314.36,114.01L272.04,92.17L271.99,92.14L254.72,83.2L254.66,83.17L247.16,80.19L247.1,80.17L240.29,78.63L240.23,78.62L232.85,78.76L232.79,78.77L223.25,81.36L223.19,81.38L183.08,101.02L183.03,101.05L155.65,114.76L155.59,114.79L133.15,124.83L133.1,124.86L110.83,133.51L110.77,133.54L86.86,141.35L86.8,141.37L59.42,148.57L59.36,148.59L28.29,154.83L28.23,154.83L0,159.06Z" style="fill: rgb(55, 126, 255); fill-opacity: 0.1; stroke-width: 0;"/></g></g><g class="errorbars"/><g class="lines"><path class="js-line" d="M0,159.06L28.23,154.83L28.29,154.83L59.36,148.59L59.42,148.57L86.8,141.37L86.86,141.35L110.77,133.54L110.83,133.51L133.1,124.86L133.15,124.83L155.59,114.79L155.65,114.76L183.03,101.05L183.08,101.02L223.19,81.38L223.25,81.36L232.79,78.77L232.85,78.76L240.23,78.62L240.29,78.63L247.1,80.17L247.16,80.19L254.66,83.17L254.72,83.2L271.99,92.14L272.04,92.17L314.36,114.01L314.42,114.03L329.25,120.18L329.3,120.2L350.83,127.07L350.89,127.08L370.15,130.89L370.2,130.89L380.65,131.98L380.71,131.98L397.64,132.24L397.7,132.24L408.55,131.49L408.6,131.48L430.59,128.17L430.64,128.16L453.76,124.77L453.82,124.77L461.66,125.06L461.72,125.07L470.12,126.8L470.18,126.82L481.14,130.81L481.2,130.84L499.09,139.01L499.15,139.04L525.79,150.75L525.85,150.77L543.86,157.38L543.91,157.4L568,164.35" style="vector-effect: non-scaling-stroke; fill: none; stroke: rgb(55, 126, 255); stroke-opacity: 0.1; stroke-width: 0px; opacity: 1;"/></g><g class="points"/><g class="text"/></g><g class="trace scatter trace2ad5aa" style="stroke-miterlimit: 2;"><g class="fills"/><g class="errorbars"/><g class="lines"><path class="js-line" d="M0,8.65L35.84,9.4L35.9,9.41L51.75,10.16L51.81,10.17L82.25,12.7L82.31,12.71L93.9,14.14L93.96,14.15L111.96,17.02L112.02,17.03L132.41,21.38L132.47,21.4L151.22,26.57L151.27,26.59L168.66,32.48L168.71,32.5L185.87,39.34L185.92,39.37L200.01,45.65L200.07,45.68L227.9,57.95L227.96,57.96L235.57,59.86L235.63,59.87L243.47,60.07L243.53,60.06L253.75,58.12L253.81,58.1L271.64,53.14L271.7,53.12L294.54,48.4L294.59,48.4L304.82,47.35L304.88,47.35L320.5,47.17L320.55,47.17L337.2,48.88L337.26,48.89L354.64,52.7L354.69,52.72L370.83,57.97L370.88,57.99L396.28,69.12L396.33,69.15L412.47,77.57L412.52,77.6L448.14,95.95L448.2,95.97L456.32,98.51L456.38,98.52L463.65,99.47L463.7,99.47L472.79,98.74L472.85,98.73L481.94,96.37L482,96.35L492.11,92.6L492.16,92.57L514.6,82.53L514.66,82.5L558.23,62.82L558.29,62.8L568,58.84" style="vector-effect: non-scaling-stroke; fill: none; stroke: rgb(55, 126, 255); stroke-opacity: 0.1; stroke-width: 0px; opacity: 1;"/></g><g class="points"/><g class="text"/></g><g class="trace scatter traceb82a07" style="stroke-miterlimit: 2; opacity: 1;"><g class="fills"/><g class="errorbars"/><g class="lines"><path class="js-line" d="M0,85.24L64.82,70.51L64.87,70.5L97.19,65.52L97.25,65.52L121.68,63.39L121.73,63.39L143.89,62.83L143.95,62.83L165.53,63.58L165.59,63.59L187.69,65.63L187.74,65.64L212.34,69.28L212.4,69.29L243.47,75.52L243.53,75.54L257.5,78.76L257.56,78.78L348.73,99.95L348.79,99.96L381.22,104.96L381.28,104.96L405.71,107.09L405.76,107.09L427.97,107.65L428.03,107.65L471.6,104.86L471.66,104.85L496.42,101.19L496.48,101.18L527.55,94.94L527.61,94.92L568,85.24" style="vector-effect: non-scaling-stroke; fill: none; stroke: rgb(169, 169, 169); stroke-opacity: 1; stroke-dasharray: 9px, 9px; stroke-width: 3px; opacity: 1;"/></g><g class="points"/><g class="text"/></g><g class="trace scatter trace619de2" style="stroke-miterlimit: 2; opacity: 1;"><g class="fills"/><g class="errorbars"/><g class="lines"><path class="js-line" d="M0,83.85L59.48,79.61L59.53,79.6L88.39,77.16L88.45,77.15L113.5,74.93L113.55,74.92L140.14,72.61L140.2,72.6L209.78,68.74L209.84,68.74L241.2,69.47L241.25,69.48L264.2,71.57L264.26,71.58L287.32,75.04L287.38,75.05L315.44,80.76L315.5,80.78L373.95,95.26L374.01,95.28L427.29,107.24L427.35,107.25L456.38,111.63L456.43,111.63L480.06,113.66L480.12,113.66L504.66,114.36L504.72,114.36L536.02,113.61L536.08,113.6L549.94,112.85L549.99,112.84L568,111.6" style="vector-effect: non-scaling-stroke; fill: none; stroke: rgb(31, 119, 180); stroke-opacity: 1; stroke-width: 3px; opacity: 1;"/></g><g class="points"/><g class="text"/></g><g class="trace scatter trace1a7158" style="stroke-miterlimit: 2; opacity: 1;"><g class="fills"/><g class="errorbars"/><g class="lines"/><g class="points"><path class="point" transform="translate(461.61,113.13)" d="M7.5,0A7.5,7.5 0 1,1 0,-7.5A7.5,7.5 0 0,1 7.5,0Z" style="opacity: 1; stroke-width: 0px; fill: rgb(228, 26, 28); fill-opacity: 1;"/><path class="point" transform="translate(236.12,72.87)" d="M7.5,0A7.5,7.5 0 1,1 0,-7.5A7.5,7.5 0 0,1 7.5,0Z" style="opacity: 1; stroke-width: 0px; fill: rgb(228, 26, 28); fill-opacity: 1;"/><path class="point" transform="translate(240.49,64.82)" d="M7.5,0A7.5,7.5 0 1,1 0,-7.5A7.5,7.5 0 0,1 7.5,0Z" style="opacity: 1; stroke-width: 0px; fill: rgb(228, 26, 28); fill-opacity: 1;"/></g><g class="text"/></g></g></g><g class="overplot"/><path class="xlines-above crisp" d="M14,189.5H585" style="fill: none; stroke-width: 3px; stroke: rgb(36, 36, 36); stroke-opacity: 1;"/><path class="ylines-above crisp" d="M15.5,15V188" style="fill: none; stroke-width: 3px; stroke: rgb(36, 36, 36); stroke-opacity: 1;"/><g class="overlines-above"/><g class="xaxislayer-above"/><g class="yaxislayer-above"/><g class="overaxes-above"/></g></g><g class="polarlayer"/><g class="smithlayer"/><g class="ternarylayer"/><g class="geolayer"/><g class="funnelarealayer"/><g class="pielayer"/><g class="iciclelayer"/><g class="treemaplayer"/><g class="sunburstlayer"/><g class="glimages"/><defs id="topdefs-340a2e"><g class="clips"/></defs><g class="layer-above"><g class="imagelayer"/><g class="shapelayer"><path data-index="0" fill-rule="evenodd" d="M146.78,188L146.78,15" clip-path="url(#clip340a2ex)" style="opacity: 1; stroke: rgb(228, 26, 28); stroke-opacity: 1; fill: rgb(0, 0, 0); fill-opacity: 1; stroke-width: 3px;"/></g></g><g class="infolayer"><g class="g-gtitle"/><g class="g-xtitle"/><g class="g-ytitle"/></g></svg>
