<svg class="main-svg" xmlns="http://www.w3.org/2000/svg" xmlns:xlink="http://www.w3.org/1999/xlink" width="400" height="425" style="" viewBox="0 0 400 425"><rect x="0" y="0" width="400" height="425" style="fill: rgb(255, 255, 255); fill-opacity: 1;"/><defs id="defs-f3e249"><g class="clips"><clipPath id="clipf3e249xyplot" class="plotclip"><rect width="333" height="186.67499999999998"/></clipPath><clipPath id="clipf3e249x2y2plot" class="plotclip"><rect width="333" height="186.67499999999998"/></clipPath><clipPath class="axesclip" id="clipf3e249x"><rect x="52" y="0" width="333" height="425"/></clipPath><clipPath class="axesclip" id="clipf3e249y"><rect x="0" y="15" width="400" height="186.67499999999998"/></clipPath><clipPath class="axesclip" id="clipf3e249xy"><rect x="52" y="15" width="333" height="186.67499999999998"/></clipPath><clipPath class="axesclip" id="clipf3e249y2"><rect x="0" y="221.32500000000002" width="400" height="186.67499999999998"/></clipPath><clipPath class="axesclip" id="clipf3e249xy2"><rect x="52" y="221.32500000000002" width="333" height="186.67499999999998"/></clipPath><clipPath class="axesclip" id="clipf3e249x2"><rect x="52" y="0" width="333" height="425"/></clipPath><clipPath class="axesclip" id="clipf3e249x2y"><rect x="52" y="15" width="333" height="186.67499999999998"/></clipPath><clipPath class="axesclip" id="clipf3e249x2y2"><rect x="52" y="221.32500000000002" width="333" height="186.67499999999998"/></clipPath></g><g class="gradients"/><g class="patterns"/></defs><g class="bglayer"/><g class="layer-below"><g class="imagelayer"/><g class="shapelayer"/></g><g class="cartesianlayer"><g class="subplot xy"><g class="layer-subplot"><g class="shapelayer"/><g class="imagelayer"/></g><g class="minor-gridlayer"><g class="x"/><g class="y"/></g><g class="gridlayer"><g class="x"/><g class="y"/></g><g class="zerolinelayer"/><path class="xlines-below"/><path class="ylines-below"/><g class="overlines-below"/><g class="xaxislayer-below"/><g class="yaxislayer-below"/><g class="overaxes-below"/><g class="plot" transform="translate(52,15)" clip-path="url(#clipf3e249xyplot)"><g class="scatterlayer mlayer"><g class="trace scatter trace51b298" style="stroke-miterlimit: 2;"><g class="fills"><g><path class="js-fill" d="M-55.5,93.82L-16.69,94.94L-16.65,94.95L-6.21,96.74L-6.17,96.76L-0.08,98.88L-0.04,98.9L6.09,102.44L6.13,102.47L11.51,107.23L11.55,107.27L17.32,114.57L17.37,114.64L23.01,124.1L23.05,124.18L29.05,134.22L29.18,134.13L29.22,134.09L30.73,131.68L30.78,131.6L41.35,113.08L41.39,113.02L47.07,106.13L47.12,106.09L53.25,101.01L53.29,100.98L59.2,97.8L59.24,97.78L66.66,95.3L66.7,95.29L81.98,92.62L82.02,92.62L91.66,91.77L91.7,91.77L99.87,92.05L99.92,92.06L105.55,93.47L105.6,93.49L109.95,95.72L110,95.75L114.21,99.22L114.26,99.27L119.01,105.07L119.05,105.13L124.74,114.64L124.78,114.72L126.78,116.93L126.82,116.9L126.87,116.87L128.69,114.02L128.73,113.94L136.06,102.4L136.11,102.35L140.72,97.55L140.77,97.51L145.7,94.31L145.74,94.29L150.89,92.54L150.94,92.53L157.06,91.85L157.11,91.85L164.92,92.16L164.97,92.17L175.94,93.53L175.98,93.54L187.04,95.52L187.08,95.53L198.58,98.85L198.63,98.87L207.73,103.4L207.77,103.42L214.75,108.79L214.79,108.83L221.36,115.9L221.41,115.96L228.29,125.6L228.33,125.67L241.57,145.17L241.61,145.21L243.87,146.29L243.92,146.27L245.12,144.7L245.16,144.61L254.75,125.97L254.8,125.92L257.77,123.43L257.82,123.41L262.61,121.29L262.66,121.21L272.07,104.77L272.12,104.72L275.54,102.12L275.58,102.1L278.69,101.52L278.73,101.52L281.97,102.62L282.02,102.64L286.15,106.36L286.19,106.42L290.06,111.97L290.1,112.04L295.65,122.73L295.69,122.83L300.05,130.34L300.09,130.32L301.69,128.34L301.73,128.27L314.39,109.68L314.43,109.63L321.8,102.78L321.85,102.75L327.27,99.52L327.31,99.5L334.06,96.99L334.1,96.98L344.81,95.05L344.85,95.05L362.39,94.08L362.43,94.08L388.5,93.82L388.5,170.11L384.64,170.12L384.59,170.12L340.94,170.03L340.9,170.03L332.42,168.98L332.37,168.97L324.11,166.17L324.07,166.14L319.1,162.91L319.05,162.88L313.99,157.84L313.94,157.78L309.82,152.06L309.77,151.99L302,137.32L301.96,137.23L300.05,133.72L300,133.67L299.96,133.63L293.74,140.2L293.7,140.25L290.45,142.97L290.41,143L287.04,144.35L286.99,144.36L283.35,144.1L283.31,144.09L278.87,141.59L278.82,141.55L269.1,130.74L269.05,130.68L264.66,126L264.61,125.96L262.75,124.99L262.7,124.99L255.6,138.72L255.55,138.81L252.44,144.19L252.4,144.26L249.34,147.54L249.29,147.57L245.07,148.73L245.03,148.74L239.12,159.47L239.08,159.56L235.08,166.65L235.04,166.72L231.35,171.45L231.31,171.5L226.87,175.09L226.82,175.11L222.25,176.89L222.21,176.9L216.26,177.29L216.21,177.29L177.62,169.48L177.58,169.47L166.92,166.7L166.88,166.69L159.91,163.84L159.86,163.82L153.87,160.15L153.82,160.12L148.23,155.2L148.18,155.16L142.19,147.8L142.14,147.74L128.56,123L128.51,122.91L126.91,120.28L126.87,120.24L126.74,120.15L125.09,121.91L125.05,122L116.48,138.75L116.43,138.83L110.26,148.64L110.22,148.7L104.58,155.4L104.53,155.45L97.34,161.3L97.3,161.33L91.43,164.41L91.39,164.43L85.17,166.57L85.13,166.59L74.29,168.52L74.25,168.53L65.59,168.79L65.55,168.79L58.58,167.92L58.53,167.91L52.54,165.92L52.49,165.9L46.76,162.33L46.72,162.29L40.41,155.77L40.37,155.72L30.82,140.05L30.78,139.97L29.22,137.53L29.18,137.49L29.09,137.43L24.12,145.23L24.07,145.31L17.81,155.23L17.77,155.29L12.39,161.3L12.35,161.34L8.04,164.65L8,164.68L1.12,167.88L1.07,167.9L-5.59,169.39L-5.63,169.4L-55.5,170.12Z" style="fill: rgb(55, 126, 255); fill-opacity: 0.2; stroke-width: 0;"/></g></g><g class="errorbars"/><g class="lines"><path class="js-line" d="M-55.5,170.12L-5.63,169.4L-5.59,169.39L1.07,167.9L1.12,167.88L8,164.68L8.04,164.65L12.35,161.34L12.39,161.3L17.77,155.29L17.81,155.23L24.07,145.31L24.12,145.23L29.09,137.43L29.18,137.49L29.22,137.53L30.78,139.97L30.82,140.05L40.37,155.72L40.41,155.77L46.72,162.29L46.76,162.33L52.49,165.9L52.54,165.92L58.53,167.91L58.58,167.92L65.55,168.79L65.59,168.79L74.25,168.53L74.29,168.52L85.13,166.59L85.17,166.57L91.39,164.43L91.43,164.41L97.3,161.33L97.34,161.3L104.53,155.45L104.58,155.4L110.22,148.7L110.26,148.64L116.43,138.83L116.48,138.75L125.05,122L125.09,121.91L126.74,120.15L126.87,120.24L126.91,120.28L128.51,122.91L128.56,123L142.14,147.74L142.19,147.8L148.18,155.16L148.23,155.2L153.82,160.12L153.87,160.15L159.86,163.82L159.91,163.84L166.88,166.69L166.92,166.7L177.58,169.47L177.62,169.48L216.21,177.29L216.26,177.29L222.21,176.9L222.25,176.89L226.82,175.11L226.87,175.09L231.31,171.5L231.35,171.45L235.04,166.72L235.08,166.65L239.08,159.56L239.12,159.47L245.03,148.74L245.07,148.73L249.29,147.57L249.34,147.54L252.4,144.26L252.44,144.19L255.55,138.81L255.6,138.72L262.7,124.99L262.75,124.99L264.61,125.96L264.66,126L269.05,130.68L269.1,130.74L278.82,141.55L278.87,141.59L283.31,144.09L283.35,144.1L286.99,144.36L287.04,144.35L290.41,143L290.45,142.97L293.7,140.25L293.74,140.2L299.96,133.63L300,133.67L300.05,133.72L301.96,137.23L302,137.32L309.77,151.99L309.82,152.06L313.94,157.78L313.99,157.84L319.05,162.88L319.1,162.91L324.07,166.14L324.11,166.17L332.37,168.97L332.42,168.98L340.9,170.03L340.94,170.03L384.59,170.12L384.64,170.12L388.5,170.11" style="vector-effect: non-scaling-stroke; fill: none; stroke: rgb(55, 126, 255); stroke-opacity: 0.2; stroke-width: 0px; opacity: 1;"/></g><g class="points"/><g class="text"/></g><g class="trace scatter tracefd5fd6" style="stroke-miterlimit: 2;"><g class="fills"/><g class="errorbars"/><g class="lines"><path class="js-line" d="M-55.5,93.82L-16.69,94.94L-16.65,94.95L-6.21,96.74L-6.17,96.76L-0.08,98.88L-0.04,98.9L6.09,102.44L6.13,102.47L11.51,107.23L11.55,107.27L17.32,114.57L17.37,114.64L23.01,124.1L23.05,124.18L29.05,134.22L29.18,134.13L29.22,134.09L30.73,131.68L30.78,131.6L41.35,113.08L41.39,113.02L47.07,106.13L47.12,106.09L53.25,101.01L53.29,100.98L59.2,97.8L59.24,97.78L66.66,95.3L66.7,95.29L81.98,92.62L82.02,92.62L91.66,91.77L91.7,91.77L99.87,92.05L99.92,92.06L105.55,93.47L105.6,93.49L109.95,95.72L110,95.75L114.21,99.22L114.26,99.27L119.01,105.07L119.05,105.13L124.74,114.64L124.78,114.72L126.78,116.93L126.82,116.9L126.87,116.87L128.69,114.02L128.73,113.94L136.06,102.4L136.11,102.35L140.72,97.55L140.77,97.51L145.7,94.31L145.74,94.29L150.89,92.54L150.94,92.53L157.06,91.85L157.11,91.85L164.92,92.16L164.97,92.17L175.94,93.53L175.98,93.54L187.04,95.52L187.08,95.53L198.58,98.85L198.63,98.87L207.73,103.4L207.77,103.42L214.75,108.79L214.79,108.83L221.36,115.9L221.41,115.96L228.29,125.6L228.33,125.67L241.57,145.17L241.61,145.21L243.87,146.29L243.92,146.27L245.12,144.7L245.16,144.61L254.75,125.97L254.8,125.92L257.77,123.43L257.82,123.41L262.61,121.29L262.66,121.21L272.07,104.77L272.12,104.72L275.54,102.12L275.58,102.1L278.69,101.52L278.73,101.52L281.97,102.62L282.02,102.64L286.15,106.36L286.19,106.42L290.06,111.97L290.1,112.04L295.65,122.73L295.69,122.83L300.05,130.34L300.09,130.32L301.69,128.34L301.73,128.27L314.39,109.68L314.43,109.63L321.8,102.78L321.85,102.75L327.27,99.52L327.31,99.5L334.06,96.99L334.1,96.98L344.81,95.05L344.85,95.05L362.39,94.08L362.43,94.08L388.5,93.82" style="vector-effect: non-scaling-stroke; fill: none; stroke: rgb(55, 126, 255); stroke-opacity: 0.2; stroke-width: 0px; opacity: 1;"/></g><g class="points"/><g class="text"/></g><g class="trace scatter trace5a1411" style="stroke-miterlimit: 2; opacity: 1;"><g class="fills"/><g class="errorbars"/><g class="lines"><path class="js-line" d="M-55.5,131.93L-37.69,123.85L-37.65,123.84L-29.35,123.43L-29.3,123.43L-20.95,125.99L-20.91,126.02L-12.87,130.72L-12.83,130.75L4,141.28L4.05,141.29L9.06,142.82L9.11,142.83L14.61,142.99L14.66,142.98L19.5,141.69L19.54,141.68L25.67,138.25L25.72,138.22L32.69,132.49L32.73,132.45L47.92,119.37L47.96,119.34L54.27,116.55L54.31,116.54L58.84,116.28L58.89,116.29L63.06,117.52L63.1,117.54L67.15,120.08L67.19,120.12L72.07,124.82L72.12,124.87L79.67,134.7L79.71,134.76L93.12,152.88L93.17,152.92L97.87,156.92L97.92,156.94L101.29,158.37L101.34,158.38L104.58,158.39L104.62,158.38L107.86,156.91L107.91,156.88L111.9,152.89L111.95,152.83L116.12,146.04L116.17,145.96L120.47,136.25L120.52,136.14L126.29,119.34L126.34,119.19L150.8,33.03L150.85,32.9L156.58,19.16L156.62,19.08L160.97,12.44L161.02,12.39L164.17,9.89L164.21,9.87L167.19,9.38L167.23,9.39L170.03,10.6L170.07,10.64L173.05,13.68L173.09,13.73L176.78,19.86L176.82,19.95L181.31,30.57L181.35,30.69L186.77,47.25L186.82,47.4L207.15,120.76L207.2,120.9L214.26,140.47L214.3,140.57L219.9,151.22L219.94,151.28L224.29,156.27L224.34,156.31L227.71,158.2L227.76,158.22L231.22,158.46L231.26,158.46L234.77,157.13L234.82,157.1L238.99,153.78L239.03,153.74L243.61,148.47L243.65,148.41L250.05,139.46L250.09,139.4L261.5,124.18L261.55,124.13L267.28,119.04L267.32,119.01L271.85,116.78L271.89,116.77L275.98,116.19L276.02,116.2L280.15,116.95L280.2,116.97L285.13,119.4L285.17,119.43L290.99,123.88L291.03,123.92L310.26,140.12L310.3,140.14L315.94,142.51L315.99,142.52L320.92,143.12L320.96,143.12L325.89,142.37L325.93,142.36L331.75,139.97L331.8,139.95L358.97,124.11L359.02,124.1L367.63,123.35L367.67,123.36L377.09,125.98L377.13,126L388.5,131.93" style="vector-effect: non-scaling-stroke; fill: none; stroke: rgb(169, 169, 169); stroke-opacity: 1; stroke-dasharray: 9px, 9px; stroke-width: 3px; opacity: 1;"/></g><g class="points"/><g class="text"/></g><g class="trace scatter trace175162" style="stroke-miterlimit: 2; opacity: 1;"><g class="fills"/><g class="errorbars"/><g class="lines"><path class="js-line" d="M-55.5,131.97L-9.32,132.92L-9.27,132.93L10.88,134.59L10.93,134.6L35.04,135.58L35.09,135.57L50.98,133.89L51.03,133.88L88.55,128.74L88.59,128.73L103.2,124.73L103.25,124.71L121.76,118.97L121.81,118.96L128.16,118.6L128.2,118.61L134.64,119.71L134.68,119.72L148.32,124.27L148.36,124.29L165.41,129.2L165.46,129.21L184.73,132.98L184.77,132.98L202.45,137.61L202.49,137.63L211.86,141.54L211.9,141.56L232.24,151.17L232.29,151.18L236.77,151.47L236.81,151.47L241.08,150.01L241.12,149.99L245.21,146.62L245.25,146.57L251.29,138.5L251.33,138.44L261.06,124.68L261.1,124.63L265.99,120.77L266.03,120.75L269.98,119.6L270.03,119.6L274.11,119.9L274.16,119.91L280.91,122.54L280.95,122.56L301.07,132.34L301.11,132.35L308.93,133.75L308.97,133.75L317.63,133.97L317.67,133.96L332.86,133.21L332.91,133.2L387.48,131.97L387.52,131.97L388.5,131.96" style="vector-effect: non-scaling-stroke; fill: none; stroke: rgb(31, 119, 180); stroke-opacity: 1; stroke-width: 3px; opacity: 1;"/></g><g class="points"/><g class="text"/></g><g class="trace scatter trace672413" style="stroke-miterlimit: 2; opacity: 1;"><g class="fills"/><g class="errorbars"/><g class="lines"/><g class="points"><path class="point" transform="translate(126.54,118.53)" d="M7.5,0A7.5,7.5 0 1,1 0,-7.5A7.5,7.5 0 0,1 7.5,0Z" style="opacity: 1; stroke-width: 0px; fill: rgb(228, 26, 28); fill-opacity: 1;"/><path class="point" transform="translate(28.86,135.82)" d="M7.5,0A7.5,7.5 0 1,1 0,-7.5A7.5,7.5 0 0,1 7.5,0Z" style="opacity: 1; stroke-width: 0px; fill: rgb(228, 26, 28); fill-opacity: 1;"/><path class="point" transform="translate(244.2,147.7)" d="M7.5,0A7.5,7.5 0 1,1 0,-7.5A7.5,7.5 0 0,1 7.5,0Z" style="opacity: 1; stroke-width: 0px; fill: rgb(228, 26, 28); fill-opacity: 1;"/><path class="point" transform="translate(261.96,123.69)" d="M7.5,0A7.5,7.5 0 1,1 0,-7.5A7.5,7.5 0 0,1 7.5,0Z" style="opacity: 1; stroke-width: 0px; fill: rgb(228, 26, 28); fill-opacity: 1;"/><path class="point" transform="translate(299.7,131.93)" d="M7.5,0A7.5,7.5 0 1,1 0,-7.5A7.5,7.5 0 0,1 7.5,0Z" style="opacity: 1; stroke-width: 0px; fill: rgb(228, 26, 28); fill-opacity: 1;"/></g><g class="text"/></g></g></g><g class="overplot"/><path class="xlines-above crisp" d="M49,203.17499999999998H385" style="fill: none; stroke-width: 3px; stroke: rgb(36, 36, 36); stroke-opacity: 1;"/><path class="ylines-above crisp" d="M50.5,15V201.67499999999998" style="fill: none; stroke-width: 3px; stroke: rgb(36, 36, 36); stroke-opacity: 1;"/><g class="overlines-above"/><g class="xaxislayer-above"/><g class="yaxislayer-above"/><g class="overaxes-above"/></g><g class="subplot x2y2"><g class="layer-subplot"><g class="shapelayer"/><g class="imagelayer"/></g><g class="minor-gridlayer"><g class="x2"/><g class="y2"/></g><g class="gridlayer"><g class="x2"/><g class="y2"/></g><g class="zerolinelayer"/><path class="xlines-below"/><path class="ylines-below"/><g class="overlines-below"/><g class="xaxislayer-below"/><g class="yaxislayer-below"/><g class="overaxes-below"/><g class="plot" transform="translate(52,221.32500000000002)" clip-path="url(#clipf3e249x2y2plot)"><g class="scatterlayer mlayer"><g class="trace scatter trace173f26" style="stroke-miterlimit: 2; opacity: 1;"><g class="fills"/><g class="errorbars"/><g class="lines"><path class="js-line" d="M-55.5,77.48L-22.55,79.53L-22.51,79.54L-8.74,82.53L-8.7,82.54L4.14,87.57L4.18,87.6L25.27,96.92L25.32,96.93L30.51,97.09L30.56,97.08L35.84,95.71L35.88,95.69L43.34,91.99L43.39,91.96L61.91,80.82L61.95,80.79L75.4,72.46L75.45,72.43L84.24,65.44L84.29,65.4L91.7,57.55L91.75,57.49L99.47,46.81L99.52,46.74L113.46,22.74L113.5,22.66L120.08,13.13L120.12,13.09L123.67,10.11L123.72,10.09L126.69,9.34L126.74,9.34L129.58,10.24L129.62,10.27L132.73,12.9L132.77,12.95L136.9,18.47L136.95,18.54L144.72,31.99L144.76,32.07L157.55,53.35L157.6,53.41L165.63,63.71L165.68,63.76L174.78,73.12L174.83,73.16L193.48,92.4L193.52,92.46L200.85,103.26L200.89,103.34L207.11,115.15L207.15,115.24L214.21,131.88L214.26,132L230.46,172.88L230.51,172.95L233.62,176.69L233.66,176.72L235.79,177.31L235.84,177.3L237.75,176.11L237.79,176.06L239.92,172.5L239.97,172.39L242.32,165.38L242.36,165.21L244.5,155.91L244.54,155.68L247.07,141.17L247.12,140.89L262.12,34.99L262.17,34.78L264.97,23.56L265.01,23.42L267.94,16.66L267.99,16.6L270.3,14.54L270.34,14.52L272.34,14.74L272.38,14.76L274.69,16.93L274.74,16.98L278.07,22.86L278.11,22.96L282.64,34.27L282.68,34.39L297.78,73.94L297.83,74.03L301.51,80.13L301.56,80.19L305.33,84.38L305.37,84.42L309.99,87.14L310.04,87.15L313.86,87.92L313.9,87.92L319.58,87.5L319.63,87.49L327.67,85.39L327.71,85.37L352.8,79.5L352.84,79.5L376.64,77.72L376.69,77.72L388.5,77.45" style="vector-effect: non-scaling-stroke; fill: none; stroke: rgb(148, 103, 189); stroke-opacity: 1; stroke-width: 3px; opacity: 1;"/></g><g class="points"/><g class="text"/></g></g></g><g class="overplot"/><path class="xlines-above crisp" d="M49,409.5H385" style="fill: none; stroke-width: 3px; stroke: rgb(36, 36, 36); stroke-opacity: 1;"/><path class="ylines-above crisp" d="M50.5,221.32500000000002V408" style="fill: none; stroke-width: 3px; stroke: rgb(36, 36, 36); stroke-opacity: 1;"/><g class="overlines-above"/><g class="xaxislayer-above"/><g class="yaxislayer-above"/><g class="overaxes-above"/></g></g><g class="polarlayer"/><g class="smithlayer"/><g class="ternarylayer"/><g class="geolayer"/><g class="funnelarealayer"/><g class="pielayer"/><g class="iciclelayer"/><g class="treemaplayer"/><g class="sunburstlayer"/><g class="glimages"/><defs id="topdefs-f3e249"><g class="clips"/></defs><g class="layer-above"><g class="imagelayer"/><g class="shapelayer"><path data-index="0" fill-rule="evenodd" d="M323.07,201.67499999999998L323.07,15" clip-path="url(#clipf3e249x)" style="opacity: 1; stroke: rgb(228, 26, 28); stroke-opacity: 1; fill: rgb(0, 0, 0); fill-opacity: 1; stroke-width: 3px;"/><path data-index="1" fill-rule="evenodd" d="M323.07,408L323.07,221.32500000000002" clip-path="url(#clipf3e249x2)" style="opacity: 1; stroke: rgb(228, 26, 28); stroke-opacity: 1; fill: rgb(0, 0, 0); fill-opacity: 1; stroke-width: 3px;"/></g></g><g class="infolayer"><g class="g-gtitle"/><g class="g-xtitle"/><g class="g-x2title"/><g class="g-ytitle" transform="translate(64.8095703125,0)"><text class="ytitle" transform="rotate(-90,-33.8,108.33749999999999)" x="-33.8" y="108.33749999999999" text-anchor="middle" style="font-family: 'Open Sans', verdana, arial, sans-serif; font-size: 29px; fill: rgb(36, 36, 36); opacity: 1; font-weight: normal; white-space: pre;">GP</text></g><g class="g-y2title" transform="translate(64.806640625,0)"><text class="y2title" transform="rotate(-90,-33.8,314.6625)" x="-33.8" y="314.6625" text-anchor="middle" style="font-family: 'Open Sans', verdana, arial, sans-serif; font-size: 29px; fill: rgb(36, 36, 36); opacity: 1; font-weight: normal; white-space: pre;">ACQF</text></g></g></svg>