<svg class="main-svg" xmlns="http://www.w3.org/2000/svg" xmlns:xlink="http://www.w3.org/1999/xlink" width="1280" height="600" style="" viewBox="0 0 1280 600"><rect x="0" y="0" width="1280" height="600" style="fill: rgb(255, 255, 255); fill-opacity: 1;"/><defs id="defs-3a2b1f"><g class="clips"><clipPath id="clip3a2b1fxyplot" class="plotclip"><rect width="461.96999999999997" height="202.39999999999998"/></clipPath><clipPath id="clip3a2b1fx2y2plot" class="plotclip"><rect width="461.96999999999997" height="202.4"/></clipPath><clipPath class="axesclip" id="clip3a2b1fx"><rect x="108" y="0" width="461.96999999999997" height="600"/></clipPath><clipPath class="axesclip" id="clip3a2b1fy"><rect x="0" y="54" width="1280" height="202.39999999999998"/></clipPath><clipPath class="axesclip" id="clip3a2b1fxy"><rect x="108" y="54" width="461.96999999999997" height="202.39999999999998"/></clipPath><clipPath class="axesclip" id="clip3a2b1fy2"><rect x="0" y="311.6" width="1280" height="202.4"/></clipPath><clipPath class="axesclip" id="clip3a2b1fxy2"><rect x="108" y="311.6" width="461.96999999999997" height="202.4"/></clipPath><clipPath class="axesclip" id="clip3a2b1fx2"><rect x="108" y="0" width="461.96999999999997" height="600"/></clipPath><clipPath class="axesclip" id="clip3a2b1fx2y"><rect x="108" y="54" width="461.96999999999997" height="202.39999999999998"/></clipPath><clipPath class="axesclip" id="clip3a2b1fx2y2"><rect x="108" y="311.6" width="461.96999999999997" height="202.4"/></clipPath><clipPath id="clip3a2b1fpolar-for-traces"><path d="M207,0A207,207 0,1,0 -207,-2.535018874235021e-14A207,207 0,1,0 207,5.070037748470042e-14Z" transform="translate(207,207)"/></clipPath></g><g class="gradients"/><g class="patterns"/></defs><g class="bglayer"/><g class="layer-below"><g class="imagelayer"/><g class="shapelayer"/></g><g class="cartesianlayer"><g class="subplot xy"><g class="layer-subplot"><g class="shapelayer"/><g class="imagelayer"/></g><g class="minor-gridlayer"><g class="x"/><g class="y"/></g><g class="gridlayer"><g class="x"/><g class="y"/></g><g class="zerolinelayer"/><path class="xlines-below"/><path class="ylines-below"/><g class="overlines-below"/><g class="xaxislayer-below"/><g class="yaxislayer-below"/><g class="overaxes-below"/><g class="plot" transform="translate(108,54)" clip-path="url(#clip3a2b1fxyplot)"><g class="scatterlayer mlayer"><g class="trace scatter traceeeb3c0" style="stroke-miterlimit: 2; opacity: 1;"><g class="fills"/><g class="errorbars"/><g class="lines"><path class="js-line" d="M0,59.14L6.2,68.41L9.3,69.45L77.51,72.51L80.61,72.57L164.32,74.12L167.43,78.27L179.83,103.93L182.93,110.42L198.43,142.43L201.53,147.61L232.54,191.02L235.64,192.11L241.84,191.71L244.94,191.78L322.45,191.75L325.55,191.75L461.97,191.75" style="vector-effect: non-scaling-stroke; fill: none; stroke: rgb(51, 102, 204); stroke-opacity: 1; stroke-width: 3px; opacity: 1;"/></g><g class="points"/><g class="text"/></g><g class="trace scatter trace41ffda" style="stroke-miterlimit: 2; opacity: 1;"><g class="fills"/><g class="errorbars"/><g class="lines"><path class="js-line" d="M0,43.42L6.2,43.54L9.3,44.89L46.51,64.08L49.61,65.48L71.31,74.76L74.41,73.92L89.91,69.92L93.01,69.13L111.62,65.65L114.72,65.11L139.52,60.09L142.62,58.93L145.72,59L148.82,62.28L161.22,84.36L164.32,89.96L192.23,138.99L195.33,143.09L232.54,191.13L235.64,192.06L244.94,191.78L248.04,191.75L461.97,191.75" style="vector-effect: non-scaling-stroke; fill: none; stroke: rgb(220, 57, 18); stroke-opacity: 1; stroke-width: 3px; opacity: 1;"/></g><g class="points"/><g class="text"/></g><g class="trace scatter trace2ac010" style="stroke-miterlimit: 2; opacity: 1;"><g class="fills"/><g class="errorbars"/><g class="lines"><path class="js-line" d="M0,10.12L3.1,10.87L6.2,13.55L12.4,24.74L15.5,30.79L37.21,73.29L40.31,77.39L52.71,89.24L55.81,92.26L68.21,104.67L71.31,106.13L89.91,93.48L93.01,91.44L102.32,85.74L105.42,84.33L139.52,68.95L142.62,67.45L158.12,59.33L161.22,61.01L167.43,72.32L170.53,78.54L201.53,138.62L204.63,143.87L232.54,190.67L235.64,192.28L241.84,191.68L244.94,191.79L303.85,191.75L306.95,191.75L461.97,191.75" style="vector-effect: non-scaling-stroke; fill: none; stroke: rgb(255, 153, 0); stroke-opacity: 1; stroke-width: 3px; opacity: 1;"/></g><g class="points"/><g class="text"/></g></g></g><g class="overplot"/><path class="xlines-above crisp" d="M105,256.9H569.97" style="fill: none; stroke-width: 1px; stroke: rgb(36, 36, 36); stroke-opacity: 1;"/><path class="ylines-above crisp" d="M106.5,54V256.4" style="fill: none; stroke-width: 3px; stroke: rgb(36, 36, 36); stroke-opacity: 1;"/><g class="overlines-above"/><g class="xaxislayer-above"><path class="xtick ticks crisp" d="M0,257.4v5" transform="translate(108,0)" style="stroke: rgb(68, 68, 68); stroke-opacity: 1; stroke-width: 1px;"/><path class="xtick ticks crisp" d="M0,257.4v5" transform="translate(200.39,0)" style="stroke: rgb(68, 68, 68); stroke-opacity: 1; stroke-width: 1px;"/><path class="xtick ticks crisp" d="M0,257.4v5" transform="translate(292.78999999999996,0)" style="stroke: rgb(68, 68, 68); stroke-opacity: 1; stroke-width: 1px;"/><path class="xtick ticks crisp" d="M0,257.4v5" transform="translate(385.18,0)" style="stroke: rgb(68, 68, 68); stroke-opacity: 1; stroke-width: 1px;"/><path class="xtick ticks crisp" d="M0,257.4v5" transform="translate(477.58,0)" style="stroke: rgb(68, 68, 68); stroke-opacity: 1; stroke-width: 1px;"/><path class="xtick ticks crisp" d="M0,257.4v5" transform="translate(569.97,0)" style="stroke: rgb(68, 68, 68); stroke-opacity: 1; stroke-width: 1px;"/><g class="xtick"><text text-anchor="middle" x="0" y="288.79999999999995" transform="translate(108,0)" style="font-family: 'Open Sans', verdana, arial, sans-serif; font-size: 22px; fill: rgb(36, 36, 36); fill-opacity: 1; white-space: pre; opacity: 1;">0</text></g><g class="xtick"><text text-anchor="middle" x="0" y="288.79999999999995" style="font-family: 'Open Sans', verdana, arial, sans-serif; font-size: 22px; fill: rgb(36, 36, 36); fill-opacity: 1; white-space: pre; opacity: 1;" transform="translate(200.39,0)">0.2</text></g><g class="xtick"><text text-anchor="middle" x="0" y="288.79999999999995" style="font-family: 'Open Sans', verdana, arial, sans-serif; font-size: 22px; fill: rgb(36, 36, 36); fill-opacity: 1; white-space: pre; opacity: 1;" transform="translate(292.78999999999996,0)">0.4</text></g><g class="xtick"><text text-anchor="middle" x="0" y="288.79999999999995" style="font-family: 'Open Sans', verdana, arial, sans-serif; font-size: 22px; fill: rgb(36, 36, 36); fill-opacity: 1; white-space: pre; opacity: 1;" transform="translate(385.18,0)">0.6</text></g><g class="xtick"><text text-anchor="middle" x="0" y="288.79999999999995" style="font-family: 'Open Sans', verdana, arial, sans-serif; font-size: 22px; fill: rgb(36, 36, 36); fill-opacity: 1; white-space: pre; opacity: 1;" transform="translate(477.58,0)">0.8</text></g><g class="xtick"><text text-anchor="middle" x="0" y="288.79999999999995" style="font-family: 'Open Sans', verdana, arial, sans-serif; font-size: 22px; fill: rgb(36, 36, 36); fill-opacity: 1; white-space: pre; opacity: 1;" transform="translate(569.97,0)">1</text></g></g><g class="yaxislayer-above"><path class="ytick ticks crisp" d="M105,0h-5" transform="translate(0,245.75)" style="stroke: rgb(68, 68, 68); stroke-opacity: 1; stroke-width: 1px;"/><path class="ytick ticks crisp" d="M105,0h-5" transform="translate(0,164.4)" style="stroke: rgb(68, 68, 68); stroke-opacity: 1; stroke-width: 1px;"/><path class="ytick ticks crisp" d="M105,0h-5" transform="translate(0,83.05)" style="stroke: rgb(68, 68, 68); stroke-opacity: 1; stroke-width: 1px;"/><g class="ytick"><text text-anchor="end" x="95.6" y="7.699999999999999" transform="translate(0,245.75)" style="font-family: 'Open Sans', verdana, arial, sans-serif; font-size: 22px; fill: rgb(36, 36, 36); fill-opacity: 1; white-space: pre; opacity: 1;">0</text></g><g class="ytick"><text text-anchor="end" x="95.6" y="7.699999999999999" style="font-family: 'Open Sans', verdana, arial, sans-serif; font-size: 22px; fill: rgb(36, 36, 36); fill-opacity: 1; white-space: pre; opacity: 1;" transform="translate(0,164.4)">0.5M</text></g><g class="ytick"><text text-anchor="end" x="95.6" y="7.699999999999999" style="font-family: 'Open Sans', verdana, arial, sans-serif; font-size: 22px; fill: rgb(36, 36, 36); fill-opacity: 1; white-space: pre; opacity: 1;" transform="translate(0,83.05)">1M</text></g></g><g class="overaxes-above"/></g><g class="subplot x2y2"><g class="layer-subplot"><g class="shapelayer"/><g class="imagelayer"/></g><g class="minor-gridlayer"><g class="x2"/><g class="y2"/></g><g class="gridlayer"><g class="x2"/><g class="y2"/></g><g class="zerolinelayer"/><path class="xlines-below"/><path class="ylines-below"/><g class="overlines-below"/><g class="xaxislayer-below"/><g class="yaxislayer-below"/><g class="overaxes-below"/><g class="plot" transform="translate(108,311.6)" clip-path="url(#clip3a2b1fx2y2plot)"><g class="scatterlayer mlayer"><g class="trace scatter tracee1a8e5" style="stroke-miterlimit: 2; opacity: 1;"><g class="fills"/><g class="errorbars"/><g class="lines"><path class="js-line" d="M0,142.75L3.1,145.64L6.2,154.43L9.3,162.51L12.4,167.43L15.5,170.87L18.6,173.14L24.8,175.73L27.9,176.56L43.41,179.04L46.51,179.43L71.31,181.75L74.41,181.96L102.32,183.04L105.42,183.07L136.42,182.61L139.52,182.5L173.63,180.34L176.73,179.96L195.33,176.7L198.43,176L220.13,170.13L223.23,169.15L257.34,157.14L260.44,156.03L300.75,140.79L303.85,139.53L328.65,128.71L331.75,127.24L353.45,115.97L356.55,114.19L375.16,102.36L378.26,100.15L393.76,88.08L396.86,85.36L409.26,73L412.36,69.73L424.76,57.91L427.86,55.33L437.17,47.41L440.27,44.21L446.47,36.32L449.57,31.76L458.87,16.71L461.97,10.76" style="vector-effect: non-scaling-stroke; fill: none; stroke: rgb(51, 102, 204); stroke-opacity: 1; stroke-width: 3px; opacity: 1;"/></g><g class="points"/><g class="text"/></g><g class="trace scatter trace33f3de" style="stroke-miterlimit: 2; opacity: 1;"><g class="fills"/><g class="errorbars"/><g class="lines"/><g class="points"><path class="point" transform="translate(111.62,183.09)" d="M5,0A5,5 0 1,1 0,-5A5,5 0 0,1 5,0Z" style="opacity: 1; stroke-width: 0px; fill: rgb(51, 102, 204); fill-opacity: 1;"/></g><g class="text"/></g><g class="trace scatter tracea9acf4" style="stroke-miterlimit: 2; opacity: 1;"><g class="fills"/><g class="errorbars"/><g class="lines"><path class="js-line" d="M0,157.96L3.1,161.05L6.2,169.01L9.3,174.36L12.4,177.57L18.6,180.99L21.7,181.78L31,182.83L34.11,182.99L65.11,183.65L68.21,183.64L151.92,183.58L155.02,183.37L173.63,181.17L176.73,180.66L198.43,176.07L201.53,175.29L226.33,167.99L229.43,166.93L275.94,150.18L279.04,149.03L313.15,135.51L316.25,134.17L337.95,124.08L341.05,122.51L359.65,112.22L362.75,110.34L378.26,100L381.36,97.73L396.86,85.19L399.96,82.31L427.86,55.17L430.97,52.61L440.27,43.84L443.37,40.08L452.67,26.39L455.77,21.35L461.97,10.12" style="vector-effect: non-scaling-stroke; fill: none; stroke: rgb(220, 57, 18); stroke-opacity: 1; stroke-width: 3px; opacity: 1;"/></g><g class="points"/><g class="text"/></g><g class="trace scatter trace592ce7" style="stroke-miterlimit: 2; opacity: 1;"><g class="fills"/><g class="errorbars"/><g class="lines"/><g class="points"><path class="point" transform="translate(117.82,184.27)" d="M5,0A5,5 0 1,1 0,-5A5,5 0 0,1 5,0Z" style="opacity: 1; stroke-width: 0px; fill: rgb(220, 57, 18); fill-opacity: 1;"/></g><g class="text"/></g><g class="trace scatter trace9bd51b" style="stroke-miterlimit: 2; opacity: 1;"><g class="fills"/><g class="errorbars"/><g class="lines"><path class="js-line" d="M0,173.28L3.1,176.04L6.2,181.05L9.3,183.6L12.4,185L18.6,186.03L21.7,185.96L34.11,184.36L37.21,183.79L55.81,181.05L58.91,180.67L80.61,178.62L83.71,178.58L108.52,179.39L111.62,179.51L148.82,180.29L151.92,180.29L173.63,179.56L176.73,179.25L195.33,176.4L198.43,175.77L220.13,170.28L223.23,169.34L248.04,160.75L251.14,159.63L300.75,141L303.85,139.75L331.75,127.46L334.85,125.96L356.55,114.42L359.65,112.6L375.16,102.62L378.26,100.42L393.76,88.39L396.86,85.69L409.26,73.25L412.36,69.94L421.66,60.86L424.76,58.22L440.27,45.2L443.37,41.5L452.67,27.64L455.77,22.48L461.97,11.01" style="vector-effect: non-scaling-stroke; fill: none; stroke: rgb(255, 153, 0); stroke-opacity: 1; stroke-width: 3px; opacity: 1;"/></g><g class="points"/><g class="text"/></g><g class="trace scatter trace7ebcdb" style="stroke-miterlimit: 2; opacity: 1;"><g class="fills"/><g class="errorbars"/><g class="lines"/><g class="points"><path class="point" transform="translate(18.6,186.03)" d="M5,0A5,5 0 1,1 0,-5A5,5 0 0,1 5,0Z" style="opacity: 1; stroke-width: 0px; fill: rgb(255, 153, 0); fill-opacity: 1;"/></g><g class="text"/></g></g></g><g class="overplot"/><path class="xlines-above crisp" d="M105,515.5H569.97" style="fill: none; stroke-width: 3px; stroke: rgb(36, 36, 36); stroke-opacity: 1;"/><path class="ylines-above crisp" d="M106.5,311.6V514" style="fill: none; stroke-width: 3px; stroke: rgb(36, 36, 36); stroke-opacity: 1;"/><g class="overlines-above"/><g class="xaxislayer-above"><path class="x2tick ticks crisp" d="M0,517v5" transform="translate(108,0)" style="stroke: rgb(68, 68, 68); stroke-opacity: 1; stroke-width: 1px;"/><path class="x2tick ticks crisp" d="M0,517v5" transform="translate(200.39,0)" style="stroke: rgb(68, 68, 68); stroke-opacity: 1; stroke-width: 1px;"/><path class="x2tick ticks crisp" d="M0,517v5" transform="translate(292.78999999999996,0)" style="stroke: rgb(68, 68, 68); stroke-opacity: 1; stroke-width: 1px;"/><path class="x2tick ticks crisp" d="M0,517v5" transform="translate(385.18,0)" style="stroke: rgb(68, 68, 68); stroke-opacity: 1; stroke-width: 1px;"/><path class="x2tick ticks crisp" d="M0,517v5" transform="translate(477.58,0)" style="stroke: rgb(68, 68, 68); stroke-opacity: 1; stroke-width: 1px;"/><path class="x2tick ticks crisp" d="M0,517v5" transform="translate(569.97,0)" style="stroke: rgb(68, 68, 68); stroke-opacity: 1; stroke-width: 1px;"/><g class="x2tick"><text text-anchor="middle" x="0" y="548.4" transform="translate(108,0)" style="font-family: 'Open Sans', verdana, arial, sans-serif; font-size: 22px; fill: rgb(36, 36, 36); fill-opacity: 1; white-space: pre; opacity: 1;">0</text></g><g class="x2tick"><text text-anchor="middle" x="0" y="548.4" style="font-family: 'Open Sans', verdana, arial, sans-serif; font-size: 22px; fill: rgb(36, 36, 36); fill-opacity: 1; white-space: pre; opacity: 1;" transform="translate(200.39,0)">0.2</text></g><g class="x2tick"><text text-anchor="middle" x="0" y="548.4" style="font-family: 'Open Sans', verdana, arial, sans-serif; font-size: 22px; fill: rgb(36, 36, 36); fill-opacity: 1; white-space: pre; opacity: 1;" transform="translate(292.78999999999996,0)">0.4</text></g><g class="x2tick"><text text-anchor="middle" x="0" y="548.4" style="font-family: 'Open Sans', verdana, arial, sans-serif; font-size: 22px; fill: rgb(36, 36, 36); fill-opacity: 1; white-space: pre; opacity: 1;" transform="translate(385.18,0)">0.6</text></g><g class="x2tick"><text text-anchor="middle" x="0" y="548.4" style="font-family: 'Open Sans', verdana, arial, sans-serif; font-size: 22px; fill: rgb(36, 36, 36); fill-opacity: 1; white-space: pre; opacity: 1;" transform="translate(477.58,0)">0.8</text></g><g class="x2tick"><text text-anchor="middle" x="0" y="548.4" style="font-family: 'Open Sans', verdana, arial, sans-serif; font-size: 22px; fill: rgb(36, 36, 36); fill-opacity: 1; white-space: pre; opacity: 1;" transform="translate(569.97,0)">1</text></g></g><g class="yaxislayer-above"><path class="y2tick ticks crisp" d="M105,0h-5" transform="translate(0,498.15000000000003)" style="stroke: rgb(68, 68, 68); stroke-opacity: 1; stroke-width: 1px;"/><path class="y2tick ticks crisp" d="M105,0h-5" transform="translate(0,460.64)" style="stroke: rgb(68, 68, 68); stroke-opacity: 1; stroke-width: 1px;"/><path class="y2tick ticks crisp" d="M105,0h-5" transform="translate(0,423.14000000000004)" style="stroke: rgb(68, 68, 68); stroke-opacity: 1; stroke-width: 1px;"/><path class="y2tick ticks crisp" d="M105,0h-5" transform="translate(0,385.63)" style="stroke: rgb(68, 68, 68); stroke-opacity: 1; stroke-width: 1px;"/><path class="y2tick ticks crisp" d="M105,0h-5" transform="translate(0,348.13)" style="stroke: rgb(68, 68, 68); stroke-opacity: 1; stroke-width: 1px;"/><g class="y2tick"><text text-anchor="end" x="95.6" y="7.699999999999999" transform="translate(0,498.15000000000003)" style="font-family: 'Open Sans', verdana, arial, sans-serif; font-size: 22px; fill: rgb(36, 36, 36); fill-opacity: 1; white-space: pre; opacity: 1;">2</text></g><g class="y2tick"><text text-anchor="end" x="95.6" y="7.699999999999999" style="font-family: 'Open Sans', verdana, arial, sans-serif; font-size: 22px; fill: rgb(36, 36, 36); fill-opacity: 1; white-space: pre; opacity: 1;" transform="translate(0,460.64)">4</text></g><g class="y2tick"><text text-anchor="end" x="95.6" y="7.699999999999999" style="font-family: 'Open Sans', verdana, arial, sans-serif; font-size: 22px; fill: rgb(36, 36, 36); fill-opacity: 1; white-space: pre; opacity: 1;" transform="translate(0,423.14000000000004)">6</text></g><g class="y2tick"><text text-anchor="end" x="95.6" y="7.699999999999999" style="font-family: 'Open Sans', verdana, arial, sans-serif; font-size: 22px; fill: rgb(36, 36, 36); fill-opacity: 1; white-space: pre; opacity: 1;" transform="translate(0,385.63)">8</text></g><g class="y2tick"><text text-anchor="end" x="95.6" y="7.699999999999999" style="font-family: 'Open Sans', verdana, arial, sans-serif; font-size: 22px; fill: rgb(36, 36, 36); fill-opacity: 1; white-space: pre; opacity: 1;" transform="translate(0,348.13)">10</text></g></g><g class="overaxes-above"/></g></g><g class="polarlayer"><g class="polar"><g class="polarsublayer draglayer"/><g class="polarsublayer plotbg"><path d="M207,0A207,207 0,1,0 -207,-2.535018874235021e-14A207,207 0,1,0 207,5.070037748470042e-14Z" transform="translate(939.015,261)" style="fill: rgb(255, 255, 255); fill-opacity: 1;"/></g><g class="polarsublayer backplot"><g class="maplayer"/></g><g class="polarsublayer angular-grid" style="fill: none;"><path class="angularaxisgrid" d="M939.015,261L1146.0149999999999,261" style="stroke: rgb(128, 128, 128); stroke-opacity: 1; stroke-width: 1px;"/><path class="angularaxisgrid" d="M939.015,261L1068.0773889847578,99.16088312911782" style="stroke: rgb(128, 128, 128); stroke-opacity: 1; stroke-width: 1px;"/><path class="angularaxisgrid" d="M939.015,261L892.9531666710429,59.18992217836251" style="stroke: rgb(128, 128, 128); stroke-opacity: 1; stroke-width: 1px;"/><path class="angularaxisgrid" d="M939.015,261L752.5144443441992,171.18606600266543" style="stroke: rgb(128, 128, 128); stroke-opacity: 1; stroke-width: 1px;"/><path class="angularaxisgrid" d="M939.015,261L752.5144443441992,350.8139339973345" style="stroke: rgb(128, 128, 128); stroke-opacity: 1; stroke-width: 1px;"/><path class="angularaxisgrid" d="M939.015,261L892.9531666710428,462.8100778216375" style="stroke: rgb(128, 128, 128); stroke-opacity: 1; stroke-width: 1px;"/><path class="angularaxisgrid" d="M939.015,261L1068.0773889847578,422.8391168708822" style="stroke: rgb(128, 128, 128); stroke-opacity: 1; stroke-width: 1px;"/></g><g class="polarsublayer radial-grid" transform="translate(939.015,261)" style="fill: none;"><path class="xgrid" d="M40.99,0A40.99,40.99 0,1,0 -40.99,-5.019827229705001e-15A40.99,40.99 0,1,0 40.99,1.0039654459410003e-14Z" style="stroke: rgb(128, 128, 128); stroke-opacity: 1; stroke-width: 1px;"/><path class="xgrid" d="M81.98,0A81.98,81.98 0,1,0 -81.98,-1.0039654459410003e-14A81.98,81.98 0,1,0 81.98,2.0079308918820006e-14Z" style="stroke: rgb(128, 128, 128); stroke-opacity: 1; stroke-width: 1px;"/><path class="xgrid" d="M122.97,0A122.97,122.97 0,1,0 -122.97,-1.5059481689115003e-14A122.97,122.97 0,1,0 122.97,3.0118963378230007e-14Z" style="stroke: rgb(128, 128, 128); stroke-opacity: 1; stroke-width: 1px;"/><path class="xgrid" d="M163.96,0A163.96,163.96 0,1,0 -163.96,-2.0079308918820006e-14A163.96,163.96 0,1,0 163.96,4.015861783764001e-14Z" style="stroke: rgb(128, 128, 128); stroke-opacity: 1; stroke-width: 1px;"/><path class="xgrid" d="M204.95,0A204.95,204.95 0,1,0 -204.95,-2.5099136148525e-14A204.95,204.95 0,1,0 204.95,5.019827229705e-14Z" style="stroke: rgb(128, 128, 128); stroke-opacity: 1; stroke-width: 1px;"/></g><g class="polarsublayer frontplot" transform="translate(732.015,54)"><g class="barlayer"/><g class="scatterlayer"><g class="trace scatter trace858cb0" style="stroke-miterlimit: 2; opacity: 1;"><g class="fills" clip-path="url(#clip3a2b1fpolar-for-traces)"/><g class="errorbars"/><g class="lines"><path class="js-line" d="M230.84,207L332.79,49.27L172.53,55.97L48.48,130.66L31.73,291.41L184.27,306.57L285.21,305.07L230.84,207" clip-path="url(#clip3a2b1fpolar-for-traces)" style="vector-effect: non-scaling-stroke; fill: none; stroke: rgb(51, 102, 204); stroke-opacity: 1; stroke-width: 3px; opacity: 1;"/></g><g class="points"><path class="point" transform="translate(230.84,207)" d="M5,0A5,5 0 1,1 0,-5A5,5 0 0,1 5,0Z" style="opacity: 1; stroke-width: 0px; fill: rgb(51, 102, 204); fill-opacity: 1;"/><path class="point" transform="translate(332.79,49.27)" d="M5,0A5,5 0 1,1 0,-5A5,5 0 0,1 5,0Z" style="opacity: 1; stroke-width: 0px; fill: rgb(51, 102, 204); fill-opacity: 1;"/><path class="point" transform="translate(172.53,55.97)" d="M5,0A5,5 0 1,1 0,-5A5,5 0 0,1 5,0Z" style="opacity: 1; stroke-width: 0px; fill: rgb(51, 102, 204); fill-opacity: 1;"/><path class="point" transform="translate(48.48,130.66)" d="M5,0A5,5 0 1,1 0,-5A5,5 0 0,1 5,0Z" style="opacity: 1; stroke-width: 0px; fill: rgb(51, 102, 204); fill-opacity: 1;"/><path class="point" transform="translate(31.73,291.41)" d="M5,0A5,5 0 1,1 0,-5A5,5 0 0,1 5,0Z" style="opacity: 1; stroke-width: 0px; fill: rgb(51, 102, 204); fill-opacity: 1;"/><path class="point" transform="translate(184.27,306.57)" d="M5,0A5,5 0 1,1 0,-5A5,5 0 0,1 5,0Z" style="opacity: 1; stroke-width: 0px; fill: rgb(51, 102, 204); fill-opacity: 1;"/><path class="point" transform="translate(285.21,305.07)" d="M5,0A5,5 0 1,1 0,-5A5,5 0 0,1 5,0Z" style="opacity: 1; stroke-width: 0px; fill: rgb(51, 102, 204); fill-opacity: 1;"/><path class="point" transform="translate(230.84,207)" d="M5,0A5,5 0 1,1 0,-5A5,5 0 0,1 5,0Z" style="opacity: 1; stroke-width: 0px; fill: rgb(51, 102, 204); fill-opacity: 1;"/></g><g class="text"/></g><g class="trace scatter traced2e71c" style="stroke-miterlimit: 2; opacity: 1;"><g class="fills" clip-path="url(#clip3a2b1fpolar-for-traces)"/><g class="errorbars"/><g class="lines"><path class="js-line" d="M257.38,207L325.11,58.9L173.14,58.64L46.25,129.58L40.9,286.99L184.27,306.57L284.35,304L257.38,207" clip-path="url(#clip3a2b1fpolar-for-traces)" style="vector-effect: non-scaling-stroke; fill: none; stroke: rgb(220, 57, 18); stroke-opacity: 1; stroke-width: 3px; opacity: 1;"/></g><g class="points"><path class="point" transform="translate(257.38,207)" d="M5,0A5,5 0 1,1 0,-5A5,5 0 0,1 5,0Z" style="opacity: 1; stroke-width: 0px; fill: rgb(220, 57, 18); fill-opacity: 1;"/><path class="point" transform="translate(325.11,58.9)" d="M5,0A5,5 0 1,1 0,-5A5,5 0 0,1 5,0Z" style="opacity: 1; stroke-width: 0px; fill: rgb(220, 57, 18); fill-opacity: 1;"/><path class="point" transform="translate(173.14,58.64)" d="M5,0A5,5 0 1,1 0,-5A5,5 0 0,1 5,0Z" style="opacity: 1; stroke-width: 0px; fill: rgb(220, 57, 18); fill-opacity: 1;"/><path class="point" transform="translate(46.25,129.58)" d="M5,0A5,5 0 1,1 0,-5A5,5 0 0,1 5,0Z" style="opacity: 1; stroke-width: 0px; fill: rgb(220, 57, 18); fill-opacity: 1;"/><path class="point" transform="translate(40.9,286.99)" d="M5,0A5,5 0 1,1 0,-5A5,5 0 0,1 5,0Z" style="opacity: 1; stroke-width: 0px; fill: rgb(220, 57, 18); fill-opacity: 1;"/><path class="point" transform="translate(184.27,306.57)" d="M5,0A5,5 0 1,1 0,-5A5,5 0 0,1 5,0Z" style="opacity: 1; stroke-width: 0px; fill: rgb(220, 57, 18); fill-opacity: 1;"/><path class="point" transform="translate(284.35,304)" d="M5,0A5,5 0 1,1 0,-5A5,5 0 0,1 5,0Z" style="opacity: 1; stroke-width: 0px; fill: rgb(220, 57, 18); fill-opacity: 1;"/><path class="point" transform="translate(257.38,207)" d="M5,0A5,5 0 1,1 0,-5A5,5 0 0,1 5,0Z" style="opacity: 1; stroke-width: 0px; fill: rgb(220, 57, 18); fill-opacity: 1;"/></g><g class="text"/></g><g class="trace scatter trace1eba21" style="stroke-miterlimit: 2; opacity: 1;"><g class="fills" clip-path="url(#clip3a2b1fpolar-for-traces)"/><g class="errorbars"/><g class="lines"><path class="js-line" d="M310.85,207L314.54,72.15L163.38,15.88L41.35,127.23L46.14,284.47L184.27,306.57L285.21,305.07L310.85,207" clip-path="url(#clip3a2b1fpolar-for-traces)" style="vector-effect: non-scaling-stroke; fill: none; stroke: rgb(255, 153, 0); stroke-opacity: 1; stroke-width: 3px; opacity: 1;"/></g><g class="points"><path class="point" transform="translate(310.85,207)" d="M5,0A5,5 0 1,1 0,-5A5,5 0 0,1 5,0Z" style="opacity: 1; stroke-width: 0px; fill: rgb(255, 153, 0); fill-opacity: 1;"/><path class="point" transform="translate(314.54,72.15)" d="M5,0A5,5 0 1,1 0,-5A5,5 0 0,1 5,0Z" style="opacity: 1; stroke-width: 0px; fill: rgb(255, 153, 0); fill-opacity: 1;"/><path class="point" transform="translate(163.38,15.88)" d="M5,0A5,5 0 1,1 0,-5A5,5 0 0,1 5,0Z" style="opacity: 1; stroke-width: 0px; fill: rgb(255, 153, 0); fill-opacity: 1;"/><path class="point" transform="translate(41.35,127.23)" d="M5,0A5,5 0 1,1 0,-5A5,5 0 0,1 5,0Z" style="opacity: 1; stroke-width: 0px; fill: rgb(255, 153, 0); fill-opacity: 1;"/><path class="point" transform="translate(46.14,284.47)" d="M5,0A5,5 0 1,1 0,-5A5,5 0 0,1 5,0Z" style="opacity: 1; stroke-width: 0px; fill: rgb(255, 153, 0); fill-opacity: 1;"/><path class="point" transform="translate(184.27,306.57)" d="M5,0A5,5 0 1,1 0,-5A5,5 0 0,1 5,0Z" style="opacity: 1; stroke-width: 0px; fill: rgb(255, 153, 0); fill-opacity: 1;"/><path class="point" transform="translate(285.21,305.07)" d="M5,0A5,5 0 1,1 0,-5A5,5 0 0,1 5,0Z" style="opacity: 1; stroke-width: 0px; fill: rgb(255, 153, 0); fill-opacity: 1;"/><path class="point" transform="translate(310.85,207)" d="M5,0A5,5 0 1,1 0,-5A5,5 0 0,1 5,0Z" style="opacity: 1; stroke-width: 0px; fill: rgb(255, 153, 0); fill-opacity: 1;"/></g><g class="text"/></g></g></g><g class="polarsublayer angular-line"><path display="none" style="fill: none; stroke: rgb(0, 0, 0); stroke-opacity: 1;"/></g><g class="polarsublayer radial-line"><line x1="0" y1="0" x2="207" y2="0" transform="translate(939.015,261)" stroke-width="1" style="fill: none; stroke: rgb(36, 36, 36); stroke-opacity: 1;"/></g><g class="polarsublayer angular-axis"><path class="angularaxistick ticks" d="M0.5,0h5" transform="translate(1146.0149999999999,261)" style="stroke: rgb(68, 68, 68); stroke-opacity: 1; stroke-width: 1px;"/><path class="angularaxistick ticks" d="M0.5,0h5" transform="translate(1068.0773889847578,99.16088312911782)rotate(-51.42857142857142)" style="stroke: rgb(68, 68, 68); stroke-opacity: 1; stroke-width: 1px;"/><path class="angularaxistick ticks" d="M0.5,0h5" transform="translate(892.9531666710429,59.18992217836251)rotate(-102.85714285714285)" style="stroke: rgb(68, 68, 68); stroke-opacity: 1; stroke-width: 1px;"/><path class="angularaxistick ticks" d="M0.5,0h5" transform="translate(752.5144443441992,171.18606600266543)rotate(-154.28571428571428)" style="stroke: rgb(68, 68, 68); stroke-opacity: 1; stroke-width: 1px;"/><path class="angularaxistick ticks" d="M0.5,0h5" transform="translate(752.5144443441992,350.8139339973345)rotate(-205.7142857142857)" style="stroke: rgb(68, 68, 68); stroke-opacity: 1; stroke-width: 1px;"/><path class="angularaxistick ticks" d="M0.5,0h5" transform="translate(892.9531666710428,462.8100778216375)rotate(-257.14285714285717)" style="stroke: rgb(68, 68, 68); stroke-opacity: 1; stroke-width: 1px;"/><path class="angularaxistick ticks" d="M0.5,0h5" transform="translate(1068.0773889847578,422.8391168708822)rotate(-308.57142857142856)" style="stroke: rgb(68, 68, 68); stroke-opacity: 1; stroke-width: 1px;"/><g class="angularaxistick"><text text-anchor="start" x="9.9" y="7.699999999999999" transform="translate(1146.0149999999999,261)translate(0,-14.3)" style="font-family: 'Open Sans', verdana, arial, sans-serif; font-size: 22px; fill: rgb(36, 36, 36); fill-opacity: 1; white-space: pre; opacity: 1;"><tspan class="line" dy="0em" x="9.9" y="7.699999999999999">Proximity</tspan><tspan class="line" dy="1.3em" x="9.9" y="7.699999999999999">of q​<tspan style="font-size:70%" dy="0.3em">0</tspan><tspan dy="-0.21em">​</tspan> to q​<tspan style="font-size:70%" dy="0.3em">min</tspan><tspan dy="-0.21em">​</tspan></tspan></text></g><g class="angularaxistick"><text text-anchor="start" x="6.1725490384014625" y="-6.379318724980579" transform="translate(1068.0773889847578,99.16088312911782)translate(0,-25.480190199292828)" style="font-family: 'Open Sans', verdana, arial, sans-serif; font-size: 22px; fill: rgb(36, 36, 36); fill-opacity: 1; white-space: pre; opacity: 1;"><tspan class="line" dy="0em" x="6.1725490384014625" y="-6.379318724980579">Proximity of</tspan><tspan class="line" dy="1.3em" x="6.1725490384014625" y="-6.379318724980579">q​<tspan style="font-size:70%" dy="0.3em">min</tspan><tspan dy="-0.21em">​</tspan> to 2.2</tspan></text></g><g class="angularaxistick"><text text-anchor="end" x="-2.202957246167512" y="-12.228057952736458" transform="translate(892.9531666710429,59.18992217836251)translate(0,-28.241469144200078)" style="font-family: 'Open Sans', verdana, arial, sans-serif; font-size: 22px; fill: rgb(36, 36, 36); fill-opacity: 1; white-space: pre; opacity: 1;"><tspan class="line" dy="0em" x="-2.202957246167512" y="-12.228057952736458">Proximity of</tspan><tspan class="line" dy="1.3em" x="-2.202957246167512" y="-12.228057952736458">q​<tspan style="font-size:70%" dy="0.3em">min</tspan><tspan dy="-0.21em">​</tspan> to centre</tspan></text></g><g class="angularaxistick"><text text-anchor="end" x="-8.919591792233948" y="0.7329228134675434" transform="translate(752.5144443441992,171.18606600266543)translate(0,-20.504537469381084)" style="font-family: 'Open Sans', verdana, arial, sans-serif; font-size: 22px; fill: rgb(36, 36, 36); fill-opacity: 1; white-space: pre; opacity: 1;"><tspan class="line" dy="0em" x="-8.919591792233948" y="0.7329228134675434">Monotonicity</tspan><tspan class="line" dy="1.3em" x="-8.919591792233948" y="0.7329228134675434">of q</tspan></text></g><g class="angularaxistick"><text text-anchor="end" x="-8.91959179223395" y="20.778351560698727" transform="translate(752.5144443441992,350.8139339973345)translate(0,-8.09546253061892)" style="font-family: 'Open Sans', verdana, arial, sans-serif; font-size: 22px; fill: rgb(36, 36, 36); fill-opacity: 1; white-space: pre; opacity: 1;"><tspan class="line" dy="0em" x="-8.91959179223395" y="20.778351560698727">Monotonicity</tspan><tspan class="line" dy="1.3em" x="-8.91959179223395" y="20.778351560698727">of ∇q</tspan></text></g><g class="angularaxistick"><text text-anchor="end" x="-2.2029572461675144" y="32.81361159006379" transform="translate(892.9531666710428,462.8100778216375)translate(0,-0.3585308557999223)" style="font-family: 'Open Sans', verdana, arial, sans-serif; font-size: 22px; fill: rgb(36, 36, 36); fill-opacity: 1; white-space: pre; opacity: 1;"><tspan class="line" dy="0em" x="-2.2029572461675144" y="32.81361159006379">Location</tspan><tspan class="line" dy="1.3em" x="-2.2029572461675144" y="32.81361159006379">of q = 3</tspan></text></g><g class="angularaxistick"><text text-anchor="start" x="6.172549038401461" y="29.7412957650424" transform="translate(1068.0773889847578,422.8391168708822)translate(0,-3.119809800707172)" style="font-family: 'Open Sans', verdana, arial, sans-serif; font-size: 22px; fill: rgb(36, 36, 36); fill-opacity: 1; white-space: pre; opacity: 1;"><tspan class="line" dy="0em" x="6.172549038401461" y="29.7412957650424">Location</tspan><tspan class="line" dy="1.3em" x="6.172549038401461" y="29.7412957650424">of q = 4</tspan></text></g></g><g class="polarsublayer radial-axis" transform="translate(939.015,261)"><path class="xtick ticks" d="M0,0.5v5" transform="" style="stroke: rgb(68, 68, 68); stroke-opacity: 1; stroke-width: 1px;"/><path class="xtick ticks" d="M0,0.5v5" transform="translate(40.99,0)" style="stroke: rgb(68, 68, 68); stroke-opacity: 1; stroke-width: 1px;"/><path class="xtick ticks" d="M0,0.5v5" transform="translate(81.98,0)" style="stroke: rgb(68, 68, 68); stroke-opacity: 1; stroke-width: 1px;"/><path class="xtick ticks" d="M0,0.5v5" transform="translate(122.97,0)" style="stroke: rgb(68, 68, 68); stroke-opacity: 1; stroke-width: 1px;"/><path class="xtick ticks" d="M0,0.5v5" transform="translate(163.96,0)" style="stroke: rgb(68, 68, 68); stroke-opacity: 1; stroke-width: 1px;"/><path class="xtick ticks" d="M0,0.5v5" transform="translate(204.95,0)" style="stroke: rgb(68, 68, 68); stroke-opacity: 1; stroke-width: 1px;"/><g class="xtick"><text text-anchor="middle" x="0" y="31.9" transform="" style="font-family: 'Open Sans', verdana, arial, sans-serif; font-size: 22px; fill: rgb(36, 36, 36); fill-opacity: 1; white-space: pre; opacity: 1;">0</text></g><g class="xtick"><text text-anchor="middle" x="0" y="31.9" transform="translate(40.99,0)" style="font-family: 'Open Sans', verdana, arial, sans-serif; font-size: 22px; fill: rgb(36, 36, 36); fill-opacity: 1; white-space: pre; opacity: 1;">0.2</text></g><g class="xtick"><text text-anchor="middle" x="0" y="31.9" transform="translate(81.98,0)" style="font-family: 'Open Sans', verdana, arial, sans-serif; font-size: 22px; fill: rgb(36, 36, 36); fill-opacity: 1; white-space: pre; opacity: 1;">0.4</text></g><g class="xtick"><text text-anchor="middle" x="0" y="31.9" transform="translate(122.97,0)" style="font-family: 'Open Sans', verdana, arial, sans-serif; font-size: 22px; fill: rgb(36, 36, 36); fill-opacity: 1; white-space: pre; opacity: 1;">0.6</text></g><g class="xtick"><text text-anchor="middle" x="0" y="31.9" transform="translate(163.96,0)" style="font-family: 'Open Sans', verdana, arial, sans-serif; font-size: 22px; fill: rgb(36, 36, 36); fill-opacity: 1; white-space: pre; opacity: 1;">0.8</text></g><g class="xtick"><text text-anchor="middle" x="0" y="31.9" transform="translate(204.95,0)" style="font-family: 'Open Sans', verdana, arial, sans-serif; font-size: 22px; fill: rgb(36, 36, 36); fill-opacity: 1; white-space: pre; opacity: 1;">1</text></g></g></g></g><g class="smithlayer"/><g class="ternarylayer"/><g class="geolayer"/><g class="funnelarealayer"/><g class="pielayer"/><g class="iciclelayer"/><g class="treemaplayer"/><g class="sunburstlayer"/><g class="glimages"/><defs id="topdefs-3a2b1f"><g class="clips"/><clipPath id="legend3a2b1f"><rect width="506" height="42" x="0" y="0"/></clipPath></defs><g class="layer-above"><g class="imagelayer"/><g class="shapelayer"/></g><g class="infolayer"><g class="legend" pointer-events="all" transform="translate(108,12)"><rect class="bg" shape-rendering="crispEdges" style="stroke: rgb(68, 68, 68); stroke-opacity: 1; fill: rgb(255, 255, 255); fill-opacity: 1; stroke-width: 0px;" width="506" height="42" x="0" y="0"/><g class="scrollbox" transform="" clip-path="url(#legend3a2b1f)"><g class="groups" transform=""><g class="traces" transform="translate(0,20.8)" style="opacity: 1;"><text class="legendtext" text-anchor="start" x="40" y="8.58" style="font-family: 'Open Sans', verdana, arial, sans-serif; font-size: 22px; fill: rgb(36, 36, 36); fill-opacity: 1; white-space: pre;">Solution 1/8</text><g class="layers" style="opacity: 1;"><g class="legendfill"/><g class="legendlines"><path class="js-line" d="M5,0h30" style="fill: none; stroke: rgb(51, 102, 204); stroke-opacity: 1; stroke-width: 3px;"/></g><g class="legendsymbols"><g class="legendpoints"/></g></g><rect class="legendtoggle" x="0" y="-15.8" width="166.015625" height="31.6" style="fill: rgb(0, 0, 0); fill-opacity: 0;"/></g></g><g class="groups" transform="translate(168.515625,0)"><g class="traces" transform="translate(0,20.8)" style="opacity: 1;"><text class="legendtext" text-anchor="start" x="40" y="8.58" style="font-family: 'Open Sans', verdana, arial, sans-serif; font-size: 22px; fill: rgb(36, 36, 36); fill-opacity: 1; white-space: pre;">Solution 5/8</text><g class="layers" style="opacity: 1;"><g class="legendfill"/><g class="legendlines"><path class="js-line" d="M5,0h30" style="fill: none; stroke: rgb(220, 57, 18); stroke-opacity: 1; stroke-width: 3px;"/></g><g class="legendsymbols"><g class="legendpoints"/></g></g><rect class="legendtoggle" x="0" y="-15.8" width="166.015625" height="31.6" style="fill: rgb(0, 0, 0); fill-opacity: 0;"/></g></g><g class="groups" transform="translate(337.03125,0)"><g class="traces" transform="translate(0,20.8)" style="opacity: 1;"><text class="legendtext" text-anchor="start" x="40" y="8.58" style="font-family: 'Open Sans', verdana, arial, sans-serif; font-size: 22px; fill: rgb(36, 36, 36); fill-opacity: 1; white-space: pre;">Solution 8/8</text><g class="layers" style="opacity: 1;"><g class="legendfill"/><g class="legendlines"><path class="js-line" d="M5,0h30" style="fill: none; stroke: rgb(255, 153, 0); stroke-opacity: 1; stroke-width: 3px;"/></g><g class="legendsymbols"><g class="legendpoints"/></g></g><rect class="legendtoggle" x="0" y="-15.8" width="166.015625" height="31.6" style="fill: rgb(0, 0, 0); fill-opacity: 0;"/></g></g></g><rect class="scrollbar" rx="20" ry="3" width="0" height="0" style="fill: rgb(128, 139, 164); fill-opacity: 1;" x="0" y="0"/></g><g class="g-gtitle"/><g class="g-polartitle"/><g class="g-xtitle"/><g class="g-x2title"><text class="x2title" x="338.985" y="586.10625" text-anchor="middle" style="font-family: 'Open Sans', verdana, arial, sans-serif; font-size: 26px; fill: rgb(36, 36, 36); opacity: 1; font-weight: normal; white-space: pre;">Normalised radius</text></g><g class="g-ytitle" transform="translate(14.994140625,0)"><text class="ytitle" transform="rotate(-90,13.018749999999997,155.2)" x="13.018749999999997" y="155.2" text-anchor="middle" style="font-family: 'Open Sans', verdana, arial, sans-serif; font-size: 26px; fill: rgb(36, 36, 36); opacity: 1; font-weight: normal; white-space: pre;">QECE [W]</text></g><g class="g-y2title"><text class="y2title" transform="rotate(-90,38.7375,412.8)" x="38.7375" y="412.8" text-anchor="middle" style="font-family: 'Open Sans', verdana, arial, sans-serif; font-size: 26px; fill: rgb(36, 36, 36); opacity: 1; font-weight: normal; white-space: pre;">Safety factor</text></g><g class="annotation" data-index="0" style="opacity: 1;"><g class="annotation-text-g" transform="rotate(0,955.1600000000001,572.1999999999999)"><g class="cursor-pointer" transform="translate(815,552)"><rect class="bg" x="0.5" y="0.5" width="280" height="39" style="stroke-width: 1px; stroke: rgb(0, 0, 0); stroke-opacity: 0; fill: rgb(0, 0, 0); fill-opacity: 0;"/><text class="annotation-text" text-anchor="middle" x="140.5" y="30" style="font-family: 'Open Sans', verdana, arial, sans-serif; font-size: 26px; fill: rgb(36, 36, 36); fill-opacity: 1; white-space: pre;">Vector objective values</text></g></g></g></g></svg>