<svg class="main-svg" xmlns="http://www.w3.org/2000/svg" xmlns:xlink="http://www.w3.org/1999/xlink" width="1280" height="600" style="" viewBox="0 0 1280 600"><rect x="0" y="0" width="1280" height="600" style="fill: rgb(255, 255, 255); fill-opacity: 1;"/><defs id="defs-cd426a"><g class="clips"><clipPath id="clipcd426axyplot" class="plotclip"><rect width="500.25000000000006" height="202.39999999999998"/></clipPath><clipPath id="clipcd426ax3y3plot" class="plotclip"><rect width="500.25000000000006" height="202.4"/></clipPath><clipPath class="axesclip" id="clipcd426ax"><rect x="759.7499999999999" y="0" width="500.25000000000006" height="600"/></clipPath><clipPath class="axesclip" id="clipcd426ay"><rect x="0" y="54" width="1280" height="202.39999999999998"/></clipPath><clipPath class="axesclip" id="clipcd426axy"><rect x="759.7499999999999" y="54" width="500.25000000000006" height="202.39999999999998"/></clipPath><clipPath class="axesclip" id="clipcd426ay3"><rect x="0" y="311.6" width="1280" height="202.4"/></clipPath><clipPath class="axesclip" id="clipcd426axy3"><rect x="759.7499999999999" y="311.6" width="500.25000000000006" height="202.4"/></clipPath><clipPath class="axesclip" id="clipcd426ax3"><rect x="759.7499999999999" y="0" width="500.25000000000006" height="600"/></clipPath><clipPath class="axesclip" id="clipcd426ax3y"><rect x="759.7499999999999" y="54" width="500.25000000000006" height="202.39999999999998"/></clipPath><clipPath class="axesclip" id="clipcd426ax3y3"><rect x="759.7499999999999" y="311.6" width="500.25000000000006" height="202.4"/></clipPath><clipPath id="clipcd426apolar-for-traces"><path d="M207,0A207,207 0,1,0 -207,-2.535018874235021e-14A207,207 0,1,0 207,5.070037748470042e-14Z" transform="translate(207,207)"/></clipPath></g><g class="gradients"/><g class="patterns"/></defs><g class="bglayer"/><g class="layer-below"><g class="imagelayer"/><g class="shapelayer"/></g><g class="cartesianlayer"><g class="subplot xy"><g class="layer-subplot"><g class="shapelayer"/><g class="imagelayer"/></g><g class="minor-gridlayer"><g class="x"/><g class="y"/></g><g class="gridlayer"><g class="x"/><g class="y"/></g><g class="zerolinelayer"/><path class="xlines-below"/><path class="ylines-below"/><g class="overlines-below"/><g class="xaxislayer-below"/><g class="yaxislayer-below"/><g class="overaxes-below"/><g class="plot" transform="translate(759.7499999999999,54)" clip-path="url(#clipcd426axyplot)"><g class="scatterlayer mlayer"><g class="trace scatter trace10971a" style="stroke-miterlimit: 2; opacity: 1;"><g class="fills"/><g class="errorbars"/><g class="lines"><path class="js-line" d="M0,58.11L13.43,58.63L16.79,59.03L26.86,61.54L30.22,62.95L36.93,66.74L40.29,69.13L50.36,77.99L53.72,81.36L77.22,105.04L80.58,107.87L90.65,115.05L94.01,117.01L104.08,121.74L107.44,122.99L120.87,126.87L124.22,127.63L154.44,133.28L157.8,133.91L184.66,139.84L188.01,140.71L214.87,148.65L218.23,149.74L288.73,172.63L292.09,173.56L318.95,180.08L322.31,180.77L345.81,184.86L349.17,185.35L379.38,188.68L382.74,188.95L419.67,190.97L423.03,191.09L480.11,192.07L483.46,192.09L500.25,192.28" style="vector-effect: non-scaling-stroke; fill: none; stroke: rgb(51, 102, 204); stroke-opacity: 1; stroke-width: 3px; opacity: 1;"/></g><g class="points"/><g class="text"/></g><g class="trace scatter tracebcbe9b" style="stroke-miterlimit: 2; opacity: 1;"><g class="fills"/><g class="errorbars"/><g class="lines"><path class="js-line" d="M0,26.18L6.71,28.67L10.07,31.13L16.79,38.35L20.14,43.02L26.86,54.14L30.22,60.41L57.08,112.7L60.43,118.02L67.15,127.1L70.51,130.78L77.22,136.31L80.58,138.13L87.29,139.87L90.65,139.85L97.36,138.31L100.72,136.95L120.87,127.81L124.22,127.19L130.94,127.42L134.3,128.29L141.01,131.44L144.37,133.6L171.23,153.07L174.58,154.66L181.3,156.9L184.66,157.56L194.73,157.98L198.09,157.71L214.87,154.86L218.23,154.2L235.02,151.62L238.37,151.33L251.8,151.12L255.16,151.32L268.59,153.08L271.95,153.75L288.73,158.22L292.09,159.29L318.95,168.95L322.31,170.19L349.17,179.22L352.53,180.18L372.67,185.04L376.03,185.69L396.17,188.73L399.53,189.11L426.39,191.09L429.74,191.24L470.03,192.11L473.39,192.14L500.25,192.28" style="vector-effect: non-scaling-stroke; fill: none; stroke: rgb(220, 57, 18); stroke-opacity: 1; stroke-width: 3px; opacity: 1;"/></g><g class="points"/><g class="text"/></g><g class="trace scatter trace798890" style="stroke-miterlimit: 2; opacity: 1;"><g class="fills"/><g class="errorbars"/><g class="lines"><path class="js-line" d="M0,10.12L3.36,13.84L6.71,20.66L13.43,42.21L16.79,55.39L30.22,107.48L33.57,117.82L40.29,133.93L43.65,139.84L50.36,148.14L53.72,150.93L60.43,154.67L63.79,155.89L73.86,158.11L77.22,158.56L130.94,164.47L134.3,165.04L151.08,167.28L154.44,167.06L157.8,166.2L161.15,164.37L164.51,161.14L167.87,156.06L171.23,148.65L174.58,138.53L181.3,110.07L184.66,92.59L194.73,41.8L198.09,30.94L201.44,25.59L204.8,26.48L208.16,33.56L211.52,46.08L218.23,81.62L221.59,101.21L228.3,136.59L231.66,150.62L235.02,161.82L238.37,170.31L241.73,176.47L245.09,180.77L251.8,185.6L255.16,186.87L265.23,188.76L268.59,189.11L295.45,190.81L298.81,190.95L329.02,191.29L332.38,191.1L342.45,189.83L345.81,189.07L355.88,185.39L359.24,183.64L369.31,176.98L372.67,174.46L382.74,167.26L386.1,165.35L392.81,162.9L396.17,162.51L402.89,163.47L406.24,164.79L412.96,168.69L416.32,171.08L433.1,183.08L436.46,184.95L446.53,188.99L449.89,189.86L459.96,191.43L463.32,191.7L483.46,192.24L486.82,192.26L500.25,192.28" style="vector-effect: non-scaling-stroke; fill: none; stroke: rgb(255, 153, 0); stroke-opacity: 1; stroke-width: 3px; opacity: 1;"/></g><g class="points"/><g class="text"/></g></g></g><g class="overplot"/><path class="xlines-above crisp" d="M756.7499999999999,257.9H1260" style="fill: none; stroke-width: 3px; stroke: rgb(36, 36, 36); stroke-opacity: 1;"/><path class="ylines-above crisp" d="M758.2499999999999,54V256.4" style="fill: none; stroke-width: 3px; stroke: rgb(36, 36, 36); stroke-opacity: 1;"/><g class="overlines-above"/><g class="xaxislayer-above"><path class="xtick ticks crisp" d="M0,259.4v5" transform="translate(759.7499999999999,0)" style="stroke: rgb(68, 68, 68); stroke-opacity: 1; stroke-width: 1px;"/><path class="xtick ticks crisp" d="M0,259.4v5" transform="translate(859.7999999999998,0)" style="stroke: rgb(68, 68, 68); stroke-opacity: 1; stroke-width: 1px;"/><path class="xtick ticks crisp" d="M0,259.4v5" transform="translate(959.8499999999999,0)" style="stroke: rgb(68, 68, 68); stroke-opacity: 1; stroke-width: 1px;"/><path class="xtick ticks crisp" d="M0,259.4v5" transform="translate(1059.8999999999999,0)" style="stroke: rgb(68, 68, 68); stroke-opacity: 1; stroke-width: 1px;"/><path class="xtick ticks crisp" d="M0,259.4v5" transform="translate(1159.9499999999998,0)" style="stroke: rgb(68, 68, 68); stroke-opacity: 1; stroke-width: 1px;"/><path class="xtick ticks crisp" d="M0,259.4v5" transform="translate(1260,0)" style="stroke: rgb(68, 68, 68); stroke-opacity: 1; stroke-width: 1px;"/><g class="xtick"><text text-anchor="middle" x="0" y="290.79999999999995" transform="translate(759.7499999999999,0)" style="font-family: 'Open Sans', verdana, arial, sans-serif; font-size: 22px; fill: rgb(36, 36, 36); fill-opacity: 1; white-space: pre; opacity: 1;">0</text></g><g class="xtick"><text text-anchor="middle" x="0" y="290.79999999999995" style="font-family: 'Open Sans', verdana, arial, sans-serif; font-size: 22px; fill: rgb(36, 36, 36); fill-opacity: 1; white-space: pre; opacity: 1;" transform="translate(859.7999999999998,0)">0.2</text></g><g class="xtick"><text text-anchor="middle" x="0" y="290.79999999999995" style="font-family: 'Open Sans', verdana, arial, sans-serif; font-size: 22px; fill: rgb(36, 36, 36); fill-opacity: 1; white-space: pre; opacity: 1;" transform="translate(959.8499999999999,0)">0.4</text></g><g class="xtick"><text text-anchor="middle" x="0" y="290.79999999999995" style="font-family: 'Open Sans', verdana, arial, sans-serif; font-size: 22px; fill: rgb(36, 36, 36); fill-opacity: 1; white-space: pre; opacity: 1;" transform="translate(1059.8999999999999,0)">0.6</text></g><g class="xtick"><text text-anchor="middle" x="0" y="290.79999999999995" style="font-family: 'Open Sans', verdana, arial, sans-serif; font-size: 22px; fill: rgb(36, 36, 36); fill-opacity: 1; white-space: pre; opacity: 1;" transform="translate(1159.9499999999998,0)">0.8</text></g><g class="xtick"><text text-anchor="middle" x="0" y="290.79999999999995" style="font-family: 'Open Sans', verdana, arial, sans-serif; font-size: 22px; fill: rgb(36, 36, 36); fill-opacity: 1; white-space: pre; opacity: 1;" transform="translate(1260,0)">1</text></g></g><g class="yaxislayer-above"><path class="ytick ticks crisp" d="M756.7499999999999,0h-5" transform="translate(0,246.28)" style="stroke: rgb(68, 68, 68); stroke-opacity: 1; stroke-width: 1px;"/><path class="ytick ticks crisp" d="M756.7499999999999,0h-5" transform="translate(0,178.99)" style="stroke: rgb(68, 68, 68); stroke-opacity: 1; stroke-width: 1px;"/><path class="ytick ticks crisp" d="M756.7499999999999,0h-5" transform="translate(0,111.69)" style="stroke: rgb(68, 68, 68); stroke-opacity: 1; stroke-width: 1px;"/><g class="ytick"><text text-anchor="end" x="747.3499999999999" y="7.699999999999999" transform="translate(0,246.28)" style="font-family: 'Open Sans', verdana, arial, sans-serif; font-size: 22px; fill: rgb(36, 36, 36); fill-opacity: 1; white-space: pre; opacity: 1;">0</text></g><g class="ytick"><text text-anchor="end" x="747.3499999999999" y="7.699999999999999" style="font-family: 'Open Sans', verdana, arial, sans-serif; font-size: 22px; fill: rgb(36, 36, 36); fill-opacity: 1; white-space: pre; opacity: 1;" transform="translate(0,178.99)">0.5M</text></g><g class="ytick"><text text-anchor="end" x="747.3499999999999" y="7.699999999999999" style="font-family: 'Open Sans', verdana, arial, sans-serif; font-size: 22px; fill: rgb(36, 36, 36); fill-opacity: 1; white-space: pre; opacity: 1;" transform="translate(0,111.69)">1M</text></g></g><g class="overaxes-above"/></g><g class="subplot x3y3"><g class="layer-subplot"><g class="shapelayer"/><g class="imagelayer"/></g><g class="minor-gridlayer"><g class="x3"/><g class="y3"/></g><g class="gridlayer"><g class="x3"/><g class="y3"/></g><g class="zerolinelayer"/><path class="xlines-below"/><path class="ylines-below"/><g class="overlines-below"/><g class="xaxislayer-below"/><g class="yaxislayer-below"/><g class="overaxes-below"/><g class="plot" transform="translate(759.7499999999999,311.6)" clip-path="url(#clipcd426ax3y3plot)"><g class="scatterlayer mlayer"><g class="trace scatter trace33e3bd" style="stroke-miterlimit: 2; opacity: 1;"><g class="fills"/><g class="errorbars"/><g class="lines"><path class="js-line" d="M0,152.75L3.36,156.38L6.71,166.04L10.07,172.53L13.43,176.58L16.79,179.32L20.14,181.01L26.86,182.9L30.22,183.43L43.65,184.38L47,184.43L67.15,183.83L70.51,183.58L117.51,179.21L120.87,178.88L177.94,172.68L181.3,172.24L214.87,167.09L218.23,166.5L255.16,159.03L258.52,158.26L288.73,150.59L292.09,149.65L322.31,140.34L325.67,139.21L352.53,129.12L355.88,127.72L376.03,118.57L379.38,116.9L399.53,105.8L402.89,103.75L419.67,92.34L423.03,89.85L436.46,78.71L439.82,75.5L459.96,55.77L463.32,52.93L476.75,41.88L480.11,38.44L490.18,25.6L493.54,20.82L500.25,10.12" style="vector-effect: non-scaling-stroke; fill: none; stroke: rgb(51, 102, 204); stroke-opacity: 1; stroke-width: 3px; opacity: 1;"/></g><g class="points"/><g class="text"/></g><g class="trace scatter trace1d7714" style="stroke-miterlimit: 2; opacity: 1;"><g class="fills"/><g class="errorbars"/><g class="lines"/><g class="points"><path class="point" transform="translate(50.36,184.44)" d="M5,0A5,5 0 1,1 0,-5A5,5 0 0,1 5,0Z" style="opacity: 1; stroke-width: 0px; fill: rgb(51, 102, 204); fill-opacity: 1;"/></g><g class="text"/></g><g class="trace scatter trace83cdab" style="stroke-miterlimit: 2; opacity: 1;"><g class="fills"/><g class="errorbars"/><g class="lines"><path class="js-line" d="M0,166.52L3.36,170.03L6.71,177.09L10.07,181.01L13.43,183.41L20.14,185.65L23.5,185.97L33.57,185.59L36.93,185.18L57.08,181.42L60.43,180.69L87.29,175.34L90.65,174.88L107.44,173.62L110.79,173.54L151.08,172.48L154.44,172.19L174.58,169.57L177.94,169.05L261.88,154.85L265.23,154.22L298.81,146.98L302.16,146.15L325.67,139.6L329.02,138.56L352.53,130.32L355.88,129L376.03,120.26L379.38,118.64L399.53,107.85L402.89,105.85L419.67,94.7L423.03,92.23L436.46,81.36L439.82,78.27L476.75,42.81L480.11,39.57L493.54,24.58L496.89,20.45L500.25,15.59" style="vector-effect: non-scaling-stroke; fill: none; stroke: rgb(220, 57, 18); stroke-opacity: 1; stroke-width: 3px; opacity: 1;"/></g><g class="points"/><g class="text"/></g><g class="trace scatter trace336b03" style="stroke-miterlimit: 2; opacity: 1;"><g class="fills"/><g class="errorbars"/><g class="lines"/><g class="points"><path class="point" transform="translate(26.86,186.03)" d="M5,0A5,5 0 1,1 0,-5A5,5 0 0,1 5,0Z" style="opacity: 1; stroke-width: 0px; fill: rgb(220, 57, 18); fill-opacity: 1;"/></g><g class="text"/></g><g class="trace scatter tracef7eb5a" style="stroke-miterlimit: 2; opacity: 1;"><g class="fills"/><g class="errorbars"/><g class="lines"><path class="js-line" d="M0,168.18L3.36,171.87L6.71,177.93L10.07,180.7L13.43,182.16L16.79,182.6L20.14,182.18L26.86,179.94L30.22,178.38L50.36,168.31L53.72,167.11L67.15,163.69L70.51,163.14L83.93,162.18L87.29,162.08L151.08,160.36L154.44,160.11L174.58,159.27L177.94,159.51L188.01,161.24L191.37,162.11L211.52,167.11L214.87,167.44L224.94,167.28L228.3,166.89L241.73,164.17L245.09,163.3L275.31,154.45L278.66,153.42L315.59,141.14L318.95,139.93L349.17,128.37L352.53,127L399.53,106.89L402.89,105.27L416.32,98.03L419.67,95.98L433.1,86.68L436.46,84.01L446.53,74.94L449.89,71.61L483.46,38.66L486.82,35.42L496.89,25.33L500.25,21.17" style="vector-effect: non-scaling-stroke; fill: none; stroke: rgb(255, 153, 0); stroke-opacity: 1; stroke-width: 3px; opacity: 1;"/></g><g class="points"/><g class="text"/></g><g class="trace scatter trace4475c6" style="stroke-miterlimit: 2; opacity: 1;"><g class="fills"/><g class="errorbars"/><g class="lines"/><g class="points"><path class="point" transform="translate(16.79,182.6)" d="M5,0A5,5 0 1,1 0,-5A5,5 0 0,1 5,0Z" style="opacity: 1; stroke-width: 0px; fill: rgb(255, 153, 0); fill-opacity: 1;"/></g><g class="text"/></g></g></g><g class="overplot"/><path class="xlines-above crisp" d="M756.7499999999999,515.5H1260" style="fill: none; stroke-width: 3px; stroke: rgb(36, 36, 36); stroke-opacity: 1;"/><path class="ylines-above crisp" d="M758.2499999999999,311.6V514" style="fill: none; stroke-width: 3px; stroke: rgb(36, 36, 36); stroke-opacity: 1;"/><g class="overlines-above"/><g class="xaxislayer-above"><path class="x3tick ticks crisp" d="M0,517v5" transform="translate(759.7499999999999,0)" style="stroke: rgb(68, 68, 68); stroke-opacity: 1; stroke-width: 1px;"/><path class="x3tick ticks crisp" d="M0,517v5" transform="translate(859.7999999999998,0)" style="stroke: rgb(68, 68, 68); stroke-opacity: 1; stroke-width: 1px;"/><path class="x3tick ticks crisp" d="M0,517v5" transform="translate(959.8499999999999,0)" style="stroke: rgb(68, 68, 68); stroke-opacity: 1; stroke-width: 1px;"/><path class="x3tick ticks crisp" d="M0,517v5" transform="translate(1059.8999999999999,0)" style="stroke: rgb(68, 68, 68); stroke-opacity: 1; stroke-width: 1px;"/><path class="x3tick ticks crisp" d="M0,517v5" transform="translate(1159.9499999999998,0)" style="stroke: rgb(68, 68, 68); stroke-opacity: 1; stroke-width: 1px;"/><path class="x3tick ticks crisp" d="M0,517v5" transform="translate(1260,0)" style="stroke: rgb(68, 68, 68); stroke-opacity: 1; stroke-width: 1px;"/><g class="x3tick"><text text-anchor="middle" x="0" y="548.4" transform="translate(759.7499999999999,0)" style="font-family: 'Open Sans', verdana, arial, sans-serif; font-size: 22px; fill: rgb(36, 36, 36); fill-opacity: 1; white-space: pre; opacity: 1;">0</text></g><g class="x3tick"><text text-anchor="middle" x="0" y="548.4" style="font-family: 'Open Sans', verdana, arial, sans-serif; font-size: 22px; fill: rgb(36, 36, 36); fill-opacity: 1; white-space: pre; opacity: 1;" transform="translate(859.7999999999998,0)">0.2</text></g><g class="x3tick"><text text-anchor="middle" x="0" y="548.4" style="font-family: 'Open Sans', verdana, arial, sans-serif; font-size: 22px; fill: rgb(36, 36, 36); fill-opacity: 1; white-space: pre; opacity: 1;" transform="translate(959.8499999999999,0)">0.4</text></g><g class="x3tick"><text text-anchor="middle" x="0" y="548.4" style="font-family: 'Open Sans', verdana, arial, sans-serif; font-size: 22px; fill: rgb(36, 36, 36); fill-opacity: 1; white-space: pre; opacity: 1;" transform="translate(1059.8999999999999,0)">0.6</text></g><g class="x3tick"><text text-anchor="middle" x="0" y="548.4" style="font-family: 'Open Sans', verdana, arial, sans-serif; font-size: 22px; fill: rgb(36, 36, 36); fill-opacity: 1; white-space: pre; opacity: 1;" transform="translate(1159.9499999999998,0)">0.8</text></g><g class="x3tick"><text text-anchor="middle" x="0" y="548.4" style="font-family: 'Open Sans', verdana, arial, sans-serif; font-size: 22px; fill: rgb(36, 36, 36); fill-opacity: 1; white-space: pre; opacity: 1;" transform="translate(1260,0)">1</text></g></g><g class="yaxislayer-above"><path class="y3tick ticks crisp" d="M756.7499999999999,0h-5" transform="translate(0,497.89)" style="stroke: rgb(68, 68, 68); stroke-opacity: 1; stroke-width: 1px;"/><path class="y3tick ticks crisp" d="M756.7499999999999,0h-5" transform="translate(0,458.85)" style="stroke: rgb(68, 68, 68); stroke-opacity: 1; stroke-width: 1px;"/><path class="y3tick ticks crisp" d="M756.7499999999999,0h-5" transform="translate(0,419.81)" style="stroke: rgb(68, 68, 68); stroke-opacity: 1; stroke-width: 1px;"/><path class="y3tick ticks crisp" d="M756.7499999999999,0h-5" transform="translate(0,380.76)" style="stroke: rgb(68, 68, 68); stroke-opacity: 1; stroke-width: 1px;"/><path class="y3tick ticks crisp" d="M756.7499999999999,0h-5" transform="translate(0,341.72)" style="stroke: rgb(68, 68, 68); stroke-opacity: 1; stroke-width: 1px;"/><g class="y3tick"><text text-anchor="end" x="747.3499999999999" y="7.699999999999999" transform="translate(0,497.89)" style="font-family: 'Open Sans', verdana, arial, sans-serif; font-size: 22px; fill: rgb(36, 36, 36); fill-opacity: 1; white-space: pre; opacity: 1;">2</text></g><g class="y3tick"><text text-anchor="end" x="747.3499999999999" y="7.699999999999999" style="font-family: 'Open Sans', verdana, arial, sans-serif; font-size: 22px; fill: rgb(36, 36, 36); fill-opacity: 1; white-space: pre; opacity: 1;" transform="translate(0,458.85)">4</text></g><g class="y3tick"><text text-anchor="end" x="747.3499999999999" y="7.699999999999999" style="font-family: 'Open Sans', verdana, arial, sans-serif; font-size: 22px; fill: rgb(36, 36, 36); fill-opacity: 1; white-space: pre; opacity: 1;" transform="translate(0,419.81)">6</text></g><g class="y3tick"><text text-anchor="end" x="747.3499999999999" y="7.699999999999999" style="font-family: 'Open Sans', verdana, arial, sans-serif; font-size: 22px; fill: rgb(36, 36, 36); fill-opacity: 1; white-space: pre; opacity: 1;" transform="translate(0,380.76)">8</text></g><g class="y3tick"><text text-anchor="end" x="747.3499999999999" y="7.699999999999999" style="font-family: 'Open Sans', verdana, arial, sans-serif; font-size: 22px; fill: rgb(36, 36, 36); fill-opacity: 1; white-space: pre; opacity: 1;" transform="translate(0,341.72)">10</text></g></g><g class="overaxes-above"/></g></g><g class="polarlayer"><g class="polar"><g class="polarsublayer draglayer"/><g class="polarsublayer plotbg"><path d="M207,0A207,207 0,1,0 -207,-2.535018874235021e-14A207,207 0,1,0 207,5.070037748470042e-14Z" transform="translate(360.125,261)" style="fill: rgb(255, 255, 255); fill-opacity: 1;"/></g><g class="polarsublayer backplot"><g class="maplayer"/></g><g class="polarsublayer angular-grid" style="fill: none;"><path class="angularaxisgrid" d="M360.125,261L567.125,261" style="stroke: rgb(128, 128, 128); stroke-opacity: 1; stroke-width: 1px;"/><path class="angularaxisgrid" d="M360.125,261L489.18738898475783,99.16088312911782" style="stroke: rgb(128, 128, 128); stroke-opacity: 1; stroke-width: 1px;"/><path class="angularaxisgrid" d="M360.125,261L314.06316667104295,59.18992217836251" style="stroke: rgb(128, 128, 128); stroke-opacity: 1; stroke-width: 1px;"/><path class="angularaxisgrid" d="M360.125,261L173.62444434419925,171.18606600266543" style="stroke: rgb(128, 128, 128); stroke-opacity: 1; stroke-width: 1px;"/><path class="angularaxisgrid" d="M360.125,261L173.62444434419925,350.8139339973345" style="stroke: rgb(128, 128, 128); stroke-opacity: 1; stroke-width: 1px;"/><path class="angularaxisgrid" d="M360.125,261L314.0631666710429,462.8100778216375" style="stroke: rgb(128, 128, 128); stroke-opacity: 1; stroke-width: 1px;"/><path class="angularaxisgrid" d="M360.125,261L489.18738898475783,422.8391168708822" style="stroke: rgb(128, 128, 128); stroke-opacity: 1; stroke-width: 1px;"/></g><g class="polarsublayer radial-grid" transform="translate(360.125,261)" style="fill: none;"><path class="xgrid" d="M40.99,0A40.99,40.99 0,1,0 -40.99,-5.019827229705001e-15A40.99,40.99 0,1,0 40.99,1.0039654459410003e-14Z" style="stroke: rgb(128, 128, 128); stroke-opacity: 1; stroke-width: 1px;"/><path class="xgrid" d="M81.98,0A81.98,81.98 0,1,0 -81.98,-1.0039654459410003e-14A81.98,81.98 0,1,0 81.98,2.0079308918820006e-14Z" style="stroke: rgb(128, 128, 128); stroke-opacity: 1; stroke-width: 1px;"/><path class="xgrid" d="M122.97,0A122.97,122.97 0,1,0 -122.97,-1.5059481689115003e-14A122.97,122.97 0,1,0 122.97,3.0118963378230007e-14Z" style="stroke: rgb(128, 128, 128); stroke-opacity: 1; stroke-width: 1px;"/><path class="xgrid" d="M163.96,0A163.96,163.96 0,1,0 -163.96,-2.0079308918820006e-14A163.96,163.96 0,1,0 163.96,4.015861783764001e-14Z" style="stroke: rgb(128, 128, 128); stroke-opacity: 1; stroke-width: 1px;"/><path class="xgrid" d="M204.95,0A204.95,204.95 0,1,0 -204.95,-2.5099136148525e-14A204.95,204.95 0,1,0 204.95,5.019827229705e-14Z" style="stroke: rgb(128, 128, 128); stroke-opacity: 1; stroke-width: 1px;"/></g><g class="polarsublayer frontplot" transform="translate(153.125,54)"><g class="barlayer"/><g class="scatterlayer"><g class="trace scatter trace89befb" style="stroke-miterlimit: 2; opacity: 1;"><g class="fills" clip-path="url(#clipcd426apolar-for-traces)"/><g class="errorbars"/><g class="lines"><path class="js-line" d="M247.41,207L323.23,61.25L166.12,27.9L40.81,126.97L38.35,288.22L187.02,294.54L284.35,304L247.41,207" clip-path="url(#clipcd426apolar-for-traces)" style="vector-effect: non-scaling-stroke; fill: none; stroke: rgb(51, 102, 204); stroke-opacity: 1; stroke-width: 3px; opacity: 1;"/></g><g class="points"><path class="point" transform="translate(247.41,207)" d="M5,0A5,5 0 1,1 0,-5A5,5 0 0,1 5,0Z" style="opacity: 1; stroke-width: 0px; fill: rgb(51, 102, 204); fill-opacity: 1;"/><path class="point" transform="translate(323.23,61.25)" d="M5,0A5,5 0 1,1 0,-5A5,5 0 0,1 5,0Z" style="opacity: 1; stroke-width: 0px; fill: rgb(51, 102, 204); fill-opacity: 1;"/><path class="point" transform="translate(166.12,27.9)" d="M5,0A5,5 0 1,1 0,-5A5,5 0 0,1 5,0Z" style="opacity: 1; stroke-width: 0px; fill: rgb(51, 102, 204); fill-opacity: 1;"/><path class="point" transform="translate(40.81,126.97)" d="M5,0A5,5 0 1,1 0,-5A5,5 0 0,1 5,0Z" style="opacity: 1; stroke-width: 0px; fill: rgb(51, 102, 204); fill-opacity: 1;"/><path class="point" transform="translate(38.35,288.22)" d="M5,0A5,5 0 1,1 0,-5A5,5 0 0,1 5,0Z" style="opacity: 1; stroke-width: 0px; fill: rgb(51, 102, 204); fill-opacity: 1;"/><path class="point" transform="translate(187.02,294.54)" d="M5,0A5,5 0 1,1 0,-5A5,5 0 0,1 5,0Z" style="opacity: 1; stroke-width: 0px; fill: rgb(51, 102, 204); fill-opacity: 1;"/><path class="point" transform="translate(284.35,304)" d="M5,0A5,5 0 1,1 0,-5A5,5 0 0,1 5,0Z" style="opacity: 1; stroke-width: 0px; fill: rgb(51, 102, 204); fill-opacity: 1;"/><path class="point" transform="translate(247.41,207)" d="M5,0A5,5 0 1,1 0,-5A5,5 0 0,1 5,0Z" style="opacity: 1; stroke-width: 0px; fill: rgb(51, 102, 204); fill-opacity: 1;"/></g><g class="text"/></g><g class="trace scatter tracea66669" style="stroke-miterlimit: 2; opacity: 1;"><g class="fills" clip-path="url(#clipcd426apolar-for-traces)"/><g class="errorbars"/><g class="lines"><path class="js-line" d="M282.44,207L333.08,48.9L163.99,18.55L32.19,122.82L65.43,275.18L189.15,285.19L283.5,302.93L282.44,207" clip-path="url(#clipcd426apolar-for-traces)" style="vector-effect: non-scaling-stroke; fill: none; stroke: rgb(220, 57, 18); stroke-opacity: 1; stroke-width: 3px; opacity: 1;"/></g><g class="points"><path class="point" transform="translate(282.44,207)" d="M5,0A5,5 0 1,1 0,-5A5,5 0 0,1 5,0Z" style="opacity: 1; stroke-width: 0px; fill: rgb(220, 57, 18); fill-opacity: 1;"/><path class="point" transform="translate(333.08,48.9)" d="M5,0A5,5 0 1,1 0,-5A5,5 0 0,1 5,0Z" style="opacity: 1; stroke-width: 0px; fill: rgb(220, 57, 18); fill-opacity: 1;"/><path class="point" transform="translate(163.99,18.55)" d="M5,0A5,5 0 1,1 0,-5A5,5 0 0,1 5,0Z" style="opacity: 1; stroke-width: 0px; fill: rgb(220, 57, 18); fill-opacity: 1;"/><path class="point" transform="translate(32.19,122.82)" d="M5,0A5,5 0 1,1 0,-5A5,5 0 0,1 5,0Z" style="opacity: 1; stroke-width: 0px; fill: rgb(220, 57, 18); fill-opacity: 1;"/><path class="point" transform="translate(65.43,275.18)" d="M5,0A5,5 0 1,1 0,-5A5,5 0 0,1 5,0Z" style="opacity: 1; stroke-width: 0px; fill: rgb(220, 57, 18); fill-opacity: 1;"/><path class="point" transform="translate(189.15,285.19)" d="M5,0A5,5 0 1,1 0,-5A5,5 0 0,1 5,0Z" style="opacity: 1; stroke-width: 0px; fill: rgb(220, 57, 18); fill-opacity: 1;"/><path class="point" transform="translate(283.5,302.93)" d="M5,0A5,5 0 1,1 0,-5A5,5 0 0,1 5,0Z" style="opacity: 1; stroke-width: 0px; fill: rgb(220, 57, 18); fill-opacity: 1;"/><path class="point" transform="translate(282.44,207)" d="M5,0A5,5 0 1,1 0,-5A5,5 0 0,1 5,0Z" style="opacity: 1; stroke-width: 0px; fill: rgb(220, 57, 18); fill-opacity: 1;"/></g><g class="text"/></g><g class="trace scatter tracecc7d4c" style="stroke-miterlimit: 2; opacity: 1;"><g class="fills" clip-path="url(#clipcd426apolar-for-traces)"/><g class="errorbars"/><g class="lines"><path class="js-line" d="M304.9,207L312.75,74.4L163.07,14.54L51.89,132.3L69.13,273.4L201.66,230.39L283.5,302.93L304.9,207" clip-path="url(#clipcd426apolar-for-traces)" style="vector-effect: non-scaling-stroke; fill: none; stroke: rgb(255, 153, 0); stroke-opacity: 1; stroke-width: 3px; opacity: 1;"/></g><g class="points"><path class="point" transform="translate(304.9,207)" d="M5,0A5,5 0 1,1 0,-5A5,5 0 0,1 5,0Z" style="opacity: 1; stroke-width: 0px; fill: rgb(255, 153, 0); fill-opacity: 1;"/><path class="point" transform="translate(312.75,74.4)" d="M5,0A5,5 0 1,1 0,-5A5,5 0 0,1 5,0Z" style="opacity: 1; stroke-width: 0px; fill: rgb(255, 153, 0); fill-opacity: 1;"/><path class="point" transform="translate(163.07,14.54)" d="M5,0A5,5 0 1,1 0,-5A5,5 0 0,1 5,0Z" style="opacity: 1; stroke-width: 0px; fill: rgb(255, 153, 0); fill-opacity: 1;"/><path class="point" transform="translate(51.89,132.3)" d="M5,0A5,5 0 1,1 0,-5A5,5 0 0,1 5,0Z" style="opacity: 1; stroke-width: 0px; fill: rgb(255, 153, 0); fill-opacity: 1;"/><path class="point" transform="translate(69.13,273.4)" d="M5,0A5,5 0 1,1 0,-5A5,5 0 0,1 5,0Z" style="opacity: 1; stroke-width: 0px; fill: rgb(255, 153, 0); fill-opacity: 1;"/><path class="point" transform="translate(201.66,230.39)" d="M5,0A5,5 0 1,1 0,-5A5,5 0 0,1 5,0Z" style="opacity: 1; stroke-width: 0px; fill: rgb(255, 153, 0); fill-opacity: 1;"/><path class="point" transform="translate(283.5,302.93)" d="M5,0A5,5 0 1,1 0,-5A5,5 0 0,1 5,0Z" style="opacity: 1; stroke-width: 0px; fill: rgb(255, 153, 0); fill-opacity: 1;"/><path class="point" transform="translate(304.9,207)" d="M5,0A5,5 0 1,1 0,-5A5,5 0 0,1 5,0Z" style="opacity: 1; stroke-width: 0px; fill: rgb(255, 153, 0); fill-opacity: 1;"/></g><g class="text"/></g></g></g><g class="polarsublayer angular-line"><path display="none" style="fill: none; stroke: rgb(0, 0, 0); stroke-opacity: 1;"/></g><g class="polarsublayer radial-line"><line x1="0" y1="0" x2="207" y2="0" transform="translate(360.125,261)" stroke-width="1" style="fill: none; stroke: rgb(36, 36, 36); stroke-opacity: 1;"/></g><g class="polarsublayer angular-axis"><path class="angularaxistick ticks" d="M0.5,0h5" transform="translate(567.125,261)" style="stroke: rgb(68, 68, 68); stroke-opacity: 1; stroke-width: 1px;"/><path class="angularaxistick ticks" d="M0.5,0h5" transform="translate(489.18738898475783,99.16088312911782)rotate(-51.42857142857142)" style="stroke: rgb(68, 68, 68); stroke-opacity: 1; stroke-width: 1px;"/><path class="angularaxistick ticks" d="M0.5,0h5" transform="translate(314.06316667104295,59.18992217836251)rotate(-102.85714285714285)" style="stroke: rgb(68, 68, 68); stroke-opacity: 1; stroke-width: 1px;"/><path class="angularaxistick ticks" d="M0.5,0h5" transform="translate(173.62444434419925,171.18606600266543)rotate(-154.28571428571428)" style="stroke: rgb(68, 68, 68); stroke-opacity: 1; stroke-width: 1px;"/><path class="angularaxistick ticks" d="M0.5,0h5" transform="translate(173.62444434419925,350.8139339973345)rotate(-205.7142857142857)" style="stroke: rgb(68, 68, 68); stroke-opacity: 1; stroke-width: 1px;"/><path class="angularaxistick ticks" d="M0.5,0h5" transform="translate(314.0631666710429,462.8100778216375)rotate(-257.14285714285717)" style="stroke: rgb(68, 68, 68); stroke-opacity: 1; stroke-width: 1px;"/><path class="angularaxistick ticks" d="M0.5,0h5" transform="translate(489.18738898475783,422.8391168708822)rotate(-308.57142857142856)" style="stroke: rgb(68, 68, 68); stroke-opacity: 1; stroke-width: 1px;"/><g class="angularaxistick"><text text-anchor="start" x="9.9" y="7.699999999999999" transform="translate(567.125,261)translate(0,-14.3)" style="font-family: 'Open Sans', verdana, arial, sans-serif; font-size: 22px; fill: rgb(36, 36, 36); fill-opacity: 1; white-space: pre; opacity: 1;"><tspan class="line" dy="0em" x="9.9" y="7.699999999999999">Proximity</tspan><tspan class="line" dy="1.3em" x="9.9" y="7.699999999999999">of q​<tspan style="font-size:70%" dy="0.3em">0</tspan><tspan dy="-0.21em">​</tspan> to q​<tspan style="font-size:70%" dy="0.3em">min</tspan><tspan dy="-0.21em">​</tspan></tspan></text></g><g class="angularaxistick"><text text-anchor="start" x="6.1725490384014625" y="-6.379318724980579" transform="translate(489.18738898475783,99.16088312911782)translate(0,-25.480190199292828)" style="font-family: 'Open Sans', verdana, arial, sans-serif; font-size: 22px; fill: rgb(36, 36, 36); fill-opacity: 1; white-space: pre; opacity: 1;"><tspan class="line" dy="0em" x="6.1725490384014625" y="-6.379318724980579">Proximity of</tspan><tspan class="line" dy="1.3em" x="6.1725490384014625" y="-6.379318724980579">q​<tspan style="font-size:70%" dy="0.3em">min</tspan><tspan dy="-0.21em">​</tspan> to 2.2</tspan></text></g><g class="angularaxistick"><text text-anchor="end" x="-2.202957246167512" y="-12.228057952736458" transform="translate(314.06316667104295,59.18992217836251)translate(0,-28.241469144200078)" style="font-family: 'Open Sans', verdana, arial, sans-serif; font-size: 22px; fill: rgb(36, 36, 36); fill-opacity: 1; white-space: pre; opacity: 1;"><tspan class="line" dy="0em" x="-2.202957246167512" y="-12.228057952736458">Proximity of</tspan><tspan class="line" dy="1.3em" x="-2.202957246167512" y="-12.228057952736458">q​<tspan style="font-size:70%" dy="0.3em">min</tspan><tspan dy="-0.21em">​</tspan> to centre</tspan></text></g><g class="angularaxistick"><text text-anchor="end" x="-8.919591792233948" y="0.7329228134675434" transform="translate(173.62444434419925,171.18606600266543)translate(0,-20.504537469381084)" style="font-family: 'Open Sans', verdana, arial, sans-serif; font-size: 22px; fill: rgb(36, 36, 36); fill-opacity: 1; white-space: pre; opacity: 1;"><tspan class="line" dy="0em" x="-8.919591792233948" y="0.7329228134675434">Monotonicity</tspan><tspan class="line" dy="1.3em" x="-8.919591792233948" y="0.7329228134675434">of q</tspan></text></g><g class="angularaxistick"><text text-anchor="end" x="-8.91959179223395" y="20.778351560698727" transform="translate(173.62444434419925,350.8139339973345)translate(0,-8.09546253061892)" style="font-family: 'Open Sans', verdana, arial, sans-serif; font-size: 22px; fill: rgb(36, 36, 36); fill-opacity: 1; white-space: pre; opacity: 1;"><tspan class="line" dy="0em" x="-8.91959179223395" y="20.778351560698727">Monotonicity</tspan><tspan class="line" dy="1.3em" x="-8.91959179223395" y="20.778351560698727">of ∇q</tspan></text></g><g class="angularaxistick"><text text-anchor="end" x="-2.2029572461675144" y="32.81361159006379" transform="translate(314.0631666710429,462.8100778216375)translate(0,-0.3585308557999223)" style="font-family: 'Open Sans', verdana, arial, sans-serif; font-size: 22px; fill: rgb(36, 36, 36); fill-opacity: 1; white-space: pre; opacity: 1;"><tspan class="line" dy="0em" x="-2.2029572461675144" y="32.81361159006379">Location</tspan><tspan class="line" dy="1.3em" x="-2.2029572461675144" y="32.81361159006379">of q = 3</tspan></text></g><g class="angularaxistick"><text text-anchor="start" x="6.172549038401461" y="29.7412957650424" transform="translate(489.18738898475783,422.8391168708822)translate(0,-3.119809800707172)" style="font-family: 'Open Sans', verdana, arial, sans-serif; font-size: 22px; fill: rgb(36, 36, 36); fill-opacity: 1; white-space: pre; opacity: 1;"><tspan class="line" dy="0em" x="6.172549038401461" y="29.7412957650424">Location</tspan><tspan class="line" dy="1.3em" x="6.172549038401461" y="29.7412957650424">of q = 4</tspan></text></g></g><g class="polarsublayer radial-axis" transform="translate(360.125,261)"><path class="xtick ticks" d="M0,0.5v5" transform="" style="stroke: rgb(68, 68, 68); stroke-opacity: 1; stroke-width: 1px;"/><path class="xtick ticks" d="M0,0.5v5" transform="translate(40.99,0)" style="stroke: rgb(68, 68, 68); stroke-opacity: 1; stroke-width: 1px;"/><path class="xtick ticks" d="M0,0.5v5" transform="translate(81.98,0)" style="stroke: rgb(68, 68, 68); stroke-opacity: 1; stroke-width: 1px;"/><path class="xtick ticks" d="M0,0.5v5" transform="translate(122.97,0)" style="stroke: rgb(68, 68, 68); stroke-opacity: 1; stroke-width: 1px;"/><path class="xtick ticks" d="M0,0.5v5" transform="translate(163.96,0)" style="stroke: rgb(68, 68, 68); stroke-opacity: 1; stroke-width: 1px;"/><path class="xtick ticks" d="M0,0.5v5" transform="translate(204.95,0)" style="stroke: rgb(68, 68, 68); stroke-opacity: 1; stroke-width: 1px;"/><g class="xtick"><text text-anchor="middle" x="0" y="31.9" transform="" style="font-family: 'Open Sans', verdana, arial, sans-serif; font-size: 22px; fill: rgb(36, 36, 36); fill-opacity: 1; white-space: pre; opacity: 1;">0</text></g><g class="xtick"><text text-anchor="middle" x="0" y="31.9" transform="translate(40.99,0)" style="font-family: 'Open Sans', verdana, arial, sans-serif; font-size: 22px; fill: rgb(36, 36, 36); fill-opacity: 1; white-space: pre; opacity: 1;">0.2</text></g><g class="xtick"><text text-anchor="middle" x="0" y="31.9" transform="translate(81.98,0)" style="font-family: 'Open Sans', verdana, arial, sans-serif; font-size: 22px; fill: rgb(36, 36, 36); fill-opacity: 1; white-space: pre; opacity: 1;">0.4</text></g><g class="xtick"><text text-anchor="middle" x="0" y="31.9" transform="translate(122.97,0)" style="font-family: 'Open Sans', verdana, arial, sans-serif; font-size: 22px; fill: rgb(36, 36, 36); fill-opacity: 1; white-space: pre; opacity: 1;">0.6</text></g><g class="xtick"><text text-anchor="middle" x="0" y="31.9" transform="translate(163.96,0)" style="font-family: 'Open Sans', verdana, arial, sans-serif; font-size: 22px; fill: rgb(36, 36, 36); fill-opacity: 1; white-space: pre; opacity: 1;">0.8</text></g><g class="xtick"><text text-anchor="middle" x="0" y="31.9" transform="translate(204.95,0)" style="font-family: 'Open Sans', verdana, arial, sans-serif; font-size: 22px; fill: rgb(36, 36, 36); fill-opacity: 1; white-space: pre; opacity: 1;">1</text></g></g></g></g><g class="smithlayer"/><g class="ternarylayer"/><g class="geolayer"/><g class="funnelarealayer"/><g class="pielayer"/><g class="iciclelayer"/><g class="treemaplayer"/><g class="sunburstlayer"/><g class="glimages"/><defs id="topdefs-cd426a"><g class="clips"/><clipPath id="legendcd426a"><rect width="506" height="42" x="0" y="0"/></clipPath></defs><g class="layer-above"><g class="imagelayer"/><g class="shapelayer"/></g><g class="infolayer"><g class="legend" pointer-events="all" transform="translate(754,12)"><rect class="bg" shape-rendering="crispEdges" style="stroke: rgb(68, 68, 68); stroke-opacity: 1; fill: rgb(255, 255, 255); fill-opacity: 1; stroke-width: 0px;" width="506" height="42" x="0" y="0"/><g class="scrollbox" transform="" clip-path="url(#legendcd426a)"><g class="groups" transform=""><g class="traces" transform="translate(0,20.8)" style="opacity: 1;"><text class="legendtext" text-anchor="start" x="40" y="8.58" style="font-family: 'Open Sans', verdana, arial, sans-serif; font-size: 22px; fill: rgb(36, 36, 36); fill-opacity: 1; white-space: pre;">Solution 1/8</text><g class="layers" style="opacity: 1;"><g class="legendfill"/><g class="legendlines"><path class="js-line" d="M5,0h30" style="fill: none; stroke: rgb(51, 102, 204); stroke-opacity: 1; stroke-width: 3px;"/></g><g class="legendsymbols"><g class="legendpoints"/></g></g><rect class="legendtoggle" x="0" y="-15.8" width="166.015625" height="31.6" style="fill: rgb(0, 0, 0); fill-opacity: 0;"/></g></g><g class="groups" transform="translate(168.515625,0)"><g class="traces" transform="translate(0,20.8)" style="opacity: 1;"><text class="legendtext" text-anchor="start" x="40" y="8.58" style="font-family: 'Open Sans', verdana, arial, sans-serif; font-size: 22px; fill: rgb(36, 36, 36); fill-opacity: 1; white-space: pre;">Solution 3/8</text><g class="layers" style="opacity: 1;"><g class="legendfill"/><g class="legendlines"><path class="js-line" d="M5,0h30" style="fill: none; stroke: rgb(220, 57, 18); stroke-opacity: 1; stroke-width: 3px;"/></g><g class="legendsymbols"><g class="legendpoints"/></g></g><rect class="legendtoggle" x="0" y="-15.8" width="166.015625" height="31.6" style="fill: rgb(0, 0, 0); fill-opacity: 0;"/></g></g><g class="groups" transform="translate(337.03125,0)"><g class="traces" transform="translate(0,20.8)" style="opacity: 1;"><text class="legendtext" text-anchor="start" x="40" y="8.58" style="font-family: 'Open Sans', verdana, arial, sans-serif; font-size: 22px; fill: rgb(36, 36, 36); fill-opacity: 1; white-space: pre;">Solution 5/8</text><g class="layers" style="opacity: 1;"><g class="legendfill"/><g class="legendlines"><path class="js-line" d="M5,0h30" style="fill: none; stroke: rgb(255, 153, 0); stroke-opacity: 1; stroke-width: 3px;"/></g><g class="legendsymbols"><g class="legendpoints"/></g></g><rect class="legendtoggle" x="0" y="-15.8" width="166.015625" height="31.6" style="fill: rgb(0, 0, 0); fill-opacity: 0;"/></g></g></g><rect class="scrollbar" rx="20" ry="3" width="0" height="0" style="fill: rgb(128, 139, 164); fill-opacity: 1;" x="0" y="0"/></g><g class="g-gtitle"/><g class="g-polartitle"/><g class="g-xtitle"/><g class="g-x3title"><text class="x3title" x="1009.8749999999999" y="586.10625" text-anchor="middle" style="font-family: 'Open Sans', verdana, arial, sans-serif; font-size: 26px; fill: rgb(36, 36, 36); opacity: 1; font-weight: normal; white-space: pre;">Normalised radius</text></g><g class="g-ytitle"><text class="ytitle" transform="rotate(-90,664.76875,155.2)" x="664.76875" y="155.2" text-anchor="middle" style="font-family: 'Open Sans', verdana, arial, sans-serif; font-size: 26px; fill: rgb(36, 36, 36); opacity: 1; font-weight: normal; white-space: pre;">QECE [W]</text></g><g class="g-y3title"><text class="y3title" transform="rotate(-90,690.4875,412.8)" x="690.4875" y="412.8" text-anchor="middle" style="font-family: 'Open Sans', verdana, arial, sans-serif; font-size: 26px; fill: rgb(36, 36, 36); opacity: 1; font-weight: normal; white-space: pre;">Safety factor</text></g><g class="annotation" data-index="0" style="opacity: 1;"><g class="annotation-text-g" transform="rotate(0,423,572.1999999999999)"><g class="cursor-pointer" transform="translate(283,552)"><rect class="bg" x="0.5" y="0.5" width="280" height="39" style="stroke-width: 1px; stroke: rgb(0, 0, 0); stroke-opacity: 0; fill: rgb(0, 0, 0); fill-opacity: 0;"/><text class="annotation-text" text-anchor="middle" x="140.5" y="30" style="font-family: 'Open Sans', verdana, arial, sans-serif; font-size: 26px; fill: rgb(36, 36, 36); fill-opacity: 1; white-space: pre;">Vector objective values</text></g></g></g></g></svg>