<svg version="1.1" xmlns="http://www.w3.org/2000/svg" xmlns:xlink="http://www.w3.org/1999/xlink" width="230" height="62"><defs><clipPath id="NLBMWCeHAlKC"><path fill="none" stroke="none" d=" M 0 0 L 230 0 L 230 62 L 0 62 L 0 0 Z"/></clipPath></defs><g transform="scale(1,1)" clip-path="url(#NLBMWCeHAlKC)"><g transform="translate(-70,-258)"><path fill="rgb(101,87,210)" stroke="none" paint-order="stroke fill markers" fill-rule="evenodd" d=" M 450 115 L 472 115 C 473.1045694996616 115 474 115.8954305003384 474 117 L 474 139 C 474 140.10456949966158 473.1045694996616 141 472 141 L 450 141 C 448.8954305003384 141 448 140.10456949966158 448 139 L 448 117 C 448 115.8954305003384 448.8954305003384 115 450 115 Z" fill-opacity="1"/><g transform="translate(448,115)"><path fill="none" stroke="rgb(255,255,255)" paint-order="fill stroke markers" d=" M 4.44 13.76 L 9.75 19.07 L 21.99 6.83" stroke-opacity="1" stroke-linecap="square" stroke-miterlimit="10" stroke-width="2.6"/><g transform="translate(-448,-115)"><text fill="rgb(0,0,0)" stroke="none" font-family="geogebra-sans-serif, sans-serif" font-size="32px" font-style="normal" font-weight="normal" text-decoration="normal" x="483" y="140" text-anchor="start" dominant-baseline="alphabetic" fill-opacity="1">Serif</text><g transform="scale(35,35)"><g transform="translate(2.2857142857142856,8.520834857142857)"><path fill="rgb(0,0,0)" stroke="none" paint-order="stroke fill markers" d=" M 0.452 -0.431 L 0.314 0.125 Q 0.31 0.14300000000000002 0.31 0.147 Q 0.31 0.158 0.323 0.161 L 0.323 0.161 Q 0.334 0.163 0.358 0.163 Q 0.382 0.163 0.384 0.17400000000000002 Q 0.384 0.194 0.366 0.194 L 0.264 0.191 L 0.263 0.191 L 0.164 0.194 L 0.163 0.194 Q 0.15 0.194 0.15 0.183 Q 0.158 0.164 0.17300000000000001 0.163 Q 0.225 0.162 0.23600000000000002 0.15 Q 0.241 0.14400000000000002 0.245 0.13 L 0.29 -0.049 Q 0.23 0.011 0.17200000000000001 0.011 Q 0.10200000000000001 0.011 0.065 -0.052000000000000005 Q 0.04 -0.093 0.04 -0.149 Q 0.04 -0.256 0.115 -0.34800000000000003 Q 0.184 -0.433 0.267 -0.441 Q 0.274 -0.442 0.281 -0.442 Q 0.34500000000000003 -0.442 0.374 -0.372 Q 0.395 -0.40800000000000003 0.428 -0.434 L 0.43 -0.435 Q 0.438 -0.441 0.442 -0.441 Q 0.452 -0.441 0.452 -0.431 M 0.17500000000000002 -0.011 Q 0.228 -0.011 0.28300000000000003 -0.076 Q 0.295 -0.091 0.302 -0.10300000000000001 Q 0.308 -0.111 0.356 -0.312 Q 0.36 -0.33 0.36 -0.332 Q 0.36 -0.354 0.342 -0.383 Q 0.32 -0.42 0.281 -0.42 Q 0.232 -0.42 0.188 -0.359 Q 0.17 -0.334 0.157 -0.304 Q 0.129 -0.234 0.115 -0.14300000000000002 Q 0.111 -0.12 0.111 -0.105 Q 0.111 -0.04 0.146 -0.019 L 0.147 -0.018000000000000002 Q 0.159 -0.011 0.17500000000000002 -0.011 Z"/></g><g transform="translate(2.767714285714286,8.107942857142858) scale(0.7,0.7)"><path fill="rgb(0,0,0)" stroke="none" paint-order="stroke fill markers" d=" M 0.661 -0.23 L 0.116 -0.23 Q 0.084 -0.23 0.083 -0.25 Q 0.083 -0.27 0.116 -0.27 L 0.661 -0.27 Q 0.6930000000000001 -0.27 0.6940000000000001 -0.25 Q 0.6940000000000001 -0.23 0.661 -0.23 Z"/></g><g transform="translate(3.3123142857142858,8.107942857142858) scale(0.7,0.7)"><path fill="rgb(0,0,0)" stroke="none" paint-order="stroke fill markers" d=" M 0.294 -0.64 L 0.294 -0.079 Q 0.294 -0.049 0.306 -0.041 Q 0.323 -0.031 0.387 -0.031 L 0.419 -0.031 L 0.419 0 Q 0.384 -0.003 0.257 -0.003 Q 0.13 -0.003 0.095 0 L 0.095 -0.031 L 0.127 -0.031 Q 0.20400000000000001 -0.031 0.215 -0.049 L 0.216 -0.05 Q 0.22 -0.058 0.22 -0.079 L 0.22 -0.597 Q 0.168 -0.5710000000000001 0.089 -0.5710000000000001 L 0.089 -0.602 Q 0.209 -0.602 0.271 -0.666 Q 0.29 -0.666 0.293 -0.659 L 0.293 -0.659 L 0.293 -0.658 Q 0.294 -0.655 0.294 -0.64 Z"/></g><g transform="translate(3.676546628712857,8.520834857142857)"><path fill="rgb(0,0,0)" stroke="none" paint-order="stroke fill markers" d=" M 0.331 0.24 L 0.331 0.24 Q 0.331 0.25 0.321 0.25 Q 0.309 0.25 0.268 0.209 Q 0.20600000000000002 0.147 0.165 0.062 Q 0.099 -0.074 0.099 -0.25 Q 0.099 -0.419 0.162 -0.555 Q 0.214 -0.666 0.294 -0.733 Q 0.315 -0.75 0.321 -0.75 Q 0.331 -0.75 0.331 -0.74 Q 0.331 -0.735 0.318 -0.723 Q 0.157 -0.559 0.157 -0.25 Q 0.157 0.058 0.314 0.218 Q 0.331 0.23500000000000001 0.331 0.24 Z"/></g><g transform="translate(4.065546628712857,8.520834857142857)"><path fill="rgb(0,0,0)" stroke="none" paint-order="stroke fill markers" d=" M 0.088 -0.059000000000000004 L 0.088 -0.059000000000000004 L 0.146 -0.29 Q 0.162 -0.354 0.162 -0.374 Q 0.162 -0.42 0.131 -0.42 Q 0.09 -0.42 0.064 -0.325 Q 0.061 -0.314 0.058 -0.301 Q 0.047 -0.279 0.041 -0.278 Q 0.029 -0.278 0.029 -0.28800000000000003 Q 0.029 -0.304 0.049 -0.36 L 0.049 -0.361 Q 0.049 -0.362 0.05 -0.362 L 0.05 -0.363 L 0.05 -0.364 L 0.059000000000000004 -0.385 Q 0.081 -0.425 0.10400000000000001 -0.435 Q 0.11800000000000001 -0.442 0.134 -0.442 Q 0.19 -0.442 0.215 -0.395 Q 0.224 -0.377 0.226 -0.355 Q 0.29 -0.442 0.382 -0.442 Q 0.468 -0.442 0.491 -0.376 Q 0.497 -0.358 0.497 -0.335 Q 0.497 -0.28400000000000003 0.436 -0.115 Q 0.418 -0.07100000000000001 0.418 -0.044 Q 0.418 -0.011 0.442 -0.011 Q 0.508 -0.011 0.544 -0.135 Q 0.549 -0.151 0.554 -0.152 L 0.554 -0.153 L 0.559 -0.153 Q 0.5710000000000001 -0.153 0.5710000000000001 -0.14300000000000002 Q 0.5710000000000001 -0.126 0.55 -0.08 Q 0.507 0.011 0.44 0.011 Q 0.389 0.011 0.367 -0.032 Q 0.358 -0.05 0.358 -0.07100000000000001 Q 0.358 -0.091 0.368 -0.117 Q 0.433 -0.292 0.433 -0.35000000000000003 Q 0.433 -0.42 0.379 -0.42 Q 0.289 -0.42 0.228 -0.32 Q 0.221 -0.309 0.216 -0.298 L 0.203 -0.248 Q 0.198 -0.225 0.186 -0.181 L 0.164 -0.091 Q 0.147 -0.022 0.145 -0.017 Q 0.136 0.009000000000000001 0.108 0.011 Q 0.083 0.006 0.079 -0.016 Q 0.079 -0.014 0.088 -0.059000000000000004 Z"/></g><g transform="translate(4.665546628712857,8.520834857142857)"><path fill="rgb(0,0,0)" stroke="none" paint-order="stroke fill markers" d=" M 0.289 -0.25 L 0.289 -0.25 Q 0.289 -0.081 0.226 0.055 Q 0.17400000000000002 0.166 0.094 0.233 Q 0.073 0.25 0.067 0.25 Q 0.057 0.25 0.057 0.24 Q 0.057 0.23500000000000001 0.07 0.223 Q 0.231 0.059000000000000004 0.231 -0.25 Q 0.231 -0.555 0.081 -0.712 L 0.076 -0.717 Q 0.057 -0.735 0.057 -0.74 Q 0.057 -0.75 0.067 -0.75 Q 0.079 -0.75 0.12 -0.709 Q 0.182 -0.647 0.223 -0.562 Q 0.289 -0.426 0.289 -0.25 Z"/></g><g transform="translate(5.054546628712857,8.520834857142857)"><path fill="rgb(0,0,0)" stroke="none" paint-order="stroke fill markers" d=" M 0.203 -0.001 L 0.203 -0.001 Q 0.203 0.096 0.14 0.169 Q 0.123 0.189 0.112 0.193 Q 0.10200000000000001 0.193 0.10200000000000001 0.182 Q 0.10200000000000001 0.177 0.113 0.166 Q 0.17300000000000001 0.106 0.18 0.019 Q 0.181 0.009000000000000001 0.181 -0.001 Q 0.181 -0.016 0.179 -0.016 Q 0.178 -0.016 0.17400000000000002 -0.013000000000000001 Q 0.16 0 0.139 0 Q 0.10200000000000001 0 0.09 -0.034 Q 0.08600000000000001 -0.043000000000000003 0.08600000000000001 -0.053 Q 0.08600000000000001 -0.089 0.117 -0.10200000000000001 Q 0.127 -0.106 0.139 -0.106 Q 0.183 -0.106 0.198 -0.048 Q 0.203 -0.027 0.203 -0.001 Z"/></g><g transform="translate(5.665879962046191,8.520834857142857)"><path fill="rgb(0,0,0)" stroke="none" paint-order="stroke fill markers" d=" M 0.088 -0.059000000000000004 L 0.088 -0.059000000000000004 L 0.146 -0.29 Q 0.162 -0.354 0.162 -0.374 Q 0.162 -0.42 0.131 -0.42 Q 0.09 -0.42 0.064 -0.325 Q 0.061 -0.314 0.058 -0.301 Q 0.047 -0.279 0.041 -0.278 Q 0.029 -0.278 0.029 -0.28800000000000003 Q 0.029 -0.304 0.049 -0.36 L 0.049 -0.361 Q 0.049 -0.362 0.05 -0.362 L 0.05 -0.363 L 0.05 -0.364 L 0.059000000000000004 -0.385 Q 0.081 -0.425 0.10400000000000001 -0.435 Q 0.11800000000000001 -0.442 0.134 -0.442 Q 0.19 -0.442 0.215 -0.395 Q 0.224 -0.377 0.226 -0.355 Q 0.29 -0.442 0.382 -0.442 Q 0.468 -0.442 0.491 -0.376 Q 0.497 -0.358 0.497 -0.335 Q 0.497 -0.28400000000000003 0.436 -0.115 Q 0.418 -0.07100000000000001 0.418 -0.044 Q 0.418 -0.011 0.442 -0.011 Q 0.508 -0.011 0.544 -0.135 Q 0.549 -0.151 0.554 -0.152 L 0.554 -0.153 L 0.559 -0.153 Q 0.5710000000000001 -0.153 0.5710000000000001 -0.14300000000000002 Q 0.5710000000000001 -0.126 0.55 -0.08 Q 0.507 0.011 0.44 0.011 Q 0.389 0.011 0.367 -0.032 Q 0.358 -0.05 0.358 -0.07100000000000001 Q 0.358 -0.091 0.368 -0.117 Q 0.433 -0.292 0.433 -0.35000000000000003 Q 0.433 -0.42 0.379 -0.42 Q 0.289 -0.42 0.228 -0.32 Q 0.221 -0.309 0.216 -0.298 L 0.203 -0.248 Q 0.198 -0.225 0.186 -0.181 L 0.164 -0.091 Q 0.147 -0.022 0.145 -0.017 Q 0.136 0.009000000000000001 0.108 0.011 Q 0.083 0.006 0.079 -0.016 Q 0.079 -0.014 0.088 -0.059000000000000004 Z"/></g><g transform="translate(6.543657739823968,8.520834857142857)"><path fill="rgb(0,0,0)" stroke="none" paint-order="stroke fill markers" d=" M 0.55 -0.23 L 0.55 -0.23 L 0.124 -0.23 Q 0.134 -0.11800000000000001 0.226 -0.052000000000000005 Q 0.297 0 0.391 0 L 0.55 0 Q 0.582 0 0.583 0.02 Q 0.583 0.04 0.55 0.04 L 0.388 0.04 Q 0.262 0.04 0.17300000000000001 -0.044 Q 0.083 -0.129 0.083 -0.25 Q 0.083 -0.377 0.179 -0.462 Q 0.268 -0.54 0.387 -0.54 L 0.55 -0.54 Q 0.582 -0.54 0.583 -0.52 Q 0.583 -0.5 0.55 -0.5 L 0.39 -0.5 Q 0.273 -0.5 0.195 -0.422 Q 0.132 -0.359 0.124 -0.27 L 0.55 -0.27 Q 0.582 -0.27 0.583 -0.25 Q 0.583 -0.23 0.55 -0.23 Z"/></g><g transform="translate(7.488435517601745,8.520834857142857)"><path fill="rgb(0,0,0)" stroke="none" paint-order="stroke fill markers" d=" M 0.112 -0.595 Q 0.112 -0.611 0.114 -0.619 Q 0.091 -0.646 0.058 -0.65 Q 0.037 -0.65 0.037 -0.667 Q 0.045 -0.684 0.07 -0.685 L 0.244 -0.685 Q 0.268 -0.685 0.275 -0.678 Q 0.277 -0.675 0.28 -0.671 L 0.582 -0.263 L 0.582 -0.5760000000000001 Q 0.582 -0.628 0.562 -0.641 Q 0.55 -0.648 0.527 -0.65 L 0.518 -0.65 Q 0.489 -0.65 0.489 -0.667 Q 0.497 -0.684 0.523 -0.685 L 0.669 -0.685 Q 0.6960000000000001 -0.685 0.7010000000000001 -0.675 L 0.7010000000000001 -0.674 Q 0.7020000000000001 -0.671 0.7020000000000001 -0.667 Q 0.7020000000000001 -0.65 0.679 -0.65 Q 0.638 -0.649 0.629 -0.626 Q 0.624 -0.612 0.624 -0.579 L 0.624 -0.014 Q 0.62 0.016 0.607 0.019 Q 0.597 0.019 0.586 0.004 L 0.154 -0.5670000000000001 L 0.154 -0.109 Q 0.154 -0.057 0.17500000000000002 -0.044 Q 0.188 -0.036000000000000004 0.217 -0.035 Q 0.247 -0.035 0.247 -0.018000000000000002 Q 0.23900000000000002 -0.001 0.214 0 L 0.059000000000000004 0 Q 0.029 0 0.026000000000000002 -0.012 Q 0.025 -0.015 0.025 -0.018000000000000002 Q 0.025 -0.035 0.053 -0.035 Q 0.098 -0.036000000000000004 0.107 -0.062 Q 0.11 -0.07100000000000001 0.111 -0.083 Q 0.112 -0.093 0.112 -0.107 L 0.112 -0.595 M 0.589 -0.051000000000000004 L 0.589 -0.195 L 0.252 -0.65 L 0.133 -0.65 Q 0.137 -0.646 0.154 -0.626 L 0.589 -0.051000000000000004 Z"/></g></g><path fill="rgb(255,255,255)" stroke="none" paint-order="stroke fill markers" fill-rule="evenodd" d=" M 37.5 109 L 172.5 109 C 174.43299662440776 109 176 110.56700337559222 176 112.5 L 176 140.5 C 176 142.43299662440776 174.43299662440776 144 172.5 144 L 37.5 144 C 35.56700337559222 144 34 142.43299662440776 34 140.5 L 34 112.5 C 34 110.56700337559222 35.56700337559222 109 37.5 109 Z" fill-opacity="1"/><path fill="none" stroke="rgb(179,179,179)" paint-order="fill stroke markers" d=" M 37.5 109 L 172.5 109 C 174.43299662440776 109 176 110.56700337559222 176 112.5 L 176 140.5 C 176 142.43299662440776 174.43299662440776 144 172.5 144 L 37.5 144 C 35.56700337559222 144 34 142.43299662440776 34 140.5 L 34 112.5 C 34 110.56700337559222 35.56700337559222 109 37.5 109 Z" stroke-opacity="1" stroke-linecap="round" stroke-linejoin="round" stroke-miterlimit="10"/><text fill="rgb(0,0,0)" stroke="none" font-family="geogebra-sans-serif, sans-serif" font-size="24px" font-style="normal" font-weight="normal" text-decoration="normal" x="44" y="136" text-anchor="start" dominant-baseline="alphabetic" fill-opacity="1">Show SVG</text><path fill="rgb(255,255,255)" stroke="none" paint-order="stroke fill markers" fill-rule="evenodd" d=" M 204.5 106 L 393.5 106 C 395.4329966244078 106 397 107.56700337559222 397 109.5 L 397 137.5 C 397 139.43299662440776 395.4329966244078 141 393.5 141 L 204.5 141 C 202.56700337559224 141 201 139.43299662440776 201 137.5 L 201 109.5 C 201 107.56700337559222 202.56700337559224 106 204.5 106 Z" fill-opacity="1"/><path fill="none" stroke="rgb(179,179,179)" paint-order="fill stroke markers" d=" M 204.5 106 L 393.5 106 C 395.4329966244078 106 397 107.56700337559222 397 109.5 L 397 137.5 C 397 139.43299662440776 395.4329966244078 141 393.5 141 L 204.5 141 C 202.56700337559224 141 201 139.43299662440776 201 137.5 L 201 109.5 C 201 107.56700337559222 202.56700337559224 106 204.5 106 Z" stroke-opacity="1" stroke-linecap="round" stroke-linejoin="round" stroke-miterlimit="10"/><text fill="rgb(0,0,0)" stroke="none" font-family="geogebra-sans-serif, sans-serif" font-size="24px" font-style="normal" font-weight="normal" text-decoration="normal" x="211" y="133" text-anchor="start" dominant-baseline="alphabetic" fill-opacity="1">Download SVG</text><path fill="rgb(255,255,255)" stroke="none" paint-order="stroke fill markers" fill-rule="evenodd" d=" M 225 30 L 735 30 C 737.2091389993232 30 739 31.790861000676827 739 34 L 739 75 C 739 77.20913899932317 737.2091389993232 79 735 79 L 225 79 C 222.7908610006768 79 221 77.20913899932317 221 75 L 221 34 C 221 31.790861000676827 222.7908610006768 30 225 30 Z" fill-opacity="1"/><path fill="none" stroke="rgb(148,148,148)" paint-order="fill stroke markers" d=" M 225 30 L 735 30 C 737.2091389993232 30 739 31.790861000676827 739 34 L 739 75 C 739 77.20913899932317 737.2091389993232 79 735 79 L 225 79 C 222.7908610006768 79 221 77.20913899932317 221 75 L 221 34 C 221 31.790861000676827 222.7908610006768 30 225 30 Z" stroke-opacity="1" stroke-linecap="round" stroke-linejoin="round" stroke-miterlimit="10"/><text fill="rgb(0,0,0)" stroke="none" font-family="geogebra-sans-serif, sans-serif" font-size="32px" font-style="normal" font-weight="normal" text-decoration="normal" x="223" y="66" text-anchor="start" dominant-baseline="alphabetic" fill-opacity="1">q^{-1} (n),\, n \in \mathbb{N}</text><text fill="rgb(0,0,0)" stroke="none" font-family="geogebra-sans-serif, sans-serif" font-size="32px" font-style="normal" font-weight="normal" text-decoration="normal" x="30" y="66" text-anchor="start" dominant-baseline="alphabetic" fill-opacity="1">Enter LaTeX</text></g></g></g></g></svg>
